G04 #@! TF.GenerationSoftware,KiCad,Pcbnew,(6.0.5)*
G04 #@! TF.CreationDate,2022-12-14T22:29:39+01:00*
G04 #@! TF.ProjectId,Link232-wifi,4c696e6b-3233-4322-9d77-6966692e6b69,rev?*
G04 #@! TF.SameCoordinates,Original*
G04 #@! TF.FileFunction,Copper,L2,Bot*
G04 #@! TF.FilePolarity,Positive*
%FSLAX46Y46*%
G04 Gerber Fmt 4.6, Leading zero omitted, Abs format (unit mm)*
G04 Created by KiCad (PCBNEW (6.0.5)) date 2022-12-14 22:29:39*
%MOMM*%
%LPD*%
G01*
G04 APERTURE LIST*
G04 Aperture macros list*
%AMOutline5P*
0 Free polygon, 5 corners , with rotation*
0 The origin of the aperture is its center*
0 number of corners: always 5*
0 $1 to $10 corner X, Y*
0 $11 Rotation angle, in degrees counterclockwise*
0 create outline with 5 corners*
4,1,5,$1,$2,$3,$4,$5,$6,$7,$8,$9,$10,$1,$2,$11*%
%AMOutline6P*
0 Free polygon, 6 corners , with rotation*
0 The origin of the aperture is its center*
0 number of corners: always 6*
0 $1 to $12 corner X, Y*
0 $13 Rotation angle, in degrees counterclockwise*
0 create outline with 6 corners*
4,1,6,$1,$2,$3,$4,$5,$6,$7,$8,$9,$10,$11,$12,$1,$2,$13*%
%AMOutline7P*
0 Free polygon, 7 corners , with rotation*
0 The origin of the aperture is its center*
0 number of corners: always 7*
0 $1 to $14 corner X, Y*
0 $15 Rotation angle, in degrees counterclockwise*
0 create outline with 7 corners*
4,1,7,$1,$2,$3,$4,$5,$6,$7,$8,$9,$10,$11,$12,$13,$14,$1,$2,$15*%
%AMOutline8P*
0 Free polygon, 8 corners , with rotation*
0 The origin of the aperture is its center*
0 number of corners: always 8*
0 $1 to $16 corner X, Y*
0 $17 Rotation angle, in degrees counterclockwise*
0 create outline with 8 corners*
4,1,8,$1,$2,$3,$4,$5,$6,$7,$8,$9,$10,$11,$12,$13,$14,$15,$16,$1,$2,$17*%
G04 Aperture macros list end*
G04 #@! TA.AperFunction,ComponentPad*
%ADD10R,2.400000X1.600000*%
G04 #@! TD*
G04 #@! TA.AperFunction,ComponentPad*
%ADD11O,2.400000X1.600000*%
G04 #@! TD*
G04 #@! TA.AperFunction,ComponentPad*
%ADD12R,1.700000X1.700000*%
G04 #@! TD*
G04 #@! TA.AperFunction,ComponentPad*
%ADD13O,1.700000X1.700000*%
G04 #@! TD*
G04 #@! TA.AperFunction,ComponentPad*
%ADD14R,1.600000X2.400000*%
G04 #@! TD*
G04 #@! TA.AperFunction,ComponentPad*
%ADD15O,1.600000X2.400000*%
G04 #@! TD*
G04 #@! TA.AperFunction,ComponentPad*
%ADD16C,1.508000*%
G04 #@! TD*
G04 #@! TA.AperFunction,ComponentPad*
%ADD17Outline8P,-0.660400X0.330200X-0.330200X0.660400X0.330200X0.660400X0.660400X0.330200X0.660400X-0.330200X0.330200X-0.660400X-0.330200X-0.660400X-0.660400X-0.330200X90.000000*%
G04 #@! TD*
G04 #@! TA.AperFunction,ComponentPad*
%ADD18C,1.500000*%
G04 #@! TD*
G04 #@! TA.AperFunction,ComponentPad*
%ADD19C,1.600000*%
G04 #@! TD*
G04 #@! TA.AperFunction,ComponentPad*
%ADD20O,1.600000X1.600000*%
G04 #@! TD*
G04 #@! TA.AperFunction,ComponentPad*
%ADD21Outline8P,-0.660400X0.330200X-0.330200X0.660400X0.330200X0.660400X0.660400X0.330200X0.660400X-0.330200X0.330200X-0.660400X-0.330200X-0.660400X-0.660400X-0.330200X270.000000*%
G04 #@! TD*
G04 #@! TA.AperFunction,ViaPad*
%ADD22C,0.800000*%
G04 #@! TD*
G04 #@! TA.AperFunction,Conductor*
%ADD23C,0.250000*%
G04 #@! TD*
G04 APERTURE END LIST*
D10*
X133223000Y-146177000D03*
D11*
X133223000Y-143637000D03*
X133223000Y-141097000D03*
X133223000Y-138557000D03*
X133223000Y-136017000D03*
X133223000Y-133477000D03*
X133223000Y-130937000D03*
X133223000Y-128397000D03*
X133223000Y-125857000D03*
X133223000Y-123317000D03*
X133223000Y-120777000D03*
X133223000Y-118237000D03*
X133223000Y-115697000D03*
X133223000Y-113157000D03*
X133223000Y-110617000D03*
X133223000Y-108077000D03*
X133223000Y-105537000D03*
X133223000Y-102997000D03*
X133223000Y-100457000D03*
X133223000Y-97917000D03*
X117983000Y-97917000D03*
X117983000Y-100457000D03*
X117983000Y-102997000D03*
X117983000Y-105537000D03*
X117983000Y-108077000D03*
X117983000Y-110617000D03*
X117983000Y-113157000D03*
X117983000Y-115697000D03*
X117983000Y-118237000D03*
X117983000Y-120777000D03*
X117983000Y-123317000D03*
X117983000Y-125857000D03*
X117983000Y-128397000D03*
X117983000Y-130937000D03*
X117983000Y-133477000D03*
X117983000Y-136017000D03*
X117983000Y-138557000D03*
X117983000Y-141097000D03*
X117983000Y-143637000D03*
X117983000Y-146177000D03*
D12*
X146700000Y-63500000D03*
D13*
X149240000Y-63500000D03*
X151780000Y-63500000D03*
D14*
X122550000Y-71120000D03*
D15*
X125090000Y-71120000D03*
X127630000Y-71120000D03*
X130170000Y-71120000D03*
X132710000Y-71120000D03*
X135250000Y-71120000D03*
X137790000Y-71120000D03*
X137790000Y-63500000D03*
X135250000Y-63500000D03*
X132710000Y-63500000D03*
X130170000Y-63500000D03*
X127630000Y-63500000D03*
X125090000Y-63500000D03*
X122550000Y-63500000D03*
D14*
X118364000Y-92080000D03*
D15*
X120904000Y-92080000D03*
X123444000Y-92080000D03*
X125984000Y-92080000D03*
X128524000Y-92080000D03*
X131064000Y-92080000D03*
X133604000Y-92080000D03*
X136144000Y-92080000D03*
X138684000Y-92080000D03*
X141224000Y-92080000D03*
X143764000Y-92080000D03*
X146304000Y-92080000D03*
X148844000Y-92080000D03*
X151384000Y-92080000D03*
X151384000Y-76840000D03*
X148844000Y-76840000D03*
X146304000Y-76840000D03*
X143764000Y-76840000D03*
X141224000Y-76840000D03*
X138684000Y-76840000D03*
X136144000Y-76840000D03*
X133604000Y-76840000D03*
X131064000Y-76840000D03*
X128524000Y-76840000D03*
X125984000Y-76840000D03*
X123444000Y-76840000D03*
X120904000Y-76840000D03*
X118364000Y-76840000D03*
D10*
X136144000Y-146177000D03*
D11*
X136144000Y-143637000D03*
X136144000Y-141097000D03*
X136144000Y-138557000D03*
X136144000Y-136017000D03*
X136144000Y-133477000D03*
X136144000Y-130937000D03*
X136144000Y-128397000D03*
X136144000Y-125857000D03*
X136144000Y-123317000D03*
X136144000Y-120777000D03*
X136144000Y-118237000D03*
X136144000Y-115697000D03*
X136144000Y-113157000D03*
X136144000Y-110617000D03*
X136144000Y-108077000D03*
X136144000Y-105537000D03*
X136144000Y-102997000D03*
X136144000Y-100457000D03*
X136144000Y-97917000D03*
X120904000Y-97917000D03*
X120904000Y-100457000D03*
X120904000Y-102997000D03*
X120904000Y-105537000D03*
X120904000Y-108077000D03*
X120904000Y-110617000D03*
X120904000Y-113157000D03*
X120904000Y-115697000D03*
X120904000Y-118237000D03*
X120904000Y-120777000D03*
X120904000Y-123317000D03*
X120904000Y-125857000D03*
X120904000Y-128397000D03*
X120904000Y-130937000D03*
X120904000Y-133477000D03*
X120904000Y-136017000D03*
X120904000Y-138557000D03*
X120904000Y-141097000D03*
X120904000Y-143637000D03*
X120904000Y-146177000D03*
D16*
X160655000Y-67564000D03*
X160655000Y-70104000D03*
X160655000Y-72644000D03*
X160655000Y-75184000D03*
X160655000Y-77724000D03*
X160655000Y-80264000D03*
X160655000Y-82804000D03*
X160655000Y-85344000D03*
X183515000Y-67564000D03*
X183515000Y-70104000D03*
X183515000Y-72644000D03*
X183515000Y-75184000D03*
X183515000Y-77724000D03*
X183515000Y-80264000D03*
X183515000Y-82804000D03*
X183515000Y-85344000D03*
D17*
X151130000Y-73025000D03*
X151130000Y-67945000D03*
D18*
X155829000Y-80481000D03*
X155829000Y-85361000D03*
D12*
X142875000Y-66045000D03*
D13*
X142875000Y-63505000D03*
D19*
X155575000Y-74930000D03*
D20*
X155575000Y-64770000D03*
D21*
X118110000Y-63500000D03*
X118110000Y-68580000D03*
D12*
X168925000Y-100965000D03*
D13*
X171465000Y-100965000D03*
X174005000Y-100965000D03*
D12*
X146055000Y-102875000D03*
D13*
X146055000Y-100335000D03*
X148595000Y-102875000D03*
X148595000Y-100335000D03*
X151135000Y-102875000D03*
X151135000Y-100335000D03*
X153675000Y-102875000D03*
X153675000Y-100335000D03*
X156215000Y-102875000D03*
X156215000Y-100335000D03*
D22*
X156879400Y-88422200D03*
X125446400Y-109069300D03*
X132456100Y-88283500D03*
X124862200Y-102359100D03*
X124862200Y-104054400D03*
X120529600Y-95478600D03*
X129522600Y-67199500D03*
X150598600Y-88668500D03*
X146271800Y-89367500D03*
X159324900Y-88677700D03*
X160341400Y-89686600D03*
X145226200Y-69862900D03*
X156056000Y-78299000D03*
X159377600Y-84712200D03*
X154201300Y-86831700D03*
X127480200Y-132400500D03*
X177432300Y-80264000D03*
X124752000Y-113605400D03*
X141526500Y-88374300D03*
X127488000Y-96098900D03*
X126353400Y-68162700D03*
X133804300Y-69576600D03*
X122720400Y-90232600D03*
X122806200Y-94238300D03*
X128327500Y-67400700D03*
X137829400Y-101310500D03*
X152405000Y-101188600D03*
X132334000Y-78256100D03*
X131317300Y-98277100D03*
D23*
X123444000Y-92080000D02*
X123444000Y-90602300D01*
X143148900Y-87605800D02*
X126440500Y-87605800D01*
X126440500Y-87605800D02*
X123444000Y-90602300D01*
X156421100Y-87963900D02*
X143507000Y-87963900D01*
X143507000Y-87963900D02*
X143148900Y-87605800D01*
X156879400Y-88422200D02*
X156421100Y-87963900D01*
X125984000Y-92080000D02*
X125984000Y-90602300D01*
X125984000Y-90602300D02*
X128302800Y-88283500D01*
X117983000Y-130937000D02*
X120904000Y-130937000D01*
X122381700Y-130937000D02*
X125446400Y-127872300D01*
X128302800Y-88283500D02*
X132456100Y-88283500D01*
X125446400Y-127872300D02*
X125446400Y-109069300D01*
X120904000Y-130937000D02*
X122381700Y-130937000D01*
X124862200Y-102359100D02*
X124862200Y-99811200D01*
X151130000Y-67945000D02*
X150190600Y-67945000D01*
X133223000Y-146177000D02*
X131745300Y-146177000D01*
X137790000Y-71120000D02*
X137790000Y-70520900D01*
X126802500Y-105994700D02*
X126802500Y-141234200D01*
X119368100Y-68898700D02*
X119450500Y-68898700D01*
X147595000Y-70540600D02*
X150190600Y-67945000D01*
X155676400Y-71552000D02*
X152069400Y-67945000D01*
X136144000Y-146177000D02*
X133223000Y-146177000D01*
X126802500Y-141234200D02*
X131745300Y-146177000D01*
X137809700Y-70540600D02*
X147595000Y-70540600D01*
X119049400Y-68580000D02*
X119368100Y-68898700D01*
X136167800Y-68898700D02*
X137790000Y-70520900D01*
X119450500Y-78284300D02*
X118364000Y-79370800D01*
X124862200Y-104054400D02*
X126802500Y-105994700D01*
X183515000Y-82804000D02*
X172263000Y-71552000D01*
X118364000Y-79370800D02*
X118364000Y-92080000D01*
X151130000Y-67945000D02*
X152069400Y-67945000D01*
X119450500Y-68898700D02*
X136167800Y-68898700D01*
X172263000Y-71552000D02*
X155676400Y-71552000D01*
X137790000Y-70520900D02*
X137809700Y-70540600D01*
X124862200Y-99811200D02*
X120529600Y-95478600D01*
X118110000Y-68580000D02*
X119049400Y-68580000D01*
X119450500Y-68898700D02*
X119450500Y-78284300D01*
X120904000Y-92080000D02*
X120904000Y-93557700D01*
X120904000Y-93557700D02*
X124860300Y-97514000D01*
X132710000Y-63500000D02*
X132710000Y-64977700D01*
X131744400Y-64977700D02*
X129522600Y-67199500D01*
X130170000Y-71120000D02*
X130170000Y-72597700D01*
X151130000Y-73025000D02*
X150190600Y-73025000D01*
X136144000Y-97917000D02*
X134666300Y-97917000D01*
X174625000Y-76454000D02*
X183515000Y-85344000D01*
X151130000Y-73025000D02*
X151130000Y-75108300D01*
X155575000Y-74930000D02*
X155142700Y-75362300D01*
X124860300Y-97514000D02*
X132820000Y-97514000D01*
X133223000Y-97917000D02*
X134666300Y-97917000D01*
X151130000Y-75108300D02*
X151384000Y-75362300D01*
X157099000Y-76454000D02*
X174625000Y-76454000D01*
X155142700Y-75362300D02*
X151384000Y-75362300D01*
X155575000Y-74930000D02*
X157099000Y-76454000D01*
X132710000Y-64977700D02*
X131744400Y-64977700D01*
X132820000Y-97514000D02*
X133223000Y-97917000D01*
X151384000Y-76840000D02*
X151384000Y-75362300D01*
X130170000Y-72597700D02*
X149763300Y-72597700D01*
X149763300Y-72597700D02*
X150190600Y-73025000D01*
X132272000Y-89394300D02*
X132272000Y-89394200D01*
X131064000Y-90602300D02*
X132272000Y-89394300D01*
X142897300Y-89394200D02*
X143623000Y-88668500D01*
X131064000Y-92080000D02*
X131064000Y-90602300D01*
X143623000Y-88668500D02*
X150598600Y-88668500D01*
X132272000Y-89394200D02*
X142897300Y-89394200D01*
X145842400Y-89796900D02*
X134409400Y-89796900D01*
X133604000Y-92080000D02*
X133604000Y-90602300D01*
X134409400Y-89796900D02*
X133604000Y-90602300D01*
X146271800Y-89367500D02*
X145842400Y-89796900D01*
X157803000Y-90199600D02*
X159324900Y-88677700D01*
X136546700Y-90199600D02*
X157803000Y-90199600D01*
X136144000Y-90602300D02*
X136546700Y-90199600D01*
X136144000Y-92080000D02*
X136144000Y-90602300D01*
X159425700Y-90602300D02*
X160341400Y-89686600D01*
X138684000Y-90602300D02*
X159425700Y-90602300D01*
X138684000Y-92080000D02*
X138684000Y-90602300D01*
X182422600Y-69011600D02*
X157566600Y-69011600D01*
X148096300Y-66992800D02*
X145226200Y-69862900D01*
X157566600Y-69011600D02*
X155547800Y-66992800D01*
X155547800Y-66992800D02*
X148096300Y-66992800D01*
X183515000Y-70104000D02*
X182422600Y-69011600D01*
X156631000Y-77724000D02*
X156056000Y-78299000D01*
X160655000Y-77724000D02*
X156631000Y-77724000D01*
X157258100Y-86831700D02*
X154201300Y-86831700D01*
X159377600Y-84712200D02*
X157258100Y-86831700D01*
X132553400Y-99187000D02*
X138021200Y-99187000D01*
X138021200Y-99187000D02*
X143650500Y-93557700D01*
X127480200Y-132400500D02*
X127480200Y-104260200D01*
X127480200Y-104260200D02*
X132553400Y-99187000D01*
X143650500Y-93557700D02*
X148844000Y-93557700D01*
X148844000Y-92080000D02*
X148844000Y-93557700D01*
X117983000Y-141097000D02*
X120904000Y-141097000D01*
X120904000Y-138557000D02*
X117983000Y-138557000D01*
X159426600Y-79035600D02*
X149561900Y-79035600D01*
X160655000Y-80264000D02*
X159426600Y-79035600D01*
X149561900Y-79035600D02*
X148844000Y-78317700D01*
X148844000Y-76840000D02*
X148844000Y-78317700D01*
X147424700Y-79438400D02*
X156791600Y-79438400D01*
X158685300Y-81332100D02*
X176364200Y-81332100D01*
X176364200Y-81332100D02*
X177432300Y-80264000D01*
X156791600Y-79438400D02*
X158685300Y-81332100D01*
X146304000Y-76840000D02*
X146304000Y-78317700D01*
X146304000Y-78317700D02*
X147424700Y-79438400D01*
X132085800Y-88961300D02*
X129794000Y-91253100D01*
X141526500Y-88374300D02*
X140939500Y-88961300D01*
X129794000Y-91253100D02*
X129794000Y-93792900D01*
X117983000Y-128397000D02*
X120904000Y-128397000D01*
X129794000Y-93792900D02*
X127488000Y-96098900D01*
X140939500Y-88961300D02*
X132085800Y-88961300D01*
X120904000Y-128397000D02*
X122381700Y-128397000D01*
X122381700Y-128397000D02*
X122381700Y-115975700D01*
X122381700Y-115975700D02*
X124752000Y-113605400D01*
X120904000Y-125857000D02*
X117983000Y-125857000D01*
X120904000Y-123317000D02*
X117983000Y-123317000D01*
X120904000Y-120777000D02*
X117983000Y-120777000D01*
X120904000Y-118237000D02*
X117983000Y-118237000D01*
X120904000Y-115697000D02*
X117983000Y-115697000D01*
X120904000Y-113157000D02*
X117983000Y-113157000D01*
X120904000Y-110617000D02*
X117983000Y-110617000D01*
X135812500Y-68162700D02*
X126353400Y-68162700D01*
X149240000Y-63500000D02*
X148112300Y-63500000D01*
X148112300Y-63500000D02*
X148112300Y-62785100D01*
X147699400Y-62372200D02*
X141603000Y-62372200D01*
X148112300Y-62785100D02*
X147699400Y-62372200D01*
X141603000Y-62372200D02*
X135812500Y-68162700D01*
X126360000Y-71847900D02*
X126360000Y-70426200D01*
X120904000Y-75362300D02*
X122845600Y-75362300D01*
X122845600Y-75362300D02*
X126360000Y-71847900D01*
X127209600Y-69576600D02*
X133804300Y-69576600D01*
X126360000Y-70426200D02*
X127209600Y-69576600D01*
X120904000Y-76840000D02*
X120904000Y-75362300D01*
X120904000Y-100457000D02*
X117983000Y-100457000D01*
X122720400Y-90232600D02*
X122362300Y-90590700D01*
X122362300Y-90590700D02*
X122362300Y-93794400D01*
X122362300Y-93794400D02*
X122806200Y-94238300D01*
X117983000Y-108077000D02*
X120904000Y-108077000D01*
X128327500Y-67400700D02*
X128327500Y-66820200D01*
X128327500Y-66820200D02*
X130170000Y-64977700D01*
X130170000Y-63500000D02*
X130170000Y-64977700D01*
X171465000Y-99837300D02*
X159188800Y-87561100D01*
X171465000Y-100965000D02*
X171465000Y-99837300D01*
X134874000Y-76167000D02*
X133145000Y-74438000D01*
X129470300Y-74438000D02*
X127630000Y-72597700D01*
X133145000Y-74438000D02*
X129470300Y-74438000D01*
X159188800Y-87561100D02*
X144930700Y-87561100D01*
X144930700Y-87561100D02*
X134874000Y-77504400D01*
X127630000Y-71120000D02*
X127630000Y-72597700D01*
X134874000Y-77504400D02*
X134874000Y-76167000D01*
X125090000Y-63500000D02*
X125090000Y-62022300D01*
X125090000Y-62022300D02*
X127630000Y-62022300D01*
X127630000Y-63500000D02*
X127630000Y-62022300D01*
X136144000Y-143637000D02*
X133223000Y-143637000D01*
X136144000Y-141097000D02*
X133223000Y-141097000D01*
X136144000Y-138557000D02*
X133223000Y-138557000D01*
X136144000Y-136017000D02*
X133223000Y-136017000D01*
X136144000Y-133477000D02*
X133223000Y-133477000D01*
X136144000Y-130937000D02*
X133223000Y-130937000D01*
X136144000Y-128397000D02*
X133223000Y-128397000D01*
X136144000Y-125857000D02*
X133223000Y-125857000D01*
X136144000Y-123317000D02*
X133223000Y-123317000D01*
X136144000Y-120777000D02*
X133223000Y-120777000D01*
X146589400Y-99175200D02*
X147467300Y-100053100D01*
X131745300Y-118237000D02*
X131339700Y-117831400D01*
X137548700Y-101988200D02*
X138110100Y-101988200D01*
X138110100Y-101988200D02*
X140923100Y-99175200D01*
X133223000Y-118237000D02*
X131745300Y-118237000D01*
X148595000Y-100335000D02*
X147467300Y-100335000D01*
X137478200Y-101917700D02*
X137548700Y-101988200D01*
X136144000Y-118237000D02*
X133223000Y-118237000D01*
X132334800Y-101917700D02*
X137478200Y-101917700D01*
X131339700Y-102912800D02*
X132334800Y-101917700D01*
X140923100Y-99175200D02*
X146589400Y-99175200D01*
X131339700Y-117831400D02*
X131339700Y-102912800D01*
X147467300Y-100053100D02*
X147467300Y-100335000D01*
X136144000Y-115697000D02*
X133223000Y-115697000D01*
X136144000Y-113157000D02*
X133223000Y-113157000D01*
X140394700Y-98745200D02*
X137829400Y-101310500D01*
X150007300Y-100053100D02*
X148699400Y-98745200D01*
X148699400Y-98745200D02*
X140394700Y-98745200D01*
X151135000Y-100335000D02*
X150007300Y-100335000D01*
X150007300Y-100335000D02*
X150007300Y-100053100D01*
X151648600Y-104002700D02*
X137108600Y-104002700D01*
X152547300Y-102875000D02*
X152547300Y-103104000D01*
X132548800Y-104267000D02*
X131745300Y-105070500D01*
X136844300Y-104267000D02*
X132548800Y-104267000D01*
X152547300Y-103104000D02*
X151648600Y-104002700D01*
X137108600Y-104002700D02*
X136844300Y-104267000D01*
X136144000Y-110617000D02*
X133223000Y-110617000D01*
X153675000Y-102875000D02*
X152547300Y-102875000D01*
X133223000Y-110617000D02*
X131745300Y-110617000D01*
X131745300Y-105070500D02*
X131745300Y-110617000D01*
X152547300Y-101046300D02*
X152405000Y-101188600D01*
X152547300Y-100335000D02*
X152547300Y-101046300D01*
X136144000Y-108077000D02*
X133223000Y-108077000D01*
X153675000Y-100335000D02*
X152547300Y-100335000D01*
X156215000Y-102875000D02*
X155087300Y-102875000D01*
X136144000Y-105537000D02*
X134700700Y-105537000D01*
X155087300Y-103156900D02*
X153838700Y-104405500D01*
X133223000Y-105537000D02*
X134700700Y-105537000D01*
X153838700Y-104405500D02*
X137275500Y-104405500D01*
X137275500Y-104405500D02*
X136144000Y-105537000D01*
X155087300Y-102875000D02*
X155087300Y-103156900D01*
X136144000Y-102997000D02*
X133223000Y-102997000D01*
X152124300Y-101866300D02*
X152685700Y-101866300D01*
X137670900Y-102997000D02*
X139000100Y-101667800D01*
X151925800Y-101667800D02*
X152124300Y-101866300D01*
X152685700Y-101866300D02*
X153089300Y-101462700D01*
X156215000Y-100335000D02*
X155087300Y-100335000D01*
X137621700Y-102997000D02*
X137670900Y-102997000D01*
X139000100Y-101667800D02*
X151925800Y-101667800D01*
X153089300Y-101462700D02*
X154241600Y-101462700D01*
X154241600Y-101462700D02*
X155087300Y-100617000D01*
X136144000Y-102997000D02*
X137621700Y-102997000D01*
X155087300Y-100617000D02*
X155087300Y-100335000D01*
X136144000Y-100457000D02*
X133223000Y-100457000D01*
X119819800Y-97917000D02*
X119819800Y-90770300D01*
X120904000Y-97917000D02*
X119819800Y-97917000D01*
X119819800Y-97917000D02*
X119460700Y-97917000D01*
X117983000Y-97917000D02*
X119460700Y-97917000D01*
X119819800Y-90770300D02*
X132334000Y-78256100D01*
X120904000Y-102997000D02*
X117983000Y-102997000D01*
X120904000Y-105537000D02*
X117983000Y-105537000D01*
X122381700Y-105537000D02*
X124717000Y-103201700D01*
X126392700Y-103201700D02*
X131317300Y-98277100D01*
X120904000Y-105537000D02*
X122381700Y-105537000D01*
X124717000Y-103201700D02*
X126392700Y-103201700D01*
X120904000Y-133477000D02*
X117983000Y-133477000D01*
X120904000Y-136017000D02*
X117983000Y-136017000D01*
X120904000Y-143637000D02*
X117983000Y-143637000D01*
X120904000Y-146177000D02*
X117983000Y-146177000D01*
X145414900Y-64917200D02*
X144002700Y-63505000D01*
X154041900Y-64917200D02*
X145414900Y-64917200D01*
X160655000Y-67564000D02*
X156688700Y-67564000D01*
X156688700Y-67564000D02*
X154041900Y-64917200D01*
X142875000Y-63505000D02*
X144002700Y-63505000D01*
G04 #@! TA.AperFunction,Conductor*
G36*
X131645327Y-101095143D02*
G01*
X131704508Y-101140928D01*
X131816802Y-101301300D01*
X131846953Y-101331451D01*
X131880979Y-101393763D01*
X131875914Y-101464578D01*
X131846953Y-101509641D01*
X130947442Y-102409152D01*
X130939162Y-102416687D01*
X130932682Y-102420800D01*
X130913976Y-102440720D01*
X130886057Y-102470451D01*
X130883302Y-102473293D01*
X130863565Y-102493030D01*
X130861085Y-102496227D01*
X130853382Y-102505247D01*
X130823114Y-102537479D01*
X130819295Y-102544425D01*
X130819293Y-102544428D01*
X130813352Y-102555234D01*
X130802501Y-102571753D01*
X130790086Y-102587759D01*
X130786941Y-102595028D01*
X130786938Y-102595032D01*
X130772526Y-102628337D01*
X130767309Y-102638987D01*
X130746005Y-102677740D01*
X130744034Y-102685415D01*
X130744034Y-102685416D01*
X130740967Y-102697362D01*
X130734563Y-102716066D01*
X130726519Y-102734655D01*
X130725280Y-102742478D01*
X130725277Y-102742488D01*
X130719601Y-102778324D01*
X130717195Y-102789944D01*
X130706200Y-102832770D01*
X130706200Y-102853024D01*
X130704649Y-102872734D01*
X130701480Y-102892743D01*
X130702226Y-102900635D01*
X130705641Y-102936761D01*
X130706200Y-102948619D01*
X130706200Y-117752633D01*
X130705673Y-117763816D01*
X130703998Y-117771309D01*
X130704247Y-117779235D01*
X130704247Y-117779236D01*
X130706138Y-117839386D01*
X130706200Y-117843345D01*
X130706200Y-117871256D01*
X130706697Y-117875190D01*
X130706697Y-117875191D01*
X130706705Y-117875256D01*
X130707638Y-117887093D01*
X130709027Y-117931289D01*
X130714678Y-117950739D01*
X130718687Y-117970100D01*
X130721226Y-117990197D01*
X130724145Y-117997568D01*
X130724145Y-117997570D01*
X130737504Y-118031312D01*
X130741349Y-118042542D01*
X130753682Y-118084993D01*
X130757715Y-118091812D01*
X130757717Y-118091817D01*
X130763993Y-118102428D01*
X130772688Y-118120176D01*
X130780148Y-118139017D01*
X130784810Y-118145433D01*
X130784810Y-118145434D01*
X130806136Y-118174787D01*
X130812652Y-118184707D01*
X130835158Y-118222762D01*
X130840764Y-118228369D01*
X130849480Y-118237085D01*
X130862320Y-118252118D01*
X130874228Y-118268507D01*
X130880335Y-118273559D01*
X130908293Y-118296688D01*
X130917074Y-118304678D01*
X131241653Y-118629258D01*
X131249187Y-118637537D01*
X131253300Y-118644018D01*
X131302952Y-118690644D01*
X131305794Y-118693399D01*
X131325530Y-118713135D01*
X131328727Y-118715615D01*
X131337747Y-118723318D01*
X131369979Y-118753586D01*
X131376925Y-118757405D01*
X131376928Y-118757407D01*
X131387734Y-118763348D01*
X131404253Y-118774199D01*
X131420259Y-118786614D01*
X131427528Y-118789759D01*
X131427532Y-118789762D01*
X131460837Y-118804174D01*
X131471487Y-118809391D01*
X131510240Y-118830695D01*
X131517915Y-118832666D01*
X131517916Y-118832666D01*
X131529862Y-118835733D01*
X131548567Y-118842137D01*
X131567155Y-118850181D01*
X131574978Y-118851420D01*
X131574988Y-118851423D01*
X131610824Y-118857099D01*
X131622449Y-118859506D01*
X131624918Y-118860140D01*
X131685923Y-118896457D01*
X131696793Y-118909910D01*
X131816802Y-119081300D01*
X131978700Y-119243198D01*
X131983208Y-119246355D01*
X131983211Y-119246357D01*
X131999599Y-119257832D01*
X132166251Y-119374523D01*
X132171233Y-119376846D01*
X132171238Y-119376849D01*
X132205457Y-119392805D01*
X132258742Y-119439722D01*
X132278203Y-119507999D01*
X132257661Y-119575959D01*
X132205457Y-119621195D01*
X132171238Y-119637151D01*
X132171233Y-119637154D01*
X132166251Y-119639477D01*
X132124401Y-119668781D01*
X131983211Y-119767643D01*
X131983208Y-119767645D01*
X131978700Y-119770802D01*
X131816802Y-119932700D01*
X131685477Y-120120251D01*
X131683154Y-120125233D01*
X131683151Y-120125238D01*
X131591039Y-120322775D01*
X131588716Y-120327757D01*
X131529457Y-120548913D01*
X131509502Y-120777000D01*
X131529457Y-121005087D01*
X131588716Y-121226243D01*
X131591039Y-121231224D01*
X131591039Y-121231225D01*
X131683151Y-121428762D01*
X131683154Y-121428767D01*
X131685477Y-121433749D01*
X131816802Y-121621300D01*
X131978700Y-121783198D01*
X131983208Y-121786355D01*
X131983211Y-121786357D01*
X131999599Y-121797832D01*
X132166251Y-121914523D01*
X132171233Y-121916846D01*
X132171238Y-121916849D01*
X132205457Y-121932805D01*
X132258742Y-121979722D01*
X132278203Y-122047999D01*
X132257661Y-122115959D01*
X132205457Y-122161195D01*
X132171238Y-122177151D01*
X132171233Y-122177154D01*
X132166251Y-122179477D01*
X132124401Y-122208781D01*
X131983211Y-122307643D01*
X131983208Y-122307645D01*
X131978700Y-122310802D01*
X131816802Y-122472700D01*
X131685477Y-122660251D01*
X131683154Y-122665233D01*
X131683151Y-122665238D01*
X131591039Y-122862775D01*
X131588716Y-122867757D01*
X131529457Y-123088913D01*
X131509502Y-123317000D01*
X131529457Y-123545087D01*
X131588716Y-123766243D01*
X131591039Y-123771224D01*
X131591039Y-123771225D01*
X131683151Y-123968762D01*
X131683154Y-123968767D01*
X131685477Y-123973749D01*
X131816802Y-124161300D01*
X131978700Y-124323198D01*
X131983208Y-124326355D01*
X131983211Y-124326357D01*
X131999599Y-124337832D01*
X132166251Y-124454523D01*
X132171233Y-124456846D01*
X132171238Y-124456849D01*
X132205457Y-124472805D01*
X132258742Y-124519722D01*
X132278203Y-124587999D01*
X132257661Y-124655959D01*
X132205457Y-124701195D01*
X132171238Y-124717151D01*
X132171233Y-124717154D01*
X132166251Y-124719477D01*
X132124401Y-124748781D01*
X131983211Y-124847643D01*
X131983208Y-124847645D01*
X131978700Y-124850802D01*
X131816802Y-125012700D01*
X131685477Y-125200251D01*
X131683154Y-125205233D01*
X131683151Y-125205238D01*
X131591039Y-125402775D01*
X131588716Y-125407757D01*
X131529457Y-125628913D01*
X131509502Y-125857000D01*
X131529457Y-126085087D01*
X131588716Y-126306243D01*
X131591039Y-126311224D01*
X131591039Y-126311225D01*
X131683151Y-126508762D01*
X131683154Y-126508767D01*
X131685477Y-126513749D01*
X131816802Y-126701300D01*
X131978700Y-126863198D01*
X131983208Y-126866355D01*
X131983211Y-126866357D01*
X131999599Y-126877832D01*
X132166251Y-126994523D01*
X132171233Y-126996846D01*
X132171238Y-126996849D01*
X132205457Y-127012805D01*
X132258742Y-127059722D01*
X132278203Y-127127999D01*
X132257661Y-127195959D01*
X132205457Y-127241195D01*
X132171238Y-127257151D01*
X132171233Y-127257154D01*
X132166251Y-127259477D01*
X132124401Y-127288781D01*
X131983211Y-127387643D01*
X131983208Y-127387645D01*
X131978700Y-127390802D01*
X131816802Y-127552700D01*
X131813645Y-127557208D01*
X131813643Y-127557211D01*
X131765598Y-127625826D01*
X131685477Y-127740251D01*
X131683154Y-127745233D01*
X131683151Y-127745238D01*
X131605219Y-127912365D01*
X131588716Y-127947757D01*
X131587294Y-127953065D01*
X131587293Y-127953067D01*
X131545950Y-128107360D01*
X131529457Y-128168913D01*
X131509502Y-128397000D01*
X131529457Y-128625087D01*
X131530881Y-128630400D01*
X131530881Y-128630402D01*
X131570458Y-128778102D01*
X131588716Y-128846243D01*
X131591039Y-128851224D01*
X131591039Y-128851225D01*
X131683151Y-129048762D01*
X131683154Y-129048767D01*
X131685477Y-129053749D01*
X131816802Y-129241300D01*
X131978700Y-129403198D01*
X131983208Y-129406355D01*
X131983211Y-129406357D01*
X131999599Y-129417832D01*
X132166251Y-129534523D01*
X132171233Y-129536846D01*
X132171238Y-129536849D01*
X132205457Y-129552805D01*
X132258742Y-129599722D01*
X132278203Y-129667999D01*
X132257661Y-129735959D01*
X132205457Y-129781195D01*
X132171238Y-129797151D01*
X132171233Y-129797154D01*
X132166251Y-129799477D01*
X132124401Y-129828781D01*
X131983211Y-129927643D01*
X131983208Y-129927645D01*
X131978700Y-129930802D01*
X131816802Y-130092700D01*
X131685477Y-130280251D01*
X131683154Y-130285233D01*
X131683151Y-130285238D01*
X131591039Y-130482775D01*
X131588716Y-130487757D01*
X131529457Y-130708913D01*
X131509502Y-130937000D01*
X131529457Y-131165087D01*
X131530881Y-131170400D01*
X131530881Y-131170402D01*
X131583934Y-131368395D01*
X131588716Y-131386243D01*
X131591039Y-131391224D01*
X131591039Y-131391225D01*
X131683151Y-131588762D01*
X131683154Y-131588767D01*
X131685477Y-131593749D01*
X131688634Y-131598257D01*
X131806157Y-131766097D01*
X131816802Y-131781300D01*
X131978700Y-131943198D01*
X131983208Y-131946355D01*
X131983211Y-131946357D01*
X131999599Y-131957832D01*
X132166251Y-132074523D01*
X132171233Y-132076846D01*
X132171238Y-132076849D01*
X132205457Y-132092805D01*
X132258742Y-132139722D01*
X132278203Y-132207999D01*
X132257661Y-132275959D01*
X132205457Y-132321195D01*
X132171238Y-132337151D01*
X132171233Y-132337154D01*
X132166251Y-132339477D01*
X132124401Y-132368781D01*
X131983211Y-132467643D01*
X131983208Y-132467645D01*
X131978700Y-132470802D01*
X131816802Y-132632700D01*
X131685477Y-132820251D01*
X131683154Y-132825233D01*
X131683151Y-132825238D01*
X131591039Y-133022775D01*
X131588716Y-133027757D01*
X131529457Y-133248913D01*
X131509502Y-133477000D01*
X131529457Y-133705087D01*
X131588716Y-133926243D01*
X131591039Y-133931224D01*
X131591039Y-133931225D01*
X131683151Y-134128762D01*
X131683154Y-134128767D01*
X131685477Y-134133749D01*
X131816802Y-134321300D01*
X131978700Y-134483198D01*
X131983208Y-134486355D01*
X131983211Y-134486357D01*
X131999599Y-134497832D01*
X132166251Y-134614523D01*
X132171233Y-134616846D01*
X132171238Y-134616849D01*
X132205457Y-134632805D01*
X132258742Y-134679722D01*
X132278203Y-134747999D01*
X132257661Y-134815959D01*
X132205457Y-134861195D01*
X132171238Y-134877151D01*
X132171233Y-134877154D01*
X132166251Y-134879477D01*
X132124401Y-134908781D01*
X131983211Y-135007643D01*
X131983208Y-135007645D01*
X131978700Y-135010802D01*
X131816802Y-135172700D01*
X131685477Y-135360251D01*
X131683154Y-135365233D01*
X131683151Y-135365238D01*
X131591039Y-135562775D01*
X131588716Y-135567757D01*
X131529457Y-135788913D01*
X131509502Y-136017000D01*
X131529457Y-136245087D01*
X131588716Y-136466243D01*
X131591039Y-136471224D01*
X131591039Y-136471225D01*
X131683151Y-136668762D01*
X131683154Y-136668767D01*
X131685477Y-136673749D01*
X131816802Y-136861300D01*
X131978700Y-137023198D01*
X131983208Y-137026355D01*
X131983211Y-137026357D01*
X131999599Y-137037832D01*
X132166251Y-137154523D01*
X132171233Y-137156846D01*
X132171238Y-137156849D01*
X132205457Y-137172805D01*
X132258742Y-137219722D01*
X132278203Y-137287999D01*
X132257661Y-137355959D01*
X132205457Y-137401195D01*
X132171238Y-137417151D01*
X132171233Y-137417154D01*
X132166251Y-137419477D01*
X132124401Y-137448781D01*
X131983211Y-137547643D01*
X131983208Y-137547645D01*
X131978700Y-137550802D01*
X131816802Y-137712700D01*
X131685477Y-137900251D01*
X131683154Y-137905233D01*
X131683151Y-137905238D01*
X131591039Y-138102775D01*
X131588716Y-138107757D01*
X131529457Y-138328913D01*
X131509502Y-138557000D01*
X131529457Y-138785087D01*
X131588716Y-139006243D01*
X131591039Y-139011224D01*
X131591039Y-139011225D01*
X131683151Y-139208762D01*
X131683154Y-139208767D01*
X131685477Y-139213749D01*
X131816802Y-139401300D01*
X131978700Y-139563198D01*
X131983208Y-139566355D01*
X131983211Y-139566357D01*
X131999599Y-139577832D01*
X132166251Y-139694523D01*
X132171233Y-139696846D01*
X132171238Y-139696849D01*
X132205457Y-139712805D01*
X132258742Y-139759722D01*
X132278203Y-139827999D01*
X132257661Y-139895959D01*
X132205457Y-139941195D01*
X132171238Y-139957151D01*
X132171233Y-139957154D01*
X132166251Y-139959477D01*
X132124401Y-139988781D01*
X131983211Y-140087643D01*
X131983208Y-140087645D01*
X131978700Y-140090802D01*
X131816802Y-140252700D01*
X131685477Y-140440251D01*
X131683154Y-140445233D01*
X131683151Y-140445238D01*
X131591039Y-140642775D01*
X131588716Y-140647757D01*
X131529457Y-140868913D01*
X131509502Y-141097000D01*
X131529457Y-141325087D01*
X131588716Y-141546243D01*
X131591039Y-141551224D01*
X131591039Y-141551225D01*
X131683151Y-141748762D01*
X131683154Y-141748767D01*
X131685477Y-141753749D01*
X131816802Y-141941300D01*
X131978700Y-142103198D01*
X131983208Y-142106355D01*
X131983211Y-142106357D01*
X131999599Y-142117832D01*
X132166251Y-142234523D01*
X132171233Y-142236846D01*
X132171238Y-142236849D01*
X132205457Y-142252805D01*
X132258742Y-142299722D01*
X132278203Y-142367999D01*
X132257661Y-142435959D01*
X132205457Y-142481195D01*
X132171238Y-142497151D01*
X132171233Y-142497154D01*
X132166251Y-142499477D01*
X132124401Y-142528781D01*
X131983211Y-142627643D01*
X131983208Y-142627645D01*
X131978700Y-142630802D01*
X131816802Y-142792700D01*
X131685477Y-142980251D01*
X131683154Y-142985233D01*
X131683151Y-142985238D01*
X131591039Y-143182775D01*
X131588716Y-143187757D01*
X131529457Y-143408913D01*
X131509502Y-143637000D01*
X131529457Y-143865087D01*
X131588716Y-144086243D01*
X131591039Y-144091224D01*
X131591039Y-144091225D01*
X131683151Y-144288762D01*
X131683154Y-144288767D01*
X131685477Y-144293749D01*
X131816802Y-144481300D01*
X131978700Y-144643198D01*
X131983211Y-144646357D01*
X131987424Y-144649892D01*
X131986612Y-144650860D01*
X132027090Y-144701494D01*
X132034404Y-144772113D01*
X132002376Y-144835476D01*
X131941177Y-144871464D01*
X131924099Y-144874520D01*
X131920648Y-144874895D01*
X131905396Y-144878521D01*
X131784946Y-144923676D01*
X131769351Y-144932214D01*
X131667276Y-145008715D01*
X131654715Y-145021276D01*
X131578214Y-145123351D01*
X131569676Y-145138946D01*
X131524522Y-145259394D01*
X131520895Y-145274649D01*
X131515369Y-145325514D01*
X131515000Y-145332328D01*
X131515000Y-145904885D01*
X131519475Y-145920124D01*
X131520865Y-145921329D01*
X131528548Y-145923000D01*
X136272000Y-145923000D01*
X136340121Y-145943002D01*
X136386614Y-145996658D01*
X136398000Y-146049000D01*
X136398000Y-147466884D01*
X136402475Y-147482123D01*
X136403865Y-147483328D01*
X136411548Y-147484999D01*
X137116600Y-147484999D01*
X137184721Y-147505001D01*
X137231214Y-147558657D01*
X137242600Y-147610999D01*
X137242600Y-147869100D01*
X137222598Y-147937221D01*
X137168942Y-147983714D01*
X137116600Y-147995100D01*
X116885600Y-147995100D01*
X116817479Y-147975098D01*
X116770986Y-147921442D01*
X116759600Y-147869100D01*
X116759600Y-147434593D01*
X116779602Y-147366472D01*
X116833258Y-147319979D01*
X116903532Y-147309875D01*
X116938850Y-147320398D01*
X117133757Y-147411284D01*
X117139065Y-147412706D01*
X117139067Y-147412707D01*
X117349598Y-147469119D01*
X117349600Y-147469119D01*
X117354913Y-147470543D01*
X117452778Y-147479105D01*
X117523149Y-147485262D01*
X117523156Y-147485262D01*
X117525873Y-147485500D01*
X118440127Y-147485500D01*
X118442844Y-147485262D01*
X118442851Y-147485262D01*
X118513222Y-147479105D01*
X118611087Y-147470543D01*
X118616400Y-147469119D01*
X118616402Y-147469119D01*
X118826933Y-147412707D01*
X118826935Y-147412706D01*
X118832243Y-147411284D01*
X118837225Y-147408961D01*
X119034762Y-147316849D01*
X119034767Y-147316846D01*
X119039749Y-147314523D01*
X119206401Y-147197832D01*
X119222789Y-147186357D01*
X119222792Y-147186355D01*
X119227300Y-147183198D01*
X119354405Y-147056093D01*
X119416717Y-147022067D01*
X119487532Y-147027132D01*
X119532595Y-147056093D01*
X119659700Y-147183198D01*
X119664208Y-147186355D01*
X119664211Y-147186357D01*
X119680599Y-147197832D01*
X119847251Y-147314523D01*
X119852233Y-147316846D01*
X119852238Y-147316849D01*
X120049775Y-147408961D01*
X120054757Y-147411284D01*
X120060065Y-147412706D01*
X120060067Y-147412707D01*
X120270598Y-147469119D01*
X120270600Y-147469119D01*
X120275913Y-147470543D01*
X120373778Y-147479105D01*
X120444149Y-147485262D01*
X120444156Y-147485262D01*
X120446873Y-147485500D01*
X121361127Y-147485500D01*
X121363844Y-147485262D01*
X121363851Y-147485262D01*
X121434222Y-147479105D01*
X121532087Y-147470543D01*
X121537400Y-147469119D01*
X121537402Y-147469119D01*
X121747933Y-147412707D01*
X121747935Y-147412706D01*
X121753243Y-147411284D01*
X121758225Y-147408961D01*
X121955762Y-147316849D01*
X121955767Y-147316846D01*
X121960749Y-147314523D01*
X122127401Y-147197832D01*
X122143789Y-147186357D01*
X122143792Y-147186355D01*
X122148300Y-147183198D01*
X122309829Y-147021669D01*
X131515001Y-147021669D01*
X131515371Y-147028490D01*
X131520895Y-147079352D01*
X131524521Y-147094604D01*
X131569676Y-147215054D01*
X131578214Y-147230649D01*
X131654715Y-147332724D01*
X131667276Y-147345285D01*
X131769351Y-147421786D01*
X131784946Y-147430324D01*
X131905394Y-147475478D01*
X131920649Y-147479105D01*
X131971514Y-147484631D01*
X131978328Y-147485000D01*
X132950885Y-147485000D01*
X132966124Y-147480525D01*
X132967329Y-147479135D01*
X132969000Y-147471452D01*
X132969000Y-147466884D01*
X133477000Y-147466884D01*
X133481475Y-147482123D01*
X133482865Y-147483328D01*
X133490548Y-147484999D01*
X134467669Y-147484999D01*
X134474490Y-147484629D01*
X134525352Y-147479105D01*
X134540607Y-147475478D01*
X134639271Y-147438491D01*
X134710078Y-147433308D01*
X134727729Y-147438491D01*
X134826391Y-147475478D01*
X134841649Y-147479105D01*
X134892514Y-147484631D01*
X134899328Y-147485000D01*
X135871885Y-147485000D01*
X135887124Y-147480525D01*
X135888329Y-147479135D01*
X135890000Y-147471452D01*
X135890000Y-146449115D01*
X135885525Y-146433876D01*
X135884135Y-146432671D01*
X135876452Y-146431000D01*
X133495115Y-146431000D01*
X133479876Y-146435475D01*
X133478671Y-146436865D01*
X133477000Y-146444548D01*
X133477000Y-147466884D01*
X132969000Y-147466884D01*
X132969000Y-146449115D01*
X132964525Y-146433876D01*
X132963135Y-146432671D01*
X132955452Y-146431000D01*
X131533116Y-146431000D01*
X131517877Y-146435475D01*
X131516672Y-146436865D01*
X131515001Y-146444548D01*
X131515001Y-147021669D01*
X122309829Y-147021669D01*
X122310198Y-147021300D01*
X122441523Y-146833749D01*
X122443846Y-146828767D01*
X122443849Y-146828762D01*
X122535961Y-146631225D01*
X122535961Y-146631224D01*
X122538284Y-146626243D01*
X122586970Y-146444548D01*
X122596119Y-146410402D01*
X122596119Y-146410400D01*
X122597543Y-146405087D01*
X122617498Y-146177000D01*
X122597543Y-145948913D01*
X122538284Y-145727757D01*
X122535961Y-145722775D01*
X122443849Y-145525238D01*
X122443846Y-145525233D01*
X122441523Y-145520251D01*
X122310198Y-145332700D01*
X122148300Y-145170802D01*
X122143792Y-145167645D01*
X122143789Y-145167643D01*
X122065611Y-145112902D01*
X121960749Y-145039477D01*
X121955767Y-145037154D01*
X121955762Y-145037151D01*
X121921543Y-145021195D01*
X121868258Y-144974278D01*
X121848797Y-144906001D01*
X121869339Y-144838041D01*
X121921543Y-144792805D01*
X121955762Y-144776849D01*
X121955767Y-144776846D01*
X121960749Y-144774523D01*
X122138740Y-144649892D01*
X122143789Y-144646357D01*
X122143792Y-144646355D01*
X122148300Y-144643198D01*
X122310198Y-144481300D01*
X122441523Y-144293749D01*
X122443846Y-144288767D01*
X122443849Y-144288762D01*
X122535961Y-144091225D01*
X122535961Y-144091224D01*
X122538284Y-144086243D01*
X122597543Y-143865087D01*
X122617498Y-143637000D01*
X122597543Y-143408913D01*
X122538284Y-143187757D01*
X122535961Y-143182775D01*
X122443849Y-142985238D01*
X122443846Y-142985233D01*
X122441523Y-142980251D01*
X122310198Y-142792700D01*
X122148300Y-142630802D01*
X122143792Y-142627645D01*
X122143789Y-142627643D01*
X122002599Y-142528781D01*
X121960749Y-142499477D01*
X121955767Y-142497154D01*
X121955762Y-142497151D01*
X121921543Y-142481195D01*
X121868258Y-142434278D01*
X121848797Y-142366001D01*
X121869339Y-142298041D01*
X121921543Y-142252805D01*
X121955762Y-142236849D01*
X121955767Y-142236846D01*
X121960749Y-142234523D01*
X122127401Y-142117832D01*
X122143789Y-142106357D01*
X122143792Y-142106355D01*
X122148300Y-142103198D01*
X122310198Y-141941300D01*
X122441523Y-141753749D01*
X122443846Y-141748767D01*
X122443849Y-141748762D01*
X122535961Y-141551225D01*
X122535961Y-141551224D01*
X122538284Y-141546243D01*
X122597543Y-141325087D01*
X122617498Y-141097000D01*
X122597543Y-140868913D01*
X122538284Y-140647757D01*
X122535961Y-140642775D01*
X122443849Y-140445238D01*
X122443846Y-140445233D01*
X122441523Y-140440251D01*
X122310198Y-140252700D01*
X122148300Y-140090802D01*
X122143792Y-140087645D01*
X122143789Y-140087643D01*
X122002599Y-139988781D01*
X121960749Y-139959477D01*
X121955767Y-139957154D01*
X121955762Y-139957151D01*
X121921543Y-139941195D01*
X121868258Y-139894278D01*
X121848797Y-139826001D01*
X121869339Y-139758041D01*
X121921543Y-139712805D01*
X121955762Y-139696849D01*
X121955767Y-139696846D01*
X121960749Y-139694523D01*
X122127401Y-139577832D01*
X122143789Y-139566357D01*
X122143792Y-139566355D01*
X122148300Y-139563198D01*
X122310198Y-139401300D01*
X122441523Y-139213749D01*
X122443846Y-139208767D01*
X122443849Y-139208762D01*
X122535961Y-139011225D01*
X122535961Y-139011224D01*
X122538284Y-139006243D01*
X122597543Y-138785087D01*
X122617498Y-138557000D01*
X122597543Y-138328913D01*
X122538284Y-138107757D01*
X122535961Y-138102775D01*
X122443849Y-137905238D01*
X122443846Y-137905233D01*
X122441523Y-137900251D01*
X122310198Y-137712700D01*
X122148300Y-137550802D01*
X122143792Y-137547645D01*
X122143789Y-137547643D01*
X122002599Y-137448781D01*
X121960749Y-137419477D01*
X121955767Y-137417154D01*
X121955762Y-137417151D01*
X121921543Y-137401195D01*
X121868258Y-137354278D01*
X121848797Y-137286001D01*
X121869339Y-137218041D01*
X121921543Y-137172805D01*
X121955762Y-137156849D01*
X121955767Y-137156846D01*
X121960749Y-137154523D01*
X122127401Y-137037832D01*
X122143789Y-137026357D01*
X122143792Y-137026355D01*
X122148300Y-137023198D01*
X122310198Y-136861300D01*
X122441523Y-136673749D01*
X122443846Y-136668767D01*
X122443849Y-136668762D01*
X122535961Y-136471225D01*
X122535961Y-136471224D01*
X122538284Y-136466243D01*
X122597543Y-136245087D01*
X122617498Y-136017000D01*
X122597543Y-135788913D01*
X122538284Y-135567757D01*
X122535961Y-135562775D01*
X122443849Y-135365238D01*
X122443846Y-135365233D01*
X122441523Y-135360251D01*
X122310198Y-135172700D01*
X122148300Y-135010802D01*
X122143792Y-135007645D01*
X122143789Y-135007643D01*
X122002599Y-134908781D01*
X121960749Y-134879477D01*
X121955767Y-134877154D01*
X121955762Y-134877151D01*
X121921543Y-134861195D01*
X121868258Y-134814278D01*
X121848797Y-134746001D01*
X121869339Y-134678041D01*
X121921543Y-134632805D01*
X121955762Y-134616849D01*
X121955767Y-134616846D01*
X121960749Y-134614523D01*
X122127401Y-134497832D01*
X122143789Y-134486357D01*
X122143792Y-134486355D01*
X122148300Y-134483198D01*
X122310198Y-134321300D01*
X122441523Y-134133749D01*
X122443846Y-134128767D01*
X122443849Y-134128762D01*
X122535961Y-133931225D01*
X122535961Y-133931224D01*
X122538284Y-133926243D01*
X122597543Y-133705087D01*
X122617498Y-133477000D01*
X122597543Y-133248913D01*
X122538284Y-133027757D01*
X122535961Y-133022775D01*
X122443849Y-132825238D01*
X122443846Y-132825233D01*
X122441523Y-132820251D01*
X122310198Y-132632700D01*
X122148300Y-132470802D01*
X122143792Y-132467645D01*
X122143789Y-132467643D01*
X122002599Y-132368781D01*
X121960749Y-132339477D01*
X121955767Y-132337154D01*
X121955762Y-132337151D01*
X121921543Y-132321195D01*
X121868258Y-132274278D01*
X121848797Y-132206001D01*
X121869339Y-132138041D01*
X121921543Y-132092805D01*
X121955762Y-132076849D01*
X121955767Y-132076846D01*
X121960749Y-132074523D01*
X122127401Y-131957832D01*
X122143789Y-131946357D01*
X122143792Y-131946355D01*
X122148300Y-131943198D01*
X122310198Y-131781300D01*
X122320844Y-131766097D01*
X122428762Y-131611973D01*
X122484219Y-131567645D01*
X122496821Y-131563248D01*
X122501045Y-131562021D01*
X122520400Y-131558013D01*
X122532630Y-131556468D01*
X122532631Y-131556468D01*
X122540497Y-131555474D01*
X122547868Y-131552555D01*
X122547870Y-131552555D01*
X122581612Y-131539196D01*
X122592842Y-131535351D01*
X122627683Y-131525229D01*
X122627684Y-131525229D01*
X122635293Y-131523018D01*
X122642112Y-131518985D01*
X122642117Y-131518983D01*
X122652728Y-131512707D01*
X122670476Y-131504012D01*
X122689317Y-131496552D01*
X122725087Y-131470564D01*
X122735007Y-131464048D01*
X122766235Y-131445580D01*
X122766238Y-131445578D01*
X122773062Y-131441542D01*
X122787383Y-131427221D01*
X122802417Y-131414380D01*
X122812394Y-131407131D01*
X122818807Y-131402472D01*
X122846998Y-131368395D01*
X122854988Y-131359616D01*
X125838647Y-128375957D01*
X125846937Y-128368413D01*
X125853418Y-128364300D01*
X125900059Y-128314632D01*
X125902813Y-128311791D01*
X125922534Y-128292070D01*
X125925012Y-128288875D01*
X125932718Y-128279853D01*
X125957558Y-128253401D01*
X125962986Y-128247621D01*
X125972746Y-128229868D01*
X125983599Y-128213345D01*
X125991153Y-128203606D01*
X125996013Y-128197341D01*
X126013576Y-128156757D01*
X126018783Y-128146127D01*
X126040095Y-128107360D01*
X126042066Y-128099683D01*
X126042068Y-128099678D01*
X126045132Y-128087742D01*
X126051538Y-128069030D01*
X126056433Y-128057719D01*
X126059581Y-128050445D01*
X126060821Y-128042617D01*
X126060823Y-128042610D01*
X126066499Y-128006776D01*
X126068905Y-127995156D01*
X126077928Y-127960011D01*
X126077928Y-127960010D01*
X126079900Y-127952330D01*
X126079900Y-127932076D01*
X126081451Y-127912365D01*
X126083380Y-127900186D01*
X126084620Y-127892357D01*
X126080459Y-127848338D01*
X126079900Y-127836481D01*
X126079900Y-109771824D01*
X126099902Y-109703703D01*
X126112258Y-109687521D01*
X126185440Y-109606244D01*
X126280927Y-109440856D01*
X126339942Y-109259228D01*
X126344973Y-109211366D01*
X126359214Y-109075865D01*
X126359904Y-109069300D01*
X126344962Y-108927132D01*
X126340632Y-108885935D01*
X126340632Y-108885933D01*
X126339942Y-108879372D01*
X126280927Y-108697744D01*
X126185440Y-108532356D01*
X126057653Y-108390434D01*
X125947499Y-108310402D01*
X125908494Y-108282063D01*
X125908493Y-108282062D01*
X125903152Y-108278182D01*
X125897124Y-108275498D01*
X125897122Y-108275497D01*
X125734719Y-108203191D01*
X125734718Y-108203191D01*
X125728688Y-108200506D01*
X125635287Y-108180653D01*
X125548344Y-108162172D01*
X125548339Y-108162172D01*
X125541887Y-108160800D01*
X125350913Y-108160800D01*
X125344461Y-108162172D01*
X125344456Y-108162172D01*
X125257513Y-108180653D01*
X125164112Y-108200506D01*
X125158082Y-108203191D01*
X125158081Y-108203191D01*
X124995678Y-108275497D01*
X124995676Y-108275498D01*
X124989648Y-108278182D01*
X124984307Y-108282062D01*
X124984306Y-108282063D01*
X124945301Y-108310402D01*
X124835147Y-108390434D01*
X124707360Y-108532356D01*
X124611873Y-108697744D01*
X124552858Y-108879372D01*
X124552168Y-108885933D01*
X124552168Y-108885935D01*
X124547838Y-108927132D01*
X124532896Y-109069300D01*
X124533586Y-109075865D01*
X124547828Y-109211366D01*
X124552858Y-109259228D01*
X124611873Y-109440856D01*
X124707360Y-109606244D01*
X124780537Y-109687515D01*
X124811253Y-109751521D01*
X124812900Y-109771824D01*
X124812900Y-112570900D01*
X124792898Y-112639021D01*
X124739242Y-112685514D01*
X124686900Y-112696900D01*
X124656513Y-112696900D01*
X124650061Y-112698272D01*
X124650056Y-112698272D01*
X124563112Y-112716753D01*
X124469712Y-112736606D01*
X124463682Y-112739291D01*
X124463681Y-112739291D01*
X124301278Y-112811597D01*
X124301276Y-112811598D01*
X124295248Y-112814282D01*
X124140747Y-112926534D01*
X124012960Y-113068456D01*
X123917473Y-113233844D01*
X123858458Y-113415472D01*
X123857768Y-113422033D01*
X123857768Y-113422035D01*
X123841093Y-113580692D01*
X123814080Y-113646349D01*
X123804878Y-113656617D01*
X122539351Y-114922144D01*
X122477039Y-114956170D01*
X122406224Y-114951105D01*
X122347043Y-114905320D01*
X122313357Y-114857211D01*
X122313355Y-114857208D01*
X122310198Y-114852700D01*
X122148300Y-114690802D01*
X122143792Y-114687645D01*
X122143789Y-114687643D01*
X122002599Y-114588781D01*
X121960749Y-114559477D01*
X121955767Y-114557154D01*
X121955762Y-114557151D01*
X121921543Y-114541195D01*
X121868258Y-114494278D01*
X121848797Y-114426001D01*
X121869339Y-114358041D01*
X121921543Y-114312805D01*
X121955762Y-114296849D01*
X121955767Y-114296846D01*
X121960749Y-114294523D01*
X122127401Y-114177832D01*
X122143789Y-114166357D01*
X122143792Y-114166355D01*
X122148300Y-114163198D01*
X122310198Y-114001300D01*
X122441523Y-113813749D01*
X122443846Y-113808767D01*
X122443849Y-113808762D01*
X122535961Y-113611225D01*
X122535961Y-113611224D01*
X122538284Y-113606243D01*
X122545131Y-113580692D01*
X122596119Y-113390402D01*
X122596119Y-113390400D01*
X122597543Y-113385087D01*
X122617498Y-113157000D01*
X122597543Y-112928913D01*
X122595865Y-112922651D01*
X122539707Y-112713067D01*
X122539706Y-112713065D01*
X122538284Y-112707757D01*
X122474467Y-112570900D01*
X122443849Y-112505238D01*
X122443846Y-112505233D01*
X122441523Y-112500251D01*
X122310198Y-112312700D01*
X122148300Y-112150802D01*
X122143792Y-112147645D01*
X122143789Y-112147643D01*
X122002599Y-112048781D01*
X121960749Y-112019477D01*
X121955767Y-112017154D01*
X121955762Y-112017151D01*
X121921543Y-112001195D01*
X121868258Y-111954278D01*
X121848797Y-111886001D01*
X121869339Y-111818041D01*
X121921543Y-111772805D01*
X121955762Y-111756849D01*
X121955767Y-111756846D01*
X121960749Y-111754523D01*
X122127401Y-111637832D01*
X122143789Y-111626357D01*
X122143792Y-111626355D01*
X122148300Y-111623198D01*
X122310198Y-111461300D01*
X122441523Y-111273749D01*
X122443846Y-111268767D01*
X122443849Y-111268762D01*
X122535961Y-111071225D01*
X122535961Y-111071224D01*
X122538284Y-111066243D01*
X122597543Y-110845087D01*
X122617498Y-110617000D01*
X122597543Y-110388913D01*
X122538284Y-110167757D01*
X122535961Y-110162775D01*
X122443849Y-109965238D01*
X122443846Y-109965233D01*
X122441523Y-109960251D01*
X122310198Y-109772700D01*
X122148300Y-109610802D01*
X122143792Y-109607645D01*
X122143789Y-109607643D01*
X122002599Y-109508781D01*
X121960749Y-109479477D01*
X121955767Y-109477154D01*
X121955762Y-109477151D01*
X121921543Y-109461195D01*
X121868258Y-109414278D01*
X121848797Y-109346001D01*
X121869339Y-109278041D01*
X121921543Y-109232805D01*
X121955762Y-109216849D01*
X121955767Y-109216846D01*
X121960749Y-109214523D01*
X122127401Y-109097832D01*
X122143789Y-109086357D01*
X122143792Y-109086355D01*
X122148300Y-109083198D01*
X122310198Y-108921300D01*
X122339557Y-108879372D01*
X122438366Y-108738257D01*
X122441523Y-108733749D01*
X122443846Y-108728767D01*
X122443849Y-108728762D01*
X122535961Y-108531225D01*
X122535961Y-108531224D01*
X122538284Y-108526243D01*
X122597543Y-108305087D01*
X122617498Y-108077000D01*
X122597543Y-107848913D01*
X122538284Y-107627757D01*
X122535961Y-107622775D01*
X122443849Y-107425238D01*
X122443846Y-107425233D01*
X122441523Y-107420251D01*
X122310198Y-107232700D01*
X122148300Y-107070802D01*
X122143792Y-107067645D01*
X122143789Y-107067643D01*
X122002599Y-106968781D01*
X121960749Y-106939477D01*
X121955767Y-106937154D01*
X121955762Y-106937151D01*
X121921543Y-106921195D01*
X121868258Y-106874278D01*
X121848797Y-106806001D01*
X121869339Y-106738041D01*
X121921543Y-106692805D01*
X121955762Y-106676849D01*
X121955767Y-106676846D01*
X121960749Y-106674523D01*
X122134063Y-106553167D01*
X122143789Y-106546357D01*
X122143792Y-106546355D01*
X122148300Y-106543198D01*
X122310198Y-106381300D01*
X122428763Y-106211972D01*
X122484219Y-106167645D01*
X122496821Y-106163248D01*
X122501045Y-106162021D01*
X122520400Y-106158013D01*
X122532630Y-106156468D01*
X122532631Y-106156468D01*
X122540497Y-106155474D01*
X122547868Y-106152555D01*
X122547870Y-106152555D01*
X122581612Y-106139196D01*
X122592842Y-106135351D01*
X122627683Y-106125229D01*
X122627684Y-106125229D01*
X122635293Y-106123018D01*
X122642112Y-106118985D01*
X122642117Y-106118983D01*
X122652728Y-106112707D01*
X122670476Y-106104012D01*
X122689317Y-106096552D01*
X122725087Y-106070564D01*
X122735007Y-106064048D01*
X122766235Y-106045580D01*
X122766238Y-106045578D01*
X122773062Y-106041542D01*
X122787383Y-106027221D01*
X122802417Y-106014380D01*
X122812394Y-106007131D01*
X122818807Y-106002472D01*
X122846998Y-105968395D01*
X122854988Y-105959616D01*
X124942500Y-103872105D01*
X125004812Y-103838079D01*
X125031595Y-103835200D01*
X126313933Y-103835200D01*
X126325116Y-103835727D01*
X126332609Y-103837402D01*
X126340535Y-103837153D01*
X126340536Y-103837153D01*
X126400686Y-103835262D01*
X126404645Y-103835200D01*
X126432556Y-103835200D01*
X126436491Y-103834703D01*
X126436556Y-103834695D01*
X126448393Y-103833762D01*
X126480651Y-103832748D01*
X126484670Y-103832622D01*
X126492589Y-103832373D01*
X126512043Y-103826721D01*
X126531400Y-103822713D01*
X126543630Y-103821168D01*
X126543631Y-103821168D01*
X126551497Y-103820174D01*
X126558868Y-103817255D01*
X126558870Y-103817255D01*
X126592612Y-103803896D01*
X126603842Y-103800051D01*
X126638683Y-103789929D01*
X126638684Y-103789929D01*
X126646293Y-103787718D01*
X126653112Y-103783685D01*
X126653117Y-103783683D01*
X126663728Y-103777407D01*
X126681476Y-103768712D01*
X126700317Y-103761252D01*
X126736087Y-103735264D01*
X126746007Y-103728748D01*
X126777235Y-103710280D01*
X126777238Y-103710278D01*
X126784062Y-103706242D01*
X126798383Y-103691921D01*
X126813418Y-103679080D01*
X126816007Y-103677199D01*
X126882874Y-103653340D01*
X126952026Y-103669421D01*
X127001506Y-103720335D01*
X127015605Y-103789918D01*
X126989846Y-103856077D01*
X126981918Y-103865387D01*
X126963614Y-103884879D01*
X126959795Y-103891825D01*
X126959793Y-103891828D01*
X126953852Y-103902634D01*
X126943001Y-103919153D01*
X126930586Y-103935159D01*
X126927441Y-103942428D01*
X126927438Y-103942432D01*
X126913026Y-103975737D01*
X126907809Y-103986387D01*
X126886505Y-104025140D01*
X126884534Y-104032815D01*
X126884534Y-104032816D01*
X126881467Y-104044762D01*
X126875063Y-104063466D01*
X126867019Y-104082055D01*
X126865780Y-104089878D01*
X126865777Y-104089888D01*
X126860101Y-104125724D01*
X126857695Y-104137344D01*
X126855560Y-104145661D01*
X126846700Y-104180170D01*
X126846700Y-104200424D01*
X126845149Y-104220134D01*
X126841980Y-104240143D01*
X126842726Y-104248035D01*
X126846141Y-104284161D01*
X126846700Y-104296019D01*
X126846700Y-131697976D01*
X126826698Y-131766097D01*
X126814342Y-131782279D01*
X126741160Y-131863556D01*
X126645673Y-132028944D01*
X126586658Y-132210572D01*
X126585968Y-132217133D01*
X126585968Y-132217135D01*
X126575031Y-132321195D01*
X126566696Y-132400500D01*
X126567386Y-132407065D01*
X126574495Y-132474699D01*
X126586658Y-132590428D01*
X126645673Y-132772056D01*
X126741160Y-132937444D01*
X126868947Y-133079366D01*
X127023448Y-133191618D01*
X127029476Y-133194302D01*
X127029478Y-133194303D01*
X127191881Y-133266609D01*
X127197912Y-133269294D01*
X127291313Y-133289147D01*
X127378256Y-133307628D01*
X127378261Y-133307628D01*
X127384713Y-133309000D01*
X127575687Y-133309000D01*
X127582139Y-133307628D01*
X127582144Y-133307628D01*
X127669087Y-133289147D01*
X127762488Y-133269294D01*
X127768519Y-133266609D01*
X127930922Y-133194303D01*
X127930924Y-133194302D01*
X127936952Y-133191618D01*
X128091453Y-133079366D01*
X128219240Y-132937444D01*
X128314727Y-132772056D01*
X128373742Y-132590428D01*
X128385906Y-132474699D01*
X128393014Y-132407065D01*
X128393704Y-132400500D01*
X128385369Y-132321195D01*
X128374432Y-132217135D01*
X128374432Y-132217133D01*
X128373742Y-132210572D01*
X128314727Y-132028944D01*
X128219240Y-131863556D01*
X128146063Y-131782285D01*
X128115347Y-131718279D01*
X128113700Y-131697976D01*
X128113700Y-104574794D01*
X128133702Y-104506673D01*
X128150605Y-104485699D01*
X131512200Y-101124104D01*
X131574512Y-101090078D01*
X131645327Y-101095143D01*
G37*
G04 #@! TD.AperFunction*
G04 #@! TA.AperFunction,Conductor*
G36*
X178963286Y-62094364D02*
G01*
X185293665Y-62102668D01*
X185361760Y-62122760D01*
X185408182Y-62176476D01*
X185419500Y-62228668D01*
X185419500Y-105379316D01*
X185399498Y-105447437D01*
X185345842Y-105493930D01*
X185293585Y-105505316D01*
X154447311Y-105525548D01*
X137972983Y-105536354D01*
X137904849Y-105516397D01*
X137858321Y-105462771D01*
X137847379Y-105421336D01*
X137838022Y-105314393D01*
X137837543Y-105308913D01*
X137807720Y-105197611D01*
X137809410Y-105126634D01*
X137849204Y-105067839D01*
X137914469Y-105039891D01*
X137929427Y-105039000D01*
X153759933Y-105039000D01*
X153771116Y-105039527D01*
X153778609Y-105041202D01*
X153786535Y-105040953D01*
X153786536Y-105040953D01*
X153846686Y-105039062D01*
X153850645Y-105039000D01*
X153878556Y-105039000D01*
X153882491Y-105038503D01*
X153882556Y-105038495D01*
X153894393Y-105037562D01*
X153926651Y-105036548D01*
X153930670Y-105036422D01*
X153938589Y-105036173D01*
X153958043Y-105030521D01*
X153977400Y-105026513D01*
X153989630Y-105024968D01*
X153989631Y-105024968D01*
X153997497Y-105023974D01*
X154004868Y-105021055D01*
X154004870Y-105021055D01*
X154038612Y-105007696D01*
X154049842Y-105003851D01*
X154084683Y-104993729D01*
X154084684Y-104993729D01*
X154092293Y-104991518D01*
X154099112Y-104987485D01*
X154099117Y-104987483D01*
X154109728Y-104981207D01*
X154127476Y-104972512D01*
X154146317Y-104965052D01*
X154182087Y-104939064D01*
X154192007Y-104932548D01*
X154223235Y-104914080D01*
X154223238Y-104914078D01*
X154230062Y-104910042D01*
X154244383Y-104895721D01*
X154259417Y-104882880D01*
X154269394Y-104875631D01*
X154275807Y-104870972D01*
X154280857Y-104864868D01*
X154280862Y-104864863D01*
X154303993Y-104836902D01*
X154311983Y-104828121D01*
X155196384Y-103943721D01*
X155258696Y-103909696D01*
X155329512Y-103914761D01*
X155365963Y-103935872D01*
X155433126Y-103991632D01*
X155626000Y-104104338D01*
X155834692Y-104184030D01*
X155839760Y-104185061D01*
X155839763Y-104185062D01*
X155947017Y-104206883D01*
X156053597Y-104228567D01*
X156058772Y-104228757D01*
X156058774Y-104228757D01*
X156271673Y-104236564D01*
X156271677Y-104236564D01*
X156276837Y-104236753D01*
X156281957Y-104236097D01*
X156281959Y-104236097D01*
X156493288Y-104209025D01*
X156493289Y-104209025D01*
X156498416Y-104208368D01*
X156524895Y-104200424D01*
X156707429Y-104145661D01*
X156707434Y-104145659D01*
X156712384Y-104144174D01*
X156912994Y-104045896D01*
X157094860Y-103916173D01*
X157108447Y-103902634D01*
X157209724Y-103801710D01*
X157253096Y-103758489D01*
X157287738Y-103710280D01*
X157380435Y-103581277D01*
X157383453Y-103577077D01*
X157482430Y-103376811D01*
X157547370Y-103163069D01*
X157576529Y-102941590D01*
X157577530Y-102900635D01*
X157578074Y-102878365D01*
X157578074Y-102878361D01*
X157578156Y-102875000D01*
X157559852Y-102652361D01*
X157505431Y-102435702D01*
X157416354Y-102230840D01*
X157343294Y-102117907D01*
X157297822Y-102047617D01*
X157297820Y-102047614D01*
X157295014Y-102043277D01*
X157144670Y-101878051D01*
X157140619Y-101874852D01*
X157140615Y-101874848D01*
X156973414Y-101742800D01*
X156973410Y-101742798D01*
X156969359Y-101739598D01*
X156928053Y-101716796D01*
X156878084Y-101666364D01*
X156863312Y-101596921D01*
X156888428Y-101530516D01*
X156915780Y-101503909D01*
X156985416Y-101454238D01*
X157094860Y-101376173D01*
X157253096Y-101218489D01*
X157383453Y-101037077D01*
X157387821Y-101028240D01*
X157480136Y-100841453D01*
X157480137Y-100841451D01*
X157482430Y-100836811D01*
X157547370Y-100623069D01*
X157576529Y-100401590D01*
X157578156Y-100335000D01*
X157559852Y-100112361D01*
X157505431Y-99895702D01*
X157416354Y-99690840D01*
X157342633Y-99576884D01*
X157297822Y-99507617D01*
X157297820Y-99507614D01*
X157295014Y-99503277D01*
X157144670Y-99338051D01*
X157140619Y-99334852D01*
X157140615Y-99334848D01*
X156973414Y-99202800D01*
X156973410Y-99202798D01*
X156969359Y-99199598D01*
X156948348Y-99187999D01*
X156824663Y-99119722D01*
X156773789Y-99091638D01*
X156768920Y-99089914D01*
X156768916Y-99089912D01*
X156568087Y-99018795D01*
X156568083Y-99018794D01*
X156563212Y-99017069D01*
X156558119Y-99016162D01*
X156558116Y-99016161D01*
X156348373Y-98978800D01*
X156348367Y-98978799D01*
X156343284Y-98977894D01*
X156269452Y-98976992D01*
X156125081Y-98975228D01*
X156125079Y-98975228D01*
X156119911Y-98975165D01*
X155899091Y-99008955D01*
X155686756Y-99078357D01*
X155488607Y-99181507D01*
X155484474Y-99184610D01*
X155484471Y-99184612D01*
X155329197Y-99301195D01*
X155309965Y-99315635D01*
X155303277Y-99322634D01*
X155190805Y-99440329D01*
X155155629Y-99477138D01*
X155048201Y-99634621D01*
X154993293Y-99679621D01*
X154922768Y-99687792D01*
X154859021Y-99656538D01*
X154838324Y-99632054D01*
X154757822Y-99507617D01*
X154757820Y-99507614D01*
X154755014Y-99503277D01*
X154604670Y-99338051D01*
X154600619Y-99334852D01*
X154600615Y-99334848D01*
X154433414Y-99202800D01*
X154433410Y-99202798D01*
X154429359Y-99199598D01*
X154408348Y-99187999D01*
X154284663Y-99119722D01*
X154233789Y-99091638D01*
X154228920Y-99089914D01*
X154228916Y-99089912D01*
X154028087Y-99018795D01*
X154028083Y-99018794D01*
X154023212Y-99017069D01*
X154018119Y-99016162D01*
X154018116Y-99016161D01*
X153808373Y-98978800D01*
X153808367Y-98978799D01*
X153803284Y-98977894D01*
X153729452Y-98976992D01*
X153585081Y-98975228D01*
X153585079Y-98975228D01*
X153579911Y-98975165D01*
X153359091Y-99008955D01*
X153146756Y-99078357D01*
X152948607Y-99181507D01*
X152944474Y-99184610D01*
X152944471Y-99184612D01*
X152789197Y-99301195D01*
X152769965Y-99315635D01*
X152763277Y-99322634D01*
X152650805Y-99440329D01*
X152615629Y-99477138D01*
X152508201Y-99634621D01*
X152453293Y-99679621D01*
X152382768Y-99687792D01*
X152319021Y-99656538D01*
X152298324Y-99632054D01*
X152217822Y-99507617D01*
X152217820Y-99507614D01*
X152215014Y-99503277D01*
X152064670Y-99338051D01*
X152060619Y-99334852D01*
X152060615Y-99334848D01*
X151893414Y-99202800D01*
X151893410Y-99202798D01*
X151889359Y-99199598D01*
X151868348Y-99187999D01*
X151744663Y-99119722D01*
X151693789Y-99091638D01*
X151688920Y-99089914D01*
X151688916Y-99089912D01*
X151488087Y-99018795D01*
X151488083Y-99018794D01*
X151483212Y-99017069D01*
X151478119Y-99016162D01*
X151478116Y-99016161D01*
X151268373Y-98978800D01*
X151268367Y-98978799D01*
X151263284Y-98977894D01*
X151189452Y-98976992D01*
X151045081Y-98975228D01*
X151045079Y-98975228D01*
X151039911Y-98975165D01*
X150819091Y-99008955D01*
X150606756Y-99078357D01*
X150408607Y-99181507D01*
X150404474Y-99184610D01*
X150404471Y-99184612D01*
X150384512Y-99199598D01*
X150280715Y-99277531D01*
X150214232Y-99302436D01*
X150144837Y-99287444D01*
X150115972Y-99265868D01*
X149203041Y-98352936D01*
X149195512Y-98344662D01*
X149191400Y-98338182D01*
X149141748Y-98291556D01*
X149138907Y-98288802D01*
X149119170Y-98269065D01*
X149115973Y-98266585D01*
X149106951Y-98258880D01*
X149097234Y-98249755D01*
X149074721Y-98228614D01*
X149067775Y-98224795D01*
X149067772Y-98224793D01*
X149056966Y-98218852D01*
X149040447Y-98208001D01*
X149039983Y-98207641D01*
X149024441Y-98195586D01*
X149017172Y-98192441D01*
X149017168Y-98192438D01*
X148983863Y-98178026D01*
X148973213Y-98172809D01*
X148934460Y-98151505D01*
X148924903Y-98149051D01*
X148914838Y-98146467D01*
X148896134Y-98140063D01*
X148884820Y-98135167D01*
X148884819Y-98135167D01*
X148877545Y-98132019D01*
X148869722Y-98130780D01*
X148869712Y-98130777D01*
X148833876Y-98125101D01*
X148822256Y-98122695D01*
X148787111Y-98113672D01*
X148787110Y-98113672D01*
X148779430Y-98111700D01*
X148759176Y-98111700D01*
X148739465Y-98110149D01*
X148727286Y-98108220D01*
X148719457Y-98106980D01*
X148690186Y-98109747D01*
X148675439Y-98111141D01*
X148663581Y-98111700D01*
X140473467Y-98111700D01*
X140462284Y-98111173D01*
X140454791Y-98109498D01*
X140446865Y-98109747D01*
X140446864Y-98109747D01*
X140386714Y-98111638D01*
X140382755Y-98111700D01*
X140354844Y-98111700D01*
X140350910Y-98112197D01*
X140350909Y-98112197D01*
X140350844Y-98112205D01*
X140339005Y-98113138D01*
X140324027Y-98113608D01*
X140297755Y-98114434D01*
X140229040Y-98096581D01*
X140180885Y-98044412D01*
X140168579Y-97974490D01*
X140196029Y-97909015D01*
X140204703Y-97899401D01*
X143875999Y-94228105D01*
X143938311Y-94194079D01*
X143965094Y-94191200D01*
X148772207Y-94191200D01*
X148795816Y-94193432D01*
X148796119Y-94193490D01*
X148796123Y-94193490D01*
X148803906Y-94194975D01*
X148859951Y-94191449D01*
X148867862Y-94191200D01*
X148883856Y-94191200D01*
X148899730Y-94189194D01*
X148907590Y-94188452D01*
X148935049Y-94186724D01*
X148955737Y-94185423D01*
X148955738Y-94185423D01*
X148963650Y-94184925D01*
X148971191Y-94182475D01*
X148971487Y-94182379D01*
X148994631Y-94177206D01*
X148994935Y-94177168D01*
X148994940Y-94177167D01*
X149002797Y-94176174D01*
X149010162Y-94173258D01*
X149010166Y-94173257D01*
X149055011Y-94155501D01*
X149062430Y-94152829D01*
X149115875Y-94135464D01*
X149122572Y-94131214D01*
X149122831Y-94131050D01*
X149143958Y-94120285D01*
X149144246Y-94120171D01*
X149144251Y-94120168D01*
X149151617Y-94117252D01*
X149158025Y-94112596D01*
X149158031Y-94112593D01*
X149197052Y-94084242D01*
X149203589Y-94079799D01*
X149251018Y-94049700D01*
X149256659Y-94043693D01*
X149274446Y-94028012D01*
X149274691Y-94027834D01*
X149274693Y-94027832D01*
X149281107Y-94023172D01*
X149298229Y-94002476D01*
X149316903Y-93979904D01*
X149322134Y-93973970D01*
X149355158Y-93938802D01*
X149355160Y-93938799D01*
X149360586Y-93933021D01*
X149364558Y-93925797D01*
X149377881Y-93906194D01*
X149378080Y-93905954D01*
X149378084Y-93905947D01*
X149383133Y-93899844D01*
X149407047Y-93849024D01*
X149410629Y-93841992D01*
X149437695Y-93792760D01*
X149439665Y-93785085D01*
X149439668Y-93785079D01*
X149439744Y-93784781D01*
X149447776Y-93762472D01*
X149447906Y-93762197D01*
X149447909Y-93762189D01*
X149451283Y-93755018D01*
X149461806Y-93699851D01*
X149463532Y-93692129D01*
X149467138Y-93678085D01*
X149503453Y-93617079D01*
X149516908Y-93606208D01*
X149683789Y-93489357D01*
X149683792Y-93489355D01*
X149688300Y-93486198D01*
X149850198Y-93324300D01*
X149981523Y-93136749D01*
X149983846Y-93131767D01*
X149983849Y-93131762D01*
X149999805Y-93097543D01*
X150046722Y-93044258D01*
X150114999Y-93024797D01*
X150182959Y-93045339D01*
X150228195Y-93097543D01*
X150244151Y-93131762D01*
X150244154Y-93131767D01*
X150246477Y-93136749D01*
X150377802Y-93324300D01*
X150539700Y-93486198D01*
X150544208Y-93489355D01*
X150544211Y-93489357D01*
X150585195Y-93518054D01*
X150727251Y-93617523D01*
X150732233Y-93619846D01*
X150732238Y-93619849D01*
X150928259Y-93711254D01*
X150934757Y-93714284D01*
X150940065Y-93715706D01*
X150940067Y-93715707D01*
X151150598Y-93772119D01*
X151150600Y-93772119D01*
X151155913Y-93773543D01*
X151384000Y-93793498D01*
X151612087Y-93773543D01*
X151617400Y-93772119D01*
X151617402Y-93772119D01*
X151827933Y-93715707D01*
X151827935Y-93715706D01*
X151833243Y-93714284D01*
X151839741Y-93711254D01*
X152035762Y-93619849D01*
X152035767Y-93619846D01*
X152040749Y-93617523D01*
X152182805Y-93518054D01*
X152223789Y-93489357D01*
X152223792Y-93489355D01*
X152228300Y-93486198D01*
X152390198Y-93324300D01*
X152521523Y-93136749D01*
X152523846Y-93131767D01*
X152523849Y-93131762D01*
X152615961Y-92934225D01*
X152615961Y-92934224D01*
X152618284Y-92929243D01*
X152677543Y-92708087D01*
X152692500Y-92537127D01*
X152692500Y-91622873D01*
X152677543Y-91451913D01*
X152676120Y-91446602D01*
X152676118Y-91446591D01*
X152662136Y-91394412D01*
X152663824Y-91323436D01*
X152703618Y-91264640D01*
X152768882Y-91236691D01*
X152783842Y-91235800D01*
X159346933Y-91235800D01*
X159358116Y-91236327D01*
X159365609Y-91238002D01*
X159373535Y-91237753D01*
X159373536Y-91237753D01*
X159433686Y-91235862D01*
X159437645Y-91235800D01*
X159465556Y-91235800D01*
X159469491Y-91235303D01*
X159469556Y-91235295D01*
X159481393Y-91234362D01*
X159513651Y-91233348D01*
X159517670Y-91233222D01*
X159525589Y-91232973D01*
X159545043Y-91227321D01*
X159564400Y-91223313D01*
X159576630Y-91221768D01*
X159576631Y-91221768D01*
X159584497Y-91220774D01*
X159591868Y-91217855D01*
X159591870Y-91217855D01*
X159625612Y-91204496D01*
X159636842Y-91200651D01*
X159671683Y-91190529D01*
X159671684Y-91190529D01*
X159679293Y-91188318D01*
X159686112Y-91184285D01*
X159686117Y-91184283D01*
X159696728Y-91178007D01*
X159714476Y-91169312D01*
X159733317Y-91161852D01*
X159769087Y-91135864D01*
X159779007Y-91129348D01*
X159810235Y-91110880D01*
X159810238Y-91110878D01*
X159817062Y-91106842D01*
X159831383Y-91092521D01*
X159846417Y-91079680D01*
X159856394Y-91072431D01*
X159862807Y-91067772D01*
X159890998Y-91033695D01*
X159898988Y-91024916D01*
X160291899Y-90632005D01*
X160354211Y-90597979D01*
X160380994Y-90595100D01*
X160436887Y-90595100D01*
X160443339Y-90593728D01*
X160443344Y-90593728D01*
X160551947Y-90570643D01*
X160623688Y-90555394D01*
X160629719Y-90552709D01*
X160792122Y-90480403D01*
X160792124Y-90480402D01*
X160798152Y-90477718D01*
X160803698Y-90473689D01*
X160918725Y-90390116D01*
X160949349Y-90367867D01*
X161016215Y-90344009D01*
X161085367Y-90360089D01*
X161112504Y-90380708D01*
X170265773Y-99533977D01*
X170299799Y-99596289D01*
X170299780Y-99596550D01*
X170342381Y-99612412D01*
X170356023Y-99624227D01*
X170530269Y-99798473D01*
X170564295Y-99860785D01*
X170559230Y-99931600D01*
X170532268Y-99974618D01*
X170479282Y-100030065D01*
X170417758Y-100065494D01*
X170346846Y-100062037D01*
X170289059Y-100020790D01*
X170270207Y-99987243D01*
X170228767Y-99876703D01*
X170225615Y-99868295D01*
X170166102Y-99788887D01*
X170148049Y-99740568D01*
X170116293Y-99733660D01*
X170101113Y-99723898D01*
X170078232Y-99706750D01*
X170021705Y-99664385D01*
X169885316Y-99613255D01*
X169823134Y-99606500D01*
X168026866Y-99606500D01*
X167964684Y-99613255D01*
X167828295Y-99664385D01*
X167711739Y-99751739D01*
X167624385Y-99868295D01*
X167573255Y-100004684D01*
X167566500Y-100066866D01*
X167566500Y-101863134D01*
X167573255Y-101925316D01*
X167624385Y-102061705D01*
X167711739Y-102178261D01*
X167828295Y-102265615D01*
X167964684Y-102316745D01*
X168026866Y-102323500D01*
X169823134Y-102323500D01*
X169885316Y-102316745D01*
X170021705Y-102265615D01*
X170138261Y-102178261D01*
X170225615Y-102061705D01*
X170240724Y-102021403D01*
X170269598Y-101944382D01*
X170312240Y-101887618D01*
X170378802Y-101862918D01*
X170448150Y-101878126D01*
X170482817Y-101906114D01*
X170511250Y-101938938D01*
X170683126Y-102081632D01*
X170876000Y-102194338D01*
X170880825Y-102196180D01*
X170880826Y-102196181D01*
X170942209Y-102219621D01*
X171084692Y-102274030D01*
X171089760Y-102275061D01*
X171089763Y-102275062D01*
X171197017Y-102296883D01*
X171303597Y-102318567D01*
X171308772Y-102318757D01*
X171308774Y-102318757D01*
X171521673Y-102326564D01*
X171521677Y-102326564D01*
X171526837Y-102326753D01*
X171531957Y-102326097D01*
X171531959Y-102326097D01*
X171743288Y-102299025D01*
X171743289Y-102299025D01*
X171748416Y-102298368D01*
X171753366Y-102296883D01*
X171957429Y-102235661D01*
X171957434Y-102235659D01*
X171962384Y-102234174D01*
X172162994Y-102135896D01*
X172344860Y-102006173D01*
X172386559Y-101964620D01*
X172473355Y-101878126D01*
X172503096Y-101848489D01*
X172540843Y-101795959D01*
X172633453Y-101667077D01*
X172634776Y-101668028D01*
X172681645Y-101624857D01*
X172751580Y-101612625D01*
X172817026Y-101640144D01*
X172844875Y-101671994D01*
X172904987Y-101770088D01*
X173051250Y-101938938D01*
X173223126Y-102081632D01*
X173416000Y-102194338D01*
X173420825Y-102196180D01*
X173420826Y-102196181D01*
X173482209Y-102219621D01*
X173624692Y-102274030D01*
X173629760Y-102275061D01*
X173629763Y-102275062D01*
X173737017Y-102296883D01*
X173843597Y-102318567D01*
X173848772Y-102318757D01*
X173848774Y-102318757D01*
X174061673Y-102326564D01*
X174061677Y-102326564D01*
X174066837Y-102326753D01*
X174071957Y-102326097D01*
X174071959Y-102326097D01*
X174283288Y-102299025D01*
X174283289Y-102299025D01*
X174288416Y-102298368D01*
X174293366Y-102296883D01*
X174497429Y-102235661D01*
X174497434Y-102235659D01*
X174502384Y-102234174D01*
X174702994Y-102135896D01*
X174884860Y-102006173D01*
X174926559Y-101964620D01*
X175013355Y-101878126D01*
X175043096Y-101848489D01*
X175080843Y-101795959D01*
X175170435Y-101671277D01*
X175173453Y-101667077D01*
X175194320Y-101624857D01*
X175270136Y-101471453D01*
X175270137Y-101471451D01*
X175272430Y-101466811D01*
X175337370Y-101253069D01*
X175366529Y-101031590D01*
X175366611Y-101028240D01*
X175368074Y-100968365D01*
X175368074Y-100968361D01*
X175368156Y-100965000D01*
X175349852Y-100742361D01*
X175295431Y-100525702D01*
X175206354Y-100320840D01*
X175137635Y-100214617D01*
X175087822Y-100137617D01*
X175087820Y-100137614D01*
X175085014Y-100133277D01*
X174934670Y-99968051D01*
X174930619Y-99964852D01*
X174930615Y-99964848D01*
X174763414Y-99832800D01*
X174763410Y-99832798D01*
X174759359Y-99829598D01*
X174754831Y-99827098D01*
X174702976Y-99798473D01*
X174563789Y-99721638D01*
X174558920Y-99719914D01*
X174558916Y-99719912D01*
X174358087Y-99648795D01*
X174358083Y-99648794D01*
X174353212Y-99647069D01*
X174348119Y-99646162D01*
X174348116Y-99646161D01*
X174138373Y-99608800D01*
X174138367Y-99608799D01*
X174133284Y-99607894D01*
X174059452Y-99606992D01*
X173915081Y-99605228D01*
X173915079Y-99605228D01*
X173909911Y-99605165D01*
X173689091Y-99638955D01*
X173476756Y-99708357D01*
X173420944Y-99737411D01*
X173290650Y-99805238D01*
X173278607Y-99811507D01*
X173274474Y-99814610D01*
X173274471Y-99814612D01*
X173104100Y-99942530D01*
X173099965Y-99945635D01*
X173096393Y-99949373D01*
X172967065Y-100084707D01*
X172945629Y-100107138D01*
X172838201Y-100264621D01*
X172783293Y-100309621D01*
X172712768Y-100317792D01*
X172649021Y-100286538D01*
X172628324Y-100262054D01*
X172547822Y-100137617D01*
X172547820Y-100137614D01*
X172545014Y-100133277D01*
X172394670Y-99968051D01*
X172390619Y-99964852D01*
X172390615Y-99964848D01*
X172223414Y-99832800D01*
X172223410Y-99832798D01*
X172219359Y-99829598D01*
X172214835Y-99827101D01*
X172214831Y-99827098D01*
X172149889Y-99791248D01*
X172099919Y-99740816D01*
X172085777Y-99696733D01*
X172085121Y-99691542D01*
X172083474Y-99678503D01*
X172080558Y-99671137D01*
X172080556Y-99671131D01*
X172067200Y-99637398D01*
X172063355Y-99626168D01*
X172053230Y-99591317D01*
X172053230Y-99591316D01*
X172051019Y-99583707D01*
X172040705Y-99566266D01*
X172032008Y-99548513D01*
X172027472Y-99537058D01*
X172024552Y-99529683D01*
X171998563Y-99493912D01*
X171992047Y-99483992D01*
X171987994Y-99477138D01*
X171969542Y-99445938D01*
X171955221Y-99431617D01*
X171942380Y-99416583D01*
X171935131Y-99406606D01*
X171930472Y-99400193D01*
X171896395Y-99372002D01*
X171887616Y-99364012D01*
X159692452Y-87168847D01*
X159684912Y-87160561D01*
X159680800Y-87154082D01*
X159631148Y-87107456D01*
X159628307Y-87104702D01*
X159608570Y-87084965D01*
X159605373Y-87082485D01*
X159596351Y-87074780D01*
X159564121Y-87044514D01*
X159557175Y-87040695D01*
X159557172Y-87040693D01*
X159546366Y-87034752D01*
X159529847Y-87023901D01*
X159529383Y-87023541D01*
X159513841Y-87011486D01*
X159506572Y-87008341D01*
X159506568Y-87008338D01*
X159473263Y-86993926D01*
X159462613Y-86988709D01*
X159423860Y-86967405D01*
X159404237Y-86962367D01*
X159385534Y-86955963D01*
X159374220Y-86951067D01*
X159374219Y-86951067D01*
X159366945Y-86947919D01*
X159359122Y-86946680D01*
X159359112Y-86946677D01*
X159323276Y-86941001D01*
X159311656Y-86938595D01*
X159276511Y-86929572D01*
X159276510Y-86929572D01*
X159268830Y-86927600D01*
X159248576Y-86927600D01*
X159228865Y-86926049D01*
X159216686Y-86924120D01*
X159208857Y-86922880D01*
X159200965Y-86923626D01*
X159164839Y-86927041D01*
X159152981Y-86927600D01*
X158362294Y-86927600D01*
X158294173Y-86907598D01*
X158247680Y-86853942D01*
X158237576Y-86783668D01*
X158267070Y-86719088D01*
X158273199Y-86712505D01*
X159256355Y-85729349D01*
X159318667Y-85695323D01*
X159389482Y-85700388D01*
X159446318Y-85742935D01*
X159463240Y-85774219D01*
X159464106Y-85777450D01*
X159508716Y-85873117D01*
X159551838Y-85965591D01*
X159557466Y-85977661D01*
X159684174Y-86158620D01*
X159840380Y-86314826D01*
X159844888Y-86317983D01*
X159844891Y-86317985D01*
X160016829Y-86438377D01*
X160021338Y-86441534D01*
X160026320Y-86443857D01*
X160026325Y-86443860D01*
X160216568Y-86532571D01*
X160221550Y-86534894D01*
X160226858Y-86536316D01*
X160226860Y-86536317D01*
X160292252Y-86553839D01*
X160434932Y-86592070D01*
X160655000Y-86611323D01*
X160875068Y-86592070D01*
X161017748Y-86553839D01*
X161083140Y-86536317D01*
X161083142Y-86536316D01*
X161088450Y-86534894D01*
X161093432Y-86532571D01*
X161283675Y-86443860D01*
X161283680Y-86443857D01*
X161288662Y-86441534D01*
X161293171Y-86438377D01*
X161465109Y-86317985D01*
X161465112Y-86317983D01*
X161469620Y-86314826D01*
X161625826Y-86158620D01*
X161752534Y-85977661D01*
X161758163Y-85965591D01*
X161843571Y-85782432D01*
X161843572Y-85782431D01*
X161845894Y-85777450D01*
X161903070Y-85564068D01*
X161922323Y-85344000D01*
X161903070Y-85123932D01*
X161861371Y-84968310D01*
X161847317Y-84915860D01*
X161847316Y-84915858D01*
X161845894Y-84910550D01*
X161761398Y-84729347D01*
X161754857Y-84715320D01*
X161754855Y-84715317D01*
X161752534Y-84710339D01*
X161625826Y-84529380D01*
X161469620Y-84373174D01*
X161465112Y-84370017D01*
X161465109Y-84370015D01*
X161293171Y-84249623D01*
X161293169Y-84249622D01*
X161288662Y-84246466D01*
X161283680Y-84244143D01*
X161283675Y-84244140D01*
X161163699Y-84188195D01*
X161110414Y-84141278D01*
X161090953Y-84073001D01*
X161111495Y-84005041D01*
X161163699Y-83959805D01*
X161283675Y-83903860D01*
X161283680Y-83903857D01*
X161288662Y-83901534D01*
X161335894Y-83868462D01*
X161465109Y-83777985D01*
X161465112Y-83777983D01*
X161469620Y-83774826D01*
X161625826Y-83618620D01*
X161752534Y-83437661D01*
X161845894Y-83237450D01*
X161903070Y-83024068D01*
X161922323Y-82804000D01*
X161903070Y-82583932D01*
X161845894Y-82370550D01*
X161752534Y-82170339D01*
X161748007Y-82163873D01*
X161747669Y-82162871D01*
X161746630Y-82161072D01*
X161746991Y-82160863D01*
X161725316Y-82096601D01*
X161742599Y-82027740D01*
X161794367Y-81979154D01*
X161851217Y-81965600D01*
X176285433Y-81965600D01*
X176296616Y-81966127D01*
X176304109Y-81967802D01*
X176312035Y-81967553D01*
X176312036Y-81967553D01*
X176372186Y-81965662D01*
X176376145Y-81965600D01*
X176404056Y-81965600D01*
X176407991Y-81965103D01*
X176408056Y-81965095D01*
X176419893Y-81964162D01*
X176452151Y-81963148D01*
X176456170Y-81963022D01*
X176464089Y-81962773D01*
X176483543Y-81957121D01*
X176502900Y-81953113D01*
X176515130Y-81951568D01*
X176515131Y-81951568D01*
X176522997Y-81950574D01*
X176530368Y-81947655D01*
X176530370Y-81947655D01*
X176564112Y-81934296D01*
X176575342Y-81930451D01*
X176610183Y-81920329D01*
X176610184Y-81920329D01*
X176617793Y-81918118D01*
X176624612Y-81914085D01*
X176624617Y-81914083D01*
X176635228Y-81907807D01*
X176652976Y-81899112D01*
X176671817Y-81891652D01*
X176692187Y-81876853D01*
X176707587Y-81865664D01*
X176717507Y-81859148D01*
X176748735Y-81840680D01*
X176748738Y-81840678D01*
X176755562Y-81836642D01*
X176769883Y-81822321D01*
X176784917Y-81809480D01*
X176786632Y-81808234D01*
X176801307Y-81797572D01*
X176829498Y-81763495D01*
X176837488Y-81754716D01*
X177382799Y-81209405D01*
X177445111Y-81175379D01*
X177471894Y-81172500D01*
X177527787Y-81172500D01*
X177534239Y-81171128D01*
X177534244Y-81171128D01*
X177621188Y-81152647D01*
X177714588Y-81132794D01*
X177720619Y-81130109D01*
X177883022Y-81057803D01*
X177883024Y-81057802D01*
X177889052Y-81055118D01*
X178043553Y-80942866D01*
X178046644Y-80939433D01*
X178109985Y-80909033D01*
X178180439Y-80917795D01*
X178219387Y-80944291D01*
X182243406Y-84968310D01*
X182277432Y-85030622D01*
X182276017Y-85090018D01*
X182268354Y-85118615D01*
X182268353Y-85118623D01*
X182266930Y-85123932D01*
X182247677Y-85344000D01*
X182266930Y-85564068D01*
X182324106Y-85777450D01*
X182326428Y-85782431D01*
X182326429Y-85782432D01*
X182411838Y-85965591D01*
X182417466Y-85977661D01*
X182544174Y-86158620D01*
X182700380Y-86314826D01*
X182704888Y-86317983D01*
X182704891Y-86317985D01*
X182876829Y-86438377D01*
X182881338Y-86441534D01*
X182886320Y-86443857D01*
X182886325Y-86443860D01*
X183076568Y-86532571D01*
X183081550Y-86534894D01*
X183086858Y-86536316D01*
X183086860Y-86536317D01*
X183152252Y-86553839D01*
X183294932Y-86592070D01*
X183515000Y-86611323D01*
X183735068Y-86592070D01*
X183877748Y-86553839D01*
X183943140Y-86536317D01*
X183943142Y-86536316D01*
X183948450Y-86534894D01*
X183953432Y-86532571D01*
X184143675Y-86443860D01*
X184143680Y-86443857D01*
X184148662Y-86441534D01*
X184153171Y-86438377D01*
X184325109Y-86317985D01*
X184325112Y-86317983D01*
X184329620Y-86314826D01*
X184485826Y-86158620D01*
X184612534Y-85977661D01*
X184618163Y-85965591D01*
X184703571Y-85782432D01*
X184703572Y-85782431D01*
X184705894Y-85777450D01*
X184763070Y-85564068D01*
X184782323Y-85344000D01*
X184763070Y-85123932D01*
X184721371Y-84968310D01*
X184707317Y-84915860D01*
X184707316Y-84915858D01*
X184705894Y-84910550D01*
X184621398Y-84729347D01*
X184614857Y-84715320D01*
X184614855Y-84715317D01*
X184612534Y-84710339D01*
X184485826Y-84529380D01*
X184329620Y-84373174D01*
X184325112Y-84370017D01*
X184325109Y-84370015D01*
X184153171Y-84249623D01*
X184153169Y-84249622D01*
X184148662Y-84246466D01*
X184143680Y-84244143D01*
X184143675Y-84244140D01*
X184023107Y-84187919D01*
X183969822Y-84141002D01*
X183950361Y-84072725D01*
X183970903Y-84004765D01*
X184023107Y-83959529D01*
X184143424Y-83903425D01*
X184152919Y-83897942D01*
X184195021Y-83868462D01*
X184203396Y-83857985D01*
X184196328Y-83844538D01*
X183156922Y-82805132D01*
X183879408Y-82805132D01*
X183879539Y-82806965D01*
X183883790Y-82813580D01*
X184556259Y-83486049D01*
X184568033Y-83492479D01*
X184580049Y-83483183D01*
X184608945Y-83441915D01*
X184614423Y-83432425D01*
X184703099Y-83242260D01*
X184706845Y-83231968D01*
X184761151Y-83029296D01*
X184763054Y-83018501D01*
X184781342Y-82809475D01*
X184781342Y-82798525D01*
X184763054Y-82589499D01*
X184761151Y-82578704D01*
X184706845Y-82376032D01*
X184703099Y-82365740D01*
X184614423Y-82175575D01*
X184608945Y-82166085D01*
X184579461Y-82123978D01*
X184568985Y-82115604D01*
X184555537Y-82122673D01*
X183887022Y-82791188D01*
X183879408Y-82805132D01*
X183156922Y-82805132D01*
X182473741Y-82121951D01*
X182461967Y-82115521D01*
X182449951Y-82124817D01*
X182421055Y-82166085D01*
X182415577Y-82175575D01*
X182326901Y-82365740D01*
X182323155Y-82376032D01*
X182268849Y-82578704D01*
X182266946Y-82589499D01*
X182248658Y-82798525D01*
X182248658Y-82809476D01*
X182254179Y-82872583D01*
X182240190Y-82942187D01*
X182190790Y-82993180D01*
X182121664Y-83009370D01*
X182054759Y-82985617D01*
X182039563Y-82972659D01*
X179147540Y-80080635D01*
X175128652Y-76061747D01*
X175121112Y-76053461D01*
X175117000Y-76046982D01*
X175067348Y-76000356D01*
X175064507Y-75997602D01*
X175044770Y-75977865D01*
X175041573Y-75975385D01*
X175032551Y-75967680D01*
X175006100Y-75942841D01*
X175000321Y-75937414D01*
X174993375Y-75933595D01*
X174993372Y-75933593D01*
X174982566Y-75927652D01*
X174966047Y-75916801D01*
X174965583Y-75916441D01*
X174950041Y-75904386D01*
X174942772Y-75901241D01*
X174942768Y-75901238D01*
X174909463Y-75886826D01*
X174898813Y-75881609D01*
X174860060Y-75860305D01*
X174840437Y-75855267D01*
X174821734Y-75848863D01*
X174810420Y-75843967D01*
X174810419Y-75843967D01*
X174803145Y-75840819D01*
X174795322Y-75839580D01*
X174795312Y-75839577D01*
X174759476Y-75833901D01*
X174747856Y-75831495D01*
X174712711Y-75822472D01*
X174712710Y-75822472D01*
X174705030Y-75820500D01*
X174684776Y-75820500D01*
X174665065Y-75818949D01*
X174652886Y-75817020D01*
X174645057Y-75815780D01*
X174637165Y-75816526D01*
X174601039Y-75819941D01*
X174589181Y-75820500D01*
X161948991Y-75820500D01*
X161880870Y-75800498D01*
X161834377Y-75746842D01*
X161824273Y-75676568D01*
X161834796Y-75641251D01*
X161843569Y-75622437D01*
X161843571Y-75622432D01*
X161845894Y-75617450D01*
X161903070Y-75404068D01*
X161922323Y-75184000D01*
X161903070Y-74963932D01*
X161845894Y-74750550D01*
X161834224Y-74725523D01*
X161754857Y-74555320D01*
X161754855Y-74555317D01*
X161752534Y-74550339D01*
X161625826Y-74369380D01*
X161469620Y-74213174D01*
X161465112Y-74210017D01*
X161465109Y-74210015D01*
X161293171Y-74089623D01*
X161293168Y-74089621D01*
X161288662Y-74086466D01*
X161283680Y-74084143D01*
X161283675Y-74084140D01*
X161163699Y-74028195D01*
X161110414Y-73981278D01*
X161090953Y-73913001D01*
X161111495Y-73845041D01*
X161163699Y-73799805D01*
X161283675Y-73743860D01*
X161283680Y-73743857D01*
X161288662Y-73741534D01*
X161293171Y-73738377D01*
X161465109Y-73617985D01*
X161465112Y-73617983D01*
X161469620Y-73614826D01*
X161625826Y-73458620D01*
X161752534Y-73277661D01*
X161773132Y-73233490D01*
X161843571Y-73082432D01*
X161843572Y-73082431D01*
X161845894Y-73077450D01*
X161849767Y-73062998D01*
X161865740Y-73003383D01*
X161903070Y-72864068D01*
X161922323Y-72644000D01*
X161903070Y-72423932D01*
X161845894Y-72210550D01*
X161836469Y-72190338D01*
X161754857Y-72015320D01*
X161754855Y-72015317D01*
X161752534Y-72010339D01*
X161625826Y-71829380D01*
X161469620Y-71673174D01*
X161465112Y-71670017D01*
X161465109Y-71670015D01*
X161293171Y-71549623D01*
X161293168Y-71549621D01*
X161288662Y-71546466D01*
X161283680Y-71544143D01*
X161283675Y-71544140D01*
X161163699Y-71488195D01*
X161110414Y-71441278D01*
X161090953Y-71373001D01*
X161111495Y-71305041D01*
X161163699Y-71259805D01*
X161283675Y-71203860D01*
X161283680Y-71203857D01*
X161288662Y-71201534D01*
X161293171Y-71198377D01*
X161465109Y-71077985D01*
X161465112Y-71077983D01*
X161469620Y-71074826D01*
X161625826Y-70918620D01*
X161752534Y-70737661D01*
X161755317Y-70731694D01*
X161843571Y-70542432D01*
X161843572Y-70542431D01*
X161845894Y-70537450D01*
X161903070Y-70324068D01*
X161922323Y-70104000D01*
X161903070Y-69883932D01*
X161881575Y-69803711D01*
X161883265Y-69732734D01*
X161923059Y-69673939D01*
X161988324Y-69645991D01*
X162003282Y-69645100D01*
X182108006Y-69645100D01*
X182176127Y-69665102D01*
X182197101Y-69682005D01*
X182243406Y-69728310D01*
X182277432Y-69790622D01*
X182276017Y-69850018D01*
X182268354Y-69878615D01*
X182268353Y-69878623D01*
X182266930Y-69883932D01*
X182247677Y-70104000D01*
X182266930Y-70324068D01*
X182324106Y-70537450D01*
X182326428Y-70542431D01*
X182326429Y-70542432D01*
X182414684Y-70731694D01*
X182417466Y-70737661D01*
X182544174Y-70918620D01*
X182700380Y-71074826D01*
X182704888Y-71077983D01*
X182704891Y-71077985D01*
X182876829Y-71198377D01*
X182881338Y-71201534D01*
X182886320Y-71203857D01*
X182886325Y-71203860D01*
X183006301Y-71259805D01*
X183059586Y-71306722D01*
X183079047Y-71374999D01*
X183058505Y-71442959D01*
X183006301Y-71488195D01*
X182886320Y-71544143D01*
X182886317Y-71544145D01*
X182881339Y-71546466D01*
X182700380Y-71673174D01*
X182544174Y-71829380D01*
X182417466Y-72010339D01*
X182415145Y-72015317D01*
X182415143Y-72015320D01*
X182333531Y-72190338D01*
X182324106Y-72210550D01*
X182266930Y-72423932D01*
X182247677Y-72644000D01*
X182266930Y-72864068D01*
X182304260Y-73003383D01*
X182320234Y-73062998D01*
X182324106Y-73077450D01*
X182326428Y-73082431D01*
X182326429Y-73082432D01*
X182396869Y-73233490D01*
X182417466Y-73277661D01*
X182544174Y-73458620D01*
X182700380Y-73614826D01*
X182704888Y-73617983D01*
X182704891Y-73617985D01*
X182876829Y-73738377D01*
X182881338Y-73741534D01*
X182886320Y-73743857D01*
X182886325Y-73743860D01*
X183006301Y-73799805D01*
X183059586Y-73846722D01*
X183079047Y-73914999D01*
X183058505Y-73982959D01*
X183006301Y-74028195D01*
X182886320Y-74084143D01*
X182886317Y-74084145D01*
X182881339Y-74086466D01*
X182700380Y-74213174D01*
X182544174Y-74369380D01*
X182417466Y-74550339D01*
X182415145Y-74555317D01*
X182415143Y-74555320D01*
X182335776Y-74725523D01*
X182324106Y-74750550D01*
X182266930Y-74963932D01*
X182247677Y-75184000D01*
X182266930Y-75404068D01*
X182324106Y-75617450D01*
X182326428Y-75622431D01*
X182326429Y-75622432D01*
X182409463Y-75800498D01*
X182417466Y-75817661D01*
X182544174Y-75998620D01*
X182700380Y-76154826D01*
X182704888Y-76157983D01*
X182704891Y-76157985D01*
X182827017Y-76243498D01*
X182881338Y-76281534D01*
X182886320Y-76283857D01*
X182886325Y-76283860D01*
X183006301Y-76339805D01*
X183059586Y-76386722D01*
X183079047Y-76454999D01*
X183058505Y-76522959D01*
X183006301Y-76568195D01*
X182886320Y-76624143D01*
X182886317Y-76624145D01*
X182881339Y-76626466D01*
X182700380Y-76753174D01*
X182544174Y-76909380D01*
X182417466Y-77090339D01*
X182415145Y-77095317D01*
X182415143Y-77095320D01*
X182326431Y-77285563D01*
X182324106Y-77290550D01*
X182322684Y-77295858D01*
X182322683Y-77295860D01*
X182307213Y-77353595D01*
X182266930Y-77503932D01*
X182247677Y-77724000D01*
X182266930Y-77944068D01*
X182324106Y-78157450D01*
X182326428Y-78162431D01*
X182326429Y-78162432D01*
X182385575Y-78289270D01*
X182417466Y-78357661D01*
X182544174Y-78538620D01*
X182700380Y-78694826D01*
X182704888Y-78697983D01*
X182704891Y-78697985D01*
X182840650Y-78793044D01*
X182881338Y-78821534D01*
X182886320Y-78823857D01*
X182886325Y-78823860D01*
X183006301Y-78879805D01*
X183059586Y-78926722D01*
X183079047Y-78994999D01*
X183058505Y-79062959D01*
X183006301Y-79108195D01*
X182886320Y-79164143D01*
X182886317Y-79164145D01*
X182881339Y-79166466D01*
X182700380Y-79293174D01*
X182544174Y-79449380D01*
X182417466Y-79630339D01*
X182415145Y-79635317D01*
X182415143Y-79635320D01*
X182390064Y-79689102D01*
X182324106Y-79830550D01*
X182322684Y-79835858D01*
X182322683Y-79835860D01*
X182320122Y-79845418D01*
X182266930Y-80043932D01*
X182247677Y-80264000D01*
X182266930Y-80484068D01*
X182300932Y-80610965D01*
X182319055Y-80678598D01*
X182324106Y-80697450D01*
X182326428Y-80702431D01*
X182326429Y-80702432D01*
X182392671Y-80844487D01*
X182417466Y-80897661D01*
X182544174Y-81078620D01*
X182700380Y-81234826D01*
X182704888Y-81237983D01*
X182704891Y-81237985D01*
X182777073Y-81288527D01*
X182881338Y-81361534D01*
X182886320Y-81363857D01*
X182886325Y-81363860D01*
X183006893Y-81420081D01*
X183060178Y-81466998D01*
X183079639Y-81535275D01*
X183059097Y-81603235D01*
X183006893Y-81648471D01*
X182886575Y-81704576D01*
X182877085Y-81710055D01*
X182834978Y-81739539D01*
X182826604Y-81750015D01*
X182833673Y-81763463D01*
X183502188Y-82431978D01*
X183516132Y-82439592D01*
X183517965Y-82439461D01*
X183524580Y-82435210D01*
X184197049Y-81762741D01*
X184203479Y-81750966D01*
X184194183Y-81738951D01*
X184152919Y-81710058D01*
X184143424Y-81704575D01*
X184023107Y-81648471D01*
X183969822Y-81601554D01*
X183950361Y-81533277D01*
X183970903Y-81465317D01*
X184023107Y-81420081D01*
X184143675Y-81363860D01*
X184143680Y-81363857D01*
X184148662Y-81361534D01*
X184252927Y-81288527D01*
X184325109Y-81237985D01*
X184325112Y-81237983D01*
X184329620Y-81234826D01*
X184485826Y-81078620D01*
X184612534Y-80897661D01*
X184637330Y-80844487D01*
X184703571Y-80702432D01*
X184703572Y-80702431D01*
X184705894Y-80697450D01*
X184710946Y-80678598D01*
X184729068Y-80610965D01*
X184763070Y-80484068D01*
X184782323Y-80264000D01*
X184763070Y-80043932D01*
X184709878Y-79845418D01*
X184707317Y-79835860D01*
X184707316Y-79835858D01*
X184705894Y-79830550D01*
X184639936Y-79689102D01*
X184614857Y-79635320D01*
X184614855Y-79635317D01*
X184612534Y-79630339D01*
X184485826Y-79449380D01*
X184329620Y-79293174D01*
X184325112Y-79290017D01*
X184325109Y-79290015D01*
X184153171Y-79169623D01*
X184153168Y-79169621D01*
X184148662Y-79166466D01*
X184143680Y-79164143D01*
X184143675Y-79164140D01*
X184023699Y-79108195D01*
X183970414Y-79061278D01*
X183950953Y-78993001D01*
X183971495Y-78925041D01*
X184023699Y-78879805D01*
X184143675Y-78823860D01*
X184143680Y-78823857D01*
X184148662Y-78821534D01*
X184189350Y-78793044D01*
X184325109Y-78697985D01*
X184325112Y-78697983D01*
X184329620Y-78694826D01*
X184485826Y-78538620D01*
X184612534Y-78357661D01*
X184644426Y-78289270D01*
X184703571Y-78162432D01*
X184703572Y-78162431D01*
X184705894Y-78157450D01*
X184763070Y-77944068D01*
X184782323Y-77724000D01*
X184763070Y-77503932D01*
X184722787Y-77353595D01*
X184707317Y-77295860D01*
X184707316Y-77295858D01*
X184705894Y-77290550D01*
X184703569Y-77285563D01*
X184614857Y-77095320D01*
X184614855Y-77095317D01*
X184612534Y-77090339D01*
X184485826Y-76909380D01*
X184329620Y-76753174D01*
X184325112Y-76750017D01*
X184325109Y-76750015D01*
X184153171Y-76629623D01*
X184153168Y-76629621D01*
X184148662Y-76626466D01*
X184143680Y-76624143D01*
X184143675Y-76624140D01*
X184023699Y-76568195D01*
X183970414Y-76521278D01*
X183950953Y-76453001D01*
X183971495Y-76385041D01*
X184023699Y-76339805D01*
X184143675Y-76283860D01*
X184143680Y-76283857D01*
X184148662Y-76281534D01*
X184202983Y-76243498D01*
X184325109Y-76157985D01*
X184325112Y-76157983D01*
X184329620Y-76154826D01*
X184485826Y-75998620D01*
X184612534Y-75817661D01*
X184620538Y-75800498D01*
X184703571Y-75622432D01*
X184703572Y-75622431D01*
X184705894Y-75617450D01*
X184763070Y-75404068D01*
X184782323Y-75184000D01*
X184763070Y-74963932D01*
X184705894Y-74750550D01*
X184694224Y-74725523D01*
X184614857Y-74555320D01*
X184614855Y-74555317D01*
X184612534Y-74550339D01*
X184485826Y-74369380D01*
X184329620Y-74213174D01*
X184325112Y-74210017D01*
X184325109Y-74210015D01*
X184153171Y-74089623D01*
X184153168Y-74089621D01*
X184148662Y-74086466D01*
X184143680Y-74084143D01*
X184143675Y-74084140D01*
X184023699Y-74028195D01*
X183970414Y-73981278D01*
X183950953Y-73913001D01*
X183971495Y-73845041D01*
X184023699Y-73799805D01*
X184143675Y-73743860D01*
X184143680Y-73743857D01*
X184148662Y-73741534D01*
X184153171Y-73738377D01*
X184325109Y-73617985D01*
X184325112Y-73617983D01*
X184329620Y-73614826D01*
X184485826Y-73458620D01*
X184612534Y-73277661D01*
X184633132Y-73233490D01*
X184703571Y-73082432D01*
X184703572Y-73082431D01*
X184705894Y-73077450D01*
X184709767Y-73062998D01*
X184725740Y-73003383D01*
X184763070Y-72864068D01*
X184782323Y-72644000D01*
X184763070Y-72423932D01*
X184705894Y-72210550D01*
X184696469Y-72190338D01*
X184614857Y-72015320D01*
X184614855Y-72015317D01*
X184612534Y-72010339D01*
X184485826Y-71829380D01*
X184329620Y-71673174D01*
X184325112Y-71670017D01*
X184325109Y-71670015D01*
X184153171Y-71549623D01*
X184153168Y-71549621D01*
X184148662Y-71546466D01*
X184143680Y-71544143D01*
X184143675Y-71544140D01*
X184023699Y-71488195D01*
X183970414Y-71441278D01*
X183950953Y-71373001D01*
X183971495Y-71305041D01*
X184023699Y-71259805D01*
X184143675Y-71203860D01*
X184143680Y-71203857D01*
X184148662Y-71201534D01*
X184153171Y-71198377D01*
X184325109Y-71077985D01*
X184325112Y-71077983D01*
X184329620Y-71074826D01*
X184485826Y-70918620D01*
X184612534Y-70737661D01*
X184615317Y-70731694D01*
X184703571Y-70542432D01*
X184703572Y-70542431D01*
X184705894Y-70537450D01*
X184763070Y-70324068D01*
X184782323Y-70104000D01*
X184763070Y-69883932D01*
X184718528Y-69717699D01*
X184707317Y-69675860D01*
X184707316Y-69675858D01*
X184705894Y-69670550D01*
X184694287Y-69645659D01*
X184614857Y-69475320D01*
X184614855Y-69475317D01*
X184612534Y-69470339D01*
X184485826Y-69289380D01*
X184329620Y-69133174D01*
X184325112Y-69130017D01*
X184325109Y-69130015D01*
X184153171Y-69009623D01*
X184153169Y-69009622D01*
X184148662Y-69006466D01*
X184143680Y-69004143D01*
X184143675Y-69004140D01*
X184023699Y-68948195D01*
X183970414Y-68901278D01*
X183950953Y-68833001D01*
X183971495Y-68765041D01*
X184023699Y-68719805D01*
X184143675Y-68663860D01*
X184143680Y-68663857D01*
X184148662Y-68661534D01*
X184179302Y-68640080D01*
X184325109Y-68537985D01*
X184325112Y-68537983D01*
X184329620Y-68534826D01*
X184485826Y-68378620D01*
X184612534Y-68197661D01*
X184625776Y-68169265D01*
X184703571Y-68002432D01*
X184703572Y-68002431D01*
X184705894Y-67997450D01*
X184763070Y-67784068D01*
X184782323Y-67564000D01*
X184763070Y-67343932D01*
X184713397Y-67158550D01*
X184707317Y-67135860D01*
X184707316Y-67135858D01*
X184705894Y-67130550D01*
X184703571Y-67125568D01*
X184614857Y-66935320D01*
X184614855Y-66935317D01*
X184612534Y-66930339D01*
X184485826Y-66749380D01*
X184329620Y-66593174D01*
X184325112Y-66590017D01*
X184325109Y-66590015D01*
X184153171Y-66469623D01*
X184153168Y-66469621D01*
X184148662Y-66466466D01*
X184143680Y-66464143D01*
X184143675Y-66464140D01*
X183953432Y-66375429D01*
X183953431Y-66375429D01*
X183948450Y-66373106D01*
X183943142Y-66371684D01*
X183943140Y-66371683D01*
X183877748Y-66354161D01*
X183735068Y-66315930D01*
X183515000Y-66296677D01*
X183294932Y-66315930D01*
X183152252Y-66354161D01*
X183086860Y-66371683D01*
X183086858Y-66371684D01*
X183081550Y-66373106D01*
X183076569Y-66375428D01*
X183076568Y-66375429D01*
X182886320Y-66464143D01*
X182886317Y-66464145D01*
X182881339Y-66466466D01*
X182700380Y-66593174D01*
X182544174Y-66749380D01*
X182417466Y-66930339D01*
X182415145Y-66935317D01*
X182415143Y-66935320D01*
X182326429Y-67125568D01*
X182324106Y-67130550D01*
X182322684Y-67135858D01*
X182322683Y-67135860D01*
X182316603Y-67158550D01*
X182266930Y-67343932D01*
X182247677Y-67564000D01*
X182266930Y-67784068D01*
X182324106Y-67997450D01*
X182326428Y-68002431D01*
X182326429Y-68002432D01*
X182417466Y-68197661D01*
X182415381Y-68198633D01*
X182429817Y-68258053D01*
X182406619Y-68325153D01*
X182350827Y-68369059D01*
X182303958Y-68378100D01*
X161866042Y-68378100D01*
X161797921Y-68358098D01*
X161751428Y-68304442D01*
X161741324Y-68234168D01*
X161753767Y-68198236D01*
X161752534Y-68197661D01*
X161843571Y-68002432D01*
X161843572Y-68002431D01*
X161845894Y-67997450D01*
X161903070Y-67784068D01*
X161922323Y-67564000D01*
X161903070Y-67343932D01*
X161853397Y-67158550D01*
X161847317Y-67135860D01*
X161847316Y-67135858D01*
X161845894Y-67130550D01*
X161843571Y-67125568D01*
X161754857Y-66935320D01*
X161754855Y-66935317D01*
X161752534Y-66930339D01*
X161625826Y-66749380D01*
X161469620Y-66593174D01*
X161465112Y-66590017D01*
X161465109Y-66590015D01*
X161293171Y-66469623D01*
X161293168Y-66469621D01*
X161288662Y-66466466D01*
X161283680Y-66464143D01*
X161283675Y-66464140D01*
X161093432Y-66375429D01*
X161093431Y-66375429D01*
X161088450Y-66373106D01*
X161083142Y-66371684D01*
X161083140Y-66371683D01*
X161017748Y-66354161D01*
X160875068Y-66315930D01*
X160655000Y-66296677D01*
X160434932Y-66315930D01*
X160292252Y-66354161D01*
X160226860Y-66371683D01*
X160226858Y-66371684D01*
X160221550Y-66373106D01*
X160216569Y-66375428D01*
X160216568Y-66375429D01*
X160026320Y-66464143D01*
X160026317Y-66464145D01*
X160021339Y-66466466D01*
X159840380Y-66593174D01*
X159684174Y-66749380D01*
X159681015Y-66753892D01*
X159594975Y-66876770D01*
X159539518Y-66921099D01*
X159491762Y-66930500D01*
X157003295Y-66930500D01*
X156935174Y-66910498D01*
X156914200Y-66893595D01*
X156151926Y-66131321D01*
X156117900Y-66069009D01*
X156122965Y-65998194D01*
X156165512Y-65941358D01*
X156187770Y-65928032D01*
X156226756Y-65909852D01*
X156226763Y-65909848D01*
X156231749Y-65907523D01*
X156336611Y-65834098D01*
X156414789Y-65779357D01*
X156414792Y-65779355D01*
X156419300Y-65776198D01*
X156581198Y-65614300D01*
X156585120Y-65608700D01*
X156659888Y-65501919D01*
X156712523Y-65426749D01*
X156714846Y-65421767D01*
X156714849Y-65421762D01*
X156806961Y-65224225D01*
X156806961Y-65224224D01*
X156809284Y-65219243D01*
X156810824Y-65213498D01*
X156867119Y-65003402D01*
X156867119Y-65003400D01*
X156868543Y-64998087D01*
X156888498Y-64770000D01*
X156868543Y-64541913D01*
X156832404Y-64407041D01*
X156810707Y-64326067D01*
X156810706Y-64326065D01*
X156809284Y-64320757D01*
X156804309Y-64310088D01*
X156714849Y-64118238D01*
X156714846Y-64118233D01*
X156712523Y-64113251D01*
X156603786Y-63957959D01*
X156584357Y-63930211D01*
X156584355Y-63930208D01*
X156581198Y-63925700D01*
X156419300Y-63763802D01*
X156414792Y-63760645D01*
X156414789Y-63760643D01*
X156307609Y-63685595D01*
X156231749Y-63632477D01*
X156226767Y-63630154D01*
X156226762Y-63630151D01*
X156029225Y-63538039D01*
X156029224Y-63538039D01*
X156024243Y-63535716D01*
X156018935Y-63534294D01*
X156018933Y-63534293D01*
X155808402Y-63477881D01*
X155808400Y-63477881D01*
X155803087Y-63476457D01*
X155575000Y-63456502D01*
X155346913Y-63476457D01*
X155341600Y-63477881D01*
X155341598Y-63477881D01*
X155131067Y-63534293D01*
X155131065Y-63534294D01*
X155125757Y-63535716D01*
X155120776Y-63538039D01*
X155120775Y-63538039D01*
X154923238Y-63630151D01*
X154923233Y-63630154D01*
X154918251Y-63632477D01*
X154842391Y-63685595D01*
X154735211Y-63760643D01*
X154735208Y-63760645D01*
X154730700Y-63763802D01*
X154568802Y-63925700D01*
X154565645Y-63930208D01*
X154565643Y-63930211D01*
X154546214Y-63957959D01*
X154437477Y-64113251D01*
X154396057Y-64202077D01*
X154378408Y-64239926D01*
X154331491Y-64293211D01*
X154263214Y-64312672D01*
X154229056Y-64307672D01*
X154227323Y-64307169D01*
X154220045Y-64304019D01*
X154212215Y-64302779D01*
X154212209Y-64302777D01*
X154176376Y-64297101D01*
X154164756Y-64294695D01*
X154129611Y-64285672D01*
X154129610Y-64285672D01*
X154121930Y-64283700D01*
X154101676Y-64283700D01*
X154081965Y-64282149D01*
X154069786Y-64280220D01*
X154061957Y-64278980D01*
X154054065Y-64279726D01*
X154017939Y-64283141D01*
X154006081Y-64283700D01*
X153110934Y-64283700D01*
X153042813Y-64263698D01*
X152996320Y-64210042D01*
X152986216Y-64139768D01*
X152997976Y-64101874D01*
X153045138Y-64006448D01*
X153047430Y-64001811D01*
X153112370Y-63788069D01*
X153141529Y-63566590D01*
X153142227Y-63538039D01*
X153143074Y-63503365D01*
X153143074Y-63503361D01*
X153143156Y-63500000D01*
X153124852Y-63277361D01*
X153070431Y-63060702D01*
X152981354Y-62855840D01*
X152860014Y-62668277D01*
X152709670Y-62503051D01*
X152705619Y-62499852D01*
X152705615Y-62499848D01*
X152538414Y-62367800D01*
X152538410Y-62367798D01*
X152534359Y-62364598D01*
X152529835Y-62362100D01*
X152529831Y-62362098D01*
X152409950Y-62295920D01*
X152359980Y-62245488D01*
X152345208Y-62176045D01*
X152370324Y-62109640D01*
X152427355Y-62067355D01*
X152471007Y-62059612D01*
X178963286Y-62094364D01*
G37*
G04 #@! TD.AperFunction*
G04 #@! TA.AperFunction,Conductor*
G36*
X120661812Y-94211870D02*
G01*
X120668394Y-94217998D01*
X122533369Y-96082974D01*
X124356648Y-97906253D01*
X124364188Y-97914539D01*
X124368300Y-97921018D01*
X124374077Y-97926443D01*
X124417951Y-97967643D01*
X124420793Y-97970398D01*
X124440530Y-97990135D01*
X124443727Y-97992615D01*
X124452747Y-98000318D01*
X124484979Y-98030586D01*
X124491925Y-98034405D01*
X124491928Y-98034407D01*
X124502734Y-98040348D01*
X124519253Y-98051199D01*
X124535259Y-98063614D01*
X124542528Y-98066759D01*
X124542532Y-98066762D01*
X124575837Y-98081174D01*
X124586487Y-98086391D01*
X124625240Y-98107695D01*
X124632915Y-98109666D01*
X124632916Y-98109666D01*
X124644862Y-98112733D01*
X124663566Y-98119137D01*
X124672364Y-98122944D01*
X124682155Y-98127181D01*
X124689978Y-98128420D01*
X124689988Y-98128423D01*
X124725824Y-98134099D01*
X124737444Y-98136505D01*
X124772589Y-98145528D01*
X124780270Y-98147500D01*
X124800524Y-98147500D01*
X124820234Y-98149051D01*
X124840243Y-98152220D01*
X124848135Y-98151474D01*
X124884261Y-98148059D01*
X124896119Y-98147500D01*
X130246806Y-98147500D01*
X130314927Y-98167502D01*
X130361420Y-98221158D01*
X130371524Y-98291432D01*
X130342030Y-98356012D01*
X130335901Y-98362595D01*
X126167200Y-102531295D01*
X126104888Y-102565321D01*
X126078105Y-102568200D01*
X124795767Y-102568200D01*
X124784584Y-102567673D01*
X124777091Y-102565998D01*
X124769165Y-102566247D01*
X124769164Y-102566247D01*
X124709001Y-102568138D01*
X124705043Y-102568200D01*
X124677144Y-102568200D01*
X124673154Y-102568704D01*
X124661320Y-102569636D01*
X124617111Y-102571026D01*
X124609497Y-102573238D01*
X124609492Y-102573239D01*
X124597659Y-102576677D01*
X124578296Y-102580688D01*
X124558203Y-102583226D01*
X124550836Y-102586143D01*
X124550831Y-102586144D01*
X124517092Y-102599502D01*
X124505865Y-102603346D01*
X124463407Y-102615682D01*
X124456581Y-102619719D01*
X124445972Y-102625993D01*
X124428224Y-102634688D01*
X124409383Y-102642148D01*
X124402967Y-102646810D01*
X124402966Y-102646810D01*
X124373613Y-102668136D01*
X124363693Y-102674652D01*
X124332465Y-102693120D01*
X124332462Y-102693122D01*
X124325638Y-102697158D01*
X124311317Y-102711479D01*
X124296284Y-102724319D01*
X124279893Y-102736228D01*
X124257251Y-102763598D01*
X124251702Y-102770305D01*
X124243712Y-102779084D01*
X122409240Y-104613555D01*
X122346930Y-104647580D01*
X122276115Y-104642515D01*
X122231052Y-104613554D01*
X122148300Y-104530802D01*
X122143792Y-104527645D01*
X122143789Y-104527643D01*
X122065611Y-104472902D01*
X121960749Y-104399477D01*
X121955767Y-104397154D01*
X121955762Y-104397151D01*
X121921543Y-104381195D01*
X121868258Y-104334278D01*
X121848797Y-104266001D01*
X121869339Y-104198041D01*
X121921543Y-104152805D01*
X121955762Y-104136849D01*
X121955767Y-104136846D01*
X121960749Y-104134523D01*
X122116964Y-104025140D01*
X122143789Y-104006357D01*
X122143792Y-104006355D01*
X122148300Y-104003198D01*
X122310198Y-103841300D01*
X122314470Y-103835200D01*
X122408696Y-103700631D01*
X122441523Y-103653749D01*
X122443846Y-103648767D01*
X122443849Y-103648762D01*
X122535961Y-103451225D01*
X122535961Y-103451224D01*
X122538284Y-103446243D01*
X122556889Y-103376811D01*
X122596119Y-103230402D01*
X122596119Y-103230400D01*
X122597543Y-103225087D01*
X122617498Y-102997000D01*
X122597543Y-102768913D01*
X122596119Y-102763598D01*
X122539707Y-102553067D01*
X122539706Y-102553065D01*
X122538284Y-102547757D01*
X122530608Y-102531295D01*
X122443849Y-102345238D01*
X122443846Y-102345233D01*
X122441523Y-102340251D01*
X122340644Y-102196181D01*
X122313357Y-102157211D01*
X122313355Y-102157208D01*
X122310198Y-102152700D01*
X122148300Y-101990802D01*
X122143792Y-101987645D01*
X122143789Y-101987643D01*
X122058855Y-101928172D01*
X121960749Y-101859477D01*
X121955767Y-101857154D01*
X121955762Y-101857151D01*
X121921543Y-101841195D01*
X121868258Y-101794278D01*
X121848797Y-101726001D01*
X121869339Y-101658041D01*
X121921543Y-101612805D01*
X121955762Y-101596849D01*
X121955767Y-101596846D01*
X121960749Y-101594523D01*
X122136511Y-101471453D01*
X122143789Y-101466357D01*
X122143792Y-101466355D01*
X122148300Y-101463198D01*
X122310198Y-101301300D01*
X122441523Y-101113749D01*
X122443846Y-101108767D01*
X122443849Y-101108762D01*
X122535961Y-100911225D01*
X122535961Y-100911224D01*
X122538284Y-100906243D01*
X122556889Y-100836811D01*
X122596119Y-100690402D01*
X122596119Y-100690400D01*
X122597543Y-100685087D01*
X122617498Y-100457000D01*
X122597543Y-100228913D01*
X122596119Y-100223598D01*
X122539707Y-100013067D01*
X122539706Y-100013065D01*
X122538284Y-100007757D01*
X122519769Y-99968051D01*
X122443849Y-99805238D01*
X122443846Y-99805233D01*
X122441523Y-99800251D01*
X122328582Y-99638955D01*
X122313357Y-99617211D01*
X122313355Y-99617208D01*
X122310198Y-99612700D01*
X122148300Y-99450802D01*
X122143792Y-99447645D01*
X122143789Y-99447643D01*
X121987275Y-99338051D01*
X121960749Y-99319477D01*
X121955767Y-99317154D01*
X121955762Y-99317151D01*
X121921543Y-99301195D01*
X121868258Y-99254278D01*
X121848797Y-99186001D01*
X121869339Y-99118041D01*
X121921543Y-99072805D01*
X121955762Y-99056849D01*
X121955767Y-99056846D01*
X121960749Y-99054523D01*
X122127401Y-98937832D01*
X122143789Y-98926357D01*
X122143792Y-98926355D01*
X122148300Y-98923198D01*
X122310198Y-98761300D01*
X122441523Y-98573749D01*
X122443846Y-98568767D01*
X122443849Y-98568762D01*
X122535961Y-98371225D01*
X122535961Y-98371224D01*
X122538284Y-98366243D01*
X122541026Y-98356012D01*
X122596119Y-98150402D01*
X122596119Y-98150400D01*
X122597543Y-98145087D01*
X122617498Y-97917000D01*
X122597543Y-97688913D01*
X122538284Y-97467757D01*
X122535961Y-97462775D01*
X122443849Y-97265238D01*
X122443846Y-97265233D01*
X122441523Y-97260251D01*
X122310198Y-97072700D01*
X122148300Y-96910802D01*
X122143792Y-96907645D01*
X122143789Y-96907643D01*
X121996701Y-96804651D01*
X121960749Y-96779477D01*
X121955767Y-96777154D01*
X121955762Y-96777151D01*
X121758225Y-96685039D01*
X121758224Y-96685039D01*
X121753243Y-96682716D01*
X121747935Y-96681294D01*
X121747933Y-96681293D01*
X121537402Y-96624881D01*
X121537400Y-96624881D01*
X121532087Y-96623457D01*
X121432520Y-96614746D01*
X121363851Y-96608738D01*
X121363844Y-96608738D01*
X121361127Y-96608500D01*
X120579300Y-96608500D01*
X120511179Y-96588498D01*
X120464686Y-96534842D01*
X120453300Y-96482500D01*
X120453300Y-94307094D01*
X120473302Y-94238973D01*
X120526958Y-94192480D01*
X120597232Y-94182376D01*
X120661812Y-94211870D01*
G37*
G04 #@! TD.AperFunction*
G04 #@! TA.AperFunction,Conductor*
G36*
X121476522Y-62018955D02*
G01*
X121544617Y-62039047D01*
X121591039Y-62092763D01*
X121601051Y-62163050D01*
X121571473Y-62227592D01*
X121565452Y-62234050D01*
X121543802Y-62255700D01*
X121540648Y-62260205D01*
X121540643Y-62260211D01*
X121494172Y-62326579D01*
X121412477Y-62443251D01*
X121410154Y-62448233D01*
X121410151Y-62448238D01*
X121384592Y-62503051D01*
X121315716Y-62650757D01*
X121314294Y-62656065D01*
X121314293Y-62656067D01*
X121263770Y-62844621D01*
X121256457Y-62871913D01*
X121251406Y-62929649D01*
X121242726Y-63028865D01*
X121241500Y-63042873D01*
X121241500Y-63957127D01*
X121256457Y-64128087D01*
X121257881Y-64133400D01*
X121257881Y-64133402D01*
X121304046Y-64305689D01*
X121315716Y-64349243D01*
X121318039Y-64354224D01*
X121318039Y-64354225D01*
X121410151Y-64551762D01*
X121410154Y-64551767D01*
X121412477Y-64556749D01*
X121440953Y-64597417D01*
X121515743Y-64704227D01*
X121543802Y-64744300D01*
X121705700Y-64906198D01*
X121710208Y-64909355D01*
X121710211Y-64909357D01*
X121777828Y-64956703D01*
X121893251Y-65037523D01*
X121898233Y-65039846D01*
X121898238Y-65039849D01*
X122023127Y-65098085D01*
X122100757Y-65134284D01*
X122106065Y-65135706D01*
X122106067Y-65135707D01*
X122316598Y-65192119D01*
X122316600Y-65192119D01*
X122321913Y-65193543D01*
X122550000Y-65213498D01*
X122778087Y-65193543D01*
X122783400Y-65192119D01*
X122783402Y-65192119D01*
X122993933Y-65135707D01*
X122993935Y-65135706D01*
X122999243Y-65134284D01*
X123076873Y-65098085D01*
X123201762Y-65039849D01*
X123201767Y-65039846D01*
X123206749Y-65037523D01*
X123322172Y-64956703D01*
X123389789Y-64909357D01*
X123389792Y-64909355D01*
X123394300Y-64906198D01*
X123556198Y-64744300D01*
X123584258Y-64704227D01*
X123659047Y-64597417D01*
X123687523Y-64556749D01*
X123689846Y-64551767D01*
X123689849Y-64551762D01*
X123705805Y-64517543D01*
X123752722Y-64464258D01*
X123820999Y-64444797D01*
X123888959Y-64465339D01*
X123934195Y-64517543D01*
X123950151Y-64551762D01*
X123950154Y-64551767D01*
X123952477Y-64556749D01*
X123980953Y-64597417D01*
X124055743Y-64704227D01*
X124083802Y-64744300D01*
X124245700Y-64906198D01*
X124250208Y-64909355D01*
X124250211Y-64909357D01*
X124317828Y-64956703D01*
X124433251Y-65037523D01*
X124438233Y-65039846D01*
X124438238Y-65039849D01*
X124563127Y-65098085D01*
X124640757Y-65134284D01*
X124646065Y-65135706D01*
X124646067Y-65135707D01*
X124856598Y-65192119D01*
X124856600Y-65192119D01*
X124861913Y-65193543D01*
X125090000Y-65213498D01*
X125318087Y-65193543D01*
X125323400Y-65192119D01*
X125323402Y-65192119D01*
X125533933Y-65135707D01*
X125533935Y-65135706D01*
X125539243Y-65134284D01*
X125616873Y-65098085D01*
X125741762Y-65039849D01*
X125741767Y-65039846D01*
X125746749Y-65037523D01*
X125862172Y-64956703D01*
X125929789Y-64909357D01*
X125929792Y-64909355D01*
X125934300Y-64906198D01*
X126096198Y-64744300D01*
X126124258Y-64704227D01*
X126199047Y-64597417D01*
X126227523Y-64556749D01*
X126229846Y-64551767D01*
X126229849Y-64551762D01*
X126245805Y-64517543D01*
X126292722Y-64464258D01*
X126360999Y-64444797D01*
X126428959Y-64465339D01*
X126474195Y-64517543D01*
X126490151Y-64551762D01*
X126490154Y-64551767D01*
X126492477Y-64556749D01*
X126520953Y-64597417D01*
X126595743Y-64704227D01*
X126623802Y-64744300D01*
X126785700Y-64906198D01*
X126790208Y-64909355D01*
X126790211Y-64909357D01*
X126857828Y-64956703D01*
X126973251Y-65037523D01*
X126978233Y-65039846D01*
X126978238Y-65039849D01*
X127103127Y-65098085D01*
X127180757Y-65134284D01*
X127186065Y-65135706D01*
X127186067Y-65135707D01*
X127396598Y-65192119D01*
X127396600Y-65192119D01*
X127401913Y-65193543D01*
X127630000Y-65213498D01*
X127858087Y-65193543D01*
X127863400Y-65192119D01*
X127863402Y-65192119D01*
X128073933Y-65135707D01*
X128073935Y-65135706D01*
X128079243Y-65134284D01*
X128156873Y-65098085D01*
X128281762Y-65039849D01*
X128281767Y-65039846D01*
X128286749Y-65037523D01*
X128402172Y-64956703D01*
X128469789Y-64909357D01*
X128469792Y-64909355D01*
X128474300Y-64906198D01*
X128636198Y-64744300D01*
X128664258Y-64704227D01*
X128739047Y-64597417D01*
X128767523Y-64556749D01*
X128769846Y-64551767D01*
X128769849Y-64551762D01*
X128785805Y-64517543D01*
X128832722Y-64464258D01*
X128900999Y-64444797D01*
X128968959Y-64465339D01*
X129014195Y-64517543D01*
X129030151Y-64551762D01*
X129030154Y-64551767D01*
X129032477Y-64556749D01*
X129060953Y-64597417D01*
X129135743Y-64704227D01*
X129163802Y-64744300D01*
X129246554Y-64827052D01*
X129280580Y-64889364D01*
X129275515Y-64960179D01*
X129246556Y-65005239D01*
X127935247Y-66316548D01*
X127926961Y-66324088D01*
X127920482Y-66328200D01*
X127915057Y-66333977D01*
X127873857Y-66377851D01*
X127871102Y-66380693D01*
X127851365Y-66400430D01*
X127848885Y-66403627D01*
X127841182Y-66412647D01*
X127810914Y-66444879D01*
X127807095Y-66451825D01*
X127807093Y-66451828D01*
X127801152Y-66462634D01*
X127790301Y-66479153D01*
X127777886Y-66495159D01*
X127774741Y-66502428D01*
X127774738Y-66502432D01*
X127760326Y-66535737D01*
X127755109Y-66546387D01*
X127733805Y-66585140D01*
X127731834Y-66592815D01*
X127731834Y-66592816D01*
X127728767Y-66604762D01*
X127722363Y-66623466D01*
X127714319Y-66642055D01*
X127713080Y-66649878D01*
X127713077Y-66649888D01*
X127707401Y-66685724D01*
X127704994Y-66697347D01*
X127699406Y-66719110D01*
X127671002Y-66772084D01*
X127588460Y-66863756D01*
X127492973Y-67029144D01*
X127433958Y-67210772D01*
X127433268Y-67217333D01*
X127433268Y-67217335D01*
X127425220Y-67293906D01*
X127413996Y-67400700D01*
X127414371Y-67404271D01*
X127394684Y-67471321D01*
X127341028Y-67517814D01*
X127288686Y-67529200D01*
X127061600Y-67529200D01*
X126993479Y-67509198D01*
X126974253Y-67492857D01*
X126973980Y-67493160D01*
X126969068Y-67488737D01*
X126964653Y-67483834D01*
X126867533Y-67413272D01*
X126815494Y-67375463D01*
X126815493Y-67375462D01*
X126810152Y-67371582D01*
X126804124Y-67368898D01*
X126804122Y-67368897D01*
X126641719Y-67296591D01*
X126641718Y-67296591D01*
X126635688Y-67293906D01*
X126542287Y-67274053D01*
X126455344Y-67255572D01*
X126455339Y-67255572D01*
X126448887Y-67254200D01*
X126257913Y-67254200D01*
X126251461Y-67255572D01*
X126251456Y-67255572D01*
X126164513Y-67274053D01*
X126071112Y-67293906D01*
X126065082Y-67296591D01*
X126065081Y-67296591D01*
X125902678Y-67368897D01*
X125902676Y-67368898D01*
X125896648Y-67371582D01*
X125891307Y-67375462D01*
X125891306Y-67375463D01*
X125862014Y-67396745D01*
X125742147Y-67483834D01*
X125737726Y-67488744D01*
X125737725Y-67488745D01*
X125665036Y-67569475D01*
X125614360Y-67625756D01*
X125611059Y-67631474D01*
X125526122Y-67778589D01*
X125518873Y-67791144D01*
X125459858Y-67972772D01*
X125459168Y-67979333D01*
X125459168Y-67979335D01*
X125455845Y-68010955D01*
X125439896Y-68162700D01*
X125440586Y-68169265D01*
X125455680Y-68312873D01*
X125459858Y-68352628D01*
X125518873Y-68534256D01*
X125614360Y-68699644D01*
X125618778Y-68704551D01*
X125618779Y-68704552D01*
X125736839Y-68835671D01*
X125742147Y-68841566D01*
X125800340Y-68883846D01*
X125888909Y-68948195D01*
X125896648Y-68953818D01*
X125902676Y-68956502D01*
X125902678Y-68956503D01*
X126065081Y-69028809D01*
X126071112Y-69031494D01*
X126157832Y-69049927D01*
X126251456Y-69069828D01*
X126251461Y-69069828D01*
X126257913Y-69071200D01*
X126448887Y-69071200D01*
X126455339Y-69069828D01*
X126455344Y-69069828D01*
X126502952Y-69059708D01*
X126573743Y-69065110D01*
X126630375Y-69107927D01*
X126654869Y-69174564D01*
X126639448Y-69243866D01*
X126618244Y-69272050D01*
X126144491Y-69745803D01*
X126082179Y-69779829D01*
X126011364Y-69774764D01*
X125966301Y-69745803D01*
X125934300Y-69713802D01*
X125929792Y-69710645D01*
X125929789Y-69710643D01*
X125802671Y-69621634D01*
X125746749Y-69582477D01*
X125741767Y-69580154D01*
X125741762Y-69580151D01*
X125544225Y-69488039D01*
X125544224Y-69488039D01*
X125539243Y-69485716D01*
X125533935Y-69484294D01*
X125533933Y-69484293D01*
X125323402Y-69427881D01*
X125323400Y-69427881D01*
X125318087Y-69426457D01*
X125090000Y-69406502D01*
X124861913Y-69426457D01*
X124856600Y-69427881D01*
X124856598Y-69427881D01*
X124646067Y-69484293D01*
X124646065Y-69484294D01*
X124640757Y-69485716D01*
X124635776Y-69488039D01*
X124635775Y-69488039D01*
X124438238Y-69580151D01*
X124438233Y-69580154D01*
X124433251Y-69582477D01*
X124377329Y-69621634D01*
X124250211Y-69710643D01*
X124250208Y-69710645D01*
X124245700Y-69713802D01*
X124083802Y-69875700D01*
X124080643Y-69880211D01*
X124077108Y-69884424D01*
X124075974Y-69883473D01*
X124025929Y-69923471D01*
X123955310Y-69930776D01*
X123891951Y-69898742D01*
X123855970Y-69837538D01*
X123852918Y-69820483D01*
X123851745Y-69809684D01*
X123800615Y-69673295D01*
X123713261Y-69556739D01*
X123596705Y-69469385D01*
X123460316Y-69418255D01*
X123398134Y-69411500D01*
X121701866Y-69411500D01*
X121639684Y-69418255D01*
X121503295Y-69469385D01*
X121386739Y-69556739D01*
X121299385Y-69673295D01*
X121248255Y-69809684D01*
X121241500Y-69871866D01*
X121241500Y-72368134D01*
X121248255Y-72430316D01*
X121299385Y-72566705D01*
X121386739Y-72683261D01*
X121503295Y-72770615D01*
X121639684Y-72821745D01*
X121701866Y-72828500D01*
X123398134Y-72828500D01*
X123460316Y-72821745D01*
X123596705Y-72770615D01*
X123713261Y-72683261D01*
X123800615Y-72566705D01*
X123851745Y-72430316D01*
X123852917Y-72419526D01*
X123853803Y-72417394D01*
X123854425Y-72414778D01*
X123854848Y-72414879D01*
X123880155Y-72353965D01*
X123938517Y-72313537D01*
X124009471Y-72311078D01*
X124070490Y-72347371D01*
X124077489Y-72356031D01*
X124080643Y-72359789D01*
X124083802Y-72364300D01*
X124245700Y-72526198D01*
X124250208Y-72529355D01*
X124250211Y-72529357D01*
X124428746Y-72654369D01*
X124428750Y-72654371D01*
X124432667Y-72657114D01*
X124432668Y-72657115D01*
X124433251Y-72657523D01*
X124433169Y-72657640D01*
X124480638Y-72707427D01*
X124494073Y-72777140D01*
X124467685Y-72843051D01*
X124457739Y-72854256D01*
X122620100Y-74691895D01*
X122557788Y-74725921D01*
X122531005Y-74728800D01*
X120975793Y-74728800D01*
X120952184Y-74726568D01*
X120951881Y-74726510D01*
X120951877Y-74726510D01*
X120944094Y-74725025D01*
X120888049Y-74728551D01*
X120880138Y-74728800D01*
X120864144Y-74728800D01*
X120848270Y-74730806D01*
X120840410Y-74731548D01*
X120812951Y-74733276D01*
X120792263Y-74734577D01*
X120792262Y-74734577D01*
X120784350Y-74735075D01*
X120776809Y-74737525D01*
X120776513Y-74737621D01*
X120753369Y-74742794D01*
X120753065Y-74742832D01*
X120753060Y-74742833D01*
X120745203Y-74743826D01*
X120737838Y-74746742D01*
X120737834Y-74746743D01*
X120692989Y-74764499D01*
X120685570Y-74767171D01*
X120632125Y-74784536D01*
X120625429Y-74788786D01*
X120625428Y-74788786D01*
X120625169Y-74788950D01*
X120604042Y-74799715D01*
X120603754Y-74799829D01*
X120603749Y-74799832D01*
X120596383Y-74802748D01*
X120589975Y-74807404D01*
X120589969Y-74807407D01*
X120550948Y-74835758D01*
X120544411Y-74840201D01*
X120496982Y-74870300D01*
X120491556Y-74876078D01*
X120491555Y-74876079D01*
X120491341Y-74876307D01*
X120473554Y-74891988D01*
X120473309Y-74892166D01*
X120473307Y-74892168D01*
X120466893Y-74896828D01*
X120461839Y-74902937D01*
X120461838Y-74902938D01*
X120431097Y-74940096D01*
X120425866Y-74946030D01*
X120392842Y-74981198D01*
X120392840Y-74981201D01*
X120387414Y-74986979D01*
X120383445Y-74994199D01*
X120370119Y-75013806D01*
X120369920Y-75014046D01*
X120369916Y-75014053D01*
X120364867Y-75020156D01*
X120347936Y-75056136D01*
X120340953Y-75070976D01*
X120337371Y-75078008D01*
X120310305Y-75127240D01*
X120308335Y-75134915D01*
X120308332Y-75134921D01*
X120308256Y-75135219D01*
X120300224Y-75157528D01*
X120300094Y-75157803D01*
X120300091Y-75157811D01*
X120296717Y-75164982D01*
X120287024Y-75215797D01*
X120286195Y-75220143D01*
X120284471Y-75227858D01*
X120280862Y-75241915D01*
X120244547Y-75302921D01*
X120231095Y-75313790D01*
X120189758Y-75342734D01*
X120064211Y-75430643D01*
X120064208Y-75430645D01*
X120059700Y-75433802D01*
X119897802Y-75595700D01*
X119894645Y-75600208D01*
X119894643Y-75600211D01*
X119882572Y-75617450D01*
X119766477Y-75783251D01*
X119764154Y-75788233D01*
X119764151Y-75788238D01*
X119748195Y-75822457D01*
X119701278Y-75875742D01*
X119633001Y-75895203D01*
X119565041Y-75874661D01*
X119519805Y-75822457D01*
X119503849Y-75788238D01*
X119503846Y-75788233D01*
X119501523Y-75783251D01*
X119385428Y-75617450D01*
X119373357Y-75600211D01*
X119373355Y-75600208D01*
X119370198Y-75595700D01*
X119208300Y-75433802D01*
X119203792Y-75430645D01*
X119203789Y-75430643D01*
X119125611Y-75375902D01*
X119020749Y-75302477D01*
X119015767Y-75300154D01*
X119015762Y-75300151D01*
X118818225Y-75208039D01*
X118818224Y-75208039D01*
X118813243Y-75205716D01*
X118807935Y-75204294D01*
X118807933Y-75204293D01*
X118597402Y-75147881D01*
X118597400Y-75147881D01*
X118592087Y-75146457D01*
X118364000Y-75126502D01*
X118135913Y-75146457D01*
X118130600Y-75147881D01*
X118130598Y-75147881D01*
X117920067Y-75204293D01*
X117920065Y-75204294D01*
X117914757Y-75205716D01*
X117909776Y-75208039D01*
X117909775Y-75208039D01*
X117712238Y-75300151D01*
X117712233Y-75300154D01*
X117707251Y-75302477D01*
X117602389Y-75375902D01*
X117524211Y-75430643D01*
X117524208Y-75430645D01*
X117519700Y-75433802D01*
X117357802Y-75595700D01*
X117354645Y-75600208D01*
X117354643Y-75600211D01*
X117342572Y-75617450D01*
X117226477Y-75783251D01*
X117224154Y-75788233D01*
X117224151Y-75788238D01*
X117134420Y-75980669D01*
X117129716Y-75990757D01*
X117128294Y-75996065D01*
X117128293Y-75996067D01*
X117084907Y-76157985D01*
X117070457Y-76211913D01*
X117055500Y-76382873D01*
X117055500Y-77297127D01*
X117070457Y-77468087D01*
X117129716Y-77689243D01*
X117132039Y-77694224D01*
X117132039Y-77694225D01*
X117224151Y-77891762D01*
X117224154Y-77891767D01*
X117226477Y-77896749D01*
X117357802Y-78084300D01*
X117519700Y-78246198D01*
X117524208Y-78249355D01*
X117524211Y-78249357D01*
X117581213Y-78289270D01*
X117707251Y-78377523D01*
X117712233Y-78379846D01*
X117712238Y-78379849D01*
X117855304Y-78446561D01*
X117914757Y-78474284D01*
X117920065Y-78475706D01*
X117920067Y-78475707D01*
X118130598Y-78532119D01*
X118130600Y-78532119D01*
X118135913Y-78533543D01*
X118364000Y-78553498D01*
X118592087Y-78533543D01*
X118597400Y-78532119D01*
X118597402Y-78532119D01*
X118807933Y-78475707D01*
X118807935Y-78475706D01*
X118813243Y-78474284D01*
X118872696Y-78446561D01*
X119015762Y-78379849D01*
X119015767Y-78379846D01*
X119020749Y-78377523D01*
X119146787Y-78289270D01*
X119203789Y-78249357D01*
X119203792Y-78249355D01*
X119208300Y-78246198D01*
X119370198Y-78084300D01*
X119501523Y-77896749D01*
X119503846Y-77891767D01*
X119503849Y-77891762D01*
X119519805Y-77857543D01*
X119566722Y-77804258D01*
X119634999Y-77784797D01*
X119702959Y-77805339D01*
X119748195Y-77857543D01*
X119764151Y-77891762D01*
X119764154Y-77891767D01*
X119766477Y-77896749D01*
X119897802Y-78084300D01*
X120059700Y-78246198D01*
X120064208Y-78249355D01*
X120064211Y-78249357D01*
X120121213Y-78289270D01*
X120247251Y-78377523D01*
X120252233Y-78379846D01*
X120252238Y-78379849D01*
X120395304Y-78446561D01*
X120454757Y-78474284D01*
X120460065Y-78475706D01*
X120460067Y-78475707D01*
X120670598Y-78532119D01*
X120670600Y-78532119D01*
X120675913Y-78533543D01*
X120904000Y-78553498D01*
X121132087Y-78533543D01*
X121137400Y-78532119D01*
X121137402Y-78532119D01*
X121347933Y-78475707D01*
X121347935Y-78475706D01*
X121353243Y-78474284D01*
X121412696Y-78446561D01*
X121555762Y-78379849D01*
X121555767Y-78379846D01*
X121560749Y-78377523D01*
X121686787Y-78289270D01*
X121743789Y-78249357D01*
X121743792Y-78249355D01*
X121748300Y-78246198D01*
X121910198Y-78084300D01*
X122041523Y-77896749D01*
X122043846Y-77891767D01*
X122043849Y-77891762D01*
X122059805Y-77857543D01*
X122106722Y-77804258D01*
X122174999Y-77784797D01*
X122242959Y-77805339D01*
X122288195Y-77857543D01*
X122304151Y-77891762D01*
X122304154Y-77891767D01*
X122306477Y-77896749D01*
X122437802Y-78084300D01*
X122599700Y-78246198D01*
X122604208Y-78249355D01*
X122604211Y-78249357D01*
X122661213Y-78289270D01*
X122787251Y-78377523D01*
X122792233Y-78379846D01*
X122792238Y-78379849D01*
X122935304Y-78446561D01*
X122994757Y-78474284D01*
X123000065Y-78475706D01*
X123000067Y-78475707D01*
X123210598Y-78532119D01*
X123210600Y-78532119D01*
X123215913Y-78533543D01*
X123444000Y-78553498D01*
X123672087Y-78533543D01*
X123677400Y-78532119D01*
X123677402Y-78532119D01*
X123887933Y-78475707D01*
X123887935Y-78475706D01*
X123893243Y-78474284D01*
X123952696Y-78446561D01*
X124095762Y-78379849D01*
X124095767Y-78379846D01*
X124100749Y-78377523D01*
X124226787Y-78289270D01*
X124283789Y-78249357D01*
X124283792Y-78249355D01*
X124288300Y-78246198D01*
X124450198Y-78084300D01*
X124581523Y-77896749D01*
X124583846Y-77891767D01*
X124583849Y-77891762D01*
X124599805Y-77857543D01*
X124646722Y-77804258D01*
X124714999Y-77784797D01*
X124782959Y-77805339D01*
X124828195Y-77857543D01*
X124844151Y-77891762D01*
X124844154Y-77891767D01*
X124846477Y-77896749D01*
X124977802Y-78084300D01*
X125139700Y-78246198D01*
X125144208Y-78249355D01*
X125144211Y-78249357D01*
X125201213Y-78289270D01*
X125327251Y-78377523D01*
X125332233Y-78379846D01*
X125332238Y-78379849D01*
X125475304Y-78446561D01*
X125534757Y-78474284D01*
X125540065Y-78475706D01*
X125540067Y-78475707D01*
X125750598Y-78532119D01*
X125750600Y-78532119D01*
X125755913Y-78533543D01*
X125984000Y-78553498D01*
X126212087Y-78533543D01*
X126217400Y-78532119D01*
X126217402Y-78532119D01*
X126427933Y-78475707D01*
X126427935Y-78475706D01*
X126433243Y-78474284D01*
X126492696Y-78446561D01*
X126635762Y-78379849D01*
X126635767Y-78379846D01*
X126640749Y-78377523D01*
X126766787Y-78289270D01*
X126823789Y-78249357D01*
X126823792Y-78249355D01*
X126828300Y-78246198D01*
X126990198Y-78084300D01*
X127121523Y-77896749D01*
X127123846Y-77891767D01*
X127123849Y-77891762D01*
X127139805Y-77857543D01*
X127186722Y-77804258D01*
X127254999Y-77784797D01*
X127322959Y-77805339D01*
X127368195Y-77857543D01*
X127384151Y-77891762D01*
X127384154Y-77891767D01*
X127386477Y-77896749D01*
X127517802Y-78084300D01*
X127679700Y-78246198D01*
X127684208Y-78249355D01*
X127684211Y-78249357D01*
X127741213Y-78289270D01*
X127867251Y-78377523D01*
X127872233Y-78379846D01*
X127872238Y-78379849D01*
X128015304Y-78446561D01*
X128074757Y-78474284D01*
X128080065Y-78475706D01*
X128080067Y-78475707D01*
X128290598Y-78532119D01*
X128290600Y-78532119D01*
X128295913Y-78533543D01*
X128524000Y-78553498D01*
X128752087Y-78533543D01*
X128757400Y-78532119D01*
X128757402Y-78532119D01*
X128967933Y-78475707D01*
X128967935Y-78475706D01*
X128973243Y-78474284D01*
X129032696Y-78446561D01*
X129175762Y-78379849D01*
X129175767Y-78379846D01*
X129180749Y-78377523D01*
X129306787Y-78289270D01*
X129363789Y-78249357D01*
X129363792Y-78249355D01*
X129368300Y-78246198D01*
X129530198Y-78084300D01*
X129661523Y-77896749D01*
X129663846Y-77891767D01*
X129663849Y-77891762D01*
X129679805Y-77857543D01*
X129726722Y-77804258D01*
X129794999Y-77784797D01*
X129862959Y-77805339D01*
X129908195Y-77857543D01*
X129924151Y-77891762D01*
X129924154Y-77891767D01*
X129926477Y-77896749D01*
X130057802Y-78084300D01*
X130219700Y-78246198D01*
X130224208Y-78249355D01*
X130224211Y-78249357D01*
X130281213Y-78289270D01*
X130407251Y-78377523D01*
X130412233Y-78379846D01*
X130412238Y-78379849D01*
X130555304Y-78446561D01*
X130614757Y-78474284D01*
X130620065Y-78475706D01*
X130620067Y-78475707D01*
X130830598Y-78532119D01*
X130830600Y-78532119D01*
X130835913Y-78533543D01*
X130841389Y-78534022D01*
X130841394Y-78534023D01*
X130859961Y-78535647D01*
X130865347Y-78536118D01*
X130931465Y-78561981D01*
X130973105Y-78619484D01*
X130977046Y-78690371D01*
X130943461Y-78750734D01*
X119427547Y-90266648D01*
X119419261Y-90274188D01*
X119412782Y-90278300D01*
X119407357Y-90284077D01*
X119366157Y-90327951D01*
X119363402Y-90330793D01*
X119354094Y-90340101D01*
X119291782Y-90374127D01*
X119251393Y-90376269D01*
X119215491Y-90372369D01*
X119208672Y-90372000D01*
X118636115Y-90372000D01*
X118620876Y-90376475D01*
X118619671Y-90377865D01*
X118618000Y-90385548D01*
X118618000Y-93769884D01*
X118622475Y-93785123D01*
X118623865Y-93786328D01*
X118631548Y-93787999D01*
X119060300Y-93787999D01*
X119128421Y-93808001D01*
X119174914Y-93861657D01*
X119186300Y-93913999D01*
X119186300Y-96650034D01*
X119166298Y-96718155D01*
X119112642Y-96764648D01*
X119042368Y-96774752D01*
X119007051Y-96764229D01*
X118837230Y-96685041D01*
X118837225Y-96685039D01*
X118832243Y-96682716D01*
X118826935Y-96681294D01*
X118826933Y-96681293D01*
X118616402Y-96624881D01*
X118616400Y-96624881D01*
X118611087Y-96623457D01*
X118511520Y-96614746D01*
X118442851Y-96608738D01*
X118442844Y-96608738D01*
X118440127Y-96608500D01*
X117525873Y-96608500D01*
X117523156Y-96608738D01*
X117523149Y-96608738D01*
X117454480Y-96614746D01*
X117354913Y-96623457D01*
X117349600Y-96624881D01*
X117349598Y-96624881D01*
X117139067Y-96681293D01*
X117139065Y-96681294D01*
X117133757Y-96682716D01*
X117128776Y-96685039D01*
X117128775Y-96685039D01*
X116938850Y-96773602D01*
X116868658Y-96784263D01*
X116803845Y-96755283D01*
X116764989Y-96695863D01*
X116759600Y-96659407D01*
X116759600Y-93324669D01*
X117056001Y-93324669D01*
X117056371Y-93331490D01*
X117061895Y-93382352D01*
X117065521Y-93397604D01*
X117110676Y-93518054D01*
X117119214Y-93533649D01*
X117195715Y-93635724D01*
X117208276Y-93648285D01*
X117310351Y-93724786D01*
X117325946Y-93733324D01*
X117446394Y-93778478D01*
X117461649Y-93782105D01*
X117512514Y-93787631D01*
X117519328Y-93788000D01*
X118091885Y-93788000D01*
X118107124Y-93783525D01*
X118108329Y-93782135D01*
X118110000Y-93774452D01*
X118110000Y-92352115D01*
X118105525Y-92336876D01*
X118104135Y-92335671D01*
X118096452Y-92334000D01*
X117074116Y-92334000D01*
X117058877Y-92338475D01*
X117057672Y-92339865D01*
X117056001Y-92347548D01*
X117056001Y-93324669D01*
X116759600Y-93324669D01*
X116759600Y-91807885D01*
X117056000Y-91807885D01*
X117060475Y-91823124D01*
X117061865Y-91824329D01*
X117069548Y-91826000D01*
X118091885Y-91826000D01*
X118107124Y-91821525D01*
X118108329Y-91820135D01*
X118110000Y-91812452D01*
X118110000Y-90390116D01*
X118105525Y-90374877D01*
X118104135Y-90373672D01*
X118096452Y-90372001D01*
X117519331Y-90372001D01*
X117512510Y-90372371D01*
X117461648Y-90377895D01*
X117446396Y-90381521D01*
X117325946Y-90426676D01*
X117310351Y-90435214D01*
X117208276Y-90511715D01*
X117195715Y-90524276D01*
X117119214Y-90626351D01*
X117110676Y-90641946D01*
X117065522Y-90762394D01*
X117061895Y-90777649D01*
X117056369Y-90828514D01*
X117056000Y-90835328D01*
X117056000Y-91807885D01*
X116759600Y-91807885D01*
X116759600Y-69205284D01*
X116779602Y-69137163D01*
X116833258Y-69090670D01*
X116903532Y-69080566D01*
X116968112Y-69110060D01*
X117001967Y-69156965D01*
X117005071Y-69164441D01*
X117013473Y-69178876D01*
X117058529Y-69236857D01*
X117063724Y-69242744D01*
X117447216Y-69626236D01*
X117453190Y-69631501D01*
X117511876Y-69676982D01*
X117526348Y-69685376D01*
X117645250Y-69734506D01*
X117661393Y-69738771D01*
X117734248Y-69747910D01*
X117742093Y-69748400D01*
X117837885Y-69748400D01*
X117853124Y-69743925D01*
X117854329Y-69742535D01*
X117856000Y-69734852D01*
X117856000Y-69730284D01*
X118364000Y-69730284D01*
X118368475Y-69745523D01*
X118369865Y-69746728D01*
X118377548Y-69748399D01*
X118477873Y-69748399D01*
X118485792Y-69747899D01*
X118559464Y-69738561D01*
X118575625Y-69734265D01*
X118694443Y-69684927D01*
X118708876Y-69676527D01*
X118766857Y-69631471D01*
X118772744Y-69626276D01*
X119156236Y-69242784D01*
X119161501Y-69236810D01*
X119206982Y-69178124D01*
X119215376Y-69163652D01*
X119264506Y-69044750D01*
X119268771Y-69028607D01*
X119277910Y-68955752D01*
X119278400Y-68947907D01*
X119278400Y-68852115D01*
X119273925Y-68836876D01*
X119272535Y-68835671D01*
X119264852Y-68834000D01*
X118382115Y-68834000D01*
X118366876Y-68838475D01*
X118365671Y-68839865D01*
X118364000Y-68847548D01*
X118364000Y-69730284D01*
X117856000Y-69730284D01*
X117856000Y-68307885D01*
X118364000Y-68307885D01*
X118368475Y-68323124D01*
X118369865Y-68324329D01*
X118377548Y-68326000D01*
X119260284Y-68326000D01*
X119275523Y-68321525D01*
X119276728Y-68320135D01*
X119278399Y-68312452D01*
X119278399Y-68212127D01*
X119277899Y-68204208D01*
X119268561Y-68130536D01*
X119264265Y-68114375D01*
X119214927Y-67995557D01*
X119206527Y-67981124D01*
X119161471Y-67923143D01*
X119156276Y-67917256D01*
X118772784Y-67533764D01*
X118766810Y-67528499D01*
X118708124Y-67483018D01*
X118693652Y-67474624D01*
X118574750Y-67425494D01*
X118558607Y-67421229D01*
X118485752Y-67412090D01*
X118477907Y-67411600D01*
X118382115Y-67411600D01*
X118366876Y-67416075D01*
X118365671Y-67417465D01*
X118364000Y-67425148D01*
X118364000Y-68307885D01*
X117856000Y-68307885D01*
X117856000Y-67429716D01*
X117851525Y-67414477D01*
X117850135Y-67413272D01*
X117842452Y-67411601D01*
X117742127Y-67411601D01*
X117734208Y-67412101D01*
X117660536Y-67421439D01*
X117644375Y-67425735D01*
X117525557Y-67475073D01*
X117511124Y-67483473D01*
X117453143Y-67528529D01*
X117447256Y-67533724D01*
X117063764Y-67917216D01*
X117058499Y-67923190D01*
X117013018Y-67981876D01*
X117004622Y-67996352D01*
X117002050Y-68002576D01*
X116957550Y-68057895D01*
X116890206Y-68080374D01*
X116821399Y-68062875D01*
X116772976Y-68010955D01*
X116759600Y-67954458D01*
X116759600Y-64126586D01*
X116779602Y-64058465D01*
X116833258Y-64011972D01*
X116903532Y-64001868D01*
X116968112Y-64031362D01*
X117001967Y-64078268D01*
X117007869Y-64092481D01*
X117060563Y-64160291D01*
X117449711Y-64549438D01*
X117518291Y-64602588D01*
X117652909Y-64658211D01*
X117661269Y-64659260D01*
X117661270Y-64659260D01*
X117734209Y-64668410D01*
X117734213Y-64668410D01*
X117738117Y-64668900D01*
X118108260Y-64668900D01*
X118477907Y-64668901D01*
X118481881Y-64668901D01*
X118485814Y-64668402D01*
X118485821Y-64668402D01*
X118559592Y-64659050D01*
X118559594Y-64659049D01*
X118567959Y-64657989D01*
X118702481Y-64602131D01*
X118770291Y-64549437D01*
X119159438Y-64160289D01*
X119212588Y-64091709D01*
X119268211Y-63957091D01*
X119273187Y-63917425D01*
X119278410Y-63875791D01*
X119278410Y-63875787D01*
X119278900Y-63871883D01*
X119278901Y-63128119D01*
X119267989Y-63042041D01*
X119212131Y-62907519D01*
X119159437Y-62839709D01*
X118770289Y-62450562D01*
X118701709Y-62397412D01*
X118567091Y-62341789D01*
X118558731Y-62340740D01*
X118558730Y-62340740D01*
X118485791Y-62331590D01*
X118485787Y-62331590D01*
X118481883Y-62331100D01*
X118111740Y-62331100D01*
X117742093Y-62331099D01*
X117738119Y-62331099D01*
X117734186Y-62331598D01*
X117734179Y-62331598D01*
X117660408Y-62340950D01*
X117660406Y-62340951D01*
X117652041Y-62342011D01*
X117517519Y-62397869D01*
X117449709Y-62450563D01*
X117060562Y-62839711D01*
X117007412Y-62908291D01*
X117004188Y-62916094D01*
X117002051Y-62921265D01*
X116957552Y-62976586D01*
X116890208Y-62999066D01*
X116821402Y-62981569D01*
X116772977Y-62929649D01*
X116759600Y-62873150D01*
X116759600Y-62138933D01*
X116779602Y-62070812D01*
X116833258Y-62024319D01*
X116885763Y-62012933D01*
X121476522Y-62018955D01*
G37*
G04 #@! TD.AperFunction*
G04 #@! TA.AperFunction,Conductor*
G36*
X141440517Y-63534753D02*
G01*
X141497353Y-63577300D01*
X141522276Y-63645556D01*
X141525110Y-63694715D01*
X141526247Y-63699761D01*
X141526248Y-63699767D01*
X141547265Y-63793023D01*
X141574222Y-63912639D01*
X141658266Y-64119616D01*
X141681288Y-64157184D01*
X141767029Y-64297101D01*
X141774987Y-64310088D01*
X141921250Y-64478938D01*
X141925230Y-64482242D01*
X141929981Y-64486187D01*
X141969616Y-64545090D01*
X141971113Y-64616071D01*
X141933997Y-64676593D01*
X141893724Y-64701112D01*
X141778295Y-64744385D01*
X141661739Y-64831739D01*
X141574385Y-64948295D01*
X141523255Y-65084684D01*
X141516500Y-65146866D01*
X141516500Y-66943134D01*
X141523255Y-67005316D01*
X141574385Y-67141705D01*
X141661739Y-67258261D01*
X141778295Y-67345615D01*
X141914684Y-67396745D01*
X141976866Y-67403500D01*
X143773134Y-67403500D01*
X143835316Y-67396745D01*
X143971705Y-67345615D01*
X144088261Y-67258261D01*
X144175615Y-67141705D01*
X144226745Y-67005316D01*
X144233500Y-66943134D01*
X144233500Y-65146866D01*
X144226745Y-65084684D01*
X144175615Y-64948295D01*
X144116102Y-64868887D01*
X144098049Y-64820568D01*
X144066293Y-64813660D01*
X144051113Y-64803898D01*
X144005883Y-64770000D01*
X143971705Y-64744385D01*
X143959132Y-64739672D01*
X143853203Y-64699960D01*
X143796439Y-64657318D01*
X143771739Y-64590756D01*
X143786947Y-64521408D01*
X143808493Y-64492727D01*
X143862507Y-64438902D01*
X143862663Y-64438746D01*
X143925035Y-64404830D01*
X143995842Y-64410018D01*
X144040698Y-64438902D01*
X144215773Y-64613977D01*
X144249799Y-64676289D01*
X144249780Y-64676550D01*
X144292381Y-64692412D01*
X144306023Y-64704227D01*
X144911243Y-65309447D01*
X144918787Y-65317737D01*
X144922900Y-65324218D01*
X144928677Y-65329643D01*
X144972567Y-65370858D01*
X144975409Y-65373613D01*
X144995130Y-65393334D01*
X144998325Y-65395812D01*
X145007347Y-65403518D01*
X145039579Y-65433786D01*
X145046528Y-65437606D01*
X145057332Y-65443546D01*
X145073856Y-65454399D01*
X145089859Y-65466813D01*
X145130443Y-65484376D01*
X145141073Y-65489583D01*
X145179840Y-65510895D01*
X145187517Y-65512866D01*
X145187522Y-65512868D01*
X145199458Y-65515932D01*
X145218166Y-65522337D01*
X145236755Y-65530381D01*
X145244580Y-65531620D01*
X145244582Y-65531621D01*
X145280419Y-65537297D01*
X145292040Y-65539704D01*
X145327189Y-65548728D01*
X145334870Y-65550700D01*
X145355131Y-65550700D01*
X145374840Y-65552251D01*
X145394843Y-65555419D01*
X145402735Y-65554673D01*
X145407962Y-65554179D01*
X145438854Y-65551259D01*
X145450711Y-65550700D01*
X153727306Y-65550700D01*
X153795427Y-65570702D01*
X153816401Y-65587605D01*
X154373001Y-66144205D01*
X154407027Y-66206517D01*
X154401962Y-66277332D01*
X154359415Y-66334168D01*
X154292895Y-66358979D01*
X154283906Y-66359300D01*
X148175063Y-66359300D01*
X148163879Y-66358773D01*
X148156391Y-66357099D01*
X148148468Y-66357348D01*
X148088333Y-66359238D01*
X148084375Y-66359300D01*
X148056444Y-66359300D01*
X148052529Y-66359795D01*
X148052525Y-66359795D01*
X148052467Y-66359803D01*
X148052438Y-66359806D01*
X148040596Y-66360739D01*
X147996410Y-66362127D01*
X147979044Y-66367172D01*
X147976958Y-66367778D01*
X147957606Y-66371786D01*
X147950535Y-66372680D01*
X147937503Y-66374326D01*
X147930134Y-66377243D01*
X147930132Y-66377244D01*
X147896397Y-66390600D01*
X147885169Y-66394445D01*
X147842707Y-66406782D01*
X147835885Y-66410816D01*
X147835879Y-66410819D01*
X147825268Y-66417094D01*
X147807518Y-66425790D01*
X147796056Y-66430328D01*
X147796051Y-66430331D01*
X147788683Y-66433248D01*
X147772674Y-66444879D01*
X147752925Y-66459227D01*
X147743007Y-66465743D01*
X147724319Y-66476795D01*
X147704937Y-66488258D01*
X147690613Y-66502582D01*
X147675581Y-66515421D01*
X147659193Y-66527328D01*
X147643417Y-66546398D01*
X147631012Y-66561393D01*
X147623022Y-66570173D01*
X145275700Y-68917495D01*
X145213388Y-68951521D01*
X145186605Y-68954400D01*
X145130713Y-68954400D01*
X145124261Y-68955772D01*
X145124256Y-68955772D01*
X145037312Y-68974253D01*
X144943912Y-68994106D01*
X144937882Y-68996791D01*
X144937881Y-68996791D01*
X144775478Y-69069097D01*
X144775476Y-69069098D01*
X144769448Y-69071782D01*
X144614947Y-69184034D01*
X144610526Y-69188944D01*
X144610525Y-69188945D01*
X144516031Y-69293892D01*
X144487160Y-69325956D01*
X144483859Y-69331674D01*
X144403654Y-69470593D01*
X144391673Y-69491344D01*
X144332658Y-69672972D01*
X144331968Y-69679533D01*
X144331968Y-69679535D01*
X144325033Y-69745523D01*
X144312696Y-69862900D01*
X144332658Y-70052828D01*
X144391673Y-70234456D01*
X144487160Y-70399844D01*
X144491578Y-70404751D01*
X144491579Y-70404752D01*
X144570059Y-70491913D01*
X144614947Y-70541766D01*
X144769448Y-70654018D01*
X144775476Y-70656702D01*
X144775478Y-70656703D01*
X144795540Y-70665635D01*
X144943912Y-70731694D01*
X145037312Y-70751547D01*
X145124256Y-70770028D01*
X145124261Y-70770028D01*
X145130713Y-70771400D01*
X145321687Y-70771400D01*
X145328139Y-70770028D01*
X145328144Y-70770028D01*
X145415088Y-70751547D01*
X145508488Y-70731694D01*
X145656860Y-70665635D01*
X145676922Y-70656703D01*
X145676924Y-70656702D01*
X145682952Y-70654018D01*
X145837453Y-70541766D01*
X145882341Y-70491913D01*
X145960821Y-70404752D01*
X145960822Y-70404751D01*
X145965240Y-70399844D01*
X146060727Y-70234456D01*
X146119742Y-70052828D01*
X146137107Y-69887606D01*
X146164120Y-69821950D01*
X146173322Y-69811682D01*
X147672131Y-68312873D01*
X149961601Y-68312873D01*
X149962101Y-68320792D01*
X149971439Y-68394464D01*
X149975735Y-68410625D01*
X150025073Y-68529443D01*
X150033473Y-68543876D01*
X150078529Y-68601857D01*
X150083724Y-68607744D01*
X150467216Y-68991236D01*
X150473190Y-68996501D01*
X150531876Y-69041982D01*
X150546348Y-69050376D01*
X150665250Y-69099506D01*
X150681393Y-69103771D01*
X150754248Y-69112910D01*
X150762093Y-69113400D01*
X150857885Y-69113400D01*
X150873124Y-69108925D01*
X150874329Y-69107535D01*
X150876000Y-69099852D01*
X150876000Y-69095284D01*
X151384000Y-69095284D01*
X151388475Y-69110523D01*
X151389865Y-69111728D01*
X151397548Y-69113399D01*
X151497873Y-69113399D01*
X151505792Y-69112899D01*
X151579464Y-69103561D01*
X151595625Y-69099265D01*
X151714443Y-69049927D01*
X151728876Y-69041527D01*
X151786857Y-68996471D01*
X151792744Y-68991276D01*
X152176236Y-68607784D01*
X152181501Y-68601810D01*
X152226982Y-68543124D01*
X152235376Y-68528652D01*
X152284506Y-68409750D01*
X152288771Y-68393607D01*
X152297910Y-68320752D01*
X152298400Y-68312907D01*
X152298400Y-68217115D01*
X152293925Y-68201876D01*
X152292535Y-68200671D01*
X152284852Y-68199000D01*
X151402115Y-68199000D01*
X151386876Y-68203475D01*
X151385671Y-68204865D01*
X151384000Y-68212548D01*
X151384000Y-69095284D01*
X150876000Y-69095284D01*
X150876000Y-68217115D01*
X150871525Y-68201876D01*
X150870135Y-68200671D01*
X150862452Y-68199000D01*
X149979716Y-68199000D01*
X149964477Y-68203475D01*
X149963272Y-68204865D01*
X149961601Y-68212548D01*
X149961601Y-68312873D01*
X147672131Y-68312873D01*
X148321799Y-67663205D01*
X148384111Y-67629179D01*
X148410894Y-67626300D01*
X149853599Y-67626300D01*
X149921720Y-67646302D01*
X149937540Y-67664559D01*
X149938114Y-67663896D01*
X149967465Y-67689329D01*
X149975148Y-67691000D01*
X152280284Y-67691000D01*
X152295524Y-67686525D01*
X152310027Y-67669788D01*
X152369753Y-67631404D01*
X152405251Y-67626300D01*
X155233206Y-67626300D01*
X155301327Y-67646302D01*
X155322301Y-67663205D01*
X157062943Y-69403847D01*
X157070487Y-69412137D01*
X157074600Y-69418618D01*
X157080377Y-69424043D01*
X157124267Y-69465258D01*
X157127109Y-69468013D01*
X157146830Y-69487734D01*
X157150025Y-69490212D01*
X157159047Y-69497918D01*
X157191279Y-69528186D01*
X157198228Y-69532006D01*
X157209032Y-69537946D01*
X157225556Y-69548799D01*
X157241559Y-69561213D01*
X157282143Y-69578776D01*
X157292773Y-69583983D01*
X157331540Y-69605295D01*
X157339217Y-69607266D01*
X157339222Y-69607268D01*
X157351158Y-69610332D01*
X157369866Y-69616737D01*
X157388455Y-69624781D01*
X157396280Y-69626020D01*
X157396282Y-69626021D01*
X157432119Y-69631697D01*
X157443740Y-69634104D01*
X157478889Y-69643128D01*
X157486570Y-69645100D01*
X157506831Y-69645100D01*
X157526540Y-69646651D01*
X157546543Y-69649819D01*
X157554435Y-69649073D01*
X157559662Y-69648579D01*
X157590554Y-69645659D01*
X157602411Y-69645100D01*
X159306718Y-69645100D01*
X159374839Y-69665102D01*
X159421332Y-69718758D01*
X159431436Y-69789032D01*
X159428425Y-69803711D01*
X159406930Y-69883932D01*
X159387677Y-70104000D01*
X159406930Y-70324068D01*
X159464106Y-70537450D01*
X159466428Y-70542431D01*
X159466429Y-70542432D01*
X159554684Y-70731694D01*
X159557466Y-70737661D01*
X159684174Y-70918620D01*
X159840380Y-71074826D01*
X159844888Y-71077983D01*
X159844891Y-71077985D01*
X160016829Y-71198377D01*
X160021338Y-71201534D01*
X160026320Y-71203857D01*
X160026325Y-71203860D01*
X160146301Y-71259805D01*
X160199586Y-71306722D01*
X160219047Y-71374999D01*
X160198505Y-71442959D01*
X160146301Y-71488195D01*
X160026320Y-71544143D01*
X160026317Y-71544145D01*
X160021339Y-71546466D01*
X159840380Y-71673174D01*
X159684174Y-71829380D01*
X159557466Y-72010339D01*
X159555145Y-72015317D01*
X159555143Y-72015320D01*
X159473531Y-72190338D01*
X159464106Y-72210550D01*
X159406930Y-72423932D01*
X159387677Y-72644000D01*
X159406930Y-72864068D01*
X159444260Y-73003383D01*
X159460234Y-73062998D01*
X159464106Y-73077450D01*
X159466428Y-73082431D01*
X159466429Y-73082432D01*
X159536869Y-73233490D01*
X159557466Y-73277661D01*
X159684174Y-73458620D01*
X159840380Y-73614826D01*
X159844888Y-73617983D01*
X159844891Y-73617985D01*
X160016829Y-73738377D01*
X160021338Y-73741534D01*
X160026320Y-73743857D01*
X160026325Y-73743860D01*
X160146301Y-73799805D01*
X160199586Y-73846722D01*
X160219047Y-73914999D01*
X160198505Y-73982959D01*
X160146301Y-74028195D01*
X160026320Y-74084143D01*
X160026317Y-74084145D01*
X160021339Y-74086466D01*
X159840380Y-74213174D01*
X159684174Y-74369380D01*
X159557466Y-74550339D01*
X159555145Y-74555317D01*
X159555143Y-74555320D01*
X159475776Y-74725523D01*
X159464106Y-74750550D01*
X159406930Y-74963932D01*
X159387677Y-75184000D01*
X159406930Y-75404068D01*
X159464106Y-75617450D01*
X159466429Y-75622432D01*
X159466431Y-75622437D01*
X159475204Y-75641251D01*
X159485865Y-75711442D01*
X159456885Y-75776255D01*
X159397465Y-75815111D01*
X159361009Y-75820500D01*
X157413595Y-75820500D01*
X157345474Y-75800498D01*
X157324500Y-75783595D01*
X156884152Y-75343247D01*
X156850126Y-75280935D01*
X156851540Y-75221541D01*
X156855158Y-75208039D01*
X156868543Y-75158087D01*
X156888498Y-74930000D01*
X156868543Y-74701913D01*
X156827929Y-74550339D01*
X156810707Y-74486067D01*
X156810706Y-74486064D01*
X156809284Y-74480757D01*
X156806961Y-74475775D01*
X156714849Y-74278238D01*
X156714846Y-74278233D01*
X156712523Y-74273251D01*
X156639098Y-74168389D01*
X156584357Y-74090211D01*
X156584355Y-74090208D01*
X156581198Y-74085700D01*
X156419300Y-73923802D01*
X156414792Y-73920645D01*
X156414789Y-73920643D01*
X156336185Y-73865604D01*
X156231749Y-73792477D01*
X156226767Y-73790154D01*
X156226762Y-73790151D01*
X156029225Y-73698039D01*
X156029224Y-73698039D01*
X156024243Y-73695716D01*
X156018935Y-73694294D01*
X156018933Y-73694293D01*
X155808402Y-73637881D01*
X155808400Y-73637881D01*
X155803087Y-73636457D01*
X155575000Y-73616502D01*
X155346913Y-73636457D01*
X155341600Y-73637881D01*
X155341598Y-73637881D01*
X155131067Y-73694293D01*
X155131065Y-73694294D01*
X155125757Y-73695716D01*
X155120776Y-73698039D01*
X155120775Y-73698039D01*
X154923238Y-73790151D01*
X154923233Y-73790154D01*
X154918251Y-73792477D01*
X154813815Y-73865604D01*
X154735211Y-73920643D01*
X154735208Y-73920645D01*
X154730700Y-73923802D01*
X154568802Y-74085700D01*
X154565645Y-74090208D01*
X154565643Y-74090211D01*
X154510902Y-74168389D01*
X154437477Y-74273251D01*
X154435154Y-74278233D01*
X154435151Y-74278238D01*
X154343039Y-74475775D01*
X154340716Y-74480757D01*
X154339294Y-74486064D01*
X154299276Y-74635412D01*
X154262324Y-74696034D01*
X154198463Y-74727056D01*
X154177569Y-74728800D01*
X151889500Y-74728800D01*
X151821379Y-74708798D01*
X151774886Y-74655142D01*
X151763500Y-74602800D01*
X151763500Y-74153419D01*
X151783502Y-74085298D01*
X151800404Y-74064324D01*
X152176626Y-73688101D01*
X152179438Y-73685289D01*
X152232588Y-73616709D01*
X152288211Y-73482091D01*
X152290667Y-73462515D01*
X152298410Y-73400791D01*
X152298410Y-73400787D01*
X152298900Y-73396883D01*
X152298901Y-72653119D01*
X152297699Y-72643631D01*
X152289050Y-72575408D01*
X152289049Y-72575406D01*
X152287989Y-72567041D01*
X152232131Y-72432519D01*
X152225459Y-72423932D01*
X152182147Y-72368197D01*
X152179437Y-72364709D01*
X151790289Y-71975562D01*
X151721709Y-71922412D01*
X151587091Y-71866789D01*
X151578731Y-71865740D01*
X151578730Y-71865740D01*
X151505791Y-71856590D01*
X151505787Y-71856590D01*
X151501883Y-71856100D01*
X151131740Y-71856100D01*
X150762093Y-71856099D01*
X150758119Y-71856099D01*
X150754186Y-71856598D01*
X150754179Y-71856598D01*
X150680408Y-71865950D01*
X150680406Y-71865951D01*
X150672041Y-71867011D01*
X150537519Y-71922869D01*
X150469709Y-71975563D01*
X150341273Y-72103999D01*
X150278961Y-72138025D01*
X150208146Y-72132960D01*
X150165925Y-72106754D01*
X150144401Y-72086541D01*
X150144397Y-72086538D01*
X150138621Y-72081114D01*
X150131675Y-72077295D01*
X150131672Y-72077293D01*
X150120866Y-72071352D01*
X150104347Y-72060501D01*
X150103883Y-72060141D01*
X150088341Y-72048086D01*
X150081072Y-72044941D01*
X150081068Y-72044938D01*
X150047763Y-72030526D01*
X150037113Y-72025309D01*
X149998360Y-72004005D01*
X149978737Y-71998967D01*
X149960034Y-71992563D01*
X149948720Y-71987667D01*
X149948719Y-71987667D01*
X149941445Y-71984519D01*
X149933622Y-71983280D01*
X149933612Y-71983277D01*
X149897776Y-71977601D01*
X149886156Y-71975195D01*
X149851011Y-71966172D01*
X149851010Y-71966172D01*
X149843330Y-71964200D01*
X149823076Y-71964200D01*
X149803365Y-71962649D01*
X149791186Y-71960720D01*
X149783357Y-71959480D01*
X149775465Y-71960226D01*
X149739339Y-71963641D01*
X149727481Y-71964200D01*
X139189325Y-71964200D01*
X139121204Y-71944198D01*
X139074711Y-71890542D01*
X139064607Y-71820268D01*
X139067618Y-71805589D01*
X139081625Y-71753313D01*
X139083528Y-71742519D01*
X139097762Y-71579830D01*
X139098000Y-71574365D01*
X139098000Y-71392115D01*
X139093525Y-71376876D01*
X139092135Y-71375671D01*
X139084452Y-71374000D01*
X137662000Y-71374000D01*
X137593879Y-71353998D01*
X137547386Y-71300342D01*
X137536000Y-71248000D01*
X137536000Y-70847885D01*
X138044000Y-70847885D01*
X138048475Y-70863124D01*
X138049865Y-70864329D01*
X138057548Y-70866000D01*
X139079885Y-70866000D01*
X139095124Y-70861525D01*
X139096329Y-70860135D01*
X139098000Y-70852452D01*
X139098000Y-70665635D01*
X139097762Y-70660170D01*
X139083528Y-70497481D01*
X139081625Y-70486688D01*
X139025236Y-70276239D01*
X139021490Y-70265947D01*
X138929414Y-70068489D01*
X138923931Y-70058993D01*
X138798972Y-69880533D01*
X138791916Y-69872125D01*
X138637875Y-69718084D01*
X138629467Y-69711028D01*
X138451007Y-69586069D01*
X138441511Y-69580586D01*
X138244053Y-69488510D01*
X138233761Y-69484764D01*
X138061497Y-69438606D01*
X138047401Y-69438942D01*
X138044000Y-69446884D01*
X138044000Y-70847885D01*
X137536000Y-70847885D01*
X137536000Y-69452033D01*
X137532027Y-69438502D01*
X137523478Y-69437273D01*
X137346239Y-69484764D01*
X137335947Y-69488510D01*
X137138489Y-69580586D01*
X137128993Y-69586069D01*
X136950533Y-69711028D01*
X136942125Y-69718084D01*
X136788084Y-69872125D01*
X136781028Y-69880533D01*
X136656069Y-70058993D01*
X136650586Y-70068489D01*
X136634471Y-70103049D01*
X136587554Y-70156334D01*
X136519277Y-70175795D01*
X136451317Y-70155253D01*
X136406081Y-70103049D01*
X136389849Y-70068238D01*
X136389846Y-70068233D01*
X136387523Y-70063251D01*
X136265797Y-69889409D01*
X136259357Y-69880211D01*
X136259355Y-69880208D01*
X136256198Y-69875700D01*
X136094300Y-69713802D01*
X136089792Y-69710645D01*
X136089789Y-69710643D01*
X135962671Y-69621634D01*
X135906749Y-69582477D01*
X135901767Y-69580154D01*
X135901762Y-69580151D01*
X135704225Y-69488039D01*
X135704224Y-69488039D01*
X135699243Y-69485716D01*
X135693935Y-69484294D01*
X135693933Y-69484293D01*
X135483402Y-69427881D01*
X135483400Y-69427881D01*
X135478087Y-69426457D01*
X135250000Y-69406502D01*
X135021913Y-69426457D01*
X134850889Y-69472283D01*
X134779914Y-69470593D01*
X134721118Y-69430799D01*
X134699542Y-69386120D01*
X134697842Y-69386672D01*
X134651441Y-69243866D01*
X134638827Y-69205044D01*
X134543340Y-69039656D01*
X134513494Y-69006508D01*
X134482778Y-68942503D01*
X134491541Y-68872050D01*
X134537004Y-68817518D01*
X134607131Y-68796200D01*
X135733733Y-68796200D01*
X135744916Y-68796727D01*
X135752409Y-68798402D01*
X135760335Y-68798153D01*
X135760336Y-68798153D01*
X135820486Y-68796262D01*
X135824445Y-68796200D01*
X135852356Y-68796200D01*
X135856291Y-68795703D01*
X135856356Y-68795695D01*
X135868193Y-68794762D01*
X135900451Y-68793748D01*
X135904470Y-68793622D01*
X135912389Y-68793373D01*
X135931843Y-68787721D01*
X135951200Y-68783713D01*
X135963430Y-68782168D01*
X135963431Y-68782168D01*
X135971297Y-68781174D01*
X135978668Y-68778255D01*
X135978670Y-68778255D01*
X136012412Y-68764896D01*
X136023642Y-68761051D01*
X136058483Y-68750929D01*
X136058484Y-68750929D01*
X136066093Y-68748718D01*
X136072912Y-68744685D01*
X136072917Y-68744683D01*
X136083528Y-68738407D01*
X136101276Y-68729712D01*
X136120117Y-68722252D01*
X136155887Y-68696264D01*
X136165807Y-68689748D01*
X136197035Y-68671280D01*
X136197038Y-68671278D01*
X136203862Y-68667242D01*
X136218183Y-68652921D01*
X136233217Y-68640080D01*
X136243194Y-68632831D01*
X136249607Y-68628172D01*
X136277798Y-68594095D01*
X136285788Y-68585316D01*
X141307390Y-63563714D01*
X141369702Y-63529688D01*
X141440517Y-63534753D01*
G37*
G04 #@! TD.AperFunction*
M02*
