M48
; DRILL file {KiCad (6.0.5)} date Wed Dec 14 22:29:43 2022
; FORMAT={-:-/ absolute / metric / decimal}
; #@! TF.CreationDate,2022-12-14T22:29:43+01:00
; #@! TF.GenerationSoftware,Kicad,Pcbnew,(6.0.5)
; #@! TF.FileFunction,Plated,1,2,PTH
FMAT,2
METRIC
; #@! TA.AperFunction,Plated,PTH,ViaDrill
T1C0.400
; #@! TA.AperFunction,Plated,PTH,ComponentDrill
T2C0.800
; #@! TA.AperFunction,Plated,PTH,ComponentDrill
T3C0.813
; #@! TA.AperFunction,Plated,PTH,ComponentDrill
T4C1.000
%
G90
G05
T1
X120.53Y-95.479
X122.72Y-90.233
X122.806Y-94.238
X124.752Y-113.605
X124.862Y-102.359
X124.862Y-104.054
X125.446Y-109.069
X126.353Y-68.163
X127.48Y-132.4
X127.488Y-96.099
X128.327Y-67.401
X129.523Y-67.2
X131.317Y-98.277
X132.334Y-78.256
X132.456Y-88.283
X133.804Y-69.577
X137.829Y-101.31
X141.526Y-88.374
X145.226Y-69.863
X146.272Y-89.367
X150.599Y-88.668
X152.405Y-101.189
X154.201Y-86.832
X156.056Y-78.299
X156.879Y-88.422
X159.325Y-88.678
X159.378Y-84.712
X160.341Y-89.687
X177.432Y-80.264
T2
X117.983Y-97.917
X117.983Y-100.457
X117.983Y-102.997
X117.983Y-105.537
X117.983Y-108.077
X117.983Y-110.617
X117.983Y-113.157
X117.983Y-115.697
X117.983Y-118.237
X117.983Y-120.777
X117.983Y-123.317
X117.983Y-125.857
X117.983Y-128.397
X117.983Y-130.937
X117.983Y-133.477
X117.983Y-136.017
X117.983Y-138.557
X117.983Y-141.097
X117.983Y-143.637
X117.983Y-146.177
X118.364Y-76.84
X118.364Y-92.08
X120.904Y-76.84
X120.904Y-92.08
X120.904Y-97.917
X120.904Y-100.457
X120.904Y-102.997
X120.904Y-105.537
X120.904Y-108.077
X120.904Y-110.617
X120.904Y-113.157
X120.904Y-115.697
X120.904Y-118.237
X120.904Y-120.777
X120.904Y-123.317
X120.904Y-125.857
X120.904Y-128.397
X120.904Y-130.937
X120.904Y-133.477
X120.904Y-136.017
X120.904Y-138.557
X120.904Y-141.097
X120.904Y-143.637
X120.904Y-146.177
X122.55Y-63.5
X122.55Y-71.12
X123.444Y-76.84
X123.444Y-92.08
X125.09Y-63.5
X125.09Y-71.12
X125.984Y-76.84
X125.984Y-92.08
X127.63Y-63.5
X127.63Y-71.12
X128.524Y-76.84
X128.524Y-92.08
X130.17Y-63.5
X130.17Y-71.12
X131.064Y-76.84
X131.064Y-92.08
X132.71Y-63.5
X132.71Y-71.12
X133.223Y-97.917
X133.223Y-100.457
X133.223Y-102.997
X133.223Y-105.537
X133.223Y-108.077
X133.223Y-110.617
X133.223Y-113.157
X133.223Y-115.697
X133.223Y-118.237
X133.223Y-120.777
X133.223Y-123.317
X133.223Y-125.857
X133.223Y-128.397
X133.223Y-130.937
X133.223Y-133.477
X133.223Y-136.017
X133.223Y-138.557
X133.223Y-141.097
X133.223Y-143.637
X133.223Y-146.177
X133.604Y-76.84
X133.604Y-92.08
X135.25Y-63.5
X135.25Y-71.12
X136.144Y-76.84
X136.144Y-92.08
X136.144Y-97.917
X136.144Y-100.457
X136.144Y-102.997
X136.144Y-105.537
X136.144Y-108.077
X136.144Y-110.617
X136.144Y-113.157
X136.144Y-115.697
X136.144Y-118.237
X136.144Y-120.777
X136.144Y-123.317
X136.144Y-125.857
X136.144Y-128.397
X136.144Y-130.937
X136.144Y-133.477
X136.144Y-136.017
X136.144Y-138.557
X136.144Y-141.097
X136.144Y-143.637
X136.144Y-146.177
X137.79Y-63.5
X137.79Y-71.12
X138.684Y-76.84
X138.684Y-92.08
X141.224Y-76.84
X141.224Y-92.08
X143.764Y-76.84
X143.764Y-92.08
X146.304Y-76.84
X146.304Y-92.08
X148.844Y-76.84
X148.844Y-92.08
X151.384Y-76.84
X151.384Y-92.08
X155.575Y-64.77
X155.575Y-74.93
X155.829Y-80.481
X155.829Y-85.361
T3
X118.11Y-63.5
X118.11Y-68.58
X151.13Y-67.945
X151.13Y-73.025
T4
X142.875Y-63.505
X142.875Y-66.045
X146.055Y-100.335
X146.055Y-102.875
X146.7Y-63.5
X148.595Y-100.335
X148.595Y-102.875
X149.24Y-63.5
X151.135Y-100.335
X151.135Y-102.875
X151.78Y-63.5
X153.675Y-100.335
X153.675Y-102.875
X156.215Y-100.335
X156.215Y-102.875
X160.655Y-67.564
X160.655Y-70.104
X160.655Y-72.644
X160.655Y-75.184
X160.655Y-77.724
X160.655Y-80.264
X160.655Y-82.804
X160.655Y-85.344
X168.925Y-100.965
X171.465Y-100.965
X174.005Y-100.965
X183.515Y-67.564
X183.515Y-70.104
X183.515Y-72.644
X183.515Y-75.184
X183.515Y-77.724
X183.515Y-80.264
X183.515Y-82.804
X183.515Y-85.344
T0
M30
