G04 #@! TF.GenerationSoftware,KiCad,Pcbnew,(6.0.5)*
G04 #@! TF.CreationDate,2022-12-14T22:29:39+01:00*
G04 #@! TF.ProjectId,Link232-wifi,4c696e6b-3233-4322-9d77-6966692e6b69,rev?*
G04 #@! TF.SameCoordinates,Original*
G04 #@! TF.FileFunction,Copper,L1,Top*
G04 #@! TF.FilePolarity,Positive*
%FSLAX46Y46*%
G04 Gerber Fmt 4.6, Leading zero omitted, Abs format (unit mm)*
G04 Created by KiCad (PCBNEW (6.0.5)) date 2022-12-14 22:29:39*
%MOMM*%
%LPD*%
G01*
G04 APERTURE LIST*
G04 Aperture macros list*
%AMOutline5P*
0 Free polygon, 5 corners , with rotation*
0 The origin of the aperture is its center*
0 number of corners: always 5*
0 $1 to $10 corner X, Y*
0 $11 Rotation angle, in degrees counterclockwise*
0 create outline with 5 corners*
4,1,5,$1,$2,$3,$4,$5,$6,$7,$8,$9,$10,$1,$2,$11*%
%AMOutline6P*
0 Free polygon, 6 corners , with rotation*
0 The origin of the aperture is its center*
0 number of corners: always 6*
0 $1 to $12 corner X, Y*
0 $13 Rotation angle, in degrees counterclockwise*
0 create outline with 6 corners*
4,1,6,$1,$2,$3,$4,$5,$6,$7,$8,$9,$10,$11,$12,$1,$2,$13*%
%AMOutline7P*
0 Free polygon, 7 corners , with rotation*
0 The origin of the aperture is its center*
0 number of corners: always 7*
0 $1 to $14 corner X, Y*
0 $15 Rotation angle, in degrees counterclockwise*
0 create outline with 7 corners*
4,1,7,$1,$2,$3,$4,$5,$6,$7,$8,$9,$10,$11,$12,$13,$14,$1,$2,$15*%
%AMOutline8P*
0 Free polygon, 8 corners , with rotation*
0 The origin of the aperture is its center*
0 number of corners: always 8*
0 $1 to $16 corner X, Y*
0 $17 Rotation angle, in degrees counterclockwise*
0 create outline with 8 corners*
4,1,8,$1,$2,$3,$4,$5,$6,$7,$8,$9,$10,$11,$12,$13,$14,$15,$16,$1,$2,$17*%
G04 Aperture macros list end*
G04 #@! TA.AperFunction,ComponentPad*
%ADD10R,2.400000X1.600000*%
G04 #@! TD*
G04 #@! TA.AperFunction,ComponentPad*
%ADD11O,2.400000X1.600000*%
G04 #@! TD*
G04 #@! TA.AperFunction,ComponentPad*
%ADD12R,1.700000X1.700000*%
G04 #@! TD*
G04 #@! TA.AperFunction,ComponentPad*
%ADD13O,1.700000X1.700000*%
G04 #@! TD*
G04 #@! TA.AperFunction,ComponentPad*
%ADD14R,1.600000X2.400000*%
G04 #@! TD*
G04 #@! TA.AperFunction,ComponentPad*
%ADD15O,1.600000X2.400000*%
G04 #@! TD*
G04 #@! TA.AperFunction,ComponentPad*
%ADD16C,1.508000*%
G04 #@! TD*
G04 #@! TA.AperFunction,ComponentPad*
%ADD17Outline8P,-0.660400X0.330200X-0.330200X0.660400X0.330200X0.660400X0.660400X0.330200X0.660400X-0.330200X0.330200X-0.660400X-0.330200X-0.660400X-0.660400X-0.330200X90.000000*%
G04 #@! TD*
G04 #@! TA.AperFunction,ComponentPad*
%ADD18C,1.500000*%
G04 #@! TD*
G04 #@! TA.AperFunction,ComponentPad*
%ADD19C,1.600000*%
G04 #@! TD*
G04 #@! TA.AperFunction,ComponentPad*
%ADD20O,1.600000X1.600000*%
G04 #@! TD*
G04 #@! TA.AperFunction,ComponentPad*
%ADD21Outline8P,-0.660400X0.330200X-0.330200X0.660400X0.330200X0.660400X0.660400X0.330200X0.660400X-0.330200X0.330200X-0.660400X-0.330200X-0.660400X-0.660400X-0.330200X270.000000*%
G04 #@! TD*
G04 #@! TA.AperFunction,ViaPad*
%ADD22C,0.800000*%
G04 #@! TD*
G04 #@! TA.AperFunction,Conductor*
%ADD23C,0.250000*%
G04 #@! TD*
G04 APERTURE END LIST*
D10*
X133223000Y-146177000D03*
D11*
X133223000Y-143637000D03*
X133223000Y-141097000D03*
X133223000Y-138557000D03*
X133223000Y-136017000D03*
X133223000Y-133477000D03*
X133223000Y-130937000D03*
X133223000Y-128397000D03*
X133223000Y-125857000D03*
X133223000Y-123317000D03*
X133223000Y-120777000D03*
X133223000Y-118237000D03*
X133223000Y-115697000D03*
X133223000Y-113157000D03*
X133223000Y-110617000D03*
X133223000Y-108077000D03*
X133223000Y-105537000D03*
X133223000Y-102997000D03*
X133223000Y-100457000D03*
X133223000Y-97917000D03*
X117983000Y-97917000D03*
X117983000Y-100457000D03*
X117983000Y-102997000D03*
X117983000Y-105537000D03*
X117983000Y-108077000D03*
X117983000Y-110617000D03*
X117983000Y-113157000D03*
X117983000Y-115697000D03*
X117983000Y-118237000D03*
X117983000Y-120777000D03*
X117983000Y-123317000D03*
X117983000Y-125857000D03*
X117983000Y-128397000D03*
X117983000Y-130937000D03*
X117983000Y-133477000D03*
X117983000Y-136017000D03*
X117983000Y-138557000D03*
X117983000Y-141097000D03*
X117983000Y-143637000D03*
X117983000Y-146177000D03*
D12*
X146700000Y-63500000D03*
D13*
X149240000Y-63500000D03*
X151780000Y-63500000D03*
D14*
X122550000Y-71120000D03*
D15*
X125090000Y-71120000D03*
X127630000Y-71120000D03*
X130170000Y-71120000D03*
X132710000Y-71120000D03*
X135250000Y-71120000D03*
X137790000Y-71120000D03*
X137790000Y-63500000D03*
X135250000Y-63500000D03*
X132710000Y-63500000D03*
X130170000Y-63500000D03*
X127630000Y-63500000D03*
X125090000Y-63500000D03*
X122550000Y-63500000D03*
D14*
X118364000Y-92080000D03*
D15*
X120904000Y-92080000D03*
X123444000Y-92080000D03*
X125984000Y-92080000D03*
X128524000Y-92080000D03*
X131064000Y-92080000D03*
X133604000Y-92080000D03*
X136144000Y-92080000D03*
X138684000Y-92080000D03*
X141224000Y-92080000D03*
X143764000Y-92080000D03*
X146304000Y-92080000D03*
X148844000Y-92080000D03*
X151384000Y-92080000D03*
X151384000Y-76840000D03*
X148844000Y-76840000D03*
X146304000Y-76840000D03*
X143764000Y-76840000D03*
X141224000Y-76840000D03*
X138684000Y-76840000D03*
X136144000Y-76840000D03*
X133604000Y-76840000D03*
X131064000Y-76840000D03*
X128524000Y-76840000D03*
X125984000Y-76840000D03*
X123444000Y-76840000D03*
X120904000Y-76840000D03*
X118364000Y-76840000D03*
D10*
X136144000Y-146177000D03*
D11*
X136144000Y-143637000D03*
X136144000Y-141097000D03*
X136144000Y-138557000D03*
X136144000Y-136017000D03*
X136144000Y-133477000D03*
X136144000Y-130937000D03*
X136144000Y-128397000D03*
X136144000Y-125857000D03*
X136144000Y-123317000D03*
X136144000Y-120777000D03*
X136144000Y-118237000D03*
X136144000Y-115697000D03*
X136144000Y-113157000D03*
X136144000Y-110617000D03*
X136144000Y-108077000D03*
X136144000Y-105537000D03*
X136144000Y-102997000D03*
X136144000Y-100457000D03*
X136144000Y-97917000D03*
X120904000Y-97917000D03*
X120904000Y-100457000D03*
X120904000Y-102997000D03*
X120904000Y-105537000D03*
X120904000Y-108077000D03*
X120904000Y-110617000D03*
X120904000Y-113157000D03*
X120904000Y-115697000D03*
X120904000Y-118237000D03*
X120904000Y-120777000D03*
X120904000Y-123317000D03*
X120904000Y-125857000D03*
X120904000Y-128397000D03*
X120904000Y-130937000D03*
X120904000Y-133477000D03*
X120904000Y-136017000D03*
X120904000Y-138557000D03*
X120904000Y-141097000D03*
X120904000Y-143637000D03*
X120904000Y-146177000D03*
D16*
X160655000Y-67564000D03*
X160655000Y-70104000D03*
X160655000Y-72644000D03*
X160655000Y-75184000D03*
X160655000Y-77724000D03*
X160655000Y-80264000D03*
X160655000Y-82804000D03*
X160655000Y-85344000D03*
X183515000Y-67564000D03*
X183515000Y-70104000D03*
X183515000Y-72644000D03*
X183515000Y-75184000D03*
X183515000Y-77724000D03*
X183515000Y-80264000D03*
X183515000Y-82804000D03*
X183515000Y-85344000D03*
D17*
X151130000Y-73025000D03*
X151130000Y-67945000D03*
D18*
X155829000Y-80481000D03*
X155829000Y-85361000D03*
D12*
X142875000Y-66045000D03*
D13*
X142875000Y-63505000D03*
D19*
X155575000Y-74930000D03*
D20*
X155575000Y-64770000D03*
D21*
X118110000Y-63500000D03*
X118110000Y-68580000D03*
D12*
X168925000Y-100965000D03*
D13*
X171465000Y-100965000D03*
X174005000Y-100965000D03*
D12*
X146055000Y-102875000D03*
D13*
X146055000Y-100335000D03*
X148595000Y-102875000D03*
X148595000Y-100335000D03*
X151135000Y-102875000D03*
X151135000Y-100335000D03*
X153675000Y-102875000D03*
X153675000Y-100335000D03*
X156215000Y-102875000D03*
X156215000Y-100335000D03*
D22*
X156879400Y-88422200D03*
X125446400Y-109069300D03*
X132456100Y-88283500D03*
X124862200Y-102359100D03*
X124862200Y-104054400D03*
X120529600Y-95478600D03*
X129522600Y-67199500D03*
X150598600Y-88668500D03*
X146271800Y-89367500D03*
X159324900Y-88677700D03*
X160341400Y-89686600D03*
X145226200Y-69862900D03*
X156056000Y-78299000D03*
X159377600Y-84712200D03*
X154201300Y-86831700D03*
X127480200Y-132400500D03*
X177432300Y-80264000D03*
X124752000Y-113605400D03*
X141526500Y-88374300D03*
X127488000Y-96098900D03*
X126353400Y-68162700D03*
X133804300Y-69576600D03*
X122720400Y-90232600D03*
X122806200Y-94238300D03*
X128327500Y-67400700D03*
X137829400Y-101310500D03*
X152405000Y-101188600D03*
X132334000Y-78256100D03*
X131317300Y-98277100D03*
D23*
X156879400Y-88422200D02*
X168294500Y-99837300D01*
X155575000Y-64770000D02*
X155575000Y-65847700D01*
X156879400Y-67152100D02*
X155575000Y-65847700D01*
X168294500Y-99837300D02*
X168925000Y-99837300D01*
X156879400Y-88422200D02*
X156879400Y-67152100D01*
X168925000Y-100965000D02*
X168925000Y-99837300D01*
X125564100Y-108951600D02*
X125446400Y-109069300D01*
X134874000Y-76154800D02*
X142875000Y-68153800D01*
X125984000Y-92080000D02*
X125984000Y-93557700D01*
X125564100Y-93977600D02*
X125564100Y-108951600D01*
X134874000Y-80674800D02*
X134874000Y-76154800D01*
X125984000Y-93557700D02*
X125564100Y-93977600D01*
X142875000Y-68153800D02*
X142875000Y-66045000D01*
X132456100Y-83092700D02*
X134874000Y-80674800D01*
X132456100Y-88283500D02*
X132456100Y-83092700D01*
X118608700Y-93557700D02*
X120529600Y-95478600D01*
X118364000Y-92080000D02*
X118364000Y-93557700D01*
X124862200Y-102359100D02*
X124862200Y-104054400D01*
X118364000Y-93557700D02*
X118608700Y-93557700D01*
X129522600Y-67199500D02*
X129522600Y-68994900D01*
X118110000Y-63969700D02*
X118110000Y-64439400D01*
X120904000Y-92080000D02*
X120904000Y-90602300D01*
X118110000Y-63500000D02*
X118110000Y-63969700D01*
X118110000Y-64439400D02*
X117159900Y-65389500D01*
X129522600Y-68994900D02*
X130170000Y-69642300D01*
X117159900Y-86858200D02*
X120904000Y-90602300D01*
X129522600Y-67199500D02*
X129086200Y-67199500D01*
X126864400Y-64977700D02*
X122550000Y-64977700D01*
X118110000Y-63969700D02*
X119118000Y-64977700D01*
X129086200Y-67199500D02*
X126864400Y-64977700D01*
X122550000Y-63500000D02*
X122550000Y-64977700D01*
X130170000Y-71120000D02*
X130170000Y-69642300D01*
X117159900Y-65389500D02*
X117159900Y-86858200D01*
X119118000Y-64977700D02*
X122550000Y-64977700D01*
X155829000Y-85361000D02*
X153906100Y-85361000D01*
X153906100Y-85361000D02*
X150598600Y-88668500D01*
X155158300Y-80481000D02*
X146271800Y-89367500D01*
X155829000Y-80481000D02*
X155158300Y-80481000D01*
X175358600Y-72644000D02*
X159324900Y-88677700D01*
X183515000Y-72644000D02*
X175358600Y-72644000D01*
X183515000Y-75184000D02*
X174844000Y-75184000D01*
X174844000Y-75184000D02*
X160341400Y-89686600D01*
X145226200Y-86600100D02*
X145226200Y-69862900D01*
X141224000Y-92080000D02*
X141224000Y-90602300D01*
X141224000Y-90602300D02*
X145226200Y-86600100D01*
X156056000Y-78310300D02*
X156056000Y-78299000D01*
X143764000Y-90602300D02*
X156056000Y-78310300D01*
X143764000Y-92080000D02*
X143764000Y-90602300D01*
X146304000Y-92080000D02*
X146304000Y-90602300D01*
X154201300Y-86831700D02*
X150430700Y-90602300D01*
X160008400Y-84081400D02*
X159377600Y-84712200D01*
X161038200Y-84081400D02*
X160008400Y-84081400D01*
X177555600Y-67564000D02*
X161038200Y-84081400D01*
X183515000Y-67564000D02*
X177555600Y-67564000D01*
X150430700Y-90602300D02*
X146304000Y-90602300D01*
X122381700Y-141097000D02*
X127480200Y-135998500D01*
X127480200Y-135998500D02*
X127480200Y-132400500D01*
X120904000Y-141097000D02*
X122381700Y-141097000D01*
X131884700Y-95599400D02*
X129629400Y-97854700D01*
X129629400Y-129292900D02*
X122381700Y-136540600D01*
X149342300Y-95599400D02*
X131884700Y-95599400D01*
X151384000Y-93557700D02*
X149342300Y-95599400D01*
X129629400Y-97854700D02*
X129629400Y-129292900D01*
X122381700Y-136540600D02*
X122381700Y-138557000D01*
X120904000Y-138557000D02*
X122381700Y-138557000D01*
X151384000Y-92080000D02*
X151384000Y-93557700D01*
X183515000Y-80264000D02*
X177432300Y-80264000D01*
X143764000Y-76840000D02*
X143764000Y-78317700D01*
X124752000Y-113605400D02*
X127488000Y-110869400D01*
X127488000Y-110869400D02*
X127488000Y-96098900D01*
X143764000Y-78317700D02*
X141526500Y-80555200D01*
X141526500Y-80555200D02*
X141526500Y-88374300D01*
X139761800Y-79779900D02*
X141224000Y-78317700D01*
X129164300Y-119074400D02*
X129164300Y-97719700D01*
X131746200Y-95137800D02*
X137566600Y-95137800D01*
X122381700Y-125857000D02*
X129164300Y-119074400D01*
X137566600Y-95137800D02*
X139761800Y-92942600D01*
X129164300Y-97719700D02*
X131746200Y-95137800D01*
X120904000Y-125857000D02*
X122381700Y-125857000D01*
X139761800Y-92942600D02*
X139761800Y-79779900D01*
X141224000Y-76840000D02*
X141224000Y-78317700D01*
X120904000Y-123317000D02*
X122381700Y-123317000D01*
X128761600Y-97551500D02*
X131607400Y-94705700D01*
X131607400Y-94705700D02*
X135478700Y-94705700D01*
X128761600Y-116937100D02*
X128761600Y-97551500D01*
X138684000Y-76840000D02*
X138684000Y-78317700D01*
X137221800Y-92962600D02*
X137221800Y-79779900D01*
X137221800Y-79779900D02*
X138684000Y-78317700D01*
X135478700Y-94705700D02*
X137221800Y-92962600D01*
X122381700Y-123317000D02*
X128761600Y-116937100D01*
X131647600Y-93988600D02*
X128358800Y-97277400D01*
X134874000Y-85379100D02*
X134874000Y-92762600D01*
X134874000Y-92762600D02*
X133648000Y-93988600D01*
X136144000Y-84109100D02*
X134874000Y-85379100D01*
X128358800Y-97277400D02*
X128358800Y-114799900D01*
X136144000Y-76840000D02*
X136144000Y-78317700D01*
X128358800Y-114799900D02*
X122381700Y-120777000D01*
X136144000Y-78317700D02*
X136144000Y-84109100D01*
X120904000Y-120777000D02*
X122381700Y-120777000D01*
X133648000Y-93988600D02*
X131647600Y-93988600D01*
X131778400Y-80143300D02*
X131778400Y-88564200D01*
X131778400Y-88564200D02*
X132143700Y-88929500D01*
X132143700Y-92942400D02*
X131500200Y-93585900D01*
X132143700Y-88929500D02*
X132143700Y-92942400D01*
X131423700Y-93585900D02*
X127956100Y-97053500D01*
X127956100Y-97053500D02*
X127956100Y-112662600D01*
X127956100Y-112662600D02*
X122381700Y-118237000D01*
X133604000Y-78317700D02*
X131778400Y-80143300D01*
X120904000Y-118237000D02*
X122381700Y-118237000D01*
X131500200Y-93585900D02*
X131423700Y-93585900D01*
X133604000Y-76840000D02*
X133604000Y-78317700D01*
X122381700Y-114219300D02*
X126546900Y-110054100D01*
X129601800Y-79779900D02*
X131064000Y-78317700D01*
X122381700Y-115697000D02*
X122381700Y-114219300D01*
X126546900Y-96081600D02*
X129601800Y-93026700D01*
X129601800Y-93026700D02*
X129601800Y-79779900D01*
X131064000Y-76840000D02*
X131064000Y-78317700D01*
X120904000Y-115697000D02*
X122381700Y-115697000D01*
X126546900Y-110054100D02*
X126546900Y-96081600D01*
X128524000Y-78317700D02*
X127061800Y-79779900D01*
X126144100Y-109394600D02*
X122381700Y-113157000D01*
X127061800Y-79779900D02*
X127061800Y-94615300D01*
X120904000Y-113157000D02*
X122381700Y-113157000D01*
X126144100Y-95533000D02*
X126144100Y-109394600D01*
X127061800Y-94615300D02*
X126144100Y-95533000D01*
X128524000Y-76840000D02*
X128524000Y-78317700D01*
X120904000Y-110617000D02*
X122381700Y-110617000D01*
X124630100Y-101606700D02*
X123811800Y-102425000D01*
X125984000Y-78317700D02*
X124630100Y-79671600D01*
X123811800Y-109186900D02*
X122381700Y-110617000D01*
X123811800Y-102425000D02*
X123811800Y-109186900D01*
X124630100Y-79671600D02*
X124630100Y-101606700D01*
X125984000Y-76840000D02*
X125984000Y-78317700D01*
X123444000Y-76840000D02*
X123444000Y-75362300D01*
X123444000Y-75362300D02*
X126353400Y-72452900D01*
X126353400Y-72452900D02*
X126353400Y-68162700D01*
X135250000Y-63500000D02*
X135250000Y-64977700D01*
X135250000Y-64977700D02*
X133804300Y-66423400D01*
X133804300Y-66423400D02*
X133804300Y-69576600D01*
X118364000Y-78317700D02*
X121996600Y-81950300D01*
X122381700Y-95216000D02*
X122381700Y-100457000D01*
X121996600Y-81950300D02*
X121996600Y-94830900D01*
X120904000Y-100457000D02*
X122381700Y-100457000D01*
X121996600Y-94830900D02*
X122381700Y-95216000D01*
X118364000Y-76840000D02*
X118364000Y-78317700D01*
X122720400Y-90232600D02*
X122720400Y-80274100D01*
X122550000Y-71120000D02*
X122550000Y-71858800D01*
X122720400Y-80274100D02*
X122363900Y-79917600D01*
X122363900Y-73522700D02*
X123288900Y-72597700D01*
X120904000Y-108077000D02*
X122381700Y-108077000D01*
X122363900Y-79917600D02*
X122363900Y-73522700D01*
X122381700Y-108077000D02*
X122806200Y-107652500D01*
X125090000Y-71120000D02*
X125090000Y-72597700D01*
X123288900Y-72597700D02*
X125090000Y-72597700D01*
X122806200Y-107652500D02*
X122806200Y-94238300D01*
X122550000Y-71858800D02*
X123288900Y-72597700D01*
X127630000Y-71120000D02*
X127630000Y-69642300D01*
X128327500Y-68944800D02*
X128327500Y-67400700D01*
X127630000Y-69642300D02*
X128327500Y-68944800D01*
X127630000Y-63500000D02*
X127630000Y-64977700D01*
X132710000Y-71120000D02*
X132710000Y-69642300D01*
X128259300Y-64977700D02*
X127630000Y-64977700D01*
X132710000Y-69428400D02*
X128259300Y-64977700D01*
X132710000Y-69642300D02*
X132710000Y-69428400D01*
X130094300Y-97971800D02*
X132064000Y-96002100D01*
X133223000Y-123317000D02*
X131745300Y-123317000D01*
X131745300Y-123317000D02*
X130094300Y-121666000D01*
X140594400Y-96002100D02*
X144927300Y-100335000D01*
X130094300Y-121666000D02*
X130094300Y-97971800D01*
X132064000Y-96002100D02*
X140594400Y-96002100D01*
X146055000Y-100335000D02*
X144927300Y-100335000D01*
X147467300Y-102170100D02*
X147467300Y-102875000D01*
X144851300Y-101747300D02*
X147044500Y-101747300D01*
X133223000Y-120777000D02*
X131745300Y-120777000D01*
X130497000Y-119528700D02*
X130497000Y-98138700D01*
X148595000Y-102875000D02*
X147467300Y-102875000D01*
X147044500Y-101747300D02*
X147467300Y-102170100D01*
X130497000Y-98138700D02*
X132230900Y-96404800D01*
X131745300Y-120777000D02*
X130497000Y-119528700D01*
X139508800Y-96404800D02*
X144851300Y-101747300D01*
X132230900Y-96404800D02*
X139508800Y-96404800D01*
X140381400Y-99360100D02*
X145024100Y-104002800D01*
X133223000Y-115697000D02*
X131745300Y-115697000D01*
X132365100Y-99360100D02*
X140381400Y-99360100D01*
X131745300Y-115697000D02*
X130929700Y-114881400D01*
X130929700Y-114881400D02*
X130929700Y-100795500D01*
X130929700Y-100795500D02*
X132365100Y-99360100D01*
X151135000Y-102875000D02*
X150007300Y-102875000D01*
X145024100Y-104002800D02*
X149161400Y-104002800D01*
X150007300Y-103156900D02*
X150007300Y-102875000D01*
X149161400Y-104002800D02*
X150007300Y-103156900D01*
X133223000Y-113157000D02*
X131745300Y-113157000D01*
X137412900Y-101727000D02*
X132513100Y-101727000D01*
X137829400Y-101310500D02*
X137412900Y-101727000D01*
X131338200Y-112749900D02*
X131745300Y-113157000D01*
X131338200Y-102901900D02*
X131338200Y-112749900D01*
X132513100Y-101727000D02*
X131338200Y-102901900D01*
X151225000Y-104455100D02*
X132377800Y-104455100D01*
X152405000Y-103275100D02*
X151225000Y-104455100D01*
X133223000Y-108077000D02*
X131745300Y-108077000D01*
X132377800Y-104455100D02*
X131745300Y-105087600D01*
X131745300Y-105087600D02*
X131745300Y-108077000D01*
X152405000Y-101188600D02*
X152405000Y-103275100D01*
X132334000Y-76083500D02*
X136520000Y-71897500D01*
X136520000Y-70265900D02*
X141868700Y-64917200D01*
X132334000Y-78256100D02*
X132334000Y-76083500D01*
X141868700Y-64917200D02*
X144155100Y-64917200D01*
X146700000Y-63500000D02*
X145572300Y-63500000D01*
X144155100Y-64917200D02*
X145572300Y-63500000D01*
X136520000Y-71897500D02*
X136520000Y-70265900D01*
X144927300Y-102875000D02*
X138875700Y-96823400D01*
X131317300Y-97898600D02*
X131317300Y-98277100D01*
X146055000Y-102875000D02*
X144927300Y-102875000D01*
X138875700Y-96823400D02*
X132392500Y-96823400D01*
X132392500Y-96823400D02*
X131317300Y-97898600D01*
X158441600Y-88823000D02*
X160684600Y-91066000D01*
X155861900Y-63500000D02*
X158441600Y-66079700D01*
X151780000Y-63500000D02*
X155861900Y-63500000D01*
X160684600Y-91066000D02*
X163260200Y-91066000D01*
X172877300Y-100683100D02*
X172877300Y-100965000D01*
X158441600Y-66079700D02*
X158441600Y-88823000D01*
X174005000Y-100965000D02*
X172877300Y-100965000D01*
X163260200Y-91066000D02*
X172877300Y-100683100D01*
G04 #@! TA.AperFunction,Conductor*
G36*
X130471412Y-122939470D02*
G01*
X130477995Y-122945599D01*
X131241643Y-123709247D01*
X131249187Y-123717537D01*
X131253300Y-123724018D01*
X131259077Y-123729443D01*
X131302967Y-123770658D01*
X131305809Y-123773413D01*
X131325531Y-123793135D01*
X131328655Y-123795558D01*
X131328659Y-123795562D01*
X131328724Y-123795612D01*
X131337745Y-123803317D01*
X131369979Y-123833586D01*
X131376927Y-123837405D01*
X131376929Y-123837407D01*
X131387732Y-123843346D01*
X131404259Y-123854202D01*
X131413998Y-123861757D01*
X131414000Y-123861758D01*
X131420260Y-123866614D01*
X131460840Y-123884174D01*
X131471488Y-123889391D01*
X131496276Y-123903018D01*
X131510240Y-123910695D01*
X131517916Y-123912666D01*
X131517919Y-123912667D01*
X131529862Y-123915733D01*
X131548567Y-123922137D01*
X131567155Y-123930181D01*
X131574978Y-123931420D01*
X131574988Y-123931423D01*
X131610824Y-123937099D01*
X131622449Y-123939506D01*
X131624918Y-123940140D01*
X131685923Y-123976457D01*
X131696793Y-123989910D01*
X131816802Y-124161300D01*
X131978700Y-124323198D01*
X131983208Y-124326355D01*
X131983211Y-124326357D01*
X131999599Y-124337832D01*
X132166251Y-124454523D01*
X132171233Y-124456846D01*
X132171238Y-124456849D01*
X132205457Y-124472805D01*
X132258742Y-124519722D01*
X132278203Y-124587999D01*
X132257661Y-124655959D01*
X132205457Y-124701195D01*
X132171238Y-124717151D01*
X132171233Y-124717154D01*
X132166251Y-124719477D01*
X132124401Y-124748781D01*
X131983211Y-124847643D01*
X131983208Y-124847645D01*
X131978700Y-124850802D01*
X131816802Y-125012700D01*
X131685477Y-125200251D01*
X131683154Y-125205233D01*
X131683151Y-125205238D01*
X131591039Y-125402775D01*
X131588716Y-125407757D01*
X131529457Y-125628913D01*
X131509502Y-125857000D01*
X131529457Y-126085087D01*
X131530881Y-126090400D01*
X131530881Y-126090402D01*
X131583934Y-126288395D01*
X131588716Y-126306243D01*
X131591039Y-126311224D01*
X131591039Y-126311225D01*
X131683151Y-126508762D01*
X131683154Y-126508767D01*
X131685477Y-126513749D01*
X131816802Y-126701300D01*
X131978700Y-126863198D01*
X131983208Y-126866355D01*
X131983211Y-126866357D01*
X131999599Y-126877832D01*
X132166251Y-126994523D01*
X132171233Y-126996846D01*
X132171238Y-126996849D01*
X132205457Y-127012805D01*
X132258742Y-127059722D01*
X132278203Y-127127999D01*
X132257661Y-127195959D01*
X132205457Y-127241195D01*
X132171238Y-127257151D01*
X132171233Y-127257154D01*
X132166251Y-127259477D01*
X132124401Y-127288781D01*
X131983211Y-127387643D01*
X131983208Y-127387645D01*
X131978700Y-127390802D01*
X131816802Y-127552700D01*
X131685477Y-127740251D01*
X131683154Y-127745233D01*
X131683151Y-127745238D01*
X131591039Y-127942775D01*
X131588716Y-127947757D01*
X131529457Y-128168913D01*
X131509502Y-128397000D01*
X131529457Y-128625087D01*
X131588716Y-128846243D01*
X131591039Y-128851224D01*
X131591039Y-128851225D01*
X131683151Y-129048762D01*
X131683154Y-129048767D01*
X131685477Y-129053749D01*
X131816802Y-129241300D01*
X131978700Y-129403198D01*
X131983208Y-129406355D01*
X131983211Y-129406357D01*
X132061389Y-129461098D01*
X132166251Y-129534523D01*
X132171233Y-129536846D01*
X132171238Y-129536849D01*
X132205457Y-129552805D01*
X132258742Y-129599722D01*
X132278203Y-129667999D01*
X132257661Y-129735959D01*
X132205457Y-129781195D01*
X132171238Y-129797151D01*
X132171233Y-129797154D01*
X132166251Y-129799477D01*
X132124401Y-129828781D01*
X131983211Y-129927643D01*
X131983208Y-129927645D01*
X131978700Y-129930802D01*
X131816802Y-130092700D01*
X131685477Y-130280251D01*
X131683154Y-130285233D01*
X131683151Y-130285238D01*
X131591039Y-130482775D01*
X131588716Y-130487757D01*
X131529457Y-130708913D01*
X131509502Y-130937000D01*
X131529457Y-131165087D01*
X131588716Y-131386243D01*
X131591039Y-131391224D01*
X131591039Y-131391225D01*
X131683151Y-131588762D01*
X131683154Y-131588767D01*
X131685477Y-131593749D01*
X131816802Y-131781300D01*
X131978700Y-131943198D01*
X131983208Y-131946355D01*
X131983211Y-131946357D01*
X131999599Y-131957832D01*
X132166251Y-132074523D01*
X132171233Y-132076846D01*
X132171238Y-132076849D01*
X132205457Y-132092805D01*
X132258742Y-132139722D01*
X132278203Y-132207999D01*
X132257661Y-132275959D01*
X132205457Y-132321195D01*
X132171238Y-132337151D01*
X132171233Y-132337154D01*
X132166251Y-132339477D01*
X132124401Y-132368781D01*
X131983211Y-132467643D01*
X131983208Y-132467645D01*
X131978700Y-132470802D01*
X131816802Y-132632700D01*
X131685477Y-132820251D01*
X131683154Y-132825233D01*
X131683151Y-132825238D01*
X131592933Y-133018713D01*
X131588716Y-133027757D01*
X131529457Y-133248913D01*
X131509502Y-133477000D01*
X131529457Y-133705087D01*
X131588716Y-133926243D01*
X131591039Y-133931224D01*
X131591039Y-133931225D01*
X131683151Y-134128762D01*
X131683154Y-134128767D01*
X131685477Y-134133749D01*
X131816802Y-134321300D01*
X131978700Y-134483198D01*
X131983208Y-134486355D01*
X131983211Y-134486357D01*
X131999599Y-134497832D01*
X132166251Y-134614523D01*
X132171233Y-134616846D01*
X132171238Y-134616849D01*
X132205457Y-134632805D01*
X132258742Y-134679722D01*
X132278203Y-134747999D01*
X132257661Y-134815959D01*
X132205457Y-134861195D01*
X132171238Y-134877151D01*
X132171233Y-134877154D01*
X132166251Y-134879477D01*
X132124401Y-134908781D01*
X131983211Y-135007643D01*
X131983208Y-135007645D01*
X131978700Y-135010802D01*
X131816802Y-135172700D01*
X131685477Y-135360251D01*
X131683154Y-135365233D01*
X131683151Y-135365238D01*
X131659548Y-135415856D01*
X131588716Y-135567757D01*
X131587294Y-135573065D01*
X131587293Y-135573067D01*
X131530881Y-135783598D01*
X131529457Y-135788913D01*
X131509502Y-136017000D01*
X131529457Y-136245087D01*
X131530881Y-136250400D01*
X131530881Y-136250402D01*
X131581912Y-136440849D01*
X131588716Y-136466243D01*
X131591039Y-136471224D01*
X131591039Y-136471225D01*
X131683151Y-136668762D01*
X131683154Y-136668767D01*
X131685477Y-136673749D01*
X131688634Y-136678257D01*
X131812527Y-136855194D01*
X131816802Y-136861300D01*
X131978700Y-137023198D01*
X131983208Y-137026355D01*
X131983211Y-137026357D01*
X131999599Y-137037832D01*
X132166251Y-137154523D01*
X132171233Y-137156846D01*
X132171238Y-137156849D01*
X132205457Y-137172805D01*
X132258742Y-137219722D01*
X132278203Y-137287999D01*
X132257661Y-137355959D01*
X132205457Y-137401195D01*
X132171238Y-137417151D01*
X132171233Y-137417154D01*
X132166251Y-137419477D01*
X132124401Y-137448781D01*
X131983211Y-137547643D01*
X131983208Y-137547645D01*
X131978700Y-137550802D01*
X131816802Y-137712700D01*
X131685477Y-137900251D01*
X131683154Y-137905233D01*
X131683151Y-137905238D01*
X131591039Y-138102775D01*
X131588716Y-138107757D01*
X131529457Y-138328913D01*
X131509502Y-138557000D01*
X131529457Y-138785087D01*
X131530881Y-138790400D01*
X131530881Y-138790402D01*
X131570458Y-138938102D01*
X131588716Y-139006243D01*
X131591039Y-139011224D01*
X131591039Y-139011225D01*
X131683151Y-139208762D01*
X131683154Y-139208767D01*
X131685477Y-139213749D01*
X131816802Y-139401300D01*
X131978700Y-139563198D01*
X131983208Y-139566355D01*
X131983211Y-139566357D01*
X131999599Y-139577832D01*
X132166251Y-139694523D01*
X132171233Y-139696846D01*
X132171238Y-139696849D01*
X132205457Y-139712805D01*
X132258742Y-139759722D01*
X132278203Y-139827999D01*
X132257661Y-139895959D01*
X132205457Y-139941195D01*
X132171238Y-139957151D01*
X132171233Y-139957154D01*
X132166251Y-139959477D01*
X132124401Y-139988781D01*
X131983211Y-140087643D01*
X131983208Y-140087645D01*
X131978700Y-140090802D01*
X131816802Y-140252700D01*
X131685477Y-140440251D01*
X131683154Y-140445233D01*
X131683151Y-140445238D01*
X131591039Y-140642775D01*
X131588716Y-140647757D01*
X131529457Y-140868913D01*
X131509502Y-141097000D01*
X131529457Y-141325087D01*
X131530881Y-141330400D01*
X131530881Y-141330402D01*
X131583934Y-141528395D01*
X131588716Y-141546243D01*
X131591039Y-141551224D01*
X131591039Y-141551225D01*
X131683151Y-141748762D01*
X131683154Y-141748767D01*
X131685477Y-141753749D01*
X131816802Y-141941300D01*
X131978700Y-142103198D01*
X131983208Y-142106355D01*
X131983211Y-142106357D01*
X131999599Y-142117832D01*
X132166251Y-142234523D01*
X132171233Y-142236846D01*
X132171238Y-142236849D01*
X132205457Y-142252805D01*
X132258742Y-142299722D01*
X132278203Y-142367999D01*
X132257661Y-142435959D01*
X132205457Y-142481195D01*
X132171238Y-142497151D01*
X132171233Y-142497154D01*
X132166251Y-142499477D01*
X132124401Y-142528781D01*
X131983211Y-142627643D01*
X131983208Y-142627645D01*
X131978700Y-142630802D01*
X131816802Y-142792700D01*
X131685477Y-142980251D01*
X131683154Y-142985233D01*
X131683151Y-142985238D01*
X131591039Y-143182775D01*
X131588716Y-143187757D01*
X131529457Y-143408913D01*
X131509502Y-143637000D01*
X131529457Y-143865087D01*
X131588716Y-144086243D01*
X131591039Y-144091224D01*
X131591039Y-144091225D01*
X131683151Y-144288762D01*
X131683154Y-144288767D01*
X131685477Y-144293749D01*
X131816802Y-144481300D01*
X131978700Y-144643198D01*
X131983211Y-144646357D01*
X131987424Y-144649892D01*
X131986612Y-144650860D01*
X132027090Y-144701494D01*
X132034404Y-144772113D01*
X132002376Y-144835476D01*
X131941177Y-144871464D01*
X131924099Y-144874520D01*
X131920648Y-144874895D01*
X131905396Y-144878521D01*
X131784946Y-144923676D01*
X131769351Y-144932214D01*
X131667276Y-145008715D01*
X131654715Y-145021276D01*
X131578214Y-145123351D01*
X131569676Y-145138946D01*
X131524522Y-145259394D01*
X131520895Y-145274649D01*
X131515369Y-145325514D01*
X131515000Y-145332328D01*
X131515000Y-145904885D01*
X131519475Y-145920124D01*
X131520865Y-145921329D01*
X131528548Y-145923000D01*
X136272000Y-145923000D01*
X136340121Y-145943002D01*
X136386614Y-145996658D01*
X136398000Y-146049000D01*
X136398000Y-147466884D01*
X136402475Y-147482123D01*
X136403865Y-147483328D01*
X136411548Y-147484999D01*
X137116600Y-147484999D01*
X137184721Y-147505001D01*
X137231214Y-147558657D01*
X137242600Y-147610999D01*
X137242600Y-147869100D01*
X137222598Y-147937221D01*
X137168942Y-147983714D01*
X137116600Y-147995100D01*
X116885600Y-147995100D01*
X116817479Y-147975098D01*
X116770986Y-147921442D01*
X116759600Y-147869100D01*
X116759600Y-147434593D01*
X116779602Y-147366472D01*
X116833258Y-147319979D01*
X116903532Y-147309875D01*
X116938850Y-147320398D01*
X117133757Y-147411284D01*
X117139065Y-147412706D01*
X117139067Y-147412707D01*
X117349598Y-147469119D01*
X117349600Y-147469119D01*
X117354913Y-147470543D01*
X117452778Y-147479105D01*
X117523149Y-147485262D01*
X117523156Y-147485262D01*
X117525873Y-147485500D01*
X118440127Y-147485500D01*
X118442844Y-147485262D01*
X118442851Y-147485262D01*
X118513222Y-147479105D01*
X118611087Y-147470543D01*
X118616400Y-147469119D01*
X118616402Y-147469119D01*
X118826933Y-147412707D01*
X118826935Y-147412706D01*
X118832243Y-147411284D01*
X118837225Y-147408961D01*
X119034762Y-147316849D01*
X119034767Y-147316846D01*
X119039749Y-147314523D01*
X119206401Y-147197832D01*
X119222789Y-147186357D01*
X119222792Y-147186355D01*
X119227300Y-147183198D01*
X119354405Y-147056093D01*
X119416717Y-147022067D01*
X119487532Y-147027132D01*
X119532595Y-147056093D01*
X119659700Y-147183198D01*
X119664208Y-147186355D01*
X119664211Y-147186357D01*
X119680599Y-147197832D01*
X119847251Y-147314523D01*
X119852233Y-147316846D01*
X119852238Y-147316849D01*
X120049775Y-147408961D01*
X120054757Y-147411284D01*
X120060065Y-147412706D01*
X120060067Y-147412707D01*
X120270598Y-147469119D01*
X120270600Y-147469119D01*
X120275913Y-147470543D01*
X120373778Y-147479105D01*
X120444149Y-147485262D01*
X120444156Y-147485262D01*
X120446873Y-147485500D01*
X121361127Y-147485500D01*
X121363844Y-147485262D01*
X121363851Y-147485262D01*
X121434222Y-147479105D01*
X121532087Y-147470543D01*
X121537400Y-147469119D01*
X121537402Y-147469119D01*
X121747933Y-147412707D01*
X121747935Y-147412706D01*
X121753243Y-147411284D01*
X121758225Y-147408961D01*
X121955762Y-147316849D01*
X121955767Y-147316846D01*
X121960749Y-147314523D01*
X122127401Y-147197832D01*
X122143789Y-147186357D01*
X122143792Y-147186355D01*
X122148300Y-147183198D01*
X122309829Y-147021669D01*
X131515001Y-147021669D01*
X131515371Y-147028490D01*
X131520895Y-147079352D01*
X131524521Y-147094604D01*
X131569676Y-147215054D01*
X131578214Y-147230649D01*
X131654715Y-147332724D01*
X131667276Y-147345285D01*
X131769351Y-147421786D01*
X131784946Y-147430324D01*
X131905394Y-147475478D01*
X131920649Y-147479105D01*
X131971514Y-147484631D01*
X131978328Y-147485000D01*
X132950885Y-147485000D01*
X132966124Y-147480525D01*
X132967329Y-147479135D01*
X132969000Y-147471452D01*
X132969000Y-147466884D01*
X133477000Y-147466884D01*
X133481475Y-147482123D01*
X133482865Y-147483328D01*
X133490548Y-147484999D01*
X134467669Y-147484999D01*
X134474490Y-147484629D01*
X134525352Y-147479105D01*
X134540607Y-147475478D01*
X134639271Y-147438491D01*
X134710078Y-147433308D01*
X134727729Y-147438491D01*
X134826391Y-147475478D01*
X134841649Y-147479105D01*
X134892514Y-147484631D01*
X134899328Y-147485000D01*
X135871885Y-147485000D01*
X135887124Y-147480525D01*
X135888329Y-147479135D01*
X135890000Y-147471452D01*
X135890000Y-146449115D01*
X135885525Y-146433876D01*
X135884135Y-146432671D01*
X135876452Y-146431000D01*
X133495115Y-146431000D01*
X133479876Y-146435475D01*
X133478671Y-146436865D01*
X133477000Y-146444548D01*
X133477000Y-147466884D01*
X132969000Y-147466884D01*
X132969000Y-146449115D01*
X132964525Y-146433876D01*
X132963135Y-146432671D01*
X132955452Y-146431000D01*
X131533116Y-146431000D01*
X131517877Y-146435475D01*
X131516672Y-146436865D01*
X131515001Y-146444548D01*
X131515001Y-147021669D01*
X122309829Y-147021669D01*
X122310198Y-147021300D01*
X122441523Y-146833749D01*
X122443846Y-146828767D01*
X122443849Y-146828762D01*
X122535961Y-146631225D01*
X122535961Y-146631224D01*
X122538284Y-146626243D01*
X122586970Y-146444548D01*
X122596119Y-146410402D01*
X122596119Y-146410400D01*
X122597543Y-146405087D01*
X122617498Y-146177000D01*
X122597543Y-145948913D01*
X122538284Y-145727757D01*
X122535961Y-145722775D01*
X122443849Y-145525238D01*
X122443846Y-145525233D01*
X122441523Y-145520251D01*
X122310198Y-145332700D01*
X122148300Y-145170802D01*
X122143792Y-145167645D01*
X122143789Y-145167643D01*
X122065611Y-145112902D01*
X121960749Y-145039477D01*
X121955767Y-145037154D01*
X121955762Y-145037151D01*
X121921543Y-145021195D01*
X121868258Y-144974278D01*
X121848797Y-144906001D01*
X121869339Y-144838041D01*
X121921543Y-144792805D01*
X121955762Y-144776849D01*
X121955767Y-144776846D01*
X121960749Y-144774523D01*
X122138740Y-144649892D01*
X122143789Y-144646357D01*
X122143792Y-144646355D01*
X122148300Y-144643198D01*
X122310198Y-144481300D01*
X122441523Y-144293749D01*
X122443846Y-144288767D01*
X122443849Y-144288762D01*
X122535961Y-144091225D01*
X122535961Y-144091224D01*
X122538284Y-144086243D01*
X122597543Y-143865087D01*
X122617498Y-143637000D01*
X122597543Y-143408913D01*
X122538284Y-143187757D01*
X122535961Y-143182775D01*
X122443849Y-142985238D01*
X122443846Y-142985233D01*
X122441523Y-142980251D01*
X122310198Y-142792700D01*
X122148300Y-142630802D01*
X122143792Y-142627645D01*
X122143789Y-142627643D01*
X122002599Y-142528781D01*
X121960749Y-142499477D01*
X121955767Y-142497154D01*
X121955762Y-142497151D01*
X121921543Y-142481195D01*
X121868258Y-142434278D01*
X121848797Y-142366001D01*
X121869339Y-142298041D01*
X121921543Y-142252805D01*
X121955762Y-142236849D01*
X121955767Y-142236846D01*
X121960749Y-142234523D01*
X122127401Y-142117832D01*
X122143789Y-142106357D01*
X122143792Y-142106355D01*
X122148300Y-142103198D01*
X122310198Y-141941300D01*
X122428763Y-141771972D01*
X122484219Y-141727645D01*
X122496821Y-141723248D01*
X122501045Y-141722021D01*
X122520400Y-141718013D01*
X122532630Y-141716468D01*
X122532631Y-141716468D01*
X122540497Y-141715474D01*
X122547868Y-141712555D01*
X122547870Y-141712555D01*
X122581612Y-141699196D01*
X122592842Y-141695351D01*
X122627683Y-141685229D01*
X122627684Y-141685229D01*
X122635293Y-141683018D01*
X122642112Y-141678985D01*
X122642117Y-141678983D01*
X122652728Y-141672707D01*
X122670476Y-141664012D01*
X122689317Y-141656552D01*
X122725087Y-141630564D01*
X122735007Y-141624048D01*
X122766235Y-141605580D01*
X122766238Y-141605578D01*
X122773062Y-141601542D01*
X122787383Y-141587221D01*
X122802417Y-141574380D01*
X122812394Y-141567131D01*
X122818807Y-141562472D01*
X122846998Y-141528395D01*
X122854988Y-141519616D01*
X127872453Y-136502152D01*
X127880739Y-136494612D01*
X127887218Y-136490500D01*
X127933844Y-136440848D01*
X127936598Y-136438007D01*
X127956335Y-136418270D01*
X127958815Y-136415073D01*
X127966520Y-136406051D01*
X127991359Y-136379600D01*
X127996786Y-136373821D01*
X128000605Y-136366875D01*
X128000607Y-136366872D01*
X128006548Y-136356066D01*
X128017399Y-136339547D01*
X128024958Y-136329801D01*
X128029814Y-136323541D01*
X128032959Y-136316272D01*
X128032962Y-136316268D01*
X128047374Y-136282963D01*
X128052591Y-136272313D01*
X128073895Y-136233560D01*
X128078933Y-136213937D01*
X128085337Y-136195234D01*
X128090233Y-136183920D01*
X128090233Y-136183919D01*
X128093381Y-136176645D01*
X128094620Y-136168822D01*
X128094623Y-136168812D01*
X128100299Y-136132976D01*
X128102705Y-136121356D01*
X128111728Y-136086211D01*
X128111728Y-136086210D01*
X128113700Y-136078530D01*
X128113700Y-136058276D01*
X128115251Y-136038565D01*
X128117180Y-136026386D01*
X128118420Y-136018557D01*
X128114259Y-135974538D01*
X128113700Y-135962681D01*
X128113700Y-133103024D01*
X128133702Y-133034903D01*
X128146058Y-133018721D01*
X128219240Y-132937444D01*
X128314727Y-132772056D01*
X128373742Y-132590428D01*
X128385906Y-132474699D01*
X128393014Y-132407065D01*
X128393704Y-132400500D01*
X128385369Y-132321195D01*
X128374432Y-132217135D01*
X128374432Y-132217133D01*
X128373742Y-132210572D01*
X128314727Y-132028944D01*
X128262972Y-131939301D01*
X128222543Y-131869277D01*
X128219240Y-131863556D01*
X128214820Y-131858647D01*
X128214817Y-131858643D01*
X128173885Y-131813183D01*
X128143167Y-131749176D01*
X128151932Y-131678722D01*
X128178426Y-131639778D01*
X130021647Y-129796557D01*
X130029937Y-129789013D01*
X130036418Y-129784900D01*
X130083059Y-129735232D01*
X130085813Y-129732391D01*
X130105535Y-129712669D01*
X130108012Y-129709476D01*
X130115717Y-129700455D01*
X130140559Y-129674000D01*
X130145986Y-129668221D01*
X130149807Y-129661271D01*
X130155746Y-129650468D01*
X130166602Y-129633941D01*
X130174157Y-129624202D01*
X130174158Y-129624200D01*
X130179014Y-129617940D01*
X130196574Y-129577360D01*
X130201791Y-129566712D01*
X130219275Y-129534909D01*
X130219276Y-129534907D01*
X130223095Y-129527960D01*
X130228133Y-129508337D01*
X130234537Y-129489634D01*
X130239433Y-129478320D01*
X130239433Y-129478319D01*
X130242581Y-129471045D01*
X130243820Y-129463222D01*
X130243823Y-129463212D01*
X130249499Y-129427376D01*
X130251905Y-129415756D01*
X130260928Y-129380611D01*
X130260928Y-129380610D01*
X130262900Y-129372930D01*
X130262900Y-129352676D01*
X130264451Y-129332965D01*
X130266380Y-129320786D01*
X130267620Y-129312957D01*
X130263459Y-129268938D01*
X130262900Y-129257081D01*
X130262900Y-123034694D01*
X130282902Y-122966573D01*
X130336558Y-122920080D01*
X130406832Y-122909976D01*
X130471412Y-122939470D01*
G37*
G04 #@! TD.AperFunction*
G04 #@! TA.AperFunction,Conductor*
G36*
X124848633Y-102388240D02*
G01*
X124905468Y-102430787D01*
X124930279Y-102497308D01*
X124930600Y-102506296D01*
X124930600Y-108256883D01*
X124910598Y-108325004D01*
X124878661Y-108358819D01*
X124835147Y-108390434D01*
X124830726Y-108395344D01*
X124830725Y-108395345D01*
X124728935Y-108508395D01*
X124707360Y-108532356D01*
X124693000Y-108557229D01*
X124680419Y-108579019D01*
X124629036Y-108628012D01*
X124559323Y-108641448D01*
X124493412Y-108615062D01*
X124452230Y-108557229D01*
X124445300Y-108516019D01*
X124445300Y-102739595D01*
X124465302Y-102671474D01*
X124482205Y-102650499D01*
X124715505Y-102417200D01*
X124777817Y-102383175D01*
X124848633Y-102388240D01*
G37*
G04 #@! TD.AperFunction*
G04 #@! TA.AperFunction,Conductor*
G36*
X185293665Y-62102668D02*
G01*
X185361760Y-62122760D01*
X185408182Y-62176476D01*
X185419500Y-62228668D01*
X185419500Y-105379316D01*
X185399498Y-105447437D01*
X185345842Y-105493930D01*
X185293585Y-105505316D01*
X154447311Y-105525548D01*
X137972983Y-105536354D01*
X137904849Y-105516397D01*
X137858321Y-105462771D01*
X137847379Y-105421336D01*
X137838022Y-105314393D01*
X137837543Y-105308913D01*
X137821010Y-105247211D01*
X137822700Y-105176235D01*
X137862494Y-105117439D01*
X137927758Y-105089491D01*
X137942717Y-105088600D01*
X151146233Y-105088600D01*
X151157416Y-105089127D01*
X151164909Y-105090802D01*
X151172835Y-105090553D01*
X151172836Y-105090553D01*
X151232986Y-105088662D01*
X151236945Y-105088600D01*
X151264856Y-105088600D01*
X151268791Y-105088103D01*
X151268856Y-105088095D01*
X151280693Y-105087162D01*
X151312951Y-105086148D01*
X151316970Y-105086022D01*
X151324889Y-105085773D01*
X151344343Y-105080121D01*
X151363700Y-105076113D01*
X151375930Y-105074568D01*
X151375931Y-105074568D01*
X151383797Y-105073574D01*
X151391168Y-105070655D01*
X151391170Y-105070655D01*
X151424912Y-105057296D01*
X151436142Y-105053451D01*
X151470983Y-105043329D01*
X151470984Y-105043329D01*
X151478593Y-105041118D01*
X151485412Y-105037085D01*
X151485417Y-105037083D01*
X151496028Y-105030807D01*
X151513776Y-105022112D01*
X151532617Y-105014652D01*
X151568387Y-104988664D01*
X151578307Y-104982148D01*
X151609535Y-104963680D01*
X151609538Y-104963678D01*
X151616362Y-104959642D01*
X151630683Y-104945321D01*
X151645717Y-104932480D01*
X151655694Y-104925231D01*
X151662107Y-104920572D01*
X151690298Y-104886495D01*
X151698278Y-104877726D01*
X152643217Y-103932788D01*
X152705527Y-103898764D01*
X152776343Y-103903829D01*
X152812794Y-103924940D01*
X152877667Y-103978798D01*
X152893126Y-103991632D01*
X153086000Y-104104338D01*
X153294692Y-104184030D01*
X153299760Y-104185061D01*
X153299763Y-104185062D01*
X153371820Y-104199722D01*
X153513597Y-104228567D01*
X153518772Y-104228757D01*
X153518774Y-104228757D01*
X153731673Y-104236564D01*
X153731677Y-104236564D01*
X153736837Y-104236753D01*
X153741957Y-104236097D01*
X153741959Y-104236097D01*
X153953288Y-104209025D01*
X153953289Y-104209025D01*
X153958416Y-104208368D01*
X153963366Y-104206883D01*
X154167429Y-104145661D01*
X154167434Y-104145659D01*
X154172384Y-104144174D01*
X154372994Y-104045896D01*
X154554860Y-103916173D01*
X154713096Y-103758489D01*
X154771172Y-103677668D01*
X154843453Y-103577077D01*
X154844776Y-103578028D01*
X154891645Y-103534857D01*
X154961580Y-103522625D01*
X155027026Y-103550144D01*
X155054875Y-103581994D01*
X155114987Y-103680088D01*
X155261250Y-103848938D01*
X155433126Y-103991632D01*
X155626000Y-104104338D01*
X155834692Y-104184030D01*
X155839760Y-104185061D01*
X155839763Y-104185062D01*
X155911820Y-104199722D01*
X156053597Y-104228567D01*
X156058772Y-104228757D01*
X156058774Y-104228757D01*
X156271673Y-104236564D01*
X156271677Y-104236564D01*
X156276837Y-104236753D01*
X156281957Y-104236097D01*
X156281959Y-104236097D01*
X156493288Y-104209025D01*
X156493289Y-104209025D01*
X156498416Y-104208368D01*
X156503366Y-104206883D01*
X156707429Y-104145661D01*
X156707434Y-104145659D01*
X156712384Y-104144174D01*
X156912994Y-104045896D01*
X157094860Y-103916173D01*
X157253096Y-103758489D01*
X157311172Y-103677668D01*
X157380435Y-103581277D01*
X157383453Y-103577077D01*
X157404320Y-103534857D01*
X157480136Y-103381453D01*
X157480137Y-103381451D01*
X157482430Y-103376811D01*
X157547370Y-103163069D01*
X157576529Y-102941590D01*
X157578156Y-102875000D01*
X157559852Y-102652361D01*
X157505431Y-102435702D01*
X157416354Y-102230840D01*
X157330246Y-102097737D01*
X157297822Y-102047617D01*
X157297820Y-102047614D01*
X157295014Y-102043277D01*
X157144670Y-101878051D01*
X157140619Y-101874852D01*
X157140615Y-101874848D01*
X156973414Y-101742800D01*
X156973410Y-101742798D01*
X156969359Y-101739598D01*
X156928053Y-101716796D01*
X156878084Y-101666364D01*
X156863312Y-101596921D01*
X156888428Y-101530516D01*
X156915780Y-101503909D01*
X156979611Y-101458379D01*
X157094860Y-101376173D01*
X157253096Y-101218489D01*
X157268045Y-101197686D01*
X157380435Y-101041277D01*
X157383453Y-101037077D01*
X157387821Y-101028240D01*
X157480136Y-100841453D01*
X157480137Y-100841451D01*
X157482430Y-100836811D01*
X157547370Y-100623069D01*
X157576529Y-100401590D01*
X157578156Y-100335000D01*
X157559852Y-100112361D01*
X157505431Y-99895702D01*
X157416354Y-99690840D01*
X157343294Y-99577907D01*
X157297822Y-99507617D01*
X157297820Y-99507614D01*
X157295014Y-99503277D01*
X157144670Y-99338051D01*
X157140619Y-99334852D01*
X157140615Y-99334848D01*
X156973414Y-99202800D01*
X156973410Y-99202798D01*
X156969359Y-99199598D01*
X156948348Y-99187999D01*
X156824663Y-99119722D01*
X156773789Y-99091638D01*
X156768920Y-99089914D01*
X156768916Y-99089912D01*
X156568087Y-99018795D01*
X156568083Y-99018794D01*
X156563212Y-99017069D01*
X156558119Y-99016162D01*
X156558116Y-99016161D01*
X156348373Y-98978800D01*
X156348367Y-98978799D01*
X156343284Y-98977894D01*
X156269452Y-98976992D01*
X156125081Y-98975228D01*
X156125079Y-98975228D01*
X156119911Y-98975165D01*
X155899091Y-99008955D01*
X155686756Y-99078357D01*
X155656443Y-99094137D01*
X155544070Y-99152635D01*
X155488607Y-99181507D01*
X155484474Y-99184610D01*
X155484471Y-99184612D01*
X155314100Y-99312530D01*
X155309965Y-99315635D01*
X155155629Y-99477138D01*
X155048201Y-99634621D01*
X154993293Y-99679621D01*
X154922768Y-99687792D01*
X154859021Y-99656538D01*
X154838324Y-99632054D01*
X154757822Y-99507617D01*
X154757820Y-99507614D01*
X154755014Y-99503277D01*
X154604670Y-99338051D01*
X154600619Y-99334852D01*
X154600615Y-99334848D01*
X154433414Y-99202800D01*
X154433410Y-99202798D01*
X154429359Y-99199598D01*
X154408348Y-99187999D01*
X154284663Y-99119722D01*
X154233789Y-99091638D01*
X154228920Y-99089914D01*
X154228916Y-99089912D01*
X154028087Y-99018795D01*
X154028083Y-99018794D01*
X154023212Y-99017069D01*
X154018119Y-99016162D01*
X154018116Y-99016161D01*
X153808373Y-98978800D01*
X153808367Y-98978799D01*
X153803284Y-98977894D01*
X153729452Y-98976992D01*
X153585081Y-98975228D01*
X153585079Y-98975228D01*
X153579911Y-98975165D01*
X153359091Y-99008955D01*
X153146756Y-99078357D01*
X153116443Y-99094137D01*
X153004070Y-99152635D01*
X152948607Y-99181507D01*
X152944474Y-99184610D01*
X152944471Y-99184612D01*
X152774100Y-99312530D01*
X152769965Y-99315635D01*
X152615629Y-99477138D01*
X152508201Y-99634621D01*
X152453293Y-99679621D01*
X152382768Y-99687792D01*
X152319021Y-99656538D01*
X152298324Y-99632054D01*
X152217822Y-99507617D01*
X152217820Y-99507614D01*
X152215014Y-99503277D01*
X152064670Y-99338051D01*
X152060619Y-99334852D01*
X152060615Y-99334848D01*
X151893414Y-99202800D01*
X151893410Y-99202798D01*
X151889359Y-99199598D01*
X151868348Y-99187999D01*
X151744663Y-99119722D01*
X151693789Y-99091638D01*
X151688920Y-99089914D01*
X151688916Y-99089912D01*
X151488087Y-99018795D01*
X151488083Y-99018794D01*
X151483212Y-99017069D01*
X151478119Y-99016162D01*
X151478116Y-99016161D01*
X151268373Y-98978800D01*
X151268367Y-98978799D01*
X151263284Y-98977894D01*
X151189452Y-98976992D01*
X151045081Y-98975228D01*
X151045079Y-98975228D01*
X151039911Y-98975165D01*
X150819091Y-99008955D01*
X150606756Y-99078357D01*
X150576443Y-99094137D01*
X150464070Y-99152635D01*
X150408607Y-99181507D01*
X150404474Y-99184610D01*
X150404471Y-99184612D01*
X150234100Y-99312530D01*
X150229965Y-99315635D01*
X150075629Y-99477138D01*
X149968201Y-99634621D01*
X149913293Y-99679621D01*
X149842768Y-99687792D01*
X149779021Y-99656538D01*
X149758324Y-99632054D01*
X149677822Y-99507617D01*
X149677820Y-99507614D01*
X149675014Y-99503277D01*
X149524670Y-99338051D01*
X149520619Y-99334852D01*
X149520615Y-99334848D01*
X149353414Y-99202800D01*
X149353410Y-99202798D01*
X149349359Y-99199598D01*
X149328348Y-99187999D01*
X149204663Y-99119722D01*
X149153789Y-99091638D01*
X149148920Y-99089914D01*
X149148916Y-99089912D01*
X148948087Y-99018795D01*
X148948083Y-99018794D01*
X148943212Y-99017069D01*
X148938119Y-99016162D01*
X148938116Y-99016161D01*
X148728373Y-98978800D01*
X148728367Y-98978799D01*
X148723284Y-98977894D01*
X148649452Y-98976992D01*
X148505081Y-98975228D01*
X148505079Y-98975228D01*
X148499911Y-98975165D01*
X148279091Y-99008955D01*
X148066756Y-99078357D01*
X148036443Y-99094137D01*
X147924070Y-99152635D01*
X147868607Y-99181507D01*
X147864474Y-99184610D01*
X147864471Y-99184612D01*
X147694100Y-99312530D01*
X147689965Y-99315635D01*
X147535629Y-99477138D01*
X147428201Y-99634621D01*
X147373293Y-99679621D01*
X147302768Y-99687792D01*
X147239021Y-99656538D01*
X147218324Y-99632054D01*
X147137822Y-99507617D01*
X147137820Y-99507614D01*
X147135014Y-99503277D01*
X146984670Y-99338051D01*
X146980619Y-99334852D01*
X146980615Y-99334848D01*
X146813414Y-99202800D01*
X146813410Y-99202798D01*
X146809359Y-99199598D01*
X146788348Y-99187999D01*
X146664663Y-99119722D01*
X146613789Y-99091638D01*
X146608920Y-99089914D01*
X146608916Y-99089912D01*
X146408087Y-99018795D01*
X146408083Y-99018794D01*
X146403212Y-99017069D01*
X146398119Y-99016162D01*
X146398116Y-99016161D01*
X146188373Y-98978800D01*
X146188367Y-98978799D01*
X146183284Y-98977894D01*
X146109452Y-98976992D01*
X145965081Y-98975228D01*
X145965079Y-98975228D01*
X145959911Y-98975165D01*
X145739091Y-99008955D01*
X145526756Y-99078357D01*
X145496443Y-99094137D01*
X145384070Y-99152635D01*
X145328607Y-99181507D01*
X145324474Y-99184610D01*
X145324471Y-99184612D01*
X145154100Y-99312530D01*
X145149965Y-99315635D01*
X145143277Y-99322634D01*
X145069878Y-99399441D01*
X145008353Y-99434871D01*
X144937441Y-99431414D01*
X144889689Y-99401485D01*
X141936200Y-96447995D01*
X141902174Y-96385683D01*
X141907239Y-96314867D01*
X141949786Y-96258032D01*
X142016306Y-96233221D01*
X142025295Y-96232900D01*
X149263533Y-96232900D01*
X149274716Y-96233427D01*
X149282209Y-96235102D01*
X149290135Y-96234853D01*
X149290136Y-96234853D01*
X149350286Y-96232962D01*
X149354245Y-96232900D01*
X149382156Y-96232900D01*
X149386091Y-96232403D01*
X149386156Y-96232395D01*
X149397993Y-96231462D01*
X149430251Y-96230448D01*
X149434270Y-96230322D01*
X149442189Y-96230073D01*
X149461643Y-96224421D01*
X149481000Y-96220413D01*
X149493230Y-96218868D01*
X149493231Y-96218868D01*
X149501097Y-96217874D01*
X149508468Y-96214955D01*
X149508470Y-96214955D01*
X149542212Y-96201596D01*
X149553442Y-96197751D01*
X149588283Y-96187629D01*
X149588284Y-96187629D01*
X149595893Y-96185418D01*
X149602712Y-96181385D01*
X149602717Y-96181383D01*
X149613328Y-96175107D01*
X149631076Y-96166412D01*
X149649917Y-96158952D01*
X149685687Y-96132964D01*
X149695607Y-96126448D01*
X149726835Y-96107980D01*
X149726838Y-96107978D01*
X149733662Y-96103942D01*
X149747983Y-96089621D01*
X149763017Y-96076780D01*
X149772994Y-96069531D01*
X149779407Y-96064872D01*
X149807598Y-96030795D01*
X149815588Y-96022016D01*
X151776253Y-94061352D01*
X151784539Y-94053812D01*
X151791018Y-94049700D01*
X151837644Y-94000048D01*
X151840398Y-93997207D01*
X151860135Y-93977470D01*
X151862615Y-93974273D01*
X151870320Y-93965251D01*
X151895159Y-93938800D01*
X151900586Y-93933021D01*
X151904405Y-93926075D01*
X151904407Y-93926072D01*
X151910348Y-93915266D01*
X151921199Y-93898747D01*
X151928758Y-93889001D01*
X151933614Y-93882741D01*
X151936759Y-93875472D01*
X151936762Y-93875468D01*
X151951174Y-93842163D01*
X151956391Y-93831513D01*
X151977695Y-93792760D01*
X151982733Y-93773137D01*
X151989137Y-93754434D01*
X151994033Y-93743120D01*
X151994033Y-93743119D01*
X151997181Y-93735845D01*
X151998420Y-93728022D01*
X151998423Y-93728012D01*
X152004099Y-93692176D01*
X152006506Y-93680551D01*
X152007140Y-93678082D01*
X152043457Y-93617077D01*
X152056910Y-93606207D01*
X152223789Y-93489357D01*
X152223792Y-93489355D01*
X152228300Y-93486198D01*
X152390198Y-93324300D01*
X152394442Y-93318240D01*
X152518366Y-93141257D01*
X152521523Y-93136749D01*
X152523846Y-93131767D01*
X152523849Y-93131762D01*
X152615961Y-92934225D01*
X152615961Y-92934224D01*
X152618284Y-92929243D01*
X152677543Y-92708087D01*
X152692500Y-92537127D01*
X152692500Y-91622873D01*
X152677543Y-91451913D01*
X152618284Y-91230757D01*
X152539805Y-91062457D01*
X152523849Y-91028238D01*
X152523846Y-91028233D01*
X152521523Y-91023251D01*
X152448098Y-90918389D01*
X152393357Y-90840211D01*
X152393355Y-90840208D01*
X152390198Y-90835700D01*
X152228300Y-90673802D01*
X152223792Y-90670645D01*
X152223789Y-90670643D01*
X152104400Y-90587046D01*
X152040749Y-90542477D01*
X152035767Y-90540154D01*
X152035762Y-90540151D01*
X151838225Y-90448039D01*
X151838224Y-90448039D01*
X151833243Y-90445716D01*
X151827935Y-90444294D01*
X151827933Y-90444293D01*
X151791280Y-90434472D01*
X151767964Y-90428224D01*
X151707342Y-90391273D01*
X151676321Y-90327413D01*
X151684749Y-90256918D01*
X151711481Y-90217423D01*
X154151799Y-87777105D01*
X154214111Y-87743079D01*
X154240894Y-87740200D01*
X154296787Y-87740200D01*
X154303239Y-87738828D01*
X154303244Y-87738828D01*
X154393344Y-87719676D01*
X154483588Y-87700494D01*
X154489619Y-87697809D01*
X154652022Y-87625503D01*
X154652024Y-87625502D01*
X154658052Y-87622818D01*
X154812553Y-87510566D01*
X154940340Y-87368644D01*
X155035827Y-87203256D01*
X155094842Y-87021628D01*
X155099699Y-86975421D01*
X155114114Y-86838265D01*
X155114804Y-86831700D01*
X155112096Y-86805934D01*
X155095532Y-86648335D01*
X155095532Y-86648333D01*
X155094842Y-86641772D01*
X155092803Y-86635495D01*
X155091429Y-86629034D01*
X155094226Y-86628440D01*
X155092556Y-86570012D01*
X155129218Y-86509214D01*
X155192929Y-86477888D01*
X155267667Y-86487847D01*
X155396924Y-86548120D01*
X155609629Y-86605115D01*
X155829000Y-86624307D01*
X156048371Y-86605115D01*
X156087288Y-86594687D01*
X156158265Y-86596376D01*
X156217061Y-86636170D01*
X156245009Y-86701434D01*
X156245900Y-86716393D01*
X156245900Y-87719676D01*
X156225898Y-87787797D01*
X156213542Y-87803979D01*
X156140360Y-87885256D01*
X156044873Y-88050644D01*
X155985858Y-88232272D01*
X155965896Y-88422200D01*
X155966586Y-88428765D01*
X155985010Y-88604056D01*
X155985858Y-88612128D01*
X156044873Y-88793756D01*
X156140360Y-88959144D01*
X156144778Y-88964051D01*
X156144779Y-88964052D01*
X156207554Y-89033771D01*
X156268147Y-89101066D01*
X156422648Y-89213318D01*
X156428676Y-89216002D01*
X156428678Y-89216003D01*
X156563181Y-89275887D01*
X156597112Y-89290994D01*
X156668862Y-89306245D01*
X156777456Y-89329328D01*
X156777461Y-89329328D01*
X156783913Y-89330700D01*
X156839806Y-89330700D01*
X156907927Y-89350702D01*
X156928901Y-89367605D01*
X167530082Y-99968786D01*
X167564108Y-100031098D01*
X167566774Y-100064347D01*
X167566500Y-100066866D01*
X167566500Y-101863134D01*
X167573255Y-101925316D01*
X167624385Y-102061705D01*
X167711739Y-102178261D01*
X167828295Y-102265615D01*
X167964684Y-102316745D01*
X168026866Y-102323500D01*
X169823134Y-102323500D01*
X169885316Y-102316745D01*
X170021705Y-102265615D01*
X170138261Y-102178261D01*
X170225615Y-102061705D01*
X170240724Y-102021403D01*
X170269598Y-101944382D01*
X170312240Y-101887618D01*
X170378802Y-101862918D01*
X170448150Y-101878126D01*
X170482817Y-101906114D01*
X170511250Y-101938938D01*
X170683126Y-102081632D01*
X170876000Y-102194338D01*
X170880825Y-102196180D01*
X170880826Y-102196181D01*
X170936990Y-102217628D01*
X171084692Y-102274030D01*
X171089760Y-102275061D01*
X171089763Y-102275062D01*
X171146239Y-102286552D01*
X171303597Y-102318567D01*
X171308772Y-102318757D01*
X171308774Y-102318757D01*
X171521673Y-102326564D01*
X171521677Y-102326564D01*
X171526837Y-102326753D01*
X171531957Y-102326097D01*
X171531959Y-102326097D01*
X171743288Y-102299025D01*
X171743289Y-102299025D01*
X171748416Y-102298368D01*
X171753366Y-102296883D01*
X171957429Y-102235661D01*
X171957434Y-102235659D01*
X171962384Y-102234174D01*
X172162994Y-102135896D01*
X172344860Y-102006173D01*
X172503096Y-101848489D01*
X172540843Y-101795959D01*
X172633453Y-101667077D01*
X172634774Y-101668026D01*
X172681663Y-101624849D01*
X172751600Y-101612628D01*
X172817042Y-101640158D01*
X172844874Y-101671995D01*
X172902285Y-101765680D01*
X172902290Y-101765687D01*
X172904987Y-101770088D01*
X173051250Y-101938938D01*
X173223126Y-102081632D01*
X173416000Y-102194338D01*
X173420825Y-102196180D01*
X173420826Y-102196181D01*
X173476990Y-102217628D01*
X173624692Y-102274030D01*
X173629760Y-102275061D01*
X173629763Y-102275062D01*
X173686239Y-102286552D01*
X173843597Y-102318567D01*
X173848772Y-102318757D01*
X173848774Y-102318757D01*
X174061673Y-102326564D01*
X174061677Y-102326564D01*
X174066837Y-102326753D01*
X174071957Y-102326097D01*
X174071959Y-102326097D01*
X174283288Y-102299025D01*
X174283289Y-102299025D01*
X174288416Y-102298368D01*
X174293366Y-102296883D01*
X174497429Y-102235661D01*
X174497434Y-102235659D01*
X174502384Y-102234174D01*
X174702994Y-102135896D01*
X174884860Y-102006173D01*
X175043096Y-101848489D01*
X175080843Y-101795959D01*
X175170435Y-101671277D01*
X175173453Y-101667077D01*
X175194324Y-101624849D01*
X175270136Y-101471453D01*
X175270137Y-101471451D01*
X175272430Y-101466811D01*
X175315439Y-101325252D01*
X175335865Y-101258023D01*
X175335865Y-101258021D01*
X175337370Y-101253069D01*
X175366529Y-101031590D01*
X175367490Y-100992272D01*
X175368074Y-100968365D01*
X175368074Y-100968361D01*
X175368156Y-100965000D01*
X175349852Y-100742361D01*
X175295431Y-100525702D01*
X175206354Y-100320840D01*
X175085014Y-100133277D01*
X174934670Y-99968051D01*
X174930619Y-99964852D01*
X174930615Y-99964848D01*
X174763414Y-99832800D01*
X174763410Y-99832798D01*
X174759359Y-99829598D01*
X174563789Y-99721638D01*
X174558920Y-99719914D01*
X174558916Y-99719912D01*
X174358087Y-99648795D01*
X174358083Y-99648794D01*
X174353212Y-99647069D01*
X174348119Y-99646162D01*
X174348116Y-99646161D01*
X174138373Y-99608800D01*
X174138367Y-99608799D01*
X174133284Y-99607894D01*
X174059452Y-99606992D01*
X173915081Y-99605228D01*
X173915079Y-99605228D01*
X173909911Y-99605165D01*
X173689091Y-99638955D01*
X173476756Y-99708357D01*
X173278607Y-99811507D01*
X173274474Y-99814610D01*
X173274471Y-99814612D01*
X173150717Y-99907529D01*
X173084232Y-99932435D01*
X173014836Y-99917443D01*
X172985969Y-99895864D01*
X163763852Y-90673747D01*
X163756312Y-90665461D01*
X163752200Y-90658982D01*
X163702548Y-90612356D01*
X163699707Y-90609602D01*
X163679970Y-90589865D01*
X163676773Y-90587385D01*
X163667751Y-90579680D01*
X163641300Y-90554841D01*
X163635521Y-90549414D01*
X163628575Y-90545595D01*
X163628572Y-90545593D01*
X163617766Y-90539652D01*
X163601247Y-90528801D01*
X163595413Y-90524276D01*
X163585241Y-90516386D01*
X163577972Y-90513241D01*
X163577968Y-90513238D01*
X163544663Y-90498826D01*
X163534013Y-90493609D01*
X163495260Y-90472305D01*
X163475637Y-90467267D01*
X163456934Y-90460863D01*
X163445620Y-90455967D01*
X163445619Y-90455967D01*
X163438345Y-90452819D01*
X163430522Y-90451580D01*
X163430512Y-90451577D01*
X163394676Y-90445901D01*
X163383056Y-90443495D01*
X163347911Y-90434472D01*
X163347910Y-90434472D01*
X163340230Y-90432500D01*
X163319976Y-90432500D01*
X163300265Y-90430949D01*
X163288086Y-90429020D01*
X163280257Y-90427780D01*
X163244787Y-90431133D01*
X163236239Y-90431941D01*
X163224381Y-90432500D01*
X161175060Y-90432500D01*
X161106939Y-90412498D01*
X161060446Y-90358842D01*
X161050342Y-90288568D01*
X161073124Y-90232439D01*
X161076020Y-90228453D01*
X161080440Y-90223544D01*
X161175927Y-90058156D01*
X161234942Y-89876528D01*
X161236570Y-89861044D01*
X161243748Y-89792744D01*
X161252307Y-89711306D01*
X161279320Y-89645650D01*
X161288522Y-89635382D01*
X165579904Y-85344000D01*
X182247677Y-85344000D01*
X182266930Y-85564068D01*
X182324106Y-85777450D01*
X182417466Y-85977661D01*
X182544174Y-86158620D01*
X182700380Y-86314826D01*
X182704888Y-86317983D01*
X182704891Y-86317985D01*
X182876829Y-86438377D01*
X182881338Y-86441534D01*
X182886320Y-86443857D01*
X182886325Y-86443860D01*
X183076568Y-86532571D01*
X183081550Y-86534894D01*
X183086858Y-86536316D01*
X183086860Y-86536317D01*
X183136220Y-86549543D01*
X183294932Y-86592070D01*
X183515000Y-86611323D01*
X183735068Y-86592070D01*
X183893780Y-86549543D01*
X183943140Y-86536317D01*
X183943142Y-86536316D01*
X183948450Y-86534894D01*
X183953432Y-86532571D01*
X184143675Y-86443860D01*
X184143680Y-86443857D01*
X184148662Y-86441534D01*
X184153171Y-86438377D01*
X184325109Y-86317985D01*
X184325112Y-86317983D01*
X184329620Y-86314826D01*
X184485826Y-86158620D01*
X184612534Y-85977661D01*
X184705894Y-85777450D01*
X184763070Y-85564068D01*
X184782323Y-85344000D01*
X184763070Y-85123932D01*
X184705894Y-84910550D01*
X184683285Y-84862064D01*
X184614857Y-84715320D01*
X184614855Y-84715317D01*
X184612534Y-84710339D01*
X184485826Y-84529380D01*
X184329620Y-84373174D01*
X184325112Y-84370017D01*
X184325109Y-84370015D01*
X184153171Y-84249623D01*
X184153168Y-84249621D01*
X184148662Y-84246466D01*
X184143680Y-84244143D01*
X184143675Y-84244140D01*
X184023107Y-84187919D01*
X183969822Y-84141002D01*
X183950361Y-84072725D01*
X183970903Y-84004765D01*
X184023107Y-83959529D01*
X184143424Y-83903425D01*
X184152919Y-83897942D01*
X184195021Y-83868462D01*
X184203396Y-83857985D01*
X184196328Y-83844538D01*
X183527812Y-83176022D01*
X183513868Y-83168408D01*
X183512035Y-83168539D01*
X183505420Y-83172790D01*
X182832951Y-83845259D01*
X182826521Y-83857034D01*
X182835817Y-83869049D01*
X182877081Y-83897942D01*
X182886576Y-83903425D01*
X183006893Y-83959529D01*
X183060178Y-84006446D01*
X183079639Y-84074723D01*
X183059097Y-84142683D01*
X183006893Y-84187919D01*
X182886320Y-84244143D01*
X182886317Y-84244145D01*
X182881339Y-84246466D01*
X182700380Y-84373174D01*
X182544174Y-84529380D01*
X182417466Y-84710339D01*
X182415145Y-84715317D01*
X182415143Y-84715320D01*
X182346715Y-84862064D01*
X182324106Y-84910550D01*
X182266930Y-85123932D01*
X182247677Y-85344000D01*
X165579904Y-85344000D01*
X168114429Y-82809475D01*
X182248658Y-82809475D01*
X182266946Y-83018501D01*
X182268849Y-83029296D01*
X182323155Y-83231968D01*
X182326901Y-83242260D01*
X182415577Y-83432425D01*
X182421055Y-83441915D01*
X182450539Y-83484022D01*
X182461015Y-83492396D01*
X182474463Y-83485327D01*
X183142978Y-82816812D01*
X183149356Y-82805132D01*
X183879408Y-82805132D01*
X183879539Y-82806965D01*
X183883790Y-82813580D01*
X184556259Y-83486049D01*
X184568033Y-83492479D01*
X184580049Y-83483183D01*
X184608945Y-83441915D01*
X184614423Y-83432425D01*
X184703099Y-83242260D01*
X184706845Y-83231968D01*
X184761151Y-83029296D01*
X184763054Y-83018501D01*
X184781342Y-82809475D01*
X184781342Y-82798525D01*
X184763054Y-82589499D01*
X184761151Y-82578704D01*
X184706845Y-82376032D01*
X184703099Y-82365740D01*
X184614423Y-82175575D01*
X184608945Y-82166085D01*
X184579461Y-82123978D01*
X184568985Y-82115604D01*
X184555537Y-82122673D01*
X183887022Y-82791188D01*
X183879408Y-82805132D01*
X183149356Y-82805132D01*
X183150592Y-82802868D01*
X183150461Y-82801035D01*
X183146210Y-82794420D01*
X182473741Y-82121951D01*
X182461967Y-82115521D01*
X182449951Y-82124817D01*
X182421055Y-82166085D01*
X182415577Y-82175575D01*
X182326901Y-82365740D01*
X182323155Y-82376032D01*
X182268849Y-82578704D01*
X182266946Y-82589499D01*
X182248658Y-82798525D01*
X182248658Y-82809475D01*
X168114429Y-82809475D01*
X175069499Y-75854405D01*
X175131811Y-75820379D01*
X175158594Y-75817500D01*
X182351762Y-75817500D01*
X182419883Y-75837502D01*
X182454975Y-75871230D01*
X182458134Y-75875742D01*
X182544174Y-75998620D01*
X182700380Y-76154826D01*
X182704888Y-76157983D01*
X182704891Y-76157985D01*
X182827017Y-76243498D01*
X182881338Y-76281534D01*
X182886320Y-76283857D01*
X182886325Y-76283860D01*
X183006301Y-76339805D01*
X183059586Y-76386722D01*
X183079047Y-76454999D01*
X183058505Y-76522959D01*
X183006301Y-76568195D01*
X182886320Y-76624143D01*
X182886317Y-76624145D01*
X182881339Y-76626466D01*
X182700380Y-76753174D01*
X182544174Y-76909380D01*
X182417466Y-77090339D01*
X182324106Y-77290550D01*
X182266930Y-77503932D01*
X182247677Y-77724000D01*
X182266930Y-77944068D01*
X182324106Y-78157450D01*
X182326428Y-78162431D01*
X182326429Y-78162432D01*
X182390662Y-78300179D01*
X182417466Y-78357661D01*
X182544174Y-78538620D01*
X182700380Y-78694826D01*
X182704888Y-78697983D01*
X182704891Y-78697985D01*
X182872159Y-78815107D01*
X182881338Y-78821534D01*
X182886320Y-78823857D01*
X182886325Y-78823860D01*
X183006301Y-78879805D01*
X183059586Y-78926722D01*
X183079047Y-78994999D01*
X183058505Y-79062959D01*
X183006301Y-79108195D01*
X182886320Y-79164143D01*
X182886317Y-79164145D01*
X182881339Y-79166466D01*
X182700380Y-79293174D01*
X182544174Y-79449380D01*
X182518407Y-79486180D01*
X182454975Y-79576770D01*
X182399518Y-79621099D01*
X182351762Y-79630500D01*
X178140500Y-79630500D01*
X178072379Y-79610498D01*
X178053153Y-79594157D01*
X178052880Y-79594460D01*
X178047968Y-79590037D01*
X178043553Y-79585134D01*
X177934770Y-79506098D01*
X177894394Y-79476763D01*
X177894393Y-79476762D01*
X177889052Y-79472882D01*
X177883024Y-79470198D01*
X177883022Y-79470197D01*
X177720619Y-79397891D01*
X177720618Y-79397891D01*
X177714588Y-79395206D01*
X177607055Y-79372349D01*
X177534244Y-79356872D01*
X177534239Y-79356872D01*
X177527787Y-79355500D01*
X177336813Y-79355500D01*
X177330361Y-79356872D01*
X177330356Y-79356872D01*
X177257545Y-79372349D01*
X177150012Y-79395206D01*
X177143982Y-79397891D01*
X177143981Y-79397891D01*
X176981578Y-79470197D01*
X176981576Y-79470198D01*
X176975548Y-79472882D01*
X176821047Y-79585134D01*
X176816626Y-79590044D01*
X176816625Y-79590045D01*
X176698960Y-79720726D01*
X176693260Y-79727056D01*
X176597773Y-79892444D01*
X176538758Y-80074072D01*
X176538068Y-80080633D01*
X176538068Y-80080635D01*
X176528550Y-80171193D01*
X176518796Y-80264000D01*
X176519486Y-80270565D01*
X176535885Y-80426589D01*
X176538758Y-80453928D01*
X176597773Y-80635556D01*
X176693260Y-80800944D01*
X176697678Y-80805851D01*
X176697679Y-80805852D01*
X176790217Y-80908626D01*
X176821047Y-80942866D01*
X176975548Y-81055118D01*
X176981576Y-81057802D01*
X176981578Y-81057803D01*
X177064159Y-81094570D01*
X177150012Y-81132794D01*
X177243412Y-81152647D01*
X177330356Y-81171128D01*
X177330361Y-81171128D01*
X177336813Y-81172500D01*
X177527787Y-81172500D01*
X177534239Y-81171128D01*
X177534244Y-81171128D01*
X177621188Y-81152647D01*
X177714588Y-81132794D01*
X177800441Y-81094570D01*
X177883022Y-81057803D01*
X177883024Y-81057802D01*
X177889052Y-81055118D01*
X177932319Y-81023683D01*
X178032041Y-80951230D01*
X178043553Y-80942866D01*
X178047968Y-80937963D01*
X178052880Y-80933540D01*
X178054005Y-80934789D01*
X178107314Y-80901949D01*
X178140500Y-80897500D01*
X182351762Y-80897500D01*
X182419883Y-80917502D01*
X182454976Y-80951230D01*
X182544174Y-81078620D01*
X182700380Y-81234826D01*
X182704888Y-81237983D01*
X182704891Y-81237985D01*
X182708720Y-81240666D01*
X182881338Y-81361534D01*
X182886320Y-81363857D01*
X182886325Y-81363860D01*
X183006893Y-81420081D01*
X183060178Y-81466998D01*
X183079639Y-81535275D01*
X183059097Y-81603235D01*
X183006893Y-81648471D01*
X182886575Y-81704576D01*
X182877085Y-81710055D01*
X182834978Y-81739539D01*
X182826604Y-81750015D01*
X182833673Y-81763463D01*
X183502188Y-82431978D01*
X183516132Y-82439592D01*
X183517965Y-82439461D01*
X183524580Y-82435210D01*
X184197049Y-81762741D01*
X184203479Y-81750966D01*
X184194183Y-81738951D01*
X184152919Y-81710058D01*
X184143424Y-81704575D01*
X184023107Y-81648471D01*
X183969822Y-81601554D01*
X183950361Y-81533277D01*
X183970903Y-81465317D01*
X184023107Y-81420081D01*
X184143675Y-81363860D01*
X184143680Y-81363857D01*
X184148662Y-81361534D01*
X184321280Y-81240666D01*
X184325109Y-81237985D01*
X184325112Y-81237983D01*
X184329620Y-81234826D01*
X184485826Y-81078620D01*
X184612534Y-80897661D01*
X184633386Y-80852945D01*
X184703571Y-80702432D01*
X184703572Y-80702431D01*
X184705894Y-80697450D01*
X184711465Y-80676661D01*
X184742212Y-80561911D01*
X184763070Y-80484068D01*
X184782323Y-80264000D01*
X184763070Y-80043932D01*
X184715242Y-79865436D01*
X184707317Y-79835860D01*
X184707316Y-79835858D01*
X184705894Y-79830550D01*
X184697244Y-79811999D01*
X184614857Y-79635320D01*
X184614855Y-79635317D01*
X184612534Y-79630339D01*
X184485826Y-79449380D01*
X184329620Y-79293174D01*
X184325112Y-79290017D01*
X184325109Y-79290015D01*
X184153171Y-79169623D01*
X184153168Y-79169621D01*
X184148662Y-79166466D01*
X184143680Y-79164143D01*
X184143675Y-79164140D01*
X184023699Y-79108195D01*
X183970414Y-79061278D01*
X183950953Y-78993001D01*
X183971495Y-78925041D01*
X184023699Y-78879805D01*
X184143675Y-78823860D01*
X184143680Y-78823857D01*
X184148662Y-78821534D01*
X184157841Y-78815107D01*
X184325109Y-78697985D01*
X184325112Y-78697983D01*
X184329620Y-78694826D01*
X184485826Y-78538620D01*
X184612534Y-78357661D01*
X184639339Y-78300179D01*
X184703571Y-78162432D01*
X184703572Y-78162431D01*
X184705894Y-78157450D01*
X184763070Y-77944068D01*
X184782323Y-77724000D01*
X184763070Y-77503932D01*
X184705894Y-77290550D01*
X184612534Y-77090339D01*
X184485826Y-76909380D01*
X184329620Y-76753174D01*
X184325112Y-76750017D01*
X184325109Y-76750015D01*
X184153171Y-76629623D01*
X184153168Y-76629621D01*
X184148662Y-76626466D01*
X184143680Y-76624143D01*
X184143675Y-76624140D01*
X184023699Y-76568195D01*
X183970414Y-76521278D01*
X183950953Y-76453001D01*
X183971495Y-76385041D01*
X184023699Y-76339805D01*
X184143675Y-76283860D01*
X184143680Y-76283857D01*
X184148662Y-76281534D01*
X184202983Y-76243498D01*
X184325109Y-76157985D01*
X184325112Y-76157983D01*
X184329620Y-76154826D01*
X184485826Y-75998620D01*
X184612534Y-75817661D01*
X184630937Y-75778197D01*
X184703571Y-75622432D01*
X184703572Y-75622431D01*
X184705894Y-75617450D01*
X184712913Y-75591257D01*
X184737615Y-75499065D01*
X184763070Y-75404068D01*
X184782323Y-75184000D01*
X184763070Y-74963932D01*
X184705894Y-74750550D01*
X184703571Y-74745568D01*
X184614857Y-74555320D01*
X184614855Y-74555317D01*
X184612534Y-74550339D01*
X184485826Y-74369380D01*
X184329620Y-74213174D01*
X184325112Y-74210017D01*
X184325109Y-74210015D01*
X184153171Y-74089623D01*
X184153168Y-74089621D01*
X184148662Y-74086466D01*
X184143680Y-74084143D01*
X184143675Y-74084140D01*
X184023699Y-74028195D01*
X183970414Y-73981278D01*
X183950953Y-73913001D01*
X183971495Y-73845041D01*
X184023699Y-73799805D01*
X184143675Y-73743860D01*
X184143680Y-73743857D01*
X184148662Y-73741534D01*
X184210777Y-73698041D01*
X184325109Y-73617985D01*
X184325112Y-73617983D01*
X184329620Y-73614826D01*
X184485826Y-73458620D01*
X184612534Y-73277661D01*
X184625947Y-73248898D01*
X184703571Y-73082432D01*
X184703572Y-73082431D01*
X184705894Y-73077450D01*
X184763070Y-72864068D01*
X184782323Y-72644000D01*
X184763070Y-72423932D01*
X184705894Y-72210550D01*
X184693809Y-72184634D01*
X184614857Y-72015320D01*
X184614855Y-72015317D01*
X184612534Y-72010339D01*
X184485826Y-71829380D01*
X184329620Y-71673174D01*
X184325112Y-71670017D01*
X184325109Y-71670015D01*
X184153171Y-71549623D01*
X184153168Y-71549621D01*
X184148662Y-71546466D01*
X184143680Y-71544143D01*
X184143675Y-71544140D01*
X184023699Y-71488195D01*
X183970414Y-71441278D01*
X183950953Y-71373001D01*
X183971495Y-71305041D01*
X184023699Y-71259805D01*
X184143675Y-71203860D01*
X184143680Y-71203857D01*
X184148662Y-71201534D01*
X184153171Y-71198377D01*
X184325109Y-71077985D01*
X184325112Y-71077983D01*
X184329620Y-71074826D01*
X184485826Y-70918620D01*
X184612534Y-70737661D01*
X184646121Y-70665635D01*
X184703571Y-70542432D01*
X184703572Y-70542431D01*
X184705894Y-70537450D01*
X184716652Y-70497303D01*
X184761646Y-70329381D01*
X184763070Y-70324068D01*
X184782323Y-70104000D01*
X184763070Y-69883932D01*
X184718528Y-69717699D01*
X184707317Y-69675860D01*
X184707316Y-69675858D01*
X184705894Y-69670550D01*
X184703571Y-69665568D01*
X184614857Y-69475320D01*
X184614855Y-69475317D01*
X184612534Y-69470339D01*
X184485826Y-69289380D01*
X184329620Y-69133174D01*
X184325112Y-69130017D01*
X184325109Y-69130015D01*
X184153171Y-69009623D01*
X184153168Y-69009621D01*
X184148662Y-69006466D01*
X184143680Y-69004143D01*
X184143675Y-69004140D01*
X184023699Y-68948195D01*
X183970414Y-68901278D01*
X183950953Y-68833001D01*
X183971495Y-68765041D01*
X184023699Y-68719805D01*
X184143675Y-68663860D01*
X184143680Y-68663857D01*
X184148662Y-68661534D01*
X184225425Y-68607784D01*
X184325109Y-68537985D01*
X184325112Y-68537983D01*
X184329620Y-68534826D01*
X184485826Y-68378620D01*
X184612534Y-68197661D01*
X184619984Y-68181686D01*
X184703571Y-68002432D01*
X184703572Y-68002431D01*
X184705894Y-67997450D01*
X184763070Y-67784068D01*
X184782323Y-67564000D01*
X184763070Y-67343932D01*
X184724839Y-67201252D01*
X184707317Y-67135860D01*
X184707316Y-67135858D01*
X184705894Y-67130550D01*
X184693809Y-67104634D01*
X184614857Y-66935320D01*
X184614855Y-66935317D01*
X184612534Y-66930339D01*
X184485826Y-66749380D01*
X184329620Y-66593174D01*
X184325112Y-66590017D01*
X184325109Y-66590015D01*
X184153171Y-66469623D01*
X184153168Y-66469621D01*
X184148662Y-66466466D01*
X184143680Y-66464143D01*
X184143675Y-66464140D01*
X183953432Y-66375429D01*
X183953431Y-66375429D01*
X183948450Y-66373106D01*
X183943142Y-66371684D01*
X183943140Y-66371683D01*
X183867066Y-66351299D01*
X183735068Y-66315930D01*
X183515000Y-66296677D01*
X183294932Y-66315930D01*
X183162934Y-66351299D01*
X183086860Y-66371683D01*
X183086858Y-66371684D01*
X183081550Y-66373106D01*
X183076569Y-66375428D01*
X183076568Y-66375429D01*
X182886320Y-66464143D01*
X182886317Y-66464145D01*
X182881339Y-66466466D01*
X182700380Y-66593174D01*
X182544174Y-66749380D01*
X182499911Y-66812594D01*
X182454975Y-66876770D01*
X182399518Y-66921099D01*
X182351762Y-66930500D01*
X177634367Y-66930500D01*
X177623184Y-66929973D01*
X177615691Y-66928298D01*
X177607765Y-66928547D01*
X177607764Y-66928547D01*
X177547614Y-66930438D01*
X177543655Y-66930500D01*
X177515744Y-66930500D01*
X177511810Y-66930997D01*
X177511809Y-66930997D01*
X177511744Y-66931005D01*
X177499907Y-66931938D01*
X177468090Y-66932938D01*
X177463629Y-66933078D01*
X177455710Y-66933327D01*
X177438054Y-66938456D01*
X177436258Y-66938978D01*
X177416906Y-66942986D01*
X177415735Y-66943134D01*
X177396803Y-66945526D01*
X177389434Y-66948443D01*
X177389432Y-66948444D01*
X177355697Y-66961800D01*
X177344469Y-66965645D01*
X177302007Y-66977982D01*
X177295184Y-66982017D01*
X177295182Y-66982018D01*
X177284572Y-66988293D01*
X177266824Y-66996988D01*
X177247983Y-67004448D01*
X177241567Y-67009110D01*
X177241566Y-67009110D01*
X177212213Y-67030436D01*
X177202293Y-67036952D01*
X177171065Y-67055420D01*
X177171062Y-67055422D01*
X177164238Y-67059458D01*
X177149917Y-67073779D01*
X177134884Y-67086619D01*
X177118493Y-67098528D01*
X177107146Y-67112244D01*
X177090302Y-67132605D01*
X177082312Y-67141384D01*
X161975441Y-82248254D01*
X161913129Y-82282280D01*
X161842314Y-82277215D01*
X161785478Y-82234668D01*
X161772151Y-82212408D01*
X161754859Y-82175324D01*
X161754857Y-82175320D01*
X161752534Y-82170339D01*
X161625826Y-81989380D01*
X161469620Y-81833174D01*
X161465112Y-81830017D01*
X161465109Y-81830015D01*
X161293171Y-81709623D01*
X161293168Y-81709621D01*
X161288662Y-81706466D01*
X161283680Y-81704143D01*
X161283675Y-81704140D01*
X161163699Y-81648195D01*
X161110414Y-81601278D01*
X161090953Y-81533001D01*
X161111495Y-81465041D01*
X161163699Y-81419805D01*
X161283675Y-81363860D01*
X161283680Y-81363857D01*
X161288662Y-81361534D01*
X161461280Y-81240666D01*
X161465109Y-81237985D01*
X161465112Y-81237983D01*
X161469620Y-81234826D01*
X161625826Y-81078620D01*
X161752534Y-80897661D01*
X161773386Y-80852945D01*
X161843571Y-80702432D01*
X161843572Y-80702431D01*
X161845894Y-80697450D01*
X161851465Y-80676661D01*
X161882212Y-80561911D01*
X161903070Y-80484068D01*
X161922323Y-80264000D01*
X161903070Y-80043932D01*
X161855242Y-79865436D01*
X161847317Y-79835860D01*
X161847316Y-79835858D01*
X161845894Y-79830550D01*
X161837244Y-79811999D01*
X161754857Y-79635320D01*
X161754855Y-79635317D01*
X161752534Y-79630339D01*
X161625826Y-79449380D01*
X161469620Y-79293174D01*
X161465112Y-79290017D01*
X161465109Y-79290015D01*
X161293171Y-79169623D01*
X161293168Y-79169621D01*
X161288662Y-79166466D01*
X161283680Y-79164143D01*
X161283675Y-79164140D01*
X161163699Y-79108195D01*
X161110414Y-79061278D01*
X161090953Y-78993001D01*
X161111495Y-78925041D01*
X161163699Y-78879805D01*
X161283675Y-78823860D01*
X161283680Y-78823857D01*
X161288662Y-78821534D01*
X161297841Y-78815107D01*
X161465109Y-78697985D01*
X161465112Y-78697983D01*
X161469620Y-78694826D01*
X161625826Y-78538620D01*
X161752534Y-78357661D01*
X161779339Y-78300179D01*
X161843571Y-78162432D01*
X161843572Y-78162431D01*
X161845894Y-78157450D01*
X161903070Y-77944068D01*
X161922323Y-77724000D01*
X161903070Y-77503932D01*
X161845894Y-77290550D01*
X161752534Y-77090339D01*
X161625826Y-76909380D01*
X161469620Y-76753174D01*
X161465112Y-76750017D01*
X161465109Y-76750015D01*
X161293171Y-76629623D01*
X161293168Y-76629621D01*
X161288662Y-76626466D01*
X161283680Y-76624143D01*
X161283675Y-76624140D01*
X161163699Y-76568195D01*
X161110414Y-76521278D01*
X161090953Y-76453001D01*
X161111495Y-76385041D01*
X161163699Y-76339805D01*
X161283675Y-76283860D01*
X161283680Y-76283857D01*
X161288662Y-76281534D01*
X161342983Y-76243498D01*
X161465109Y-76157985D01*
X161465112Y-76157983D01*
X161469620Y-76154826D01*
X161625826Y-75998620D01*
X161752534Y-75817661D01*
X161770937Y-75778197D01*
X161843571Y-75622432D01*
X161843572Y-75622431D01*
X161845894Y-75617450D01*
X161852913Y-75591257D01*
X161877615Y-75499065D01*
X161903070Y-75404068D01*
X161922323Y-75184000D01*
X161903070Y-74963932D01*
X161845894Y-74750550D01*
X161843571Y-74745568D01*
X161754857Y-74555320D01*
X161754855Y-74555317D01*
X161752534Y-74550339D01*
X161625826Y-74369380D01*
X161469620Y-74213174D01*
X161465112Y-74210017D01*
X161465109Y-74210015D01*
X161293171Y-74089623D01*
X161293168Y-74089621D01*
X161288662Y-74086466D01*
X161283680Y-74084143D01*
X161283675Y-74084140D01*
X161163699Y-74028195D01*
X161110414Y-73981278D01*
X161090953Y-73913001D01*
X161111495Y-73845041D01*
X161163699Y-73799805D01*
X161283675Y-73743860D01*
X161283680Y-73743857D01*
X161288662Y-73741534D01*
X161350777Y-73698041D01*
X161465109Y-73617985D01*
X161465112Y-73617983D01*
X161469620Y-73614826D01*
X161625826Y-73458620D01*
X161752534Y-73277661D01*
X161765947Y-73248898D01*
X161843571Y-73082432D01*
X161843572Y-73082431D01*
X161845894Y-73077450D01*
X161903070Y-72864068D01*
X161922323Y-72644000D01*
X161903070Y-72423932D01*
X161845894Y-72210550D01*
X161833809Y-72184634D01*
X161754857Y-72015320D01*
X161754855Y-72015317D01*
X161752534Y-72010339D01*
X161625826Y-71829380D01*
X161469620Y-71673174D01*
X161465112Y-71670017D01*
X161465109Y-71670015D01*
X161293171Y-71549623D01*
X161293168Y-71549621D01*
X161288662Y-71546466D01*
X161283680Y-71544143D01*
X161283675Y-71544140D01*
X161163699Y-71488195D01*
X161110414Y-71441278D01*
X161090953Y-71373001D01*
X161111495Y-71305041D01*
X161163699Y-71259805D01*
X161283675Y-71203860D01*
X161283680Y-71203857D01*
X161288662Y-71201534D01*
X161293171Y-71198377D01*
X161465109Y-71077985D01*
X161465112Y-71077983D01*
X161469620Y-71074826D01*
X161625826Y-70918620D01*
X161752534Y-70737661D01*
X161786121Y-70665635D01*
X161843571Y-70542432D01*
X161843572Y-70542431D01*
X161845894Y-70537450D01*
X161856652Y-70497303D01*
X161901646Y-70329381D01*
X161903070Y-70324068D01*
X161922323Y-70104000D01*
X161903070Y-69883932D01*
X161858528Y-69717699D01*
X161847317Y-69675860D01*
X161847316Y-69675858D01*
X161845894Y-69670550D01*
X161843571Y-69665568D01*
X161754857Y-69475320D01*
X161754855Y-69475317D01*
X161752534Y-69470339D01*
X161625826Y-69289380D01*
X161469620Y-69133174D01*
X161465112Y-69130017D01*
X161465109Y-69130015D01*
X161293171Y-69009623D01*
X161293168Y-69009621D01*
X161288662Y-69006466D01*
X161283680Y-69004143D01*
X161283675Y-69004140D01*
X161163699Y-68948195D01*
X161110414Y-68901278D01*
X161090953Y-68833001D01*
X161111495Y-68765041D01*
X161163699Y-68719805D01*
X161283675Y-68663860D01*
X161283680Y-68663857D01*
X161288662Y-68661534D01*
X161365425Y-68607784D01*
X161465109Y-68537985D01*
X161465112Y-68537983D01*
X161469620Y-68534826D01*
X161625826Y-68378620D01*
X161752534Y-68197661D01*
X161759984Y-68181686D01*
X161843571Y-68002432D01*
X161843572Y-68002431D01*
X161845894Y-67997450D01*
X161903070Y-67784068D01*
X161922323Y-67564000D01*
X161903070Y-67343932D01*
X161864839Y-67201252D01*
X161847317Y-67135860D01*
X161847316Y-67135858D01*
X161845894Y-67130550D01*
X161833809Y-67104634D01*
X161754857Y-66935320D01*
X161754855Y-66935317D01*
X161752534Y-66930339D01*
X161625826Y-66749380D01*
X161469620Y-66593174D01*
X161465112Y-66590017D01*
X161465109Y-66590015D01*
X161293171Y-66469623D01*
X161293168Y-66469621D01*
X161288662Y-66466466D01*
X161283680Y-66464143D01*
X161283675Y-66464140D01*
X161093432Y-66375429D01*
X161093431Y-66375429D01*
X161088450Y-66373106D01*
X161083142Y-66371684D01*
X161083140Y-66371683D01*
X161007066Y-66351299D01*
X160875068Y-66315930D01*
X160655000Y-66296677D01*
X160434932Y-66315930D01*
X160302934Y-66351299D01*
X160226860Y-66371683D01*
X160226858Y-66371684D01*
X160221550Y-66373106D01*
X160216569Y-66375428D01*
X160216568Y-66375429D01*
X160026320Y-66464143D01*
X160026317Y-66464145D01*
X160021339Y-66466466D01*
X159840380Y-66593174D01*
X159684174Y-66749380D01*
X159557466Y-66930339D01*
X159555145Y-66935317D01*
X159555143Y-66935320D01*
X159476191Y-67104634D01*
X159464106Y-67130550D01*
X159462684Y-67135858D01*
X159462683Y-67135860D01*
X159445161Y-67201252D01*
X159406930Y-67343932D01*
X159387677Y-67564000D01*
X159406930Y-67784068D01*
X159464106Y-67997450D01*
X159466428Y-68002431D01*
X159466429Y-68002432D01*
X159550017Y-68181686D01*
X159557466Y-68197661D01*
X159684174Y-68378620D01*
X159840380Y-68534826D01*
X159844888Y-68537983D01*
X159844891Y-68537985D01*
X159944575Y-68607784D01*
X160021338Y-68661534D01*
X160026320Y-68663857D01*
X160026325Y-68663860D01*
X160146301Y-68719805D01*
X160199586Y-68766722D01*
X160219047Y-68834999D01*
X160198505Y-68902959D01*
X160146301Y-68948195D01*
X160026320Y-69004143D01*
X160026317Y-69004145D01*
X160021339Y-69006466D01*
X159840380Y-69133174D01*
X159684174Y-69289380D01*
X159557466Y-69470339D01*
X159555145Y-69475317D01*
X159555143Y-69475320D01*
X159466429Y-69665568D01*
X159464106Y-69670550D01*
X159462684Y-69675858D01*
X159462683Y-69675860D01*
X159451472Y-69717699D01*
X159406930Y-69883932D01*
X159387677Y-70104000D01*
X159406930Y-70324068D01*
X159408354Y-70329381D01*
X159453349Y-70497303D01*
X159464106Y-70537450D01*
X159466428Y-70542431D01*
X159466429Y-70542432D01*
X159523880Y-70665635D01*
X159557466Y-70737661D01*
X159684174Y-70918620D01*
X159840380Y-71074826D01*
X159844888Y-71077983D01*
X159844891Y-71077985D01*
X160016829Y-71198377D01*
X160021338Y-71201534D01*
X160026320Y-71203857D01*
X160026325Y-71203860D01*
X160146301Y-71259805D01*
X160199586Y-71306722D01*
X160219047Y-71374999D01*
X160198505Y-71442959D01*
X160146301Y-71488195D01*
X160026320Y-71544143D01*
X160026317Y-71544145D01*
X160021339Y-71546466D01*
X159840380Y-71673174D01*
X159684174Y-71829380D01*
X159557466Y-72010339D01*
X159555145Y-72015317D01*
X159555143Y-72015320D01*
X159476191Y-72184634D01*
X159464106Y-72210550D01*
X159406930Y-72423932D01*
X159387677Y-72644000D01*
X159406930Y-72864068D01*
X159464106Y-73077450D01*
X159466428Y-73082431D01*
X159466429Y-73082432D01*
X159544054Y-73248898D01*
X159557466Y-73277661D01*
X159684174Y-73458620D01*
X159840380Y-73614826D01*
X159844888Y-73617983D01*
X159844891Y-73617985D01*
X159959223Y-73698041D01*
X160021338Y-73741534D01*
X160026320Y-73743857D01*
X160026325Y-73743860D01*
X160146301Y-73799805D01*
X160199586Y-73846722D01*
X160219047Y-73914999D01*
X160198505Y-73982959D01*
X160146301Y-74028195D01*
X160026320Y-74084143D01*
X160026317Y-74084145D01*
X160021339Y-74086466D01*
X159840380Y-74213174D01*
X159684174Y-74369380D01*
X159557466Y-74550339D01*
X159555145Y-74555317D01*
X159555143Y-74555320D01*
X159466429Y-74745568D01*
X159464106Y-74750550D01*
X159406930Y-74963932D01*
X159387677Y-75184000D01*
X159406930Y-75404068D01*
X159432385Y-75499065D01*
X159457088Y-75591257D01*
X159464106Y-75617450D01*
X159466428Y-75622431D01*
X159466429Y-75622432D01*
X159539064Y-75778197D01*
X159557466Y-75817661D01*
X159684174Y-75998620D01*
X159840380Y-76154826D01*
X159844888Y-76157983D01*
X159844891Y-76157985D01*
X159967017Y-76243498D01*
X160021338Y-76281534D01*
X160026320Y-76283857D01*
X160026325Y-76283860D01*
X160146301Y-76339805D01*
X160199586Y-76386722D01*
X160219047Y-76454999D01*
X160198505Y-76522959D01*
X160146301Y-76568195D01*
X160026320Y-76624143D01*
X160026317Y-76624145D01*
X160021339Y-76626466D01*
X159840380Y-76753174D01*
X159684174Y-76909380D01*
X159557466Y-77090339D01*
X159464106Y-77290550D01*
X159406930Y-77503932D01*
X159387677Y-77724000D01*
X159406930Y-77944068D01*
X159464106Y-78157450D01*
X159466428Y-78162431D01*
X159466429Y-78162432D01*
X159530662Y-78300179D01*
X159557466Y-78357661D01*
X159684174Y-78538620D01*
X159840380Y-78694826D01*
X159844888Y-78697983D01*
X159844891Y-78697985D01*
X160012159Y-78815107D01*
X160021338Y-78821534D01*
X160026320Y-78823857D01*
X160026325Y-78823860D01*
X160146301Y-78879805D01*
X160199586Y-78926722D01*
X160219047Y-78994999D01*
X160198505Y-79062959D01*
X160146301Y-79108195D01*
X160026320Y-79164143D01*
X160026317Y-79164145D01*
X160021339Y-79166466D01*
X159840380Y-79293174D01*
X159684174Y-79449380D01*
X159557466Y-79630339D01*
X159555145Y-79635317D01*
X159555143Y-79635320D01*
X159472756Y-79811999D01*
X159464106Y-79830550D01*
X159462684Y-79835858D01*
X159462683Y-79835860D01*
X159454758Y-79865436D01*
X159406930Y-80043932D01*
X159387677Y-80264000D01*
X159406930Y-80484068D01*
X159427788Y-80561911D01*
X159458536Y-80676661D01*
X159464106Y-80697450D01*
X159466428Y-80702431D01*
X159466429Y-80702432D01*
X159536615Y-80852945D01*
X159557466Y-80897661D01*
X159684174Y-81078620D01*
X159840380Y-81234826D01*
X159844888Y-81237983D01*
X159844891Y-81237985D01*
X159848720Y-81240666D01*
X160021338Y-81361534D01*
X160026320Y-81363857D01*
X160026325Y-81363860D01*
X160146301Y-81419805D01*
X160199586Y-81466722D01*
X160219047Y-81534999D01*
X160198505Y-81602959D01*
X160146301Y-81648195D01*
X160026320Y-81704143D01*
X160026317Y-81704145D01*
X160021339Y-81706466D01*
X159840380Y-81833174D01*
X159684174Y-81989380D01*
X159557466Y-82170339D01*
X159555145Y-82175317D01*
X159555143Y-82175320D01*
X159513374Y-82264894D01*
X159464106Y-82370550D01*
X159462684Y-82375858D01*
X159462683Y-82375860D01*
X159447646Y-82431978D01*
X159406930Y-82583932D01*
X159387677Y-82804000D01*
X159406930Y-83024068D01*
X159464106Y-83237450D01*
X159466428Y-83242431D01*
X159466429Y-83242432D01*
X159543306Y-83407294D01*
X159557466Y-83437661D01*
X159572389Y-83458973D01*
X159576353Y-83464635D01*
X159599040Y-83531910D01*
X159581754Y-83600770D01*
X159570224Y-83617220D01*
X159543108Y-83649998D01*
X159535118Y-83658778D01*
X159427101Y-83766795D01*
X159364789Y-83800821D01*
X159338006Y-83803700D01*
X159282113Y-83803700D01*
X159275658Y-83805072D01*
X159275649Y-83805073D01*
X159227298Y-83815351D01*
X159156507Y-83809950D01*
X159099874Y-83767134D01*
X159075380Y-83700497D01*
X159075100Y-83692105D01*
X159075100Y-66158468D01*
X159075627Y-66147285D01*
X159077302Y-66139792D01*
X159076307Y-66108117D01*
X159075162Y-66071702D01*
X159075100Y-66067744D01*
X159075100Y-66039844D01*
X159074596Y-66035853D01*
X159073663Y-66024011D01*
X159073407Y-66015849D01*
X159072274Y-65979811D01*
X159070062Y-65972197D01*
X159070061Y-65972192D01*
X159066623Y-65960359D01*
X159062612Y-65940995D01*
X159061067Y-65928764D01*
X159060074Y-65920903D01*
X159057157Y-65913536D01*
X159057156Y-65913531D01*
X159043798Y-65879792D01*
X159039954Y-65868565D01*
X159029830Y-65833722D01*
X159027618Y-65826107D01*
X159017307Y-65808672D01*
X159008612Y-65790924D01*
X159001152Y-65772083D01*
X158975164Y-65736313D01*
X158968648Y-65726393D01*
X158950180Y-65695165D01*
X158950178Y-65695162D01*
X158946142Y-65688338D01*
X158931821Y-65674017D01*
X158918980Y-65658983D01*
X158911731Y-65649006D01*
X158907072Y-65642593D01*
X158872995Y-65614402D01*
X158864216Y-65606412D01*
X156365552Y-63107747D01*
X156358012Y-63099461D01*
X156353900Y-63092982D01*
X156304248Y-63046356D01*
X156301407Y-63043602D01*
X156281670Y-63023865D01*
X156278473Y-63021385D01*
X156269451Y-63013680D01*
X156237221Y-62983414D01*
X156230275Y-62979595D01*
X156230272Y-62979593D01*
X156219466Y-62973652D01*
X156202947Y-62962801D01*
X156202483Y-62962441D01*
X156186941Y-62950386D01*
X156179672Y-62947241D01*
X156179668Y-62947238D01*
X156146363Y-62932826D01*
X156135713Y-62927609D01*
X156096960Y-62906305D01*
X156077337Y-62901267D01*
X156058634Y-62894863D01*
X156047320Y-62889967D01*
X156047319Y-62889967D01*
X156040045Y-62886819D01*
X156032222Y-62885580D01*
X156032212Y-62885577D01*
X155996376Y-62879901D01*
X155984756Y-62877495D01*
X155949611Y-62868472D01*
X155949610Y-62868472D01*
X155941930Y-62866500D01*
X155921676Y-62866500D01*
X155901965Y-62864949D01*
X155889786Y-62863020D01*
X155881957Y-62861780D01*
X155874065Y-62862526D01*
X155837939Y-62865941D01*
X155826081Y-62866500D01*
X153056805Y-62866500D01*
X152988684Y-62846498D01*
X152951013Y-62808940D01*
X152862822Y-62672617D01*
X152862820Y-62672614D01*
X152860014Y-62668277D01*
X152709670Y-62503051D01*
X152705619Y-62499852D01*
X152705615Y-62499848D01*
X152538414Y-62367800D01*
X152538410Y-62367798D01*
X152534359Y-62364598D01*
X152409950Y-62295921D01*
X152359980Y-62245490D01*
X152345208Y-62176047D01*
X152370324Y-62109641D01*
X152427355Y-62067356D01*
X152471009Y-62059613D01*
X185293665Y-62102668D01*
G37*
G04 #@! TD.AperFunction*
G04 #@! TA.AperFunction,Conductor*
G36*
X116968112Y-87562770D02*
G01*
X116974694Y-87568898D01*
X119980555Y-90574760D01*
X120014580Y-90637070D01*
X120009515Y-90707885D01*
X119980554Y-90752948D01*
X119897802Y-90835700D01*
X119894643Y-90840211D01*
X119891108Y-90844424D01*
X119890140Y-90843612D01*
X119839506Y-90884090D01*
X119768887Y-90891404D01*
X119705524Y-90859376D01*
X119669536Y-90798177D01*
X119666480Y-90781099D01*
X119666105Y-90777648D01*
X119662479Y-90762396D01*
X119617324Y-90641946D01*
X119608786Y-90626351D01*
X119532285Y-90524276D01*
X119519724Y-90511715D01*
X119417649Y-90435214D01*
X119402054Y-90426676D01*
X119281606Y-90381522D01*
X119266351Y-90377895D01*
X119215486Y-90372369D01*
X119208672Y-90372000D01*
X118636115Y-90372000D01*
X118620876Y-90376475D01*
X118619671Y-90377865D01*
X118618000Y-90385548D01*
X118618000Y-93769884D01*
X118622475Y-93785123D01*
X118623865Y-93786328D01*
X118631548Y-93787999D01*
X119208669Y-93787999D01*
X119215490Y-93787629D01*
X119266352Y-93782105D01*
X119281604Y-93778479D01*
X119402054Y-93733324D01*
X119417649Y-93724786D01*
X119519724Y-93648285D01*
X119532285Y-93635724D01*
X119608786Y-93533649D01*
X119617324Y-93518054D01*
X119662478Y-93397606D01*
X119666104Y-93382357D01*
X119666479Y-93378904D01*
X119667522Y-93376394D01*
X119667932Y-93374669D01*
X119668211Y-93374735D01*
X119693719Y-93313341D01*
X119752080Y-93272912D01*
X119823034Y-93270454D01*
X119884054Y-93306747D01*
X119893344Y-93318240D01*
X119894641Y-93319786D01*
X119897802Y-93324300D01*
X120059700Y-93486198D01*
X120064208Y-93489355D01*
X120064211Y-93489357D01*
X120122758Y-93530352D01*
X120247251Y-93617523D01*
X120252233Y-93619846D01*
X120252238Y-93619849D01*
X120449775Y-93711961D01*
X120454757Y-93714284D01*
X120460065Y-93715706D01*
X120460067Y-93715707D01*
X120670598Y-93772119D01*
X120670600Y-93772119D01*
X120675913Y-93773543D01*
X120904000Y-93793498D01*
X121132087Y-93773543D01*
X121137400Y-93772119D01*
X121137402Y-93772119D01*
X121204489Y-93754143D01*
X121275465Y-93755833D01*
X121334261Y-93795627D01*
X121362209Y-93860891D01*
X121363100Y-93875850D01*
X121363100Y-94752133D01*
X121362573Y-94763316D01*
X121360898Y-94770809D01*
X121361147Y-94778735D01*
X121361147Y-94778736D01*
X121363038Y-94838886D01*
X121363100Y-94842845D01*
X121363100Y-94870756D01*
X121363597Y-94874690D01*
X121363597Y-94874691D01*
X121363605Y-94874756D01*
X121364538Y-94886593D01*
X121365927Y-94930789D01*
X121371578Y-94950239D01*
X121375587Y-94969600D01*
X121378126Y-94989697D01*
X121381045Y-94997068D01*
X121381045Y-94997070D01*
X121394404Y-95030812D01*
X121398249Y-95042042D01*
X121410582Y-95084493D01*
X121414615Y-95091312D01*
X121414617Y-95091317D01*
X121420893Y-95101928D01*
X121429588Y-95119676D01*
X121437048Y-95138517D01*
X121441710Y-95144933D01*
X121441710Y-95144934D01*
X121463036Y-95174287D01*
X121469552Y-95184207D01*
X121492058Y-95222262D01*
X121506379Y-95236583D01*
X121519219Y-95251616D01*
X121531128Y-95268007D01*
X121537234Y-95273058D01*
X121565205Y-95296198D01*
X121573984Y-95304188D01*
X121711295Y-95441499D01*
X121745321Y-95503811D01*
X121748200Y-95530594D01*
X121748200Y-96517158D01*
X121728198Y-96585279D01*
X121674542Y-96631772D01*
X121604268Y-96641876D01*
X121589588Y-96638864D01*
X121537409Y-96624882D01*
X121537398Y-96624880D01*
X121532087Y-96623457D01*
X121453271Y-96616562D01*
X121363851Y-96608738D01*
X121363844Y-96608738D01*
X121361127Y-96608500D01*
X120446873Y-96608500D01*
X120444156Y-96608738D01*
X120444149Y-96608738D01*
X120375480Y-96614746D01*
X120275913Y-96623457D01*
X120270600Y-96624881D01*
X120270598Y-96624881D01*
X120060067Y-96681293D01*
X120060065Y-96681294D01*
X120054757Y-96682716D01*
X120049776Y-96685039D01*
X120049775Y-96685039D01*
X119852238Y-96777151D01*
X119852233Y-96777154D01*
X119847251Y-96779477D01*
X119742389Y-96852902D01*
X119664211Y-96907643D01*
X119664208Y-96907645D01*
X119659700Y-96910802D01*
X119532595Y-97037907D01*
X119470283Y-97071933D01*
X119399468Y-97066868D01*
X119354405Y-97037907D01*
X119227300Y-96910802D01*
X119222792Y-96907645D01*
X119222789Y-96907643D01*
X119144611Y-96852902D01*
X119039749Y-96779477D01*
X119034767Y-96777154D01*
X119034762Y-96777151D01*
X118837225Y-96685039D01*
X118837224Y-96685039D01*
X118832243Y-96682716D01*
X118826935Y-96681294D01*
X118826933Y-96681293D01*
X118616402Y-96624881D01*
X118616400Y-96624881D01*
X118611087Y-96623457D01*
X118511520Y-96614746D01*
X118442851Y-96608738D01*
X118442844Y-96608738D01*
X118440127Y-96608500D01*
X117525873Y-96608500D01*
X117523156Y-96608738D01*
X117523149Y-96608738D01*
X117454480Y-96614746D01*
X117354913Y-96623457D01*
X117349600Y-96624881D01*
X117349598Y-96624881D01*
X117139067Y-96681293D01*
X117139065Y-96681294D01*
X117133757Y-96682716D01*
X117128776Y-96685039D01*
X117128775Y-96685039D01*
X116938850Y-96773602D01*
X116868658Y-96784263D01*
X116803845Y-96755283D01*
X116764989Y-96695863D01*
X116759600Y-96659407D01*
X116759600Y-93324669D01*
X117056001Y-93324669D01*
X117056371Y-93331490D01*
X117061895Y-93382352D01*
X117065521Y-93397604D01*
X117110676Y-93518054D01*
X117119214Y-93533649D01*
X117195715Y-93635724D01*
X117208276Y-93648285D01*
X117310351Y-93724786D01*
X117325946Y-93733324D01*
X117446394Y-93778478D01*
X117461649Y-93782105D01*
X117512514Y-93787631D01*
X117519328Y-93788000D01*
X118091885Y-93788000D01*
X118107124Y-93783525D01*
X118108329Y-93782135D01*
X118110000Y-93774452D01*
X118110000Y-92352115D01*
X118105525Y-92336876D01*
X118104135Y-92335671D01*
X118096452Y-92334000D01*
X117074116Y-92334000D01*
X117058877Y-92338475D01*
X117057672Y-92339865D01*
X117056001Y-92347548D01*
X117056001Y-93324669D01*
X116759600Y-93324669D01*
X116759600Y-91807885D01*
X117056000Y-91807885D01*
X117060475Y-91823124D01*
X117061865Y-91824329D01*
X117069548Y-91826000D01*
X118091885Y-91826000D01*
X118107124Y-91821525D01*
X118108329Y-91820135D01*
X118110000Y-91812452D01*
X118110000Y-90390116D01*
X118105525Y-90374877D01*
X118104135Y-90373672D01*
X118096452Y-90372001D01*
X117519331Y-90372001D01*
X117512510Y-90372371D01*
X117461648Y-90377895D01*
X117446396Y-90381521D01*
X117325946Y-90426676D01*
X117310351Y-90435214D01*
X117208276Y-90511715D01*
X117195715Y-90524276D01*
X117119214Y-90626351D01*
X117110676Y-90641946D01*
X117065522Y-90762394D01*
X117061895Y-90777649D01*
X117056369Y-90828514D01*
X117056000Y-90835328D01*
X117056000Y-91807885D01*
X116759600Y-91807885D01*
X116759600Y-87657994D01*
X116779602Y-87589873D01*
X116833258Y-87543380D01*
X116903532Y-87533276D01*
X116968112Y-87562770D01*
G37*
G04 #@! TD.AperFunction*
G04 #@! TA.AperFunction,Conductor*
G36*
X154298376Y-64153502D02*
G01*
X154344869Y-64207158D01*
X154354973Y-64277432D01*
X154344448Y-64312753D01*
X154343233Y-64315360D01*
X154340716Y-64320757D01*
X154339294Y-64326065D01*
X154339293Y-64326067D01*
X154299671Y-64473938D01*
X154281457Y-64541913D01*
X154261502Y-64770000D01*
X154281457Y-64998087D01*
X154282881Y-65003400D01*
X154282881Y-65003402D01*
X154339177Y-65213498D01*
X154340716Y-65219243D01*
X154343039Y-65224224D01*
X154343039Y-65224225D01*
X154435151Y-65421762D01*
X154435154Y-65421767D01*
X154437477Y-65426749D01*
X154499657Y-65515551D01*
X154565251Y-65609228D01*
X154568802Y-65614300D01*
X154730700Y-65776198D01*
X154735208Y-65779355D01*
X154735211Y-65779357D01*
X154792229Y-65819281D01*
X154900028Y-65894763D01*
X154944355Y-65950219D01*
X154948754Y-65962826D01*
X154949979Y-65967043D01*
X154953987Y-65986400D01*
X154956526Y-66006497D01*
X154959445Y-66013868D01*
X154959445Y-66013870D01*
X154972804Y-66047612D01*
X154976649Y-66058842D01*
X154986311Y-66092099D01*
X154988982Y-66101293D01*
X154993015Y-66108112D01*
X154993017Y-66108117D01*
X154999293Y-66118728D01*
X155007988Y-66136476D01*
X155015448Y-66155317D01*
X155020110Y-66161733D01*
X155020110Y-66161734D01*
X155041436Y-66191087D01*
X155047952Y-66201007D01*
X155070458Y-66239062D01*
X155084779Y-66253383D01*
X155097619Y-66268416D01*
X155109528Y-66284807D01*
X155128551Y-66300544D01*
X155143605Y-66312998D01*
X155152384Y-66320988D01*
X156208995Y-67377599D01*
X156243021Y-67439911D01*
X156245900Y-67466694D01*
X156245900Y-73601296D01*
X156225898Y-73669417D01*
X156172242Y-73715910D01*
X156101968Y-73726014D01*
X156066649Y-73715490D01*
X156029230Y-73698041D01*
X156029225Y-73698039D01*
X156024243Y-73695716D01*
X156018935Y-73694294D01*
X156018933Y-73694293D01*
X155808402Y-73637881D01*
X155808400Y-73637881D01*
X155803087Y-73636457D01*
X155575000Y-73616502D01*
X155346913Y-73636457D01*
X155341600Y-73637881D01*
X155341598Y-73637881D01*
X155131067Y-73694293D01*
X155131065Y-73694294D01*
X155125757Y-73695716D01*
X155120776Y-73698039D01*
X155120775Y-73698039D01*
X154923238Y-73790151D01*
X154923233Y-73790154D01*
X154918251Y-73792477D01*
X154813389Y-73865902D01*
X154735211Y-73920643D01*
X154735208Y-73920645D01*
X154730700Y-73923802D01*
X154568802Y-74085700D01*
X154565645Y-74090208D01*
X154565643Y-74090211D01*
X154537530Y-74130361D01*
X154437477Y-74273251D01*
X154435154Y-74278233D01*
X154435151Y-74278238D01*
X154372035Y-74413592D01*
X154340716Y-74480757D01*
X154339294Y-74486065D01*
X154339293Y-74486067D01*
X154314422Y-74578887D01*
X154281457Y-74701913D01*
X154261502Y-74930000D01*
X154281457Y-75158087D01*
X154282881Y-75163400D01*
X154282881Y-75163402D01*
X154319347Y-75299492D01*
X154340716Y-75379243D01*
X154343039Y-75384224D01*
X154343039Y-75384225D01*
X154435151Y-75581762D01*
X154435154Y-75581767D01*
X154437477Y-75586749D01*
X154568802Y-75774300D01*
X154730700Y-75936198D01*
X154735208Y-75939355D01*
X154735211Y-75939357D01*
X154801503Y-75985775D01*
X154918251Y-76067523D01*
X154923233Y-76069846D01*
X154923238Y-76069849D01*
X155120771Y-76161959D01*
X155125757Y-76164284D01*
X155131065Y-76165706D01*
X155131067Y-76165707D01*
X155341598Y-76222119D01*
X155341600Y-76222119D01*
X155346913Y-76223543D01*
X155575000Y-76243498D01*
X155803087Y-76223543D01*
X155808400Y-76222119D01*
X155808402Y-76222119D01*
X156018933Y-76165707D01*
X156018935Y-76165706D01*
X156024243Y-76164284D01*
X156029225Y-76161961D01*
X156029230Y-76161959D01*
X156066649Y-76144510D01*
X156136841Y-76133848D01*
X156201654Y-76162827D01*
X156240510Y-76222247D01*
X156245900Y-76258704D01*
X156245900Y-77264500D01*
X156225898Y-77332621D01*
X156172242Y-77379114D01*
X156119900Y-77390500D01*
X155960513Y-77390500D01*
X155954061Y-77391872D01*
X155954056Y-77391872D01*
X155867112Y-77410353D01*
X155773712Y-77430206D01*
X155767682Y-77432891D01*
X155767681Y-77432891D01*
X155605278Y-77505197D01*
X155605276Y-77505198D01*
X155599248Y-77507882D01*
X155444747Y-77620134D01*
X155316960Y-77762056D01*
X155221473Y-77927444D01*
X155162458Y-78109072D01*
X155146729Y-78258732D01*
X155143766Y-78286920D01*
X155116753Y-78352577D01*
X155107551Y-78362845D01*
X143371747Y-90098648D01*
X143363461Y-90106188D01*
X143356982Y-90110300D01*
X143351557Y-90116077D01*
X143310357Y-90159951D01*
X143307602Y-90162793D01*
X143287865Y-90182530D01*
X143285385Y-90185727D01*
X143277682Y-90194747D01*
X143247414Y-90226979D01*
X143243595Y-90233925D01*
X143243593Y-90233928D01*
X143237652Y-90244734D01*
X143226801Y-90261253D01*
X143214386Y-90277259D01*
X143211241Y-90284528D01*
X143211238Y-90284532D01*
X143196826Y-90317837D01*
X143191609Y-90328487D01*
X143170305Y-90367240D01*
X143168334Y-90374915D01*
X143168334Y-90374916D01*
X143165267Y-90386862D01*
X143158863Y-90405566D01*
X143150819Y-90424155D01*
X143149580Y-90431978D01*
X143149577Y-90431988D01*
X143143901Y-90467824D01*
X143141494Y-90479449D01*
X143140860Y-90481918D01*
X143104543Y-90542923D01*
X143091090Y-90553793D01*
X142924211Y-90670643D01*
X142924208Y-90670645D01*
X142919700Y-90673802D01*
X142757802Y-90835700D01*
X142754645Y-90840208D01*
X142754643Y-90840211D01*
X142699902Y-90918389D01*
X142626477Y-91023251D01*
X142624154Y-91028233D01*
X142624151Y-91028238D01*
X142608195Y-91062457D01*
X142561278Y-91115742D01*
X142493001Y-91135203D01*
X142425041Y-91114661D01*
X142379805Y-91062457D01*
X142363849Y-91028238D01*
X142363846Y-91028233D01*
X142361523Y-91023251D01*
X142288098Y-90918389D01*
X142233357Y-90840211D01*
X142233355Y-90840208D01*
X142230198Y-90835700D01*
X142147446Y-90752948D01*
X142113420Y-90690636D01*
X142118485Y-90619821D01*
X142147446Y-90574758D01*
X145618447Y-87103757D01*
X145626737Y-87096213D01*
X145633218Y-87092100D01*
X145679859Y-87042432D01*
X145682613Y-87039591D01*
X145702335Y-87019869D01*
X145704812Y-87016676D01*
X145712517Y-87007655D01*
X145737359Y-86981200D01*
X145742786Y-86975421D01*
X145746607Y-86968471D01*
X145752546Y-86957668D01*
X145763402Y-86941141D01*
X145770957Y-86931402D01*
X145770958Y-86931400D01*
X145775814Y-86925140D01*
X145793374Y-86884560D01*
X145798591Y-86873912D01*
X145816075Y-86842109D01*
X145816076Y-86842107D01*
X145819895Y-86835160D01*
X145824933Y-86815537D01*
X145831337Y-86796834D01*
X145836233Y-86785520D01*
X145836233Y-86785519D01*
X145839381Y-86778245D01*
X145840620Y-86770422D01*
X145840623Y-86770412D01*
X145846299Y-86734576D01*
X145848705Y-86722956D01*
X145857728Y-86687811D01*
X145857728Y-86687810D01*
X145859700Y-86680130D01*
X145859700Y-86659876D01*
X145861251Y-86640165D01*
X145863180Y-86627986D01*
X145864420Y-86620157D01*
X145860259Y-86576138D01*
X145859700Y-86564281D01*
X145859700Y-78639816D01*
X145879702Y-78571695D01*
X145933358Y-78525202D01*
X146003632Y-78515098D01*
X146018311Y-78518109D01*
X146070598Y-78532119D01*
X146070600Y-78532119D01*
X146075913Y-78533543D01*
X146304000Y-78553498D01*
X146532087Y-78533543D01*
X146537400Y-78532119D01*
X146537402Y-78532119D01*
X146747933Y-78475707D01*
X146747935Y-78475706D01*
X146753243Y-78474284D01*
X146758225Y-78471961D01*
X146955762Y-78379849D01*
X146955767Y-78379846D01*
X146960749Y-78377523D01*
X147090143Y-78286920D01*
X147143789Y-78249357D01*
X147143792Y-78249355D01*
X147148300Y-78246198D01*
X147310198Y-78084300D01*
X147441523Y-77896749D01*
X147443846Y-77891767D01*
X147443849Y-77891762D01*
X147459805Y-77857543D01*
X147506722Y-77804258D01*
X147574999Y-77784797D01*
X147642959Y-77805339D01*
X147688195Y-77857543D01*
X147704151Y-77891762D01*
X147704154Y-77891767D01*
X147706477Y-77896749D01*
X147837802Y-78084300D01*
X147999700Y-78246198D01*
X148004208Y-78249355D01*
X148004211Y-78249357D01*
X148057857Y-78286920D01*
X148187251Y-78377523D01*
X148192233Y-78379846D01*
X148192238Y-78379849D01*
X148389775Y-78471961D01*
X148394757Y-78474284D01*
X148400065Y-78475706D01*
X148400067Y-78475707D01*
X148610598Y-78532119D01*
X148610600Y-78532119D01*
X148615913Y-78533543D01*
X148844000Y-78553498D01*
X149072087Y-78533543D01*
X149077400Y-78532119D01*
X149077402Y-78532119D01*
X149287933Y-78475707D01*
X149287935Y-78475706D01*
X149293243Y-78474284D01*
X149298225Y-78471961D01*
X149495762Y-78379849D01*
X149495767Y-78379846D01*
X149500749Y-78377523D01*
X149630143Y-78286920D01*
X149683789Y-78249357D01*
X149683792Y-78249355D01*
X149688300Y-78246198D01*
X149850198Y-78084300D01*
X149981523Y-77896749D01*
X149983846Y-77891767D01*
X149983849Y-77891762D01*
X149999805Y-77857543D01*
X150046722Y-77804258D01*
X150114999Y-77784797D01*
X150182959Y-77805339D01*
X150228195Y-77857543D01*
X150244151Y-77891762D01*
X150244154Y-77891767D01*
X150246477Y-77896749D01*
X150377802Y-78084300D01*
X150539700Y-78246198D01*
X150544208Y-78249355D01*
X150544211Y-78249357D01*
X150597857Y-78286920D01*
X150727251Y-78377523D01*
X150732233Y-78379846D01*
X150732238Y-78379849D01*
X150929775Y-78471961D01*
X150934757Y-78474284D01*
X150940065Y-78475706D01*
X150940067Y-78475707D01*
X151150598Y-78532119D01*
X151150600Y-78532119D01*
X151155913Y-78533543D01*
X151384000Y-78553498D01*
X151612087Y-78533543D01*
X151617400Y-78532119D01*
X151617402Y-78532119D01*
X151827933Y-78475707D01*
X151827935Y-78475706D01*
X151833243Y-78474284D01*
X151838225Y-78471961D01*
X152035762Y-78379849D01*
X152035767Y-78379846D01*
X152040749Y-78377523D01*
X152170143Y-78286920D01*
X152223789Y-78249357D01*
X152223792Y-78249355D01*
X152228300Y-78246198D01*
X152390198Y-78084300D01*
X152521523Y-77896749D01*
X152523846Y-77891767D01*
X152523849Y-77891762D01*
X152615961Y-77694225D01*
X152615961Y-77694224D01*
X152618284Y-77689243D01*
X152677543Y-77468087D01*
X152692500Y-77297127D01*
X152692500Y-76382873D01*
X152677543Y-76211913D01*
X152664781Y-76164284D01*
X152619707Y-75996067D01*
X152619706Y-75996065D01*
X152618284Y-75990757D01*
X152562548Y-75871230D01*
X152523849Y-75788238D01*
X152523846Y-75788233D01*
X152521523Y-75783251D01*
X152405428Y-75617450D01*
X152393357Y-75600211D01*
X152393355Y-75600208D01*
X152390198Y-75595700D01*
X152228300Y-75433802D01*
X152223792Y-75430645D01*
X152223789Y-75430643D01*
X152058752Y-75315083D01*
X152040749Y-75302477D01*
X152035767Y-75300154D01*
X152035762Y-75300151D01*
X151838225Y-75208039D01*
X151838224Y-75208039D01*
X151833243Y-75205716D01*
X151827935Y-75204294D01*
X151827933Y-75204293D01*
X151617402Y-75147881D01*
X151617400Y-75147881D01*
X151612087Y-75146457D01*
X151384000Y-75126502D01*
X151155913Y-75146457D01*
X151150600Y-75147881D01*
X151150598Y-75147881D01*
X150940067Y-75204293D01*
X150940065Y-75204294D01*
X150934757Y-75205716D01*
X150929776Y-75208039D01*
X150929775Y-75208039D01*
X150732238Y-75300151D01*
X150732233Y-75300154D01*
X150727251Y-75302477D01*
X150709248Y-75315083D01*
X150544211Y-75430643D01*
X150544208Y-75430645D01*
X150539700Y-75433802D01*
X150377802Y-75595700D01*
X150374645Y-75600208D01*
X150374643Y-75600211D01*
X150362572Y-75617450D01*
X150246477Y-75783251D01*
X150244154Y-75788233D01*
X150244151Y-75788238D01*
X150228195Y-75822457D01*
X150181278Y-75875742D01*
X150113001Y-75895203D01*
X150045041Y-75874661D01*
X149999805Y-75822457D01*
X149983849Y-75788238D01*
X149983846Y-75788233D01*
X149981523Y-75783251D01*
X149865428Y-75617450D01*
X149853357Y-75600211D01*
X149853355Y-75600208D01*
X149850198Y-75595700D01*
X149688300Y-75433802D01*
X149683792Y-75430645D01*
X149683789Y-75430643D01*
X149518752Y-75315083D01*
X149500749Y-75302477D01*
X149495767Y-75300154D01*
X149495762Y-75300151D01*
X149298225Y-75208039D01*
X149298224Y-75208039D01*
X149293243Y-75205716D01*
X149287935Y-75204294D01*
X149287933Y-75204293D01*
X149077402Y-75147881D01*
X149077400Y-75147881D01*
X149072087Y-75146457D01*
X148844000Y-75126502D01*
X148615913Y-75146457D01*
X148610600Y-75147881D01*
X148610598Y-75147881D01*
X148400067Y-75204293D01*
X148400065Y-75204294D01*
X148394757Y-75205716D01*
X148389776Y-75208039D01*
X148389775Y-75208039D01*
X148192238Y-75300151D01*
X148192233Y-75300154D01*
X148187251Y-75302477D01*
X148169248Y-75315083D01*
X148004211Y-75430643D01*
X148004208Y-75430645D01*
X147999700Y-75433802D01*
X147837802Y-75595700D01*
X147834645Y-75600208D01*
X147834643Y-75600211D01*
X147822572Y-75617450D01*
X147706477Y-75783251D01*
X147704154Y-75788233D01*
X147704151Y-75788238D01*
X147688195Y-75822457D01*
X147641278Y-75875742D01*
X147573001Y-75895203D01*
X147505041Y-75874661D01*
X147459805Y-75822457D01*
X147443849Y-75788238D01*
X147443846Y-75788233D01*
X147441523Y-75783251D01*
X147325428Y-75617450D01*
X147313357Y-75600211D01*
X147313355Y-75600208D01*
X147310198Y-75595700D01*
X147148300Y-75433802D01*
X147143792Y-75430645D01*
X147143789Y-75430643D01*
X146978752Y-75315083D01*
X146960749Y-75302477D01*
X146955767Y-75300154D01*
X146955762Y-75300151D01*
X146758225Y-75208039D01*
X146758224Y-75208039D01*
X146753243Y-75205716D01*
X146747935Y-75204294D01*
X146747933Y-75204293D01*
X146537402Y-75147881D01*
X146537400Y-75147881D01*
X146532087Y-75146457D01*
X146304000Y-75126502D01*
X146075913Y-75146457D01*
X146070600Y-75147881D01*
X146070598Y-75147881D01*
X146018311Y-75161891D01*
X145947334Y-75160201D01*
X145888539Y-75120407D01*
X145860591Y-75055142D01*
X145859700Y-75040184D01*
X145859700Y-73396881D01*
X149961099Y-73396881D01*
X149961598Y-73400814D01*
X149961598Y-73400821D01*
X149969419Y-73462515D01*
X149972011Y-73482959D01*
X150027869Y-73617481D01*
X150033036Y-73624130D01*
X150033037Y-73624132D01*
X150042615Y-73636457D01*
X150080563Y-73685291D01*
X150469711Y-74074438D01*
X150538291Y-74127588D01*
X150672909Y-74183211D01*
X150681269Y-74184260D01*
X150681270Y-74184260D01*
X150754209Y-74193410D01*
X150754213Y-74193410D01*
X150758117Y-74193900D01*
X151128260Y-74193900D01*
X151497907Y-74193901D01*
X151501881Y-74193901D01*
X151505814Y-74193402D01*
X151505821Y-74193402D01*
X151579592Y-74184050D01*
X151579594Y-74184049D01*
X151587959Y-74182989D01*
X151722481Y-74127131D01*
X151790291Y-74074437D01*
X152179438Y-73685289D01*
X152232588Y-73616709D01*
X152288211Y-73482091D01*
X152289371Y-73472842D01*
X152298410Y-73400791D01*
X152298410Y-73400787D01*
X152298900Y-73396883D01*
X152298901Y-72653119D01*
X152298225Y-72647781D01*
X152289050Y-72575408D01*
X152289049Y-72575406D01*
X152287989Y-72567041D01*
X152232131Y-72432519D01*
X152225459Y-72423932D01*
X152182147Y-72368197D01*
X152179437Y-72364709D01*
X151790289Y-71975562D01*
X151721709Y-71922412D01*
X151587091Y-71866789D01*
X151578731Y-71865740D01*
X151578730Y-71865740D01*
X151505791Y-71856590D01*
X151505787Y-71856590D01*
X151501883Y-71856100D01*
X151131740Y-71856100D01*
X150762093Y-71856099D01*
X150758119Y-71856099D01*
X150754186Y-71856598D01*
X150754179Y-71856598D01*
X150680408Y-71865950D01*
X150680406Y-71865951D01*
X150672041Y-71867011D01*
X150537519Y-71922869D01*
X150469709Y-71975563D01*
X150080562Y-72364711D01*
X150027412Y-72433291D01*
X149971789Y-72567909D01*
X149970740Y-72576269D01*
X149970740Y-72576270D01*
X149962244Y-72644000D01*
X149961100Y-72653117D01*
X149961099Y-73396881D01*
X145859700Y-73396881D01*
X145859700Y-70565424D01*
X145879702Y-70497303D01*
X145892058Y-70481121D01*
X145965240Y-70399844D01*
X146060727Y-70234456D01*
X146119742Y-70052828D01*
X146139704Y-69862900D01*
X146125766Y-69730284D01*
X146120432Y-69679535D01*
X146120432Y-69679533D01*
X146119742Y-69672972D01*
X146060727Y-69491344D01*
X146048747Y-69470593D01*
X146014629Y-69411500D01*
X145965240Y-69325956D01*
X145944136Y-69302517D01*
X145841875Y-69188945D01*
X145841874Y-69188944D01*
X145837453Y-69184034D01*
X145682952Y-69071782D01*
X145676924Y-69069098D01*
X145676922Y-69069097D01*
X145514519Y-68996791D01*
X145514518Y-68996791D01*
X145508488Y-68994106D01*
X145415088Y-68974253D01*
X145328144Y-68955772D01*
X145328139Y-68955772D01*
X145321687Y-68954400D01*
X145130713Y-68954400D01*
X145124261Y-68955772D01*
X145124256Y-68955772D01*
X145037312Y-68974253D01*
X144943912Y-68994106D01*
X144937882Y-68996791D01*
X144937881Y-68996791D01*
X144775478Y-69069097D01*
X144775476Y-69069098D01*
X144769448Y-69071782D01*
X144614947Y-69184034D01*
X144610526Y-69188944D01*
X144610525Y-69188945D01*
X144508265Y-69302517D01*
X144487160Y-69325956D01*
X144437771Y-69411500D01*
X144403654Y-69470593D01*
X144391673Y-69491344D01*
X144332658Y-69672972D01*
X144331968Y-69679533D01*
X144331968Y-69679535D01*
X144326634Y-69730284D01*
X144312696Y-69862900D01*
X144332658Y-70052828D01*
X144391673Y-70234456D01*
X144487160Y-70399844D01*
X144560337Y-70481115D01*
X144591053Y-70545121D01*
X144592700Y-70565424D01*
X144592700Y-75184878D01*
X144572698Y-75252999D01*
X144519042Y-75299492D01*
X144448768Y-75309596D01*
X144413451Y-75299073D01*
X144218230Y-75208041D01*
X144218225Y-75208039D01*
X144213243Y-75205716D01*
X144207935Y-75204294D01*
X144207933Y-75204293D01*
X143997402Y-75147881D01*
X143997400Y-75147881D01*
X143992087Y-75146457D01*
X143764000Y-75126502D01*
X143535913Y-75146457D01*
X143530600Y-75147881D01*
X143530598Y-75147881D01*
X143320067Y-75204293D01*
X143320065Y-75204294D01*
X143314757Y-75205716D01*
X143309776Y-75208039D01*
X143309775Y-75208039D01*
X143112238Y-75300151D01*
X143112233Y-75300154D01*
X143107251Y-75302477D01*
X143089248Y-75315083D01*
X142924211Y-75430643D01*
X142924208Y-75430645D01*
X142919700Y-75433802D01*
X142757802Y-75595700D01*
X142754645Y-75600208D01*
X142754643Y-75600211D01*
X142742572Y-75617450D01*
X142626477Y-75783251D01*
X142624154Y-75788233D01*
X142624151Y-75788238D01*
X142608195Y-75822457D01*
X142561278Y-75875742D01*
X142493001Y-75895203D01*
X142425041Y-75874661D01*
X142379805Y-75822457D01*
X142363849Y-75788238D01*
X142363846Y-75788233D01*
X142361523Y-75783251D01*
X142245428Y-75617450D01*
X142233357Y-75600211D01*
X142233355Y-75600208D01*
X142230198Y-75595700D01*
X142068300Y-75433802D01*
X142063792Y-75430645D01*
X142063789Y-75430643D01*
X141898752Y-75315083D01*
X141880749Y-75302477D01*
X141875767Y-75300154D01*
X141875762Y-75300151D01*
X141678225Y-75208039D01*
X141678224Y-75208039D01*
X141673243Y-75205716D01*
X141667935Y-75204294D01*
X141667933Y-75204293D01*
X141457402Y-75147881D01*
X141457400Y-75147881D01*
X141452087Y-75146457D01*
X141224000Y-75126502D01*
X140995913Y-75146457D01*
X140990600Y-75147881D01*
X140990598Y-75147881D01*
X140780067Y-75204293D01*
X140780065Y-75204294D01*
X140774757Y-75205716D01*
X140769776Y-75208039D01*
X140769775Y-75208039D01*
X140572238Y-75300151D01*
X140572233Y-75300154D01*
X140567251Y-75302477D01*
X140549248Y-75315083D01*
X140384211Y-75430643D01*
X140384208Y-75430645D01*
X140379700Y-75433802D01*
X140217802Y-75595700D01*
X140214645Y-75600208D01*
X140214643Y-75600211D01*
X140202572Y-75617450D01*
X140086477Y-75783251D01*
X140084154Y-75788233D01*
X140084151Y-75788238D01*
X140068195Y-75822457D01*
X140021278Y-75875742D01*
X139953001Y-75895203D01*
X139885041Y-75874661D01*
X139839805Y-75822457D01*
X139823849Y-75788238D01*
X139823846Y-75788233D01*
X139821523Y-75783251D01*
X139705428Y-75617450D01*
X139693357Y-75600211D01*
X139693355Y-75600208D01*
X139690198Y-75595700D01*
X139528300Y-75433802D01*
X139523792Y-75430645D01*
X139523789Y-75430643D01*
X139358752Y-75315083D01*
X139340749Y-75302477D01*
X139335767Y-75300154D01*
X139335762Y-75300151D01*
X139138225Y-75208039D01*
X139138224Y-75208039D01*
X139133243Y-75205716D01*
X139127935Y-75204294D01*
X139127933Y-75204293D01*
X138917402Y-75147881D01*
X138917400Y-75147881D01*
X138912087Y-75146457D01*
X138684000Y-75126502D01*
X138455913Y-75146457D01*
X138450600Y-75147881D01*
X138450598Y-75147881D01*
X138240067Y-75204293D01*
X138240065Y-75204294D01*
X138234757Y-75205716D01*
X138229776Y-75208039D01*
X138229775Y-75208039D01*
X138032238Y-75300151D01*
X138032233Y-75300154D01*
X138027251Y-75302477D01*
X138009248Y-75315083D01*
X137844211Y-75430643D01*
X137844208Y-75430645D01*
X137839700Y-75433802D01*
X137677802Y-75595700D01*
X137674645Y-75600208D01*
X137674643Y-75600211D01*
X137662572Y-75617450D01*
X137546477Y-75783251D01*
X137544154Y-75788233D01*
X137544151Y-75788238D01*
X137528195Y-75822457D01*
X137481278Y-75875742D01*
X137413001Y-75895203D01*
X137345041Y-75874661D01*
X137299805Y-75822457D01*
X137283849Y-75788238D01*
X137283846Y-75788233D01*
X137281523Y-75783251D01*
X137165428Y-75617450D01*
X137153357Y-75600211D01*
X137153355Y-75600208D01*
X137150198Y-75595700D01*
X136988300Y-75433802D01*
X136983792Y-75430645D01*
X136983789Y-75430643D01*
X136818753Y-75315083D01*
X136774425Y-75259626D01*
X136767116Y-75189006D01*
X136801929Y-75122775D01*
X143267247Y-68657457D01*
X143275537Y-68649913D01*
X143282018Y-68645800D01*
X143328659Y-68596132D01*
X143331413Y-68593291D01*
X143351135Y-68573569D01*
X143353619Y-68570367D01*
X143361317Y-68561355D01*
X143386161Y-68534898D01*
X143391586Y-68529121D01*
X143401347Y-68511366D01*
X143412198Y-68494847D01*
X143424614Y-68478841D01*
X143442174Y-68438263D01*
X143447391Y-68427613D01*
X143468695Y-68388860D01*
X143473733Y-68369237D01*
X143480137Y-68350534D01*
X143485033Y-68339220D01*
X143485033Y-68339219D01*
X143488181Y-68331945D01*
X143489420Y-68324122D01*
X143489423Y-68324112D01*
X143491203Y-68312873D01*
X149961601Y-68312873D01*
X149962101Y-68320792D01*
X149971439Y-68394464D01*
X149975735Y-68410625D01*
X150025073Y-68529443D01*
X150033473Y-68543876D01*
X150078529Y-68601857D01*
X150083724Y-68607744D01*
X150467216Y-68991236D01*
X150473190Y-68996501D01*
X150531876Y-69041982D01*
X150546348Y-69050376D01*
X150665250Y-69099506D01*
X150681393Y-69103771D01*
X150754248Y-69112910D01*
X150762093Y-69113400D01*
X150857885Y-69113400D01*
X150873124Y-69108925D01*
X150874329Y-69107535D01*
X150876000Y-69099852D01*
X150876000Y-69095284D01*
X151384000Y-69095284D01*
X151388475Y-69110523D01*
X151389865Y-69111728D01*
X151397548Y-69113399D01*
X151497873Y-69113399D01*
X151505792Y-69112899D01*
X151579464Y-69103561D01*
X151595625Y-69099265D01*
X151714443Y-69049927D01*
X151728876Y-69041527D01*
X151786857Y-68996471D01*
X151792744Y-68991276D01*
X152176236Y-68607784D01*
X152181501Y-68601810D01*
X152226982Y-68543124D01*
X152235376Y-68528652D01*
X152284506Y-68409750D01*
X152288771Y-68393607D01*
X152297910Y-68320752D01*
X152298400Y-68312907D01*
X152298400Y-68217115D01*
X152293925Y-68201876D01*
X152292535Y-68200671D01*
X152284852Y-68199000D01*
X151402115Y-68199000D01*
X151386876Y-68203475D01*
X151385671Y-68204865D01*
X151384000Y-68212548D01*
X151384000Y-69095284D01*
X150876000Y-69095284D01*
X150876000Y-68217115D01*
X150871525Y-68201876D01*
X150870135Y-68200671D01*
X150862452Y-68199000D01*
X149979716Y-68199000D01*
X149964477Y-68203475D01*
X149963272Y-68204865D01*
X149961601Y-68212548D01*
X149961601Y-68312873D01*
X143491203Y-68312873D01*
X143495099Y-68288276D01*
X143497505Y-68276656D01*
X143506528Y-68241511D01*
X143506528Y-68241510D01*
X143508500Y-68233830D01*
X143508500Y-68213576D01*
X143510051Y-68193865D01*
X143511980Y-68181686D01*
X143513220Y-68173857D01*
X143509059Y-68129838D01*
X143508500Y-68117981D01*
X143508500Y-67672885D01*
X149961600Y-67672885D01*
X149966075Y-67688124D01*
X149967465Y-67689329D01*
X149975148Y-67691000D01*
X150857885Y-67691000D01*
X150873124Y-67686525D01*
X150874329Y-67685135D01*
X150876000Y-67677452D01*
X150876000Y-67672885D01*
X151384000Y-67672885D01*
X151388475Y-67688124D01*
X151389865Y-67689329D01*
X151397548Y-67691000D01*
X152280284Y-67691000D01*
X152295523Y-67686525D01*
X152296728Y-67685135D01*
X152298399Y-67677452D01*
X152298399Y-67577127D01*
X152297899Y-67569208D01*
X152288561Y-67495536D01*
X152284265Y-67479375D01*
X152234927Y-67360557D01*
X152226527Y-67346124D01*
X152181471Y-67288143D01*
X152176276Y-67282256D01*
X151792784Y-66898764D01*
X151786810Y-66893499D01*
X151728124Y-66848018D01*
X151713652Y-66839624D01*
X151594750Y-66790494D01*
X151578607Y-66786229D01*
X151505752Y-66777090D01*
X151497907Y-66776600D01*
X151402115Y-66776600D01*
X151386876Y-66781075D01*
X151385671Y-66782465D01*
X151384000Y-66790148D01*
X151384000Y-67672885D01*
X150876000Y-67672885D01*
X150876000Y-66794716D01*
X150871525Y-66779477D01*
X150870135Y-66778272D01*
X150862452Y-66776601D01*
X150762127Y-66776601D01*
X150754208Y-66777101D01*
X150680536Y-66786439D01*
X150664375Y-66790735D01*
X150545557Y-66840073D01*
X150531124Y-66848473D01*
X150473143Y-66893529D01*
X150467256Y-66898724D01*
X150083764Y-67282216D01*
X150078499Y-67288190D01*
X150033018Y-67346876D01*
X150024624Y-67361348D01*
X149975494Y-67480250D01*
X149971229Y-67496393D01*
X149962090Y-67569248D01*
X149961600Y-67577093D01*
X149961600Y-67672885D01*
X143508500Y-67672885D01*
X143508500Y-67529500D01*
X143528502Y-67461379D01*
X143582158Y-67414886D01*
X143634500Y-67403500D01*
X143773134Y-67403500D01*
X143835316Y-67396745D01*
X143971705Y-67345615D01*
X144088261Y-67258261D01*
X144175615Y-67141705D01*
X144226745Y-67005316D01*
X144233500Y-66943134D01*
X144233500Y-65653027D01*
X144253502Y-65584906D01*
X144307158Y-65538413D01*
X144314021Y-65535984D01*
X144313898Y-65535674D01*
X144355012Y-65519396D01*
X144366242Y-65515551D01*
X144401083Y-65505429D01*
X144401084Y-65505429D01*
X144408693Y-65503218D01*
X144415512Y-65499185D01*
X144415517Y-65499183D01*
X144426128Y-65492907D01*
X144443876Y-65484212D01*
X144462717Y-65476752D01*
X144472424Y-65469700D01*
X144498487Y-65450764D01*
X144508407Y-65444248D01*
X144539635Y-65425780D01*
X144539638Y-65425778D01*
X144546462Y-65421742D01*
X144560783Y-65407421D01*
X144575817Y-65394580D01*
X144576146Y-65394341D01*
X144592207Y-65382672D01*
X144620398Y-65348595D01*
X144628388Y-65339816D01*
X145284675Y-64683529D01*
X145346987Y-64649503D01*
X145417802Y-64654568D01*
X145474595Y-64697058D01*
X145481356Y-64706079D01*
X145486739Y-64713261D01*
X145603295Y-64800615D01*
X145739684Y-64851745D01*
X145801866Y-64858500D01*
X147598134Y-64858500D01*
X147660316Y-64851745D01*
X147796705Y-64800615D01*
X147913261Y-64713261D01*
X148000615Y-64596705D01*
X148015594Y-64556749D01*
X148044598Y-64479382D01*
X148087240Y-64422618D01*
X148153802Y-64397918D01*
X148223150Y-64413126D01*
X148257817Y-64441114D01*
X148286250Y-64473938D01*
X148458126Y-64616632D01*
X148651000Y-64729338D01*
X148859692Y-64809030D01*
X148864760Y-64810061D01*
X148864763Y-64810062D01*
X148948272Y-64827052D01*
X149078597Y-64853567D01*
X149083772Y-64853757D01*
X149083774Y-64853757D01*
X149296673Y-64861564D01*
X149296677Y-64861564D01*
X149301837Y-64861753D01*
X149306957Y-64861097D01*
X149306959Y-64861097D01*
X149518288Y-64834025D01*
X149518289Y-64834025D01*
X149523416Y-64833368D01*
X149528366Y-64831883D01*
X149732429Y-64770661D01*
X149732434Y-64770659D01*
X149737384Y-64769174D01*
X149937994Y-64670896D01*
X150119860Y-64541173D01*
X150278096Y-64383489D01*
X150312784Y-64335216D01*
X150408453Y-64202077D01*
X150409776Y-64203028D01*
X150456645Y-64159857D01*
X150526580Y-64147625D01*
X150592026Y-64175144D01*
X150619875Y-64206994D01*
X150622392Y-64211101D01*
X150679987Y-64305088D01*
X150826250Y-64473938D01*
X150998126Y-64616632D01*
X151191000Y-64729338D01*
X151399692Y-64809030D01*
X151404760Y-64810061D01*
X151404763Y-64810062D01*
X151488272Y-64827052D01*
X151618597Y-64853567D01*
X151623772Y-64853757D01*
X151623774Y-64853757D01*
X151836673Y-64861564D01*
X151836677Y-64861564D01*
X151841837Y-64861753D01*
X151846957Y-64861097D01*
X151846959Y-64861097D01*
X152058288Y-64834025D01*
X152058289Y-64834025D01*
X152063416Y-64833368D01*
X152068366Y-64831883D01*
X152272429Y-64770661D01*
X152272434Y-64770659D01*
X152277384Y-64769174D01*
X152477994Y-64670896D01*
X152659860Y-64541173D01*
X152818096Y-64383489D01*
X152852784Y-64335216D01*
X152945435Y-64206277D01*
X152948453Y-64202077D01*
X152950746Y-64197437D01*
X152952446Y-64194608D01*
X153004674Y-64146518D01*
X153060451Y-64133500D01*
X154230255Y-64133500D01*
X154298376Y-64153502D01*
G37*
G04 #@! TD.AperFunction*
G04 #@! TA.AperFunction,Conductor*
G36*
X118388882Y-65160588D02*
G01*
X118433945Y-65189549D01*
X118614343Y-65369947D01*
X118621887Y-65378237D01*
X118626000Y-65384718D01*
X118631777Y-65390143D01*
X118675667Y-65431358D01*
X118678509Y-65434113D01*
X118698230Y-65453834D01*
X118701425Y-65456312D01*
X118710447Y-65464018D01*
X118742679Y-65494286D01*
X118749628Y-65498106D01*
X118760432Y-65504046D01*
X118776956Y-65514899D01*
X118792959Y-65527313D01*
X118833543Y-65544876D01*
X118844173Y-65550083D01*
X118882940Y-65571395D01*
X118890617Y-65573366D01*
X118890622Y-65573368D01*
X118902558Y-65576432D01*
X118921266Y-65582837D01*
X118939855Y-65590881D01*
X118947683Y-65592121D01*
X118947690Y-65592123D01*
X118983524Y-65597799D01*
X118995144Y-65600205D01*
X119019321Y-65606412D01*
X119037970Y-65611200D01*
X119058224Y-65611200D01*
X119077934Y-65612751D01*
X119097943Y-65615920D01*
X119105835Y-65615174D01*
X119117263Y-65614094D01*
X119141962Y-65611759D01*
X119153819Y-65611200D01*
X122478207Y-65611200D01*
X122501816Y-65613432D01*
X122502119Y-65613490D01*
X122502123Y-65613490D01*
X122509906Y-65614975D01*
X122565951Y-65611449D01*
X122573862Y-65611200D01*
X126549806Y-65611200D01*
X126617927Y-65631202D01*
X126638901Y-65648105D01*
X127629985Y-66639189D01*
X127664011Y-66701501D01*
X127658946Y-66772316D01*
X127634529Y-66812591D01*
X127588460Y-66863756D01*
X127531854Y-66961800D01*
X127517922Y-66985932D01*
X127492973Y-67029144D01*
X127433958Y-67210772D01*
X127433268Y-67217333D01*
X127433268Y-67217335D01*
X127425220Y-67293906D01*
X127413996Y-67400700D01*
X127414686Y-67407265D01*
X127423964Y-67495536D01*
X127433958Y-67590628D01*
X127492973Y-67772256D01*
X127588460Y-67937644D01*
X127661637Y-68018915D01*
X127692353Y-68082921D01*
X127694000Y-68103224D01*
X127694000Y-68630205D01*
X127673998Y-68698326D01*
X127657095Y-68719301D01*
X127428488Y-68947907D01*
X127237742Y-69138653D01*
X127229463Y-69146187D01*
X127222982Y-69150300D01*
X127217554Y-69156080D01*
X127217553Y-69156081D01*
X127204750Y-69169715D01*
X127143537Y-69205681D01*
X127072597Y-69202842D01*
X127014453Y-69162102D01*
X126987565Y-69096394D01*
X126986900Y-69083462D01*
X126986900Y-68865224D01*
X127006902Y-68797103D01*
X127019258Y-68780921D01*
X127092440Y-68699644D01*
X127187927Y-68534256D01*
X127246942Y-68352628D01*
X127251121Y-68312873D01*
X127266214Y-68169265D01*
X127266904Y-68162700D01*
X127257644Y-68074594D01*
X127247632Y-67979335D01*
X127247632Y-67979333D01*
X127246942Y-67972772D01*
X127187927Y-67791144D01*
X127180679Y-67778589D01*
X127127525Y-67686525D01*
X127092440Y-67625756D01*
X127066464Y-67596906D01*
X126969075Y-67488745D01*
X126969074Y-67488744D01*
X126964653Y-67483834D01*
X126844786Y-67396745D01*
X126815494Y-67375463D01*
X126815493Y-67375462D01*
X126810152Y-67371582D01*
X126804124Y-67368898D01*
X126804122Y-67368897D01*
X126641719Y-67296591D01*
X126641718Y-67296591D01*
X126635688Y-67293906D01*
X126542287Y-67274053D01*
X126455344Y-67255572D01*
X126455339Y-67255572D01*
X126448887Y-67254200D01*
X126257913Y-67254200D01*
X126251461Y-67255572D01*
X126251456Y-67255572D01*
X126164513Y-67274053D01*
X126071112Y-67293906D01*
X126065082Y-67296591D01*
X126065081Y-67296591D01*
X125902678Y-67368897D01*
X125902676Y-67368898D01*
X125896648Y-67371582D01*
X125891307Y-67375462D01*
X125891306Y-67375463D01*
X125862014Y-67396745D01*
X125742147Y-67483834D01*
X125737726Y-67488744D01*
X125737725Y-67488745D01*
X125640337Y-67596906D01*
X125614360Y-67625756D01*
X125579275Y-67686525D01*
X125526122Y-67778589D01*
X125518873Y-67791144D01*
X125459858Y-67972772D01*
X125459168Y-67979333D01*
X125459168Y-67979335D01*
X125449156Y-68074594D01*
X125439896Y-68162700D01*
X125440586Y-68169265D01*
X125455680Y-68312873D01*
X125459858Y-68352628D01*
X125518873Y-68534256D01*
X125614360Y-68699644D01*
X125687537Y-68780915D01*
X125718253Y-68844921D01*
X125719900Y-68865224D01*
X125719900Y-69372177D01*
X125699898Y-69440298D01*
X125646242Y-69486791D01*
X125575968Y-69496895D01*
X125549708Y-69489072D01*
X125549398Y-69489922D01*
X125544225Y-69488039D01*
X125539243Y-69485716D01*
X125533935Y-69484294D01*
X125533933Y-69484293D01*
X125323402Y-69427881D01*
X125323400Y-69427881D01*
X125318087Y-69426457D01*
X125090000Y-69406502D01*
X124861913Y-69426457D01*
X124856600Y-69427881D01*
X124856598Y-69427881D01*
X124646067Y-69484293D01*
X124646065Y-69484294D01*
X124640757Y-69485716D01*
X124635776Y-69488039D01*
X124635775Y-69488039D01*
X124438238Y-69580151D01*
X124438233Y-69580154D01*
X124433251Y-69582477D01*
X124387149Y-69614758D01*
X124250211Y-69710643D01*
X124250210Y-69710644D01*
X124245700Y-69713802D01*
X124083802Y-69875700D01*
X124080643Y-69880211D01*
X124077108Y-69884424D01*
X124075974Y-69883473D01*
X124025929Y-69923471D01*
X123955310Y-69930776D01*
X123891951Y-69898742D01*
X123855970Y-69837538D01*
X123852918Y-69820483D01*
X123851745Y-69809684D01*
X123800615Y-69673295D01*
X123713261Y-69556739D01*
X123596705Y-69469385D01*
X123460316Y-69418255D01*
X123398134Y-69411500D01*
X121701866Y-69411500D01*
X121639684Y-69418255D01*
X121503295Y-69469385D01*
X121386739Y-69556739D01*
X121299385Y-69673295D01*
X121248255Y-69809684D01*
X121241500Y-69871866D01*
X121241500Y-72368134D01*
X121248255Y-72430316D01*
X121299385Y-72566705D01*
X121386739Y-72683261D01*
X121503295Y-72770615D01*
X121639684Y-72821745D01*
X121701866Y-72828500D01*
X121855592Y-72828500D01*
X121923713Y-72848502D01*
X121970206Y-72902158D01*
X121980310Y-72972432D01*
X121947442Y-73040753D01*
X121910257Y-73080351D01*
X121907502Y-73083193D01*
X121887765Y-73102930D01*
X121885285Y-73106127D01*
X121877582Y-73115147D01*
X121847314Y-73147379D01*
X121843495Y-73154325D01*
X121843493Y-73154328D01*
X121837552Y-73165134D01*
X121826701Y-73181653D01*
X121814286Y-73197659D01*
X121811141Y-73204928D01*
X121811138Y-73204932D01*
X121796726Y-73238237D01*
X121791509Y-73248887D01*
X121770205Y-73287640D01*
X121768234Y-73295315D01*
X121768234Y-73295316D01*
X121765167Y-73307262D01*
X121758763Y-73325966D01*
X121750719Y-73344555D01*
X121749480Y-73352378D01*
X121749477Y-73352388D01*
X121743801Y-73388224D01*
X121741395Y-73399844D01*
X121732372Y-73434989D01*
X121730400Y-73442670D01*
X121730400Y-73462924D01*
X121728849Y-73482634D01*
X121725680Y-73502643D01*
X121726426Y-73510535D01*
X121729841Y-73546661D01*
X121730400Y-73558519D01*
X121730400Y-75183806D01*
X121710398Y-75251927D01*
X121656742Y-75298420D01*
X121586468Y-75308524D01*
X121551150Y-75298001D01*
X121358225Y-75208039D01*
X121358224Y-75208039D01*
X121353243Y-75205716D01*
X121347935Y-75204294D01*
X121347933Y-75204293D01*
X121137402Y-75147881D01*
X121137400Y-75147881D01*
X121132087Y-75146457D01*
X120904000Y-75126502D01*
X120675913Y-75146457D01*
X120670600Y-75147881D01*
X120670598Y-75147881D01*
X120460067Y-75204293D01*
X120460065Y-75204294D01*
X120454757Y-75205716D01*
X120449776Y-75208039D01*
X120449775Y-75208039D01*
X120252238Y-75300151D01*
X120252233Y-75300154D01*
X120247251Y-75302477D01*
X120229248Y-75315083D01*
X120064211Y-75430643D01*
X120064208Y-75430645D01*
X120059700Y-75433802D01*
X119897802Y-75595700D01*
X119894645Y-75600208D01*
X119894643Y-75600211D01*
X119882572Y-75617450D01*
X119766477Y-75783251D01*
X119764154Y-75788233D01*
X119764151Y-75788238D01*
X119748195Y-75822457D01*
X119701278Y-75875742D01*
X119633001Y-75895203D01*
X119565041Y-75874661D01*
X119519805Y-75822457D01*
X119503849Y-75788238D01*
X119503846Y-75788233D01*
X119501523Y-75783251D01*
X119385428Y-75617450D01*
X119373357Y-75600211D01*
X119373355Y-75600208D01*
X119370198Y-75595700D01*
X119208300Y-75433802D01*
X119203792Y-75430645D01*
X119203789Y-75430643D01*
X119038752Y-75315083D01*
X119020749Y-75302477D01*
X119015767Y-75300154D01*
X119015762Y-75300151D01*
X118818225Y-75208039D01*
X118818224Y-75208039D01*
X118813243Y-75205716D01*
X118807935Y-75204294D01*
X118807933Y-75204293D01*
X118597402Y-75147881D01*
X118597400Y-75147881D01*
X118592087Y-75146457D01*
X118364000Y-75126502D01*
X118135913Y-75146457D01*
X117952010Y-75195734D01*
X117881035Y-75194044D01*
X117822239Y-75154250D01*
X117794291Y-75088986D01*
X117793400Y-75074027D01*
X117793400Y-69855784D01*
X117813402Y-69787663D01*
X117830253Y-69773062D01*
X117828896Y-69771886D01*
X117854329Y-69742535D01*
X117856000Y-69734852D01*
X117856000Y-69730284D01*
X118364000Y-69730284D01*
X118368475Y-69745523D01*
X118369865Y-69746728D01*
X118377548Y-69748399D01*
X118477873Y-69748399D01*
X118485792Y-69747899D01*
X118559464Y-69738561D01*
X118575625Y-69734265D01*
X118694443Y-69684927D01*
X118708876Y-69676527D01*
X118766857Y-69631471D01*
X118772744Y-69626276D01*
X119156236Y-69242784D01*
X119161501Y-69236810D01*
X119206982Y-69178124D01*
X119215376Y-69163652D01*
X119264506Y-69044750D01*
X119268771Y-69028607D01*
X119277910Y-68955752D01*
X119278400Y-68947907D01*
X119278400Y-68852115D01*
X119273925Y-68836876D01*
X119272535Y-68835671D01*
X119264852Y-68834000D01*
X118382115Y-68834000D01*
X118366876Y-68838475D01*
X118365671Y-68839865D01*
X118364000Y-68847548D01*
X118364000Y-69730284D01*
X117856000Y-69730284D01*
X117856000Y-68307885D01*
X118364000Y-68307885D01*
X118368475Y-68323124D01*
X118369865Y-68324329D01*
X118377548Y-68326000D01*
X119260284Y-68326000D01*
X119275523Y-68321525D01*
X119276728Y-68320135D01*
X119278399Y-68312452D01*
X119278399Y-68212127D01*
X119277899Y-68204208D01*
X119268561Y-68130536D01*
X119264265Y-68114375D01*
X119214927Y-67995557D01*
X119206527Y-67981124D01*
X119161471Y-67923143D01*
X119156276Y-67917256D01*
X118772784Y-67533764D01*
X118766810Y-67528499D01*
X118708124Y-67483018D01*
X118693652Y-67474624D01*
X118574750Y-67425494D01*
X118558607Y-67421229D01*
X118485752Y-67412090D01*
X118477907Y-67411600D01*
X118382115Y-67411600D01*
X118366876Y-67416075D01*
X118365671Y-67417465D01*
X118364000Y-67425148D01*
X118364000Y-68307885D01*
X117856000Y-68307885D01*
X117856000Y-67429716D01*
X117851525Y-67414477D01*
X117836888Y-67401794D01*
X117798504Y-67342068D01*
X117793400Y-67306569D01*
X117793400Y-65704094D01*
X117813402Y-65635973D01*
X117830305Y-65614999D01*
X118255755Y-65189549D01*
X118318067Y-65155523D01*
X118388882Y-65160588D01*
G37*
G04 #@! TD.AperFunction*
M02*
