G04 #@! TF.GenerationSoftware,KiCad,Pcbnew,(6.0.5)*
G04 #@! TF.CreationDate,2022-12-14T22:29:40+01:00*
G04 #@! TF.ProjectId,Link232-wifi,4c696e6b-3233-4322-9d77-6966692e6b69,rev?*
G04 #@! TF.SameCoordinates,Original*
G04 #@! TF.FileFunction,Legend,Bot*
G04 #@! TF.FilePolarity,Positive*
%FSLAX46Y46*%
G04 Gerber Fmt 4.6, Leading zero omitted, Abs format (unit mm)*
G04 Created by KiCad (PCBNEW (6.0.5)) date 2022-12-14 22:29:40*
%MOMM*%
%LPD*%
G01*
G04 APERTURE LIST*
G04 Aperture macros list*
%AMFreePoly0*
4,1,25,0.389919,0.742596,0.402042,0.732242,0.732242,0.402042,0.760749,0.346094,0.762000,0.330200,0.762000,-0.330200,0.742596,-0.389919,0.732242,-0.402042,0.402042,-0.732242,0.346094,-0.760749,0.330200,-0.762000,-0.330200,-0.762000,-0.389919,-0.742596,-0.402042,-0.732242,-0.732242,-0.402042,-0.760749,-0.346094,-0.762000,-0.330200,-0.762000,0.330200,-0.742596,0.389919,-0.732242,0.402042,
-0.402042,0.732242,-0.346094,0.760749,-0.330200,0.762000,0.330200,0.762000,0.389919,0.742596,0.389919,0.742596,$1*%
G04 Aperture macros list end*
%ADD10C,0.120000*%
%ADD11R,2.400000X1.600000*%
%ADD12O,2.400000X1.600000*%
%ADD13R,1.700000X1.700000*%
%ADD14O,1.700000X1.700000*%
%ADD15R,1.600000X2.400000*%
%ADD16O,1.600000X2.400000*%
%ADD17C,1.711200*%
%ADD18FreePoly0,90.000000*%
%ADD19C,1.500000*%
%ADD20C,1.600000*%
%ADD21O,1.600000X1.600000*%
%ADD22FreePoly0,270.000000*%
G04 APERTURE END LIST*
D10*
X149860000Y-67945000D02*
X149225000Y-67310000D01*
X148590000Y-67945000D02*
X149225000Y-67310000D01*
X149225000Y-67310000D02*
X148590000Y-67945000D01*
X143510000Y-69215000D02*
X142875000Y-68580000D01*
X142240000Y-69215000D02*
X142875000Y-68580000D01*
X142875000Y-68580000D02*
X142240000Y-69215000D01*
X149225000Y-88265000D02*
X149225000Y-67310000D01*
X147955000Y-88265000D02*
X149225000Y-88265000D01*
X142875000Y-71755000D02*
X142875000Y-68580000D01*
X168275000Y-71755000D02*
X142875000Y-71755000D01*
X169087380Y-67911809D02*
X169801666Y-67911809D01*
X169944523Y-67864190D01*
X170039761Y-67768952D01*
X170087380Y-67626095D01*
X170087380Y-67530857D01*
X169420714Y-68816571D02*
X170087380Y-68816571D01*
X169420714Y-68388000D02*
X169944523Y-68388000D01*
X170039761Y-68435619D01*
X170087380Y-68530857D01*
X170087380Y-68673714D01*
X170039761Y-68768952D01*
X169992142Y-68816571D01*
X170087380Y-69292761D02*
X169420714Y-69292761D01*
X169515952Y-69292761D02*
X169468333Y-69340380D01*
X169420714Y-69435619D01*
X169420714Y-69578476D01*
X169468333Y-69673714D01*
X169563571Y-69721333D01*
X170087380Y-69721333D01*
X169563571Y-69721333D02*
X169468333Y-69768952D01*
X169420714Y-69864190D01*
X169420714Y-70007047D01*
X169468333Y-70102285D01*
X169563571Y-70149904D01*
X170087380Y-70149904D01*
X169420714Y-70626095D02*
X170420714Y-70626095D01*
X169468333Y-70626095D02*
X169420714Y-70721333D01*
X169420714Y-70911809D01*
X169468333Y-71007047D01*
X169515952Y-71054666D01*
X169611190Y-71102285D01*
X169896904Y-71102285D01*
X169992142Y-71054666D01*
X170039761Y-71007047D01*
X170087380Y-70911809D01*
X170087380Y-70721333D01*
X170039761Y-70626095D01*
X170039761Y-71911809D02*
X170087380Y-71816571D01*
X170087380Y-71626095D01*
X170039761Y-71530857D01*
X169944523Y-71483238D01*
X169563571Y-71483238D01*
X169468333Y-71530857D01*
X169420714Y-71626095D01*
X169420714Y-71816571D01*
X169468333Y-71911809D01*
X169563571Y-71959428D01*
X169658809Y-71959428D01*
X169754047Y-71483238D01*
X170087380Y-72388000D02*
X169420714Y-72388000D01*
X169611190Y-72388000D02*
X169515952Y-72435619D01*
X169468333Y-72483238D01*
X169420714Y-72578476D01*
X169420714Y-72673714D01*
X169420714Y-73626095D02*
X169420714Y-74007047D01*
X169087380Y-73768952D02*
X169944523Y-73768952D01*
X170039761Y-73816571D01*
X170087380Y-73911809D01*
X170087380Y-74007047D01*
X170087380Y-74483238D02*
X170039761Y-74388000D01*
X169992142Y-74340380D01*
X169896904Y-74292761D01*
X169611190Y-74292761D01*
X169515952Y-74340380D01*
X169468333Y-74388000D01*
X169420714Y-74483238D01*
X169420714Y-74626095D01*
X169468333Y-74721333D01*
X169515952Y-74768952D01*
X169611190Y-74816571D01*
X169896904Y-74816571D01*
X169992142Y-74768952D01*
X170039761Y-74721333D01*
X170087380Y-74626095D01*
X170087380Y-74483238D01*
X170039761Y-76435619D02*
X170087380Y-76340380D01*
X170087380Y-76149904D01*
X170039761Y-76054666D01*
X169992142Y-76007047D01*
X169896904Y-75959428D01*
X169611190Y-75959428D01*
X169515952Y-76007047D01*
X169468333Y-76054666D01*
X169420714Y-76149904D01*
X169420714Y-76340380D01*
X169468333Y-76435619D01*
X170087380Y-77007047D02*
X170039761Y-76911809D01*
X169992142Y-76864190D01*
X169896904Y-76816571D01*
X169611190Y-76816571D01*
X169515952Y-76864190D01*
X169468333Y-76911809D01*
X169420714Y-77007047D01*
X169420714Y-77149904D01*
X169468333Y-77245142D01*
X169515952Y-77292761D01*
X169611190Y-77340380D01*
X169896904Y-77340380D01*
X169992142Y-77292761D01*
X170039761Y-77245142D01*
X170087380Y-77149904D01*
X170087380Y-77007047D01*
X169420714Y-77768952D02*
X170087380Y-77768952D01*
X169515952Y-77768952D02*
X169468333Y-77816571D01*
X169420714Y-77911809D01*
X169420714Y-78054666D01*
X169468333Y-78149904D01*
X169563571Y-78197523D01*
X170087380Y-78197523D01*
X169420714Y-78673714D02*
X170087380Y-78673714D01*
X169515952Y-78673714D02*
X169468333Y-78721333D01*
X169420714Y-78816571D01*
X169420714Y-78959428D01*
X169468333Y-79054666D01*
X169563571Y-79102285D01*
X170087380Y-79102285D01*
X170039761Y-79959428D02*
X170087380Y-79864190D01*
X170087380Y-79673714D01*
X170039761Y-79578476D01*
X169944523Y-79530857D01*
X169563571Y-79530857D01*
X169468333Y-79578476D01*
X169420714Y-79673714D01*
X169420714Y-79864190D01*
X169468333Y-79959428D01*
X169563571Y-80007047D01*
X169658809Y-80007047D01*
X169754047Y-79530857D01*
X170039761Y-80864190D02*
X170087380Y-80768952D01*
X170087380Y-80578476D01*
X170039761Y-80483238D01*
X169992142Y-80435619D01*
X169896904Y-80388000D01*
X169611190Y-80388000D01*
X169515952Y-80435619D01*
X169468333Y-80483238D01*
X169420714Y-80578476D01*
X169420714Y-80768952D01*
X169468333Y-80864190D01*
X169420714Y-81149904D02*
X169420714Y-81530857D01*
X169087380Y-81292761D02*
X169944523Y-81292761D01*
X170039761Y-81340380D01*
X170087380Y-81435619D01*
X170087380Y-81530857D01*
X170697380Y-67530857D02*
X171697380Y-67768952D01*
X170983095Y-67959428D01*
X171697380Y-68149904D01*
X170697380Y-68388000D01*
X171649761Y-69149904D02*
X171697380Y-69054666D01*
X171697380Y-68864190D01*
X171649761Y-68768952D01*
X171554523Y-68721333D01*
X171173571Y-68721333D01*
X171078333Y-68768952D01*
X171030714Y-68864190D01*
X171030714Y-69054666D01*
X171078333Y-69149904D01*
X171173571Y-69197523D01*
X171268809Y-69197523D01*
X171364047Y-68721333D01*
X171697380Y-69626095D02*
X171030714Y-69626095D01*
X171125952Y-69626095D02*
X171078333Y-69673714D01*
X171030714Y-69768952D01*
X171030714Y-69911809D01*
X171078333Y-70007047D01*
X171173571Y-70054666D01*
X171697380Y-70054666D01*
X171173571Y-70054666D02*
X171078333Y-70102285D01*
X171030714Y-70197523D01*
X171030714Y-70340380D01*
X171078333Y-70435619D01*
X171173571Y-70483238D01*
X171697380Y-70483238D01*
X171697380Y-71102285D02*
X171649761Y-71007047D01*
X171602142Y-70959428D01*
X171506904Y-70911809D01*
X171221190Y-70911809D01*
X171125952Y-70959428D01*
X171078333Y-71007047D01*
X171030714Y-71102285D01*
X171030714Y-71245142D01*
X171078333Y-71340380D01*
X171125952Y-71388000D01*
X171221190Y-71435619D01*
X171506904Y-71435619D01*
X171602142Y-71388000D01*
X171649761Y-71340380D01*
X171697380Y-71245142D01*
X171697380Y-71102285D01*
X171649761Y-71816571D02*
X171697380Y-71911809D01*
X171697380Y-72102285D01*
X171649761Y-72197523D01*
X171554523Y-72245142D01*
X171506904Y-72245142D01*
X171411666Y-72197523D01*
X171364047Y-72102285D01*
X171364047Y-71959428D01*
X171316428Y-71864190D01*
X171221190Y-71816571D01*
X171173571Y-71816571D01*
X171078333Y-71864190D01*
X171030714Y-71959428D01*
X171030714Y-72102285D01*
X171078333Y-72197523D01*
X171697380Y-74007047D02*
X171221190Y-73673714D01*
X171697380Y-73435619D02*
X170697380Y-73435619D01*
X170697380Y-73816571D01*
X170745000Y-73911809D01*
X170792619Y-73959428D01*
X170887857Y-74007047D01*
X171030714Y-74007047D01*
X171125952Y-73959428D01*
X171173571Y-73911809D01*
X171221190Y-73816571D01*
X171221190Y-73435619D01*
X171173571Y-74435619D02*
X171173571Y-74768952D01*
X171697380Y-74911809D02*
X171697380Y-74435619D01*
X170697380Y-74435619D01*
X170697380Y-74911809D01*
X171649761Y-75292761D02*
X171697380Y-75435619D01*
X171697380Y-75673714D01*
X171649761Y-75768952D01*
X171602142Y-75816571D01*
X171506904Y-75864190D01*
X171411666Y-75864190D01*
X171316428Y-75816571D01*
X171268809Y-75768952D01*
X171221190Y-75673714D01*
X171173571Y-75483238D01*
X171125952Y-75388000D01*
X171078333Y-75340380D01*
X170983095Y-75292761D01*
X170887857Y-75292761D01*
X170792619Y-75340380D01*
X170745000Y-75388000D01*
X170697380Y-75483238D01*
X170697380Y-75721333D01*
X170745000Y-75864190D01*
X171173571Y-76292761D02*
X171173571Y-76626095D01*
X171697380Y-76768952D02*
X171697380Y-76292761D01*
X170697380Y-76292761D01*
X170697380Y-76768952D01*
X170697380Y-77054666D02*
X170697380Y-77626095D01*
X171697380Y-77340380D02*
X170697380Y-77340380D01*
X171030714Y-78626095D02*
X171697380Y-78816571D01*
X171221190Y-79007047D01*
X171697380Y-79197523D01*
X171030714Y-79388000D01*
X171697380Y-79768952D02*
X171030714Y-79768952D01*
X170697380Y-79768952D02*
X170745000Y-79721333D01*
X170792619Y-79768952D01*
X170745000Y-79816571D01*
X170697380Y-79768952D01*
X170792619Y-79768952D01*
X171030714Y-80102285D02*
X171030714Y-80483238D01*
X170697380Y-80245142D02*
X171554523Y-80245142D01*
X171649761Y-80292761D01*
X171697380Y-80388000D01*
X171697380Y-80483238D01*
X171697380Y-80816571D02*
X170697380Y-80816571D01*
X171697380Y-81245142D02*
X171173571Y-81245142D01*
X171078333Y-81197523D01*
X171030714Y-81102285D01*
X171030714Y-80959428D01*
X171078333Y-80864190D01*
X171125952Y-80816571D01*
X173259761Y-67578476D02*
X173307380Y-67673714D01*
X173307380Y-67864190D01*
X173259761Y-67959428D01*
X173164523Y-68007047D01*
X173116904Y-68007047D01*
X173021666Y-67959428D01*
X172974047Y-67864190D01*
X172974047Y-67721333D01*
X172926428Y-67626095D01*
X172831190Y-67578476D01*
X172783571Y-67578476D01*
X172688333Y-67626095D01*
X172640714Y-67721333D01*
X172640714Y-67864190D01*
X172688333Y-67959428D01*
X172640714Y-68340380D02*
X173307380Y-68578476D01*
X172640714Y-68816571D02*
X173307380Y-68578476D01*
X173545476Y-68483238D01*
X173593095Y-68435619D01*
X173640714Y-68340380D01*
X173259761Y-69149904D02*
X173307380Y-69245142D01*
X173307380Y-69435619D01*
X173259761Y-69530857D01*
X173164523Y-69578476D01*
X173116904Y-69578476D01*
X173021666Y-69530857D01*
X172974047Y-69435619D01*
X172974047Y-69292761D01*
X172926428Y-69197523D01*
X172831190Y-69149904D01*
X172783571Y-69149904D01*
X172688333Y-69197523D01*
X172640714Y-69292761D01*
X172640714Y-69435619D01*
X172688333Y-69530857D01*
X172640714Y-69864190D02*
X172640714Y-70245142D01*
X172307380Y-70007047D02*
X173164523Y-70007047D01*
X173259761Y-70054666D01*
X173307380Y-70149904D01*
X173307380Y-70245142D01*
X173259761Y-70959428D02*
X173307380Y-70864190D01*
X173307380Y-70673714D01*
X173259761Y-70578476D01*
X173164523Y-70530857D01*
X172783571Y-70530857D01*
X172688333Y-70578476D01*
X172640714Y-70673714D01*
X172640714Y-70864190D01*
X172688333Y-70959428D01*
X172783571Y-71007047D01*
X172878809Y-71007047D01*
X172974047Y-70530857D01*
X173307380Y-71435619D02*
X172640714Y-71435619D01*
X172735952Y-71435619D02*
X172688333Y-71483238D01*
X172640714Y-71578476D01*
X172640714Y-71721333D01*
X172688333Y-71816571D01*
X172783571Y-71864190D01*
X173307380Y-71864190D01*
X172783571Y-71864190D02*
X172688333Y-71911809D01*
X172640714Y-72007047D01*
X172640714Y-72149904D01*
X172688333Y-72245142D01*
X172783571Y-72292761D01*
X173307380Y-72292761D01*
X173307380Y-74102285D02*
X172831190Y-73768952D01*
X173307380Y-73530857D02*
X172307380Y-73530857D01*
X172307380Y-73911809D01*
X172355000Y-74007047D01*
X172402619Y-74054666D01*
X172497857Y-74102285D01*
X172640714Y-74102285D01*
X172735952Y-74054666D01*
X172783571Y-74007047D01*
X172831190Y-73911809D01*
X172831190Y-73530857D01*
X172783571Y-74530857D02*
X172783571Y-74864190D01*
X173307380Y-75007047D02*
X173307380Y-74530857D01*
X172307380Y-74530857D01*
X172307380Y-75007047D01*
X173259761Y-75388000D02*
X173307380Y-75530857D01*
X173307380Y-75768952D01*
X173259761Y-75864190D01*
X173212142Y-75911809D01*
X173116904Y-75959428D01*
X173021666Y-75959428D01*
X172926428Y-75911809D01*
X172878809Y-75864190D01*
X172831190Y-75768952D01*
X172783571Y-75578476D01*
X172735952Y-75483238D01*
X172688333Y-75435619D01*
X172593095Y-75388000D01*
X172497857Y-75388000D01*
X172402619Y-75435619D01*
X172355000Y-75483238D01*
X172307380Y-75578476D01*
X172307380Y-75816571D01*
X172355000Y-75959428D01*
X172783571Y-76388000D02*
X172783571Y-76721333D01*
X173307380Y-76864190D02*
X173307380Y-76388000D01*
X172307380Y-76388000D01*
X172307380Y-76864190D01*
X172307380Y-77149904D02*
X172307380Y-77721333D01*
X173307380Y-77435619D02*
X172307380Y-77435619D01*
X147369000Y-79576000D02*
X146797571Y-79576000D01*
X147083285Y-81114857D02*
X147083285Y-79914857D01*
X146797571Y-79576000D02*
X145540428Y-79576000D01*
X145654714Y-79857714D02*
X146683285Y-81400571D01*
X145540428Y-79576000D02*
X144283285Y-79576000D01*
X145026142Y-79914857D02*
X144797571Y-79914857D01*
X144683285Y-79972000D01*
X144569000Y-80086285D01*
X144511857Y-80314857D01*
X144511857Y-80714857D01*
X144569000Y-80943428D01*
X144683285Y-81057714D01*
X144797571Y-81114857D01*
X145026142Y-81114857D01*
X145140428Y-81057714D01*
X145254714Y-80943428D01*
X145311857Y-80714857D01*
X145311857Y-80314857D01*
X145254714Y-80086285D01*
X145140428Y-79972000D01*
X145026142Y-79914857D01*
X143140428Y-81057714D02*
X142969000Y-81114857D01*
X142683285Y-81114857D01*
X142569000Y-81057714D01*
X142511857Y-81000571D01*
X142454714Y-80886285D01*
X142454714Y-80772000D01*
X142511857Y-80657714D01*
X142569000Y-80600571D01*
X142683285Y-80543428D01*
X142911857Y-80486285D01*
X143026142Y-80429142D01*
X143083285Y-80372000D01*
X143140428Y-80257714D01*
X143140428Y-80143428D01*
X143083285Y-80029142D01*
X143026142Y-79972000D01*
X142911857Y-79914857D01*
X142626142Y-79914857D01*
X142454714Y-79972000D01*
X142797571Y-79743428D02*
X142797571Y-81286285D01*
X141940428Y-81114857D02*
X141940428Y-79914857D01*
X141654714Y-79914857D01*
X141483285Y-79972000D01*
X141369000Y-80086285D01*
X141311857Y-80200571D01*
X141254714Y-80429142D01*
X141254714Y-80600571D01*
X141311857Y-80829142D01*
X141369000Y-80943428D01*
X141483285Y-81057714D01*
X141654714Y-81114857D01*
X141940428Y-81114857D01*
X140740428Y-80486285D02*
X140340428Y-80486285D01*
X140169000Y-81114857D02*
X140740428Y-81114857D01*
X140740428Y-79914857D01*
X140169000Y-79914857D01*
X139654714Y-80486285D02*
X138740428Y-80486285D01*
X138740428Y-80829142D02*
X139654714Y-80829142D01*
X138169000Y-81114857D02*
X138169000Y-79914857D01*
X137711857Y-79914857D01*
X137597571Y-79972000D01*
X137540428Y-80029142D01*
X137483285Y-80143428D01*
X137483285Y-80314857D01*
X137540428Y-80429142D01*
X137597571Y-80486285D01*
X137711857Y-80543428D01*
X138169000Y-80543428D01*
X136969000Y-81114857D02*
X136969000Y-80314857D01*
X136969000Y-79914857D02*
X137026142Y-79972000D01*
X136969000Y-80029142D01*
X136911857Y-79972000D01*
X136969000Y-79914857D01*
X136969000Y-80029142D01*
X136397571Y-80314857D02*
X136397571Y-81114857D01*
X136397571Y-80429142D02*
X136340428Y-80372000D01*
X136226142Y-80314857D01*
X136054714Y-80314857D01*
X135940428Y-80372000D01*
X135883285Y-80486285D01*
X135883285Y-81114857D01*
X135426142Y-79914857D02*
X134626142Y-79914857D01*
X135140428Y-81114857D01*
X133311857Y-79857714D02*
X134340428Y-81400571D01*
X132969000Y-81057714D02*
X132797571Y-81114857D01*
X132511857Y-81114857D01*
X132397571Y-81057714D01*
X132340428Y-81000571D01*
X132283285Y-80886285D01*
X132283285Y-80772000D01*
X132340428Y-80657714D01*
X132397571Y-80600571D01*
X132511857Y-80543428D01*
X132740428Y-80486285D01*
X132854714Y-80429142D01*
X132911857Y-80372000D01*
X132969000Y-80257714D01*
X132969000Y-80143428D01*
X132911857Y-80029142D01*
X132854714Y-79972000D01*
X132740428Y-79914857D01*
X132454714Y-79914857D01*
X132283285Y-79972000D01*
X132626142Y-79743428D02*
X132626142Y-81286285D01*
X131769000Y-81114857D02*
X131769000Y-79914857D01*
X131483285Y-79914857D01*
X131311857Y-79972000D01*
X131197571Y-80086285D01*
X131140428Y-80200571D01*
X131083285Y-80429142D01*
X131083285Y-80600571D01*
X131140428Y-80829142D01*
X131197571Y-80943428D01*
X131311857Y-81057714D01*
X131483285Y-81114857D01*
X131769000Y-81114857D01*
X130169000Y-80486285D02*
X130569000Y-80486285D01*
X130569000Y-81114857D02*
X130569000Y-79914857D01*
X129997571Y-79914857D01*
X129540428Y-80486285D02*
X128626142Y-80486285D01*
X128626142Y-80829142D02*
X129540428Y-80829142D01*
X128054714Y-81114857D02*
X128054714Y-79914857D01*
X127597571Y-79914857D01*
X127483285Y-79972000D01*
X127426142Y-80029142D01*
X127369000Y-80143428D01*
X127369000Y-80314857D01*
X127426142Y-80429142D01*
X127483285Y-80486285D01*
X127597571Y-80543428D01*
X128054714Y-80543428D01*
X126854714Y-81114857D02*
X126854714Y-80314857D01*
X126854714Y-79914857D02*
X126911857Y-79972000D01*
X126854714Y-80029142D01*
X126797571Y-79972000D01*
X126854714Y-79914857D01*
X126854714Y-80029142D01*
X126283285Y-80314857D02*
X126283285Y-81114857D01*
X126283285Y-80429142D02*
X126226142Y-80372000D01*
X126111857Y-80314857D01*
X125940428Y-80314857D01*
X125826142Y-80372000D01*
X125769000Y-80486285D01*
X125769000Y-81114857D01*
X124569000Y-81114857D02*
X125254714Y-81114857D01*
X124911857Y-81114857D02*
X124911857Y-79914857D01*
X125026142Y-80086285D01*
X125140428Y-80200571D01*
X125254714Y-80257714D01*
X123826142Y-79914857D02*
X123711857Y-79914857D01*
X123597571Y-79972000D01*
X123540428Y-80029142D01*
X123483285Y-80143428D01*
X123426142Y-80372000D01*
X123426142Y-80657714D01*
X123483285Y-80886285D01*
X123540428Y-81000571D01*
X123597571Y-81057714D01*
X123711857Y-81114857D01*
X123826142Y-81114857D01*
X123940428Y-81057714D01*
X123997571Y-81000571D01*
X124054714Y-80886285D01*
X124111857Y-80657714D01*
X124111857Y-80372000D01*
X124054714Y-80143428D01*
X123997571Y-80029142D01*
X123940428Y-79972000D01*
X123826142Y-79914857D01*
X147369000Y-81508000D02*
X146797571Y-81508000D01*
X147083285Y-83046857D02*
X147083285Y-81846857D01*
X146797571Y-81508000D02*
X145540428Y-81508000D01*
X145654714Y-81789714D02*
X146683285Y-83332571D01*
X145540428Y-81508000D02*
X144283285Y-81508000D01*
X145026142Y-81846857D02*
X144797571Y-81846857D01*
X144683285Y-81904000D01*
X144569000Y-82018285D01*
X144511857Y-82246857D01*
X144511857Y-82646857D01*
X144569000Y-82875428D01*
X144683285Y-82989714D01*
X144797571Y-83046857D01*
X145026142Y-83046857D01*
X145140428Y-82989714D01*
X145254714Y-82875428D01*
X145311857Y-82646857D01*
X145311857Y-82246857D01*
X145254714Y-82018285D01*
X145140428Y-81904000D01*
X145026142Y-81846857D01*
X143140428Y-82989714D02*
X142969000Y-83046857D01*
X142683285Y-83046857D01*
X142569000Y-82989714D01*
X142511857Y-82932571D01*
X142454714Y-82818285D01*
X142454714Y-82704000D01*
X142511857Y-82589714D01*
X142569000Y-82532571D01*
X142683285Y-82475428D01*
X142911857Y-82418285D01*
X143026142Y-82361142D01*
X143083285Y-82304000D01*
X143140428Y-82189714D01*
X143140428Y-82075428D01*
X143083285Y-81961142D01*
X143026142Y-81904000D01*
X142911857Y-81846857D01*
X142626142Y-81846857D01*
X142454714Y-81904000D01*
X142797571Y-81675428D02*
X142797571Y-83218285D01*
X141940428Y-83046857D02*
X141940428Y-81846857D01*
X141654714Y-81846857D01*
X141483285Y-81904000D01*
X141369000Y-82018285D01*
X141311857Y-82132571D01*
X141254714Y-82361142D01*
X141254714Y-82532571D01*
X141311857Y-82761142D01*
X141369000Y-82875428D01*
X141483285Y-82989714D01*
X141654714Y-83046857D01*
X141940428Y-83046857D01*
X140854714Y-81846857D02*
X140054714Y-81846857D01*
X140569000Y-83046857D01*
X139597571Y-82418285D02*
X138683285Y-82418285D01*
X138683285Y-82761142D02*
X139597571Y-82761142D01*
X138111857Y-81846857D02*
X138111857Y-82818285D01*
X138054714Y-82932571D01*
X137997571Y-82989714D01*
X137883285Y-83046857D01*
X137654714Y-83046857D01*
X137540428Y-82989714D01*
X137483285Y-82932571D01*
X137426142Y-82818285D01*
X137426142Y-81846857D01*
X136969000Y-81846857D02*
X136226142Y-81846857D01*
X136626142Y-82304000D01*
X136454714Y-82304000D01*
X136340428Y-82361142D01*
X136283285Y-82418285D01*
X136226142Y-82532571D01*
X136226142Y-82818285D01*
X136283285Y-82932571D01*
X136340428Y-82989714D01*
X136454714Y-83046857D01*
X136797571Y-83046857D01*
X136911857Y-82989714D01*
X136969000Y-82932571D01*
X134797571Y-83046857D02*
X134797571Y-81846857D01*
X134340428Y-81846857D01*
X134226142Y-81904000D01*
X134169000Y-81961142D01*
X134111857Y-82075428D01*
X134111857Y-82246857D01*
X134169000Y-82361142D01*
X134226142Y-82418285D01*
X134340428Y-82475428D01*
X134797571Y-82475428D01*
X133597571Y-83046857D02*
X133597571Y-82246857D01*
X133597571Y-81846857D02*
X133654714Y-81904000D01*
X133597571Y-81961142D01*
X133540428Y-81904000D01*
X133597571Y-81846857D01*
X133597571Y-81961142D01*
X133026142Y-82246857D02*
X133026142Y-83046857D01*
X133026142Y-82361142D02*
X132969000Y-82304000D01*
X132854714Y-82246857D01*
X132683285Y-82246857D01*
X132569000Y-82304000D01*
X132511857Y-82418285D01*
X132511857Y-83046857D01*
X131311857Y-83046857D02*
X131997571Y-83046857D01*
X131654714Y-83046857D02*
X131654714Y-81846857D01*
X131769000Y-82018285D01*
X131883285Y-82132571D01*
X131997571Y-82189714D01*
X130854714Y-81961142D02*
X130797571Y-81904000D01*
X130683285Y-81846857D01*
X130397571Y-81846857D01*
X130283285Y-81904000D01*
X130226142Y-81961142D01*
X130169000Y-82075428D01*
X130169000Y-82189714D01*
X130226142Y-82361142D01*
X130911857Y-83046857D01*
X130169000Y-83046857D01*
X147083285Y-84978857D02*
X147083285Y-83778857D01*
X146797571Y-83778857D01*
X146626142Y-83836000D01*
X146511857Y-83950285D01*
X146454714Y-84064571D01*
X146397571Y-84293142D01*
X146397571Y-84464571D01*
X146454714Y-84693142D01*
X146511857Y-84807428D01*
X146626142Y-84921714D01*
X146797571Y-84978857D01*
X147083285Y-84978857D01*
X145654714Y-83778857D02*
X145426142Y-83778857D01*
X145311857Y-83836000D01*
X145197571Y-83950285D01*
X145140428Y-84178857D01*
X145140428Y-84578857D01*
X145197571Y-84807428D01*
X145311857Y-84921714D01*
X145426142Y-84978857D01*
X145654714Y-84978857D01*
X145769000Y-84921714D01*
X145883285Y-84807428D01*
X145940428Y-84578857D01*
X145940428Y-84178857D01*
X145883285Y-83950285D01*
X145769000Y-83836000D01*
X145654714Y-83778857D01*
X144797571Y-83778857D02*
X144111857Y-83778857D01*
X144454714Y-84978857D02*
X144454714Y-83778857D01*
X142969000Y-83778857D02*
X142283285Y-83778857D01*
X142626142Y-84978857D02*
X142626142Y-83778857D01*
X141711857Y-84978857D02*
X141826142Y-84921714D01*
X141883285Y-84864571D01*
X141940428Y-84750285D01*
X141940428Y-84407428D01*
X141883285Y-84293142D01*
X141826142Y-84236000D01*
X141711857Y-84178857D01*
X141540428Y-84178857D01*
X141426142Y-84236000D01*
X141369000Y-84293142D01*
X141311857Y-84407428D01*
X141311857Y-84750285D01*
X141369000Y-84864571D01*
X141426142Y-84921714D01*
X141540428Y-84978857D01*
X141711857Y-84978857D01*
X139197571Y-84864571D02*
X139254714Y-84921714D01*
X139426142Y-84978857D01*
X139540428Y-84978857D01*
X139711857Y-84921714D01*
X139826142Y-84807428D01*
X139883285Y-84693142D01*
X139940428Y-84464571D01*
X139940428Y-84293142D01*
X139883285Y-84064571D01*
X139826142Y-83950285D01*
X139711857Y-83836000D01*
X139540428Y-83778857D01*
X139426142Y-83778857D01*
X139254714Y-83836000D01*
X139197571Y-83893142D01*
X138169000Y-84978857D02*
X138169000Y-84350285D01*
X138226142Y-84236000D01*
X138340428Y-84178857D01*
X138569000Y-84178857D01*
X138683285Y-84236000D01*
X138169000Y-84921714D02*
X138283285Y-84978857D01*
X138569000Y-84978857D01*
X138683285Y-84921714D01*
X138740428Y-84807428D01*
X138740428Y-84693142D01*
X138683285Y-84578857D01*
X138569000Y-84521714D01*
X138283285Y-84521714D01*
X138169000Y-84464571D01*
X137597571Y-84978857D02*
X137597571Y-84178857D01*
X137597571Y-84407428D02*
X137540428Y-84293142D01*
X137483285Y-84236000D01*
X137369000Y-84178857D01*
X137254714Y-84178857D01*
X137026142Y-84178857D02*
X136569000Y-84178857D01*
X136854714Y-83778857D02*
X136854714Y-84807428D01*
X136797571Y-84921714D01*
X136683285Y-84978857D01*
X136569000Y-84978857D01*
X135254714Y-84978857D02*
X135254714Y-83778857D01*
X134797571Y-83778857D01*
X134683285Y-83836000D01*
X134626142Y-83893142D01*
X134569000Y-84007428D01*
X134569000Y-84178857D01*
X134626142Y-84293142D01*
X134683285Y-84350285D01*
X134797571Y-84407428D01*
X135254714Y-84407428D01*
X134054714Y-84978857D02*
X134054714Y-84178857D01*
X134054714Y-83778857D02*
X134111857Y-83836000D01*
X134054714Y-83893142D01*
X133997571Y-83836000D01*
X134054714Y-83778857D01*
X134054714Y-83893142D01*
X133483285Y-84178857D02*
X133483285Y-84978857D01*
X133483285Y-84293142D02*
X133426142Y-84236000D01*
X133311857Y-84178857D01*
X133140428Y-84178857D01*
X133026142Y-84236000D01*
X132969000Y-84350285D01*
X132969000Y-84978857D01*
X130969000Y-83778857D02*
X131197571Y-83778857D01*
X131311857Y-83836000D01*
X131369000Y-83893142D01*
X131483285Y-84064571D01*
X131540428Y-84293142D01*
X131540428Y-84750285D01*
X131483285Y-84864571D01*
X131426142Y-84921714D01*
X131311857Y-84978857D01*
X131083285Y-84978857D01*
X130969000Y-84921714D01*
X130911857Y-84864571D01*
X130854714Y-84750285D01*
X130854714Y-84464571D01*
X130911857Y-84350285D01*
X130969000Y-84293142D01*
X131083285Y-84236000D01*
X131311857Y-84236000D01*
X131426142Y-84293142D01*
X131483285Y-84350285D01*
X131540428Y-84464571D01*
X147369000Y-85372000D02*
X146797571Y-85372000D01*
X147083285Y-86910857D02*
X147083285Y-85710857D01*
X146797571Y-85372000D02*
X145597571Y-85372000D01*
X145826142Y-86910857D02*
X146226142Y-86339428D01*
X146511857Y-86910857D02*
X146511857Y-85710857D01*
X146054714Y-85710857D01*
X145940428Y-85768000D01*
X145883285Y-85825142D01*
X145826142Y-85939428D01*
X145826142Y-86110857D01*
X145883285Y-86225142D01*
X145940428Y-86282285D01*
X146054714Y-86339428D01*
X146511857Y-86339428D01*
X145597571Y-85372000D02*
X144340428Y-85372000D01*
X144511857Y-87025142D02*
X144626142Y-86968000D01*
X144740428Y-86853714D01*
X144911857Y-86682285D01*
X145026142Y-86625142D01*
X145140428Y-86625142D01*
X145083285Y-86910857D02*
X145197571Y-86853714D01*
X145311857Y-86739428D01*
X145369000Y-86510857D01*
X145369000Y-86110857D01*
X145311857Y-85882285D01*
X145197571Y-85768000D01*
X145083285Y-85710857D01*
X144854714Y-85710857D01*
X144740428Y-85768000D01*
X144626142Y-85882285D01*
X144569000Y-86110857D01*
X144569000Y-86510857D01*
X144626142Y-86739428D01*
X144740428Y-86853714D01*
X144854714Y-86910857D01*
X145083285Y-86910857D01*
X143311857Y-86110857D02*
X142854714Y-86110857D01*
X143140428Y-85710857D02*
X143140428Y-86739428D01*
X143083285Y-86853714D01*
X142969000Y-86910857D01*
X142854714Y-86910857D01*
X142283285Y-86910857D02*
X142397571Y-86853714D01*
X142454714Y-86796571D01*
X142511857Y-86682285D01*
X142511857Y-86339428D01*
X142454714Y-86225142D01*
X142397571Y-86168000D01*
X142283285Y-86110857D01*
X142111857Y-86110857D01*
X141997571Y-86168000D01*
X141940428Y-86225142D01*
X141883285Y-86339428D01*
X141883285Y-86682285D01*
X141940428Y-86796571D01*
X141997571Y-86853714D01*
X142111857Y-86910857D01*
X142283285Y-86910857D01*
X139769000Y-86796571D02*
X139826142Y-86853714D01*
X139997571Y-86910857D01*
X140111857Y-86910857D01*
X140283285Y-86853714D01*
X140397571Y-86739428D01*
X140454714Y-86625142D01*
X140511857Y-86396571D01*
X140511857Y-86225142D01*
X140454714Y-85996571D01*
X140397571Y-85882285D01*
X140283285Y-85768000D01*
X140111857Y-85710857D01*
X139997571Y-85710857D01*
X139826142Y-85768000D01*
X139769000Y-85825142D01*
X138740428Y-86910857D02*
X138740428Y-86282285D01*
X138797571Y-86168000D01*
X138911857Y-86110857D01*
X139140428Y-86110857D01*
X139254714Y-86168000D01*
X138740428Y-86853714D02*
X138854714Y-86910857D01*
X139140428Y-86910857D01*
X139254714Y-86853714D01*
X139311857Y-86739428D01*
X139311857Y-86625142D01*
X139254714Y-86510857D01*
X139140428Y-86453714D01*
X138854714Y-86453714D01*
X138740428Y-86396571D01*
X138169000Y-86910857D02*
X138169000Y-86110857D01*
X138169000Y-86339428D02*
X138111857Y-86225142D01*
X138054714Y-86168000D01*
X137940428Y-86110857D01*
X137826142Y-86110857D01*
X137597571Y-86110857D02*
X137140428Y-86110857D01*
X137426142Y-85710857D02*
X137426142Y-86739428D01*
X137369000Y-86853714D01*
X137254714Y-86910857D01*
X137140428Y-86910857D01*
X135311857Y-86110857D02*
X135311857Y-86910857D01*
X135597571Y-85653714D02*
X135883285Y-86510857D01*
X135140428Y-86510857D01*
X133940428Y-86110857D02*
X133483285Y-86110857D01*
X133769000Y-86910857D02*
X133769000Y-85882285D01*
X133711857Y-85768000D01*
X133597571Y-85710857D01*
X133483285Y-85710857D01*
X132911857Y-86910857D02*
X133026142Y-86853714D01*
X133083285Y-86796571D01*
X133140428Y-86682285D01*
X133140428Y-86339428D01*
X133083285Y-86225142D01*
X133026142Y-86168000D01*
X132911857Y-86110857D01*
X132740428Y-86110857D01*
X132626142Y-86168000D01*
X132569000Y-86225142D01*
X132511857Y-86339428D01*
X132511857Y-86682285D01*
X132569000Y-86796571D01*
X132626142Y-86853714D01*
X132740428Y-86910857D01*
X132911857Y-86910857D01*
X131997571Y-86910857D02*
X131997571Y-86110857D01*
X131997571Y-86339428D02*
X131940428Y-86225142D01*
X131883285Y-86168000D01*
X131769000Y-86110857D01*
X131654714Y-86110857D01*
X130340428Y-86910857D02*
X130340428Y-85710857D01*
X129083285Y-86910857D02*
X129483285Y-86339428D01*
X129769000Y-86910857D02*
X129769000Y-85710857D01*
X129311857Y-85710857D01*
X129197571Y-85768000D01*
X129140428Y-85825142D01*
X129083285Y-85939428D01*
X129083285Y-86110857D01*
X129140428Y-86225142D01*
X129197571Y-86282285D01*
X129311857Y-86339428D01*
X129769000Y-86339428D01*
X127769000Y-87025142D02*
X127883285Y-86968000D01*
X127997571Y-86853714D01*
X128169000Y-86682285D01*
X128283285Y-86625142D01*
X128397571Y-86625142D01*
X128340428Y-86910857D02*
X128454714Y-86853714D01*
X128569000Y-86739428D01*
X128626142Y-86510857D01*
X128626142Y-86110857D01*
X128569000Y-85882285D01*
X128454714Y-85768000D01*
X128340428Y-85710857D01*
X128111857Y-85710857D01*
X127997571Y-85768000D01*
X127883285Y-85882285D01*
X127826142Y-86110857D01*
X127826142Y-86510857D01*
X127883285Y-86739428D01*
X127997571Y-86853714D01*
X128111857Y-86910857D01*
X128340428Y-86910857D01*
X146740428Y-87642857D02*
X146740428Y-88500000D01*
X146797571Y-88671428D01*
X146911857Y-88785714D01*
X147083285Y-88842857D01*
X147197571Y-88842857D01*
X145654714Y-88042857D02*
X145654714Y-88842857D01*
X146169000Y-88042857D02*
X146169000Y-88671428D01*
X146111857Y-88785714D01*
X145997571Y-88842857D01*
X145826142Y-88842857D01*
X145711857Y-88785714D01*
X145654714Y-88728571D01*
X145083285Y-88842857D02*
X145083285Y-88042857D01*
X145083285Y-88157142D02*
X145026142Y-88100000D01*
X144911857Y-88042857D01*
X144740428Y-88042857D01*
X144626142Y-88100000D01*
X144569000Y-88214285D01*
X144569000Y-88842857D01*
X144569000Y-88214285D02*
X144511857Y-88100000D01*
X144397571Y-88042857D01*
X144226142Y-88042857D01*
X144111857Y-88100000D01*
X144054714Y-88214285D01*
X144054714Y-88842857D01*
X143483285Y-88042857D02*
X143483285Y-89242857D01*
X143483285Y-88100000D02*
X143369000Y-88042857D01*
X143140428Y-88042857D01*
X143026142Y-88100000D01*
X142969000Y-88157142D01*
X142911857Y-88271428D01*
X142911857Y-88614285D01*
X142969000Y-88728571D01*
X143026142Y-88785714D01*
X143140428Y-88842857D01*
X143369000Y-88842857D01*
X143483285Y-88785714D01*
X141940428Y-88785714D02*
X142054714Y-88842857D01*
X142283285Y-88842857D01*
X142397571Y-88785714D01*
X142454714Y-88671428D01*
X142454714Y-88214285D01*
X142397571Y-88100000D01*
X142283285Y-88042857D01*
X142054714Y-88042857D01*
X141940428Y-88100000D01*
X141883285Y-88214285D01*
X141883285Y-88328571D01*
X142454714Y-88442857D01*
X141369000Y-88842857D02*
X141369000Y-88042857D01*
X141369000Y-88271428D02*
X141311857Y-88157142D01*
X141254714Y-88100000D01*
X141140428Y-88042857D01*
X141026142Y-88042857D01*
X139311857Y-88214285D02*
X139711857Y-88214285D01*
X139711857Y-88842857D02*
X139711857Y-87642857D01*
X139140428Y-87642857D01*
X138511857Y-88842857D02*
X138626142Y-88785714D01*
X138683285Y-88728571D01*
X138740428Y-88614285D01*
X138740428Y-88271428D01*
X138683285Y-88157142D01*
X138626142Y-88100000D01*
X138511857Y-88042857D01*
X138340428Y-88042857D01*
X138226142Y-88100000D01*
X138169000Y-88157142D01*
X138111857Y-88271428D01*
X138111857Y-88614285D01*
X138169000Y-88728571D01*
X138226142Y-88785714D01*
X138340428Y-88842857D01*
X138511857Y-88842857D01*
X137597571Y-88842857D02*
X137597571Y-88042857D01*
X137597571Y-88271428D02*
X137540428Y-88157142D01*
X137483285Y-88100000D01*
X137369000Y-88042857D01*
X137254714Y-88042857D01*
X136226142Y-87304000D02*
X134969000Y-87304000D01*
X135940428Y-88842857D02*
X135940428Y-87642857D01*
X135254714Y-88842857D01*
X135254714Y-87642857D01*
X134969000Y-87304000D02*
X133597571Y-87304000D01*
X134683285Y-88842857D02*
X134683285Y-87642857D01*
X134283285Y-88500000D01*
X133883285Y-87642857D01*
X133883285Y-88842857D01*
X133597571Y-87304000D02*
X133026142Y-87304000D01*
X133311857Y-88842857D02*
X133311857Y-87642857D01*
X131883285Y-87585714D02*
X132911857Y-89128571D01*
X131768999Y-87304000D02*
X131197571Y-87304000D01*
X131483285Y-88842857D02*
X131483285Y-87642857D01*
X131197571Y-87304000D02*
X129997571Y-87304000D01*
X130226142Y-88842857D02*
X130626142Y-88271428D01*
X130911857Y-88842857D02*
X130911857Y-87642857D01*
X130454714Y-87642857D01*
X130340428Y-87700000D01*
X130283285Y-87757142D01*
X130226142Y-87871428D01*
X130226142Y-88042857D01*
X130283285Y-88157142D01*
X130340428Y-88214285D01*
X130454714Y-88271428D01*
X130911857Y-88271428D01*
X129997571Y-87304000D02*
X128740428Y-87304000D01*
X128911857Y-88957142D02*
X129026142Y-88900000D01*
X129140428Y-88785714D01*
X129311857Y-88614285D01*
X129426142Y-88557142D01*
X129540428Y-88557142D01*
X129483285Y-88842857D02*
X129597571Y-88785714D01*
X129711857Y-88671428D01*
X129768999Y-88442857D01*
X129768999Y-88042857D01*
X129711857Y-87814285D01*
X129597571Y-87700000D01*
X129483285Y-87642857D01*
X129254714Y-87642857D01*
X129140428Y-87700000D01*
X129026142Y-87814285D01*
X128968999Y-88042857D01*
X128968999Y-88442857D01*
X129026142Y-88671428D01*
X129140428Y-88785714D01*
X129254714Y-88842857D01*
X129483285Y-88842857D01*
X129502528Y-124684457D02*
X129436814Y-124487314D01*
X129436814Y-124158742D01*
X129502528Y-124027314D01*
X129568242Y-123961600D01*
X129699671Y-123895885D01*
X129831100Y-123895885D01*
X129962528Y-123961600D01*
X130028242Y-124027314D01*
X130093957Y-124158742D01*
X130159671Y-124421600D01*
X130225385Y-124553028D01*
X130291100Y-124618742D01*
X130422528Y-124684457D01*
X130553957Y-124684457D01*
X130685385Y-124618742D01*
X130751100Y-124553028D01*
X130816814Y-124421600D01*
X130816814Y-124093028D01*
X130751100Y-123895885D01*
X130356814Y-123435885D02*
X129436814Y-123173028D01*
X130093957Y-122910171D01*
X129436814Y-122647314D01*
X130356814Y-122384457D01*
X129436814Y-121858742D02*
X130356814Y-121858742D01*
X130816814Y-121858742D02*
X130751100Y-121924457D01*
X130685385Y-121858742D01*
X130751100Y-121793028D01*
X130816814Y-121858742D01*
X130685385Y-121858742D01*
X130356814Y-121398742D02*
X130356814Y-120873028D01*
X129436814Y-121201600D02*
X130619671Y-121201600D01*
X130751100Y-121135885D01*
X130816814Y-121004457D01*
X130816814Y-120873028D01*
X130356814Y-120610171D02*
X130356814Y-120084457D01*
X130816814Y-120413028D02*
X129633957Y-120413028D01*
X129502528Y-120347314D01*
X129436814Y-120215885D01*
X129436814Y-120084457D01*
X129962528Y-119624457D02*
X129962528Y-118573028D01*
X129436814Y-117258742D02*
X129436814Y-117915885D01*
X130816814Y-117915885D01*
X129568242Y-116798742D02*
X129502528Y-116733028D01*
X129436814Y-116798742D01*
X129502528Y-116864457D01*
X129568242Y-116798742D01*
X129436814Y-116798742D01*
X130356814Y-115221600D02*
X129436814Y-114893028D01*
X130356814Y-114564457D01*
X129436814Y-113315885D02*
X129436814Y-114104457D01*
X129436814Y-113710171D02*
X130816814Y-113710171D01*
X130619671Y-113841600D01*
X130488242Y-113973028D01*
X130422528Y-114104457D01*
X129568242Y-112724457D02*
X129502528Y-112658742D01*
X129436814Y-112724457D01*
X129502528Y-112790171D01*
X129568242Y-112724457D01*
X129436814Y-112724457D01*
X130356814Y-111475885D02*
X129436814Y-111475885D01*
X130882528Y-111804457D02*
X129896814Y-112133028D01*
X129896814Y-111278742D01*
X127215014Y-145647314D02*
X128595014Y-145647314D01*
X128135014Y-144990171D02*
X127215014Y-144990171D01*
X128003585Y-144990171D02*
X128069300Y-144924457D01*
X128135014Y-144793028D01*
X128135014Y-144595885D01*
X128069300Y-144464457D01*
X127937871Y-144398742D01*
X127215014Y-144398742D01*
X128135014Y-143938742D02*
X128135014Y-143413028D01*
X128595014Y-143741600D02*
X127412157Y-143741600D01*
X127280728Y-143675885D01*
X127215014Y-143544457D01*
X127215014Y-143413028D01*
X127280728Y-142427314D02*
X127215014Y-142558742D01*
X127215014Y-142821600D01*
X127280728Y-142953028D01*
X127412157Y-143018742D01*
X127937871Y-143018742D01*
X128069300Y-142953028D01*
X128135014Y-142821600D01*
X128135014Y-142558742D01*
X128069300Y-142427314D01*
X127937871Y-142361600D01*
X127806442Y-142361600D01*
X127675014Y-143018742D01*
X127215014Y-141770171D02*
X128135014Y-141770171D01*
X127872157Y-141770171D02*
X128003585Y-141704457D01*
X128069300Y-141638742D01*
X128135014Y-141507314D01*
X128135014Y-141375885D01*
X128135014Y-140915885D02*
X127215014Y-140915885D01*
X128003585Y-140915885D02*
X128069300Y-140850171D01*
X128135014Y-140718742D01*
X128135014Y-140521600D01*
X128069300Y-140390171D01*
X127937871Y-140324457D01*
X127215014Y-140324457D01*
X127215014Y-139075885D02*
X127937871Y-139075885D01*
X128069300Y-139141600D01*
X128135014Y-139273028D01*
X128135014Y-139535885D01*
X128069300Y-139667314D01*
X127280728Y-139075885D02*
X127215014Y-139207314D01*
X127215014Y-139535885D01*
X127280728Y-139667314D01*
X127412157Y-139733028D01*
X127543585Y-139733028D01*
X127675014Y-139667314D01*
X127740728Y-139535885D01*
X127740728Y-139207314D01*
X127806442Y-139075885D01*
X127215014Y-138221600D02*
X127280728Y-138353028D01*
X127412157Y-138418742D01*
X128595014Y-138418742D01*
X127280728Y-136710171D02*
X127215014Y-136513028D01*
X127215014Y-136184457D01*
X127280728Y-136053028D01*
X127346442Y-135987314D01*
X127477871Y-135921600D01*
X127609300Y-135921600D01*
X127740728Y-135987314D01*
X127806442Y-136053028D01*
X127872157Y-136184457D01*
X127937871Y-136447314D01*
X128003585Y-136578742D01*
X128069300Y-136644457D01*
X128200728Y-136710171D01*
X128332157Y-136710171D01*
X128463585Y-136644457D01*
X128529300Y-136578742D01*
X128595014Y-136447314D01*
X128595014Y-136118742D01*
X128529300Y-135921600D01*
X128135014Y-135461600D02*
X127215014Y-135198742D01*
X127872157Y-134935885D01*
X127215014Y-134673028D01*
X128135014Y-134410171D01*
X127215014Y-133884457D02*
X128135014Y-133884457D01*
X128595014Y-133884457D02*
X128529300Y-133950171D01*
X128463585Y-133884457D01*
X128529300Y-133818742D01*
X128595014Y-133884457D01*
X128463585Y-133884457D01*
X128135014Y-133424457D02*
X128135014Y-132898742D01*
X127215014Y-133227314D02*
X128397871Y-133227314D01*
X128529300Y-133161600D01*
X128595014Y-133030171D01*
X128595014Y-132898742D01*
X128135014Y-132635885D02*
X128135014Y-132110171D01*
X128595014Y-132438742D02*
X127412157Y-132438742D01*
X127280728Y-132373028D01*
X127215014Y-132241600D01*
X127215014Y-132110171D01*
X127215014Y-131453028D02*
X127280728Y-131584457D01*
X127412157Y-131650171D01*
X128595014Y-131650171D01*
X127215014Y-130927314D02*
X128135014Y-130927314D01*
X128595014Y-130927314D02*
X128529300Y-130993028D01*
X128463585Y-130927314D01*
X128529300Y-130861600D01*
X128595014Y-130927314D01*
X128463585Y-130927314D01*
X128135014Y-130270171D02*
X127215014Y-130270171D01*
X128003585Y-130270171D02*
X128069300Y-130204457D01*
X128135014Y-130073028D01*
X128135014Y-129875885D01*
X128069300Y-129744457D01*
X127937871Y-129678742D01*
X127215014Y-129678742D01*
X127215014Y-129021600D02*
X128595014Y-129021600D01*
X127740728Y-128890171D02*
X127215014Y-128495885D01*
X128135014Y-128495885D02*
X127609300Y-129021600D01*
X127346442Y-126064457D02*
X127280728Y-126130171D01*
X127215014Y-126327314D01*
X127215014Y-126458742D01*
X127280728Y-126655885D01*
X127412157Y-126787314D01*
X127543585Y-126853028D01*
X127806442Y-126918742D01*
X128003585Y-126918742D01*
X128266442Y-126853028D01*
X128397871Y-126787314D01*
X128529300Y-126655885D01*
X128595014Y-126458742D01*
X128595014Y-126327314D01*
X128529300Y-126130171D01*
X128463585Y-126064457D01*
X127215014Y-125275885D02*
X127280728Y-125407314D01*
X127412157Y-125473028D01*
X128595014Y-125473028D01*
X127215014Y-124553028D02*
X127280728Y-124684457D01*
X127346442Y-124750171D01*
X127477871Y-124815885D01*
X127872157Y-124815885D01*
X128003585Y-124750171D01*
X128069300Y-124684457D01*
X128135014Y-124553028D01*
X128135014Y-124355885D01*
X128069300Y-124224457D01*
X128003585Y-124158742D01*
X127872157Y-124093028D01*
X127477871Y-124093028D01*
X127346442Y-124158742D01*
X127280728Y-124224457D01*
X127215014Y-124355885D01*
X127215014Y-124553028D01*
X128135014Y-123501600D02*
X127215014Y-123501600D01*
X128003585Y-123501600D02*
X128069300Y-123435885D01*
X128135014Y-123304457D01*
X128135014Y-123107314D01*
X128069300Y-122975885D01*
X127937871Y-122910171D01*
X127215014Y-122910171D01*
X127280728Y-121727314D02*
X127215014Y-121858742D01*
X127215014Y-122121600D01*
X127280728Y-122253028D01*
X127412157Y-122318742D01*
X127937871Y-122318742D01*
X128069300Y-122253028D01*
X128135014Y-122121600D01*
X128135014Y-121858742D01*
X128069300Y-121727314D01*
X127937871Y-121661600D01*
X127806442Y-121661600D01*
X127675014Y-122318742D01*
X128135014Y-120215885D02*
X128135014Y-119690171D01*
X127215014Y-120018742D02*
X128397871Y-120018742D01*
X128529300Y-119953028D01*
X128595014Y-119821600D01*
X128595014Y-119690171D01*
X127215014Y-119033028D02*
X127280728Y-119164457D01*
X127346442Y-119230171D01*
X127477871Y-119295885D01*
X127872157Y-119295885D01*
X128003585Y-119230171D01*
X128069300Y-119164457D01*
X128135014Y-119033028D01*
X128135014Y-118835885D01*
X128069300Y-118704457D01*
X128003585Y-118638742D01*
X127872157Y-118573028D01*
X127477871Y-118573028D01*
X127346442Y-118638742D01*
X127280728Y-118704457D01*
X127215014Y-118835885D01*
X127215014Y-119033028D01*
X127215014Y-117981600D02*
X128135014Y-117981600D01*
X127872157Y-117981600D02*
X128003585Y-117915885D01*
X128069300Y-117850171D01*
X128135014Y-117718742D01*
X128135014Y-117587314D01*
X127346442Y-115287314D02*
X127280728Y-115353028D01*
X127215014Y-115550171D01*
X127215014Y-115681600D01*
X127280728Y-115878742D01*
X127412157Y-116010171D01*
X127543585Y-116075885D01*
X127806442Y-116141600D01*
X128003585Y-116141600D01*
X128266442Y-116075885D01*
X128397871Y-116010171D01*
X128529300Y-115878742D01*
X128595014Y-115681600D01*
X128595014Y-115550171D01*
X128529300Y-115353028D01*
X128463585Y-115287314D01*
X127215014Y-113973028D02*
X127215014Y-114761600D01*
X127215014Y-114367314D02*
X128595014Y-114367314D01*
X128397871Y-114498742D01*
X128266442Y-114630171D01*
X128200728Y-114761600D01*
X128463585Y-113447314D02*
X128529300Y-113381600D01*
X128595014Y-113250171D01*
X128595014Y-112921600D01*
X128529300Y-112790171D01*
X128463585Y-112724457D01*
X128332157Y-112658742D01*
X128200728Y-112658742D01*
X128003585Y-112724457D01*
X127215014Y-113513028D01*
X127215014Y-112658742D01*
X128003585Y-111870171D02*
X128069300Y-112001600D01*
X128135014Y-112067314D01*
X128266442Y-112133028D01*
X128332157Y-112133028D01*
X128463585Y-112067314D01*
X128529300Y-112001600D01*
X128595014Y-111870171D01*
X128595014Y-111607314D01*
X128529300Y-111475885D01*
X128463585Y-111410171D01*
X128332157Y-111344457D01*
X128266442Y-111344457D01*
X128135014Y-111410171D01*
X128069300Y-111475885D01*
X128003585Y-111607314D01*
X128003585Y-111870171D01*
X127937871Y-112001600D01*
X127872157Y-112067314D01*
X127740728Y-112133028D01*
X127477871Y-112133028D01*
X127346442Y-112067314D01*
X127280728Y-112001600D01*
X127215014Y-111870171D01*
X127215014Y-111607314D01*
X127280728Y-111475885D01*
X127346442Y-111410171D01*
X127477871Y-111344457D01*
X127740728Y-111344457D01*
X127872157Y-111410171D01*
X127937871Y-111475885D01*
X128003585Y-111607314D01*
X124993214Y-139273028D02*
X126373214Y-139273028D01*
X125058928Y-139273028D02*
X124993214Y-139404457D01*
X124993214Y-139667314D01*
X125058928Y-139798742D01*
X125124642Y-139864457D01*
X125256071Y-139930171D01*
X125650357Y-139930171D01*
X125781785Y-139864457D01*
X125847500Y-139798742D01*
X125913214Y-139667314D01*
X125913214Y-139404457D01*
X125847500Y-139273028D01*
X124993214Y-138024457D02*
X125716071Y-138024457D01*
X125847500Y-138090171D01*
X125913214Y-138221600D01*
X125913214Y-138484457D01*
X125847500Y-138615885D01*
X125058928Y-138024457D02*
X124993214Y-138155885D01*
X124993214Y-138484457D01*
X125058928Y-138615885D01*
X125190357Y-138681600D01*
X125321785Y-138681600D01*
X125453214Y-138615885D01*
X125518928Y-138484457D01*
X125518928Y-138155885D01*
X125584642Y-138024457D01*
X124993214Y-137367314D02*
X126373214Y-137367314D01*
X125847500Y-137367314D02*
X125913214Y-137235885D01*
X125913214Y-136973028D01*
X125847500Y-136841600D01*
X125781785Y-136775885D01*
X125650357Y-136710171D01*
X125256071Y-136710171D01*
X125124642Y-136775885D01*
X125058928Y-136841600D01*
X124993214Y-136973028D01*
X124993214Y-137235885D01*
X125058928Y-137367314D01*
X124993214Y-135921600D02*
X125058928Y-136053028D01*
X125124642Y-136118742D01*
X125256071Y-136184457D01*
X125650357Y-136184457D01*
X125781785Y-136118742D01*
X125847500Y-136053028D01*
X125913214Y-135921600D01*
X125913214Y-135724457D01*
X125847500Y-135593028D01*
X125781785Y-135527314D01*
X125650357Y-135461600D01*
X125256071Y-135461600D01*
X125124642Y-135527314D01*
X125058928Y-135593028D01*
X124993214Y-135724457D01*
X124993214Y-135921600D01*
X125913214Y-134870171D02*
X124993214Y-134870171D01*
X125781785Y-134870171D02*
X125847500Y-134804457D01*
X125913214Y-134673028D01*
X125913214Y-134475885D01*
X125847500Y-134344457D01*
X125716071Y-134278742D01*
X124993214Y-134278742D01*
X125058928Y-133095885D02*
X124993214Y-133227314D01*
X124993214Y-133490171D01*
X125058928Y-133621600D01*
X125190357Y-133687314D01*
X125716071Y-133687314D01*
X125847500Y-133621600D01*
X125913214Y-133490171D01*
X125913214Y-133227314D01*
X125847500Y-133095885D01*
X125716071Y-133030171D01*
X125584642Y-133030171D01*
X125453214Y-133687314D01*
X124467500Y-130993028D02*
X124533214Y-131058742D01*
X124730357Y-131190171D01*
X124861785Y-131255885D01*
X125058928Y-131321600D01*
X125387500Y-131387314D01*
X125650357Y-131387314D01*
X125978928Y-131321600D01*
X126176071Y-131255885D01*
X126307500Y-131190171D01*
X126504642Y-131058742D01*
X126570357Y-130993028D01*
X126241785Y-130533028D02*
X126307500Y-130467314D01*
X126373214Y-130335885D01*
X126373214Y-130007314D01*
X126307500Y-129875885D01*
X126241785Y-129810171D01*
X126110357Y-129744457D01*
X125978928Y-129744457D01*
X125781785Y-129810171D01*
X124993214Y-130598742D01*
X124993214Y-129744457D01*
X126373214Y-128890171D02*
X126373214Y-128758742D01*
X126307500Y-128627314D01*
X126241785Y-128561600D01*
X126110357Y-128495885D01*
X125847500Y-128430171D01*
X125518928Y-128430171D01*
X125256071Y-128495885D01*
X125124642Y-128561600D01*
X125058928Y-128627314D01*
X124993214Y-128758742D01*
X124993214Y-128890171D01*
X125058928Y-129021600D01*
X125124642Y-129087314D01*
X125256071Y-129153028D01*
X125518928Y-129218742D01*
X125847500Y-129218742D01*
X126110357Y-129153028D01*
X126241785Y-129087314D01*
X126307500Y-129021600D01*
X126373214Y-128890171D01*
X126241785Y-127904457D02*
X126307500Y-127838742D01*
X126373214Y-127707314D01*
X126373214Y-127378742D01*
X126307500Y-127247314D01*
X126241785Y-127181600D01*
X126110357Y-127115885D01*
X125978928Y-127115885D01*
X125781785Y-127181600D01*
X124993214Y-127970171D01*
X124993214Y-127115885D01*
X124993214Y-125801600D02*
X124993214Y-126590171D01*
X124993214Y-126195885D02*
X126373214Y-126195885D01*
X126176071Y-126327314D01*
X126044642Y-126458742D01*
X125978928Y-126590171D01*
X124467500Y-125341600D02*
X124533214Y-125275885D01*
X124730357Y-125144457D01*
X124861785Y-125078742D01*
X125058928Y-125013028D01*
X125387500Y-124947314D01*
X125650357Y-124947314D01*
X125978928Y-125013028D01*
X126176071Y-125078742D01*
X126307500Y-125144457D01*
X126504642Y-125275885D01*
X126570357Y-125341600D01*
X125058928Y-124224457D02*
X124993214Y-124224457D01*
X124861785Y-124290171D01*
X124796071Y-124355885D01*
X125913214Y-122713028D02*
X124993214Y-122384457D01*
X125913214Y-122055885D02*
X124993214Y-122384457D01*
X124664642Y-122515885D01*
X124598928Y-122581600D01*
X124533214Y-122713028D01*
X125913214Y-121727314D02*
X125913214Y-121201600D01*
X126373214Y-121530171D02*
X125190357Y-121530171D01*
X125058928Y-121464457D01*
X124993214Y-121333028D01*
X124993214Y-121201600D01*
X124993214Y-120741600D02*
X125913214Y-120741600D01*
X125781785Y-120741600D02*
X125847500Y-120675885D01*
X125913214Y-120544457D01*
X125913214Y-120347314D01*
X125847500Y-120215885D01*
X125716071Y-120150171D01*
X124993214Y-120150171D01*
X125716071Y-120150171D02*
X125847500Y-120084457D01*
X125913214Y-119953028D01*
X125913214Y-119755885D01*
X125847500Y-119624457D01*
X125716071Y-119558742D01*
X124993214Y-119558742D01*
X124467500Y-117455885D02*
X124533214Y-117521600D01*
X124730357Y-117653028D01*
X124861785Y-117718742D01*
X125058928Y-117784457D01*
X125387500Y-117850171D01*
X125650357Y-117850171D01*
X125978928Y-117784457D01*
X126176071Y-117718742D01*
X126307500Y-117653028D01*
X126504642Y-117521600D01*
X126570357Y-117455885D01*
X126241785Y-116995885D02*
X126307500Y-116930171D01*
X126373214Y-116798742D01*
X126373214Y-116470171D01*
X126307500Y-116338742D01*
X126241785Y-116273028D01*
X126110357Y-116207314D01*
X125978928Y-116207314D01*
X125781785Y-116273028D01*
X124993214Y-117061600D01*
X124993214Y-116207314D01*
X126373214Y-115353028D02*
X126373214Y-115221600D01*
X126307500Y-115090171D01*
X126241785Y-115024457D01*
X126110357Y-114958742D01*
X125847500Y-114893028D01*
X125518928Y-114893028D01*
X125256071Y-114958742D01*
X125124642Y-115024457D01*
X125058928Y-115090171D01*
X124993214Y-115221600D01*
X124993214Y-115353028D01*
X125058928Y-115484457D01*
X125124642Y-115550171D01*
X125256071Y-115615885D01*
X125518928Y-115681600D01*
X125847500Y-115681600D01*
X126110357Y-115615885D01*
X126241785Y-115550171D01*
X126307500Y-115484457D01*
X126373214Y-115353028D01*
X126241785Y-114367314D02*
X126307500Y-114301600D01*
X126373214Y-114170171D01*
X126373214Y-113841600D01*
X126307500Y-113710171D01*
X126241785Y-113644457D01*
X126110357Y-113578742D01*
X125978928Y-113578742D01*
X125781785Y-113644457D01*
X124993214Y-114433028D01*
X124993214Y-113578742D01*
X126241785Y-113053028D02*
X126307500Y-112987314D01*
X126373214Y-112855885D01*
X126373214Y-112527314D01*
X126307500Y-112395885D01*
X126241785Y-112330171D01*
X126110357Y-112264457D01*
X125978928Y-112264457D01*
X125781785Y-112330171D01*
X124993214Y-113118742D01*
X124993214Y-112264457D01*
X124467500Y-111804457D02*
X124533214Y-111738742D01*
X124730357Y-111607314D01*
X124861785Y-111541600D01*
X125058928Y-111475885D01*
X125387500Y-111410171D01*
X125650357Y-111410171D01*
X125978928Y-111475885D01*
X126176071Y-111541600D01*
X126307500Y-111607314D01*
X126504642Y-111738742D01*
X126570357Y-111804457D01*
%LPC*%
D11*
X133223000Y-146177000D03*
D12*
X133223000Y-143637000D03*
X133223000Y-141097000D03*
X133223000Y-138557000D03*
X133223000Y-136017000D03*
X133223000Y-133477000D03*
X133223000Y-130937000D03*
X133223000Y-128397000D03*
X133223000Y-125857000D03*
X133223000Y-123317000D03*
X133223000Y-120777000D03*
X133223000Y-118237000D03*
X133223000Y-115697000D03*
X133223000Y-113157000D03*
X133223000Y-110617000D03*
X133223000Y-108077000D03*
X133223000Y-105537000D03*
X133223000Y-102997000D03*
X133223000Y-100457000D03*
X133223000Y-97917000D03*
X117983000Y-97917000D03*
X117983000Y-100457000D03*
X117983000Y-102997000D03*
X117983000Y-105537000D03*
X117983000Y-108077000D03*
X117983000Y-110617000D03*
X117983000Y-113157000D03*
X117983000Y-115697000D03*
X117983000Y-118237000D03*
X117983000Y-120777000D03*
X117983000Y-123317000D03*
X117983000Y-125857000D03*
X117983000Y-128397000D03*
X117983000Y-130937000D03*
X117983000Y-133477000D03*
X117983000Y-136017000D03*
X117983000Y-138557000D03*
X117983000Y-141097000D03*
X117983000Y-143637000D03*
X117983000Y-146177000D03*
D13*
X146700000Y-63500000D03*
D14*
X149240000Y-63500000D03*
X151780000Y-63500000D03*
D15*
X122550000Y-71120000D03*
D16*
X125090000Y-71120000D03*
X127630000Y-71120000D03*
X130170000Y-71120000D03*
X132710000Y-71120000D03*
X135250000Y-71120000D03*
X137790000Y-71120000D03*
X137790000Y-63500000D03*
X135250000Y-63500000D03*
X132710000Y-63500000D03*
X130170000Y-63500000D03*
X127630000Y-63500000D03*
X125090000Y-63500000D03*
X122550000Y-63500000D03*
D15*
X118364000Y-92080000D03*
D16*
X120904000Y-92080000D03*
X123444000Y-92080000D03*
X125984000Y-92080000D03*
X128524000Y-92080000D03*
X131064000Y-92080000D03*
X133604000Y-92080000D03*
X136144000Y-92080000D03*
X138684000Y-92080000D03*
X141224000Y-92080000D03*
X143764000Y-92080000D03*
X146304000Y-92080000D03*
X148844000Y-92080000D03*
X151384000Y-92080000D03*
X151384000Y-76840000D03*
X148844000Y-76840000D03*
X146304000Y-76840000D03*
X143764000Y-76840000D03*
X141224000Y-76840000D03*
X138684000Y-76840000D03*
X136144000Y-76840000D03*
X133604000Y-76840000D03*
X131064000Y-76840000D03*
X128524000Y-76840000D03*
X125984000Y-76840000D03*
X123444000Y-76840000D03*
X120904000Y-76840000D03*
X118364000Y-76840000D03*
D11*
X136144000Y-146177000D03*
D12*
X136144000Y-143637000D03*
X136144000Y-141097000D03*
X136144000Y-138557000D03*
X136144000Y-136017000D03*
X136144000Y-133477000D03*
X136144000Y-130937000D03*
X136144000Y-128397000D03*
X136144000Y-125857000D03*
X136144000Y-123317000D03*
X136144000Y-120777000D03*
X136144000Y-118237000D03*
X136144000Y-115697000D03*
X136144000Y-113157000D03*
X136144000Y-110617000D03*
X136144000Y-108077000D03*
X136144000Y-105537000D03*
X136144000Y-102997000D03*
X136144000Y-100457000D03*
X136144000Y-97917000D03*
X120904000Y-97917000D03*
X120904000Y-100457000D03*
X120904000Y-102997000D03*
X120904000Y-105537000D03*
X120904000Y-108077000D03*
X120904000Y-110617000D03*
X120904000Y-113157000D03*
X120904000Y-115697000D03*
X120904000Y-118237000D03*
X120904000Y-120777000D03*
X120904000Y-123317000D03*
X120904000Y-125857000D03*
X120904000Y-128397000D03*
X120904000Y-130937000D03*
X120904000Y-133477000D03*
X120904000Y-136017000D03*
X120904000Y-138557000D03*
X120904000Y-141097000D03*
X120904000Y-143637000D03*
X120904000Y-146177000D03*
D17*
X160655000Y-67564000D03*
X160655000Y-70104000D03*
X160655000Y-72644000D03*
X160655000Y-75184000D03*
X160655000Y-77724000D03*
X160655000Y-80264000D03*
X160655000Y-82804000D03*
X160655000Y-85344000D03*
X183515000Y-67564000D03*
X183515000Y-70104000D03*
X183515000Y-72644000D03*
X183515000Y-75184000D03*
X183515000Y-77724000D03*
X183515000Y-80264000D03*
X183515000Y-82804000D03*
X183515000Y-85344000D03*
D18*
X151130000Y-73025000D03*
X151130000Y-67945000D03*
D19*
X155829000Y-80481000D03*
X155829000Y-85361000D03*
D13*
X142875000Y-66045000D03*
D14*
X142875000Y-63505000D03*
D20*
X155575000Y-74930000D03*
D21*
X155575000Y-64770000D03*
D22*
X118110000Y-63500000D03*
X118110000Y-68580000D03*
D13*
X168925000Y-100965000D03*
D14*
X171465000Y-100965000D03*
X174005000Y-100965000D03*
D13*
X146055000Y-102875000D03*
D14*
X146055000Y-100335000D03*
X148595000Y-102875000D03*
X148595000Y-100335000D03*
X151135000Y-102875000D03*
X151135000Y-100335000D03*
X153675000Y-102875000D03*
X153675000Y-100335000D03*
X156215000Y-102875000D03*
X156215000Y-100335000D03*
M02*
