M48
; DRILL file {KiCad (6.0.5)} date Sat Nov 12 18:47:09 2022
; FORMAT={-:-/ absolute / metric / decimal}
; #@! TF.CreationDate,2022-11-12T18:47:09+01:00
; #@! TF.GenerationSoftware,Kicad,Pcbnew,(6.0.5)
; #@! TF.FileFunction,Plated,1,2,PTH
FMAT,2
METRIC
; #@! TA.AperFunction,Plated,PTH,ViaDrill
T1C0.400
; #@! TA.AperFunction,Plated,PTH,ComponentDrill
T2C0.800
; #@! TA.AperFunction,Plated,PTH,ComponentDrill
T3C0.813
; #@! TA.AperFunction,Plated,PTH,ComponentDrill
T4C0.900
; #@! TA.AperFunction,Plated,PTH,ComponentDrill
T5C1.000
%
G90
G05
T1
X59.831Y-87.343
X61.068Y-57.291
X65.471Y-85.323
X76.2Y-82.122
X77.57Y-78.855
X79.904Y-44.443
X81.894Y-78.855
X83.793Y-58.07
X83.884Y-59.428
X84.12Y-94.46
X85.765Y-75.734
X85.958Y-55.831
X86.597Y-56.762
X87.202Y-60.054
X87.694Y-55.668
X88.498Y-52.241
X92.156Y-79.567
X92.405Y-41.493
X92.536Y-88.265
X95.381Y-98.492
X101.591Y-53.874
X101.677Y-92.382
X102.164Y-89.167
X103.015Y-97.078
X110.985Y-87.11
X115.651Y-59.247
X115.651Y-64.135
X115.651Y-71.755
X115.723Y-84.647
X120.266Y-88.581
X121.991Y-91.629
X123.721Y-96.471
T2
X53.975Y-83.185
X53.975Y-90.805
X53.985Y-72.38
X53.985Y-80.0
X56.515Y-83.185
X56.515Y-90.805
X56.525Y-72.38
X56.525Y-80.0
X59.055Y-83.185
X59.055Y-90.805
X59.065Y-72.38
X59.065Y-80.0
X61.595Y-83.185
X61.595Y-90.805
X61.605Y-72.38
X61.605Y-80.0
X64.135Y-83.185
X64.135Y-90.805
X66.675Y-83.185
X66.675Y-90.805
X69.215Y-83.185
X69.215Y-90.805
X73.025Y-80.645
X73.025Y-88.265
X73.025Y-91.44
X73.025Y-95.885
X80.015Y-52.72
X80.015Y-55.26
X80.015Y-57.8
X80.015Y-60.34
X80.015Y-62.88
X80.015Y-65.42
X80.015Y-67.96
X80.015Y-70.5
X80.015Y-73.04
X80.015Y-75.58
X80.015Y-78.12
X80.015Y-80.66
X80.015Y-83.2
X80.015Y-85.74
X80.645Y-91.44
X80.645Y-95.885
X83.82Y-91.44
X83.82Y-95.885
X85.2Y-45.085
X90.08Y-45.085
X91.44Y-91.44
X91.44Y-95.885
X95.255Y-52.72
X95.255Y-55.26
X95.255Y-57.8
X95.255Y-60.34
X95.255Y-62.88
X95.255Y-65.42
X95.255Y-67.96
X95.255Y-70.5
X95.255Y-73.04
X95.255Y-75.58
X95.255Y-78.12
X95.255Y-80.66
X95.255Y-83.2
X95.255Y-85.74
X98.933Y-42.545
X98.933Y-45.085
X98.933Y-47.625
X98.933Y-50.165
X98.933Y-52.705
X98.933Y-55.245
X98.933Y-57.785
X98.933Y-60.325
X98.933Y-62.865
X98.933Y-65.405
X98.933Y-67.945
X98.933Y-70.485
X98.933Y-73.025
X98.933Y-75.565
X98.933Y-78.105
X98.933Y-80.645
X98.933Y-83.185
X98.933Y-85.725
X98.933Y-88.265
X98.933Y-90.805
X109.24Y-42.55
X109.24Y-45.09
X109.24Y-47.63
X109.24Y-50.17
X109.24Y-52.71
X109.24Y-55.25
X109.24Y-57.79
X109.24Y-60.33
X109.24Y-62.87
X109.24Y-65.41
X109.24Y-67.95
X109.24Y-70.49
X109.24Y-73.03
X109.24Y-75.57
X109.24Y-78.11
X109.24Y-80.65
X109.24Y-83.19
X109.24Y-85.73
X109.24Y-88.27
X109.24Y-90.81
X114.173Y-42.545
X114.173Y-45.085
X114.173Y-47.625
X114.173Y-50.165
X114.173Y-52.705
X114.173Y-55.245
X114.173Y-57.785
X114.173Y-60.325
X114.173Y-62.865
X114.173Y-65.405
X114.173Y-67.945
X114.173Y-70.485
X114.173Y-73.025
X114.173Y-75.565
X114.173Y-78.105
X114.173Y-80.645
X114.173Y-83.185
X114.173Y-85.725
X114.173Y-88.265
X114.173Y-90.805
X118.11Y-42.545
X118.11Y-45.085
X118.11Y-47.625
X118.11Y-50.165
X118.11Y-52.705
X118.11Y-55.245
X118.11Y-57.785
X118.11Y-60.325
X118.11Y-62.865
X118.11Y-65.405
X118.11Y-67.945
X118.11Y-70.485
X118.11Y-73.025
X118.11Y-75.565
X118.11Y-78.105
X118.11Y-80.645
X118.11Y-83.185
X118.11Y-85.725
X118.11Y-88.265
X118.11Y-90.805
X124.48Y-42.55
X124.48Y-45.09
X124.48Y-47.63
X124.48Y-50.17
X124.48Y-52.71
X124.48Y-55.25
X124.48Y-57.79
X124.48Y-60.33
X124.48Y-62.87
X124.48Y-65.41
X124.48Y-67.95
X124.48Y-70.49
X124.48Y-73.03
X124.48Y-75.57
X124.48Y-78.11
X124.48Y-80.65
X124.48Y-83.19
X124.48Y-85.73
X124.48Y-88.27
X124.48Y-90.81
X133.35Y-42.545
X133.35Y-45.085
X133.35Y-47.625
X133.35Y-50.165
X133.35Y-52.705
X133.35Y-55.245
X133.35Y-57.785
X133.35Y-60.325
X133.35Y-62.865
X133.35Y-65.405
X133.35Y-67.945
X133.35Y-70.485
X133.35Y-73.025
X133.35Y-75.565
X133.35Y-78.105
X133.35Y-80.645
X133.35Y-83.185
X133.35Y-85.725
X133.35Y-88.265
X133.35Y-90.805
T3
X80.645Y-38.1
X85.725Y-38.1
X89.535Y-38.1
X94.615Y-38.1
T4
X62.23Y-100.33
X64.77Y-100.33
T5
X53.34Y-41.91
X53.34Y-44.45
X53.34Y-46.99
X53.34Y-49.53
X53.34Y-52.07
X53.34Y-54.61
X53.34Y-57.15
X53.34Y-59.69
X67.31Y-74.295
X67.31Y-76.835
X73.02Y-100.325
X73.02Y-102.865
X75.56Y-100.325
X75.56Y-102.865
X76.2Y-41.91
X76.2Y-44.45
X76.2Y-46.99
X76.2Y-49.53
X76.2Y-52.07
X76.2Y-54.61
X76.2Y-57.15
X76.2Y-59.69
X78.1Y-100.325
X78.1Y-102.865
X80.64Y-100.325
X80.64Y-102.865
X83.18Y-100.325
X83.18Y-102.865
X85.72Y-100.325
X85.72Y-102.865
X88.26Y-100.325
X88.26Y-102.865
X90.8Y-100.325
X90.8Y-102.865
X93.34Y-100.325
X93.34Y-102.865
X95.88Y-100.325
X95.88Y-102.865
X98.42Y-100.325
X98.42Y-102.865
X99.695Y-38.1
X100.96Y-100.325
X100.96Y-102.865
X102.235Y-38.1
X103.5Y-100.325
X103.5Y-102.865
X104.775Y-38.1
X104.775Y-95.25
X106.04Y-100.325
X106.04Y-102.865
X107.315Y-95.25
X108.58Y-100.325
X108.58Y-102.865
X109.855Y-95.25
X111.12Y-100.325
X111.12Y-102.865
X111.135Y-38.1
X112.395Y-95.25
X113.66Y-100.325
X113.66Y-102.865
X113.675Y-38.1
X114.935Y-95.25
X116.2Y-100.325
X116.2Y-102.865
X116.215Y-38.1
X117.475Y-95.25
X118.74Y-100.325
X118.74Y-102.865
X118.755Y-38.1
X120.015Y-95.25
X121.28Y-100.325
X121.28Y-102.865
X122.555Y-95.25
X125.105Y-38.1
X127.645Y-38.1
X130.185Y-38.1
X132.725Y-38.1
T0
M30
