G04 #@! TF.GenerationSoftware,KiCad,Pcbnew,(6.0.5)*
G04 #@! TF.CreationDate,2022-11-12T18:47:07+01:00*
G04 #@! TF.ProjectId,Link232-wifi,4c696e6b-3233-4322-9d77-6966692e6b69,rev?*
G04 #@! TF.SameCoordinates,Original*
G04 #@! TF.FileFunction,Soldermask,Bot*
G04 #@! TF.FilePolarity,Negative*
%FSLAX46Y46*%
G04 Gerber Fmt 4.6, Leading zero omitted, Abs format (unit mm)*
G04 Created by KiCad (PCBNEW (6.0.5)) date 2022-11-12 18:47:07*
%MOMM*%
%LPD*%
G01*
G04 APERTURE LIST*
G04 Aperture macros list*
%AMFreePoly0*
4,1,25,0.389919,0.742596,0.402042,0.732242,0.732242,0.402042,0.760749,0.346094,0.762000,0.330200,0.762000,-0.330200,0.742596,-0.389919,0.732242,-0.402042,0.402042,-0.732242,0.346094,-0.760749,0.330200,-0.762000,-0.330200,-0.762000,-0.389919,-0.742596,-0.402042,-0.732242,-0.732242,-0.402042,-0.760749,-0.346094,-0.762000,-0.330200,-0.762000,0.330200,-0.742596,0.389919,-0.732242,0.402042,
-0.402042,0.732242,-0.346094,0.760749,-0.330200,0.762000,0.330200,0.762000,0.389919,0.742596,0.389919,0.742596,$1*%
G04 Aperture macros list end*
%ADD10C,1.600000*%
%ADD11O,1.600000X1.600000*%
%ADD12R,1.700000X1.700000*%
%ADD13O,1.700000X1.700000*%
%ADD14R,1.600000X1.600000*%
%ADD15R,2.400000X1.600000*%
%ADD16O,2.400000X1.600000*%
%ADD17FreePoly0,180.000000*%
%ADD18C,1.500000*%
%ADD19C,2.500000*%
%ADD20R,1.800000X1.800000*%
%ADD21C,1.800000*%
%ADD22C,1.711200*%
G04 APERTURE END LIST*
D10*
X83820000Y-95885000D03*
D11*
X91440000Y-95885000D03*
D12*
X104775000Y-95250000D03*
D13*
X107315000Y-95250000D03*
X109855000Y-95250000D03*
X112395000Y-95250000D03*
X114935000Y-95250000D03*
X117475000Y-95250000D03*
X120015000Y-95250000D03*
X122555000Y-95250000D03*
D14*
X53985000Y-80000000D03*
D11*
X56525000Y-80000000D03*
X59065000Y-80000000D03*
X61605000Y-80000000D03*
X61605000Y-72380000D03*
X59065000Y-72380000D03*
X56525000Y-72380000D03*
X53985000Y-72380000D03*
D10*
X73025000Y-88265000D03*
D11*
X73025000Y-80645000D03*
D10*
X80645000Y-91440000D03*
D11*
X73025000Y-91440000D03*
D12*
X111135000Y-38100000D03*
D13*
X113675000Y-38100000D03*
X116215000Y-38100000D03*
X118755000Y-38100000D03*
D12*
X125105000Y-38100000D03*
D13*
X127645000Y-38100000D03*
X130185000Y-38100000D03*
X132725000Y-38100000D03*
D15*
X98933000Y-42545000D03*
D16*
X98933000Y-45085000D03*
X98933000Y-47625000D03*
X98933000Y-50165000D03*
X98933000Y-52705000D03*
X98933000Y-55245000D03*
X98933000Y-57785000D03*
X98933000Y-60325000D03*
X98933000Y-62865000D03*
X98933000Y-65405000D03*
X98933000Y-67945000D03*
X98933000Y-70485000D03*
X98933000Y-73025000D03*
X98933000Y-75565000D03*
X98933000Y-78105000D03*
X98933000Y-80645000D03*
X98933000Y-83185000D03*
X98933000Y-85725000D03*
X98933000Y-88265000D03*
X98933000Y-90805000D03*
X114173000Y-90805000D03*
X114173000Y-88265000D03*
X114173000Y-85725000D03*
X114173000Y-83185000D03*
X114173000Y-80645000D03*
X114173000Y-78105000D03*
X114173000Y-75565000D03*
X114173000Y-73025000D03*
X114173000Y-70485000D03*
X114173000Y-67945000D03*
X114173000Y-65405000D03*
X114173000Y-62865000D03*
X114173000Y-60325000D03*
X114173000Y-57785000D03*
X114173000Y-55245000D03*
X114173000Y-52705000D03*
X114173000Y-50165000D03*
X114173000Y-47625000D03*
X114173000Y-45085000D03*
X114173000Y-42545000D03*
D15*
X118110000Y-42545000D03*
D16*
X118110000Y-45085000D03*
X118110000Y-47625000D03*
X118110000Y-50165000D03*
X118110000Y-52705000D03*
X118110000Y-55245000D03*
X118110000Y-57785000D03*
X118110000Y-60325000D03*
X118110000Y-62865000D03*
X118110000Y-65405000D03*
X118110000Y-67945000D03*
X118110000Y-70485000D03*
X118110000Y-73025000D03*
X118110000Y-75565000D03*
X118110000Y-78105000D03*
X118110000Y-80645000D03*
X118110000Y-83185000D03*
X118110000Y-85725000D03*
X118110000Y-88265000D03*
X118110000Y-90805000D03*
X133350000Y-90805000D03*
X133350000Y-88265000D03*
X133350000Y-85725000D03*
X133350000Y-83185000D03*
X133350000Y-80645000D03*
X133350000Y-78105000D03*
X133350000Y-75565000D03*
X133350000Y-73025000D03*
X133350000Y-70485000D03*
X133350000Y-67945000D03*
X133350000Y-65405000D03*
X133350000Y-62865000D03*
X133350000Y-60325000D03*
X133350000Y-57785000D03*
X133350000Y-55245000D03*
X133350000Y-52705000D03*
X133350000Y-50165000D03*
X133350000Y-47625000D03*
X133350000Y-45085000D03*
X133350000Y-42545000D03*
D17*
X94615000Y-38100000D03*
X89535000Y-38100000D03*
X85725000Y-38100000D03*
X80645000Y-38100000D03*
D18*
X90080000Y-45085000D03*
X85200000Y-45085000D03*
D15*
X95255000Y-85740000D03*
D16*
X95255000Y-83200000D03*
X95255000Y-80660000D03*
X95255000Y-78120000D03*
X95255000Y-75580000D03*
X95255000Y-73040000D03*
X95255000Y-70500000D03*
X95255000Y-67960000D03*
X95255000Y-65420000D03*
X95255000Y-62880000D03*
X95255000Y-60340000D03*
X95255000Y-57800000D03*
X95255000Y-55260000D03*
X95255000Y-52720000D03*
X80015000Y-52720000D03*
X80015000Y-55260000D03*
X80015000Y-57800000D03*
X80015000Y-60340000D03*
X80015000Y-62880000D03*
X80015000Y-65420000D03*
X80015000Y-67960000D03*
X80015000Y-70500000D03*
X80015000Y-73040000D03*
X80015000Y-75580000D03*
X80015000Y-78120000D03*
X80015000Y-80660000D03*
X80015000Y-83200000D03*
X80015000Y-85740000D03*
D14*
X53975000Y-90805000D03*
D11*
X56515000Y-90805000D03*
X59055000Y-90805000D03*
X61595000Y-90805000D03*
X64135000Y-90805000D03*
X66675000Y-90805000D03*
X69215000Y-90805000D03*
X69215000Y-83185000D03*
X66675000Y-83185000D03*
X64135000Y-83185000D03*
X61595000Y-83185000D03*
X59055000Y-83185000D03*
X56515000Y-83185000D03*
X53975000Y-83185000D03*
D19*
X55880000Y-100330000D03*
X55880000Y-100330000D03*
D10*
X80645000Y-95885000D03*
D11*
X73025000Y-95885000D03*
D10*
X83820000Y-91440000D03*
D11*
X91440000Y-91440000D03*
D20*
X64770000Y-100330000D03*
D21*
X62230000Y-100330000D03*
D22*
X53340000Y-41910000D03*
X53340000Y-44450000D03*
X53340000Y-46990000D03*
X53340000Y-49530000D03*
X53340000Y-52070000D03*
X53340000Y-54610000D03*
X53340000Y-57150000D03*
X53340000Y-59690000D03*
X76200000Y-41910000D03*
X76200000Y-44450000D03*
X76200000Y-46990000D03*
X76200000Y-49530000D03*
X76200000Y-52070000D03*
X76200000Y-54610000D03*
X76200000Y-57150000D03*
X76200000Y-59690000D03*
D12*
X121280000Y-100325000D03*
D13*
X121280000Y-102865000D03*
X118740000Y-100325000D03*
X118740000Y-102865000D03*
X116200000Y-100325000D03*
X116200000Y-102865000D03*
X113660000Y-100325000D03*
X113660000Y-102865000D03*
X111120000Y-100325000D03*
X111120000Y-102865000D03*
X108580000Y-100325000D03*
X108580000Y-102865000D03*
X106040000Y-100325000D03*
X106040000Y-102865000D03*
X103500000Y-100325000D03*
X103500000Y-102865000D03*
X100960000Y-100325000D03*
X100960000Y-102865000D03*
X98420000Y-100325000D03*
X98420000Y-102865000D03*
X95880000Y-100325000D03*
X95880000Y-102865000D03*
X93340000Y-100325000D03*
X93340000Y-102865000D03*
X90800000Y-100325000D03*
X90800000Y-102865000D03*
X88260000Y-100325000D03*
X88260000Y-102865000D03*
X85720000Y-100325000D03*
X85720000Y-102865000D03*
X83180000Y-100325000D03*
X83180000Y-102865000D03*
X80640000Y-100325000D03*
X80640000Y-102865000D03*
X78100000Y-100325000D03*
X78100000Y-102865000D03*
X75560000Y-100325000D03*
X75560000Y-102865000D03*
X73020000Y-100325000D03*
X73020000Y-102865000D03*
D12*
X104775000Y-38100000D03*
D13*
X102235000Y-38100000D03*
X99695000Y-38100000D03*
D19*
X133350000Y-100330000D03*
X133350000Y-100330000D03*
D15*
X109240000Y-42550000D03*
D16*
X109240000Y-45090000D03*
X109240000Y-47630000D03*
X109240000Y-50170000D03*
X109240000Y-52710000D03*
X109240000Y-55250000D03*
X109240000Y-57790000D03*
X109240000Y-60330000D03*
X109240000Y-62870000D03*
X109240000Y-65410000D03*
X109240000Y-67950000D03*
X109240000Y-70490000D03*
X109240000Y-73030000D03*
X109240000Y-75570000D03*
X109240000Y-78110000D03*
X109240000Y-80650000D03*
X109240000Y-83190000D03*
X109240000Y-85730000D03*
X109240000Y-88270000D03*
X109240000Y-90810000D03*
X124480000Y-90810000D03*
X124480000Y-88270000D03*
X124480000Y-85730000D03*
X124480000Y-83190000D03*
X124480000Y-80650000D03*
X124480000Y-78110000D03*
X124480000Y-75570000D03*
X124480000Y-73030000D03*
X124480000Y-70490000D03*
X124480000Y-67950000D03*
X124480000Y-65410000D03*
X124480000Y-62870000D03*
X124480000Y-60330000D03*
X124480000Y-57790000D03*
X124480000Y-55250000D03*
X124480000Y-52710000D03*
X124480000Y-50170000D03*
X124480000Y-47630000D03*
X124480000Y-45090000D03*
X124480000Y-42550000D03*
D12*
X67310000Y-74295000D03*
D13*
X67310000Y-76835000D03*
D19*
X59690000Y-42545000D03*
X59690000Y-42545000D03*
M02*
