%FSLAX45Y45*%
G04 Gerber Fmt 4.5, Leading zero omitted, Abs format (unit mm)*
G04 Created by KiCad (PCBNEW (6.0.5)) date 2022-11-12 18:47:10*
%MOMM*%
%LPD*%
G01*
G04 APERTURE LIST*
%TA.AperFunction,Profile*%
%ADD10C,0.050000*%
%TD*%
%ADD11C,0.200000*%
%ADD12C,0.250000*%
G04 APERTURE END LIST*
D10*
X13779500Y-3556000D02*
X5143500Y-3556000D01*
X5143500Y-3556000D02*
X5143500Y-10541000D01*
X5143500Y-10541000D02*
X13779500Y-10541000D01*
X13779500Y-10541000D02*
X13779500Y-3556000D01*
D11*
D12*
X5463000Y-9908000D02*
X5713000Y-10158000D01*
X5713000Y-9908000D02*
X5463000Y-10158000D01*
X5463000Y-9908000D02*
X5713000Y-10158000D01*
X5713000Y-9908000D02*
X5463000Y-10158000D01*
X5844000Y-4129500D02*
X6094000Y-4379500D01*
X6094000Y-4129500D02*
X5844000Y-4379500D01*
X5844000Y-4129500D02*
X6094000Y-4379500D01*
X6094000Y-4129500D02*
X5844000Y-4379500D01*
X13210000Y-9908000D02*
X13460000Y-10158000D01*
X13460000Y-9908000D02*
X13210000Y-10158000D01*
X13210000Y-9908000D02*
X13460000Y-10158000D01*
X13460000Y-9908000D02*
X13210000Y-10158000D01*
D11*
X5398619Y-10853976D02*
X5398619Y-10653976D01*
X5446238Y-10653976D01*
X5474810Y-10663500D01*
X5493857Y-10682548D01*
X5503381Y-10701595D01*
X5512905Y-10739690D01*
X5512905Y-10768262D01*
X5503381Y-10806357D01*
X5493857Y-10825405D01*
X5474810Y-10844452D01*
X5446238Y-10853976D01*
X5398619Y-10853976D01*
X5598619Y-10853976D02*
X5598619Y-10720643D01*
X5598619Y-10758738D02*
X5608143Y-10739690D01*
X5617667Y-10730167D01*
X5636714Y-10720643D01*
X5655762Y-10720643D01*
X5722428Y-10853976D02*
X5722428Y-10720643D01*
X5722428Y-10653976D02*
X5712905Y-10663500D01*
X5722428Y-10673024D01*
X5731952Y-10663500D01*
X5722428Y-10653976D01*
X5722428Y-10673024D01*
X5846238Y-10853976D02*
X5827190Y-10844452D01*
X5817667Y-10825405D01*
X5817667Y-10653976D01*
X5951000Y-10853976D02*
X5931952Y-10844452D01*
X5922428Y-10825405D01*
X5922428Y-10653976D01*
X6179571Y-10853976D02*
X6179571Y-10653976D01*
X6246238Y-10796833D01*
X6312905Y-10653976D01*
X6312905Y-10853976D01*
X6493857Y-10853976D02*
X6493857Y-10749214D01*
X6484333Y-10730167D01*
X6465286Y-10720643D01*
X6427190Y-10720643D01*
X6408143Y-10730167D01*
X6493857Y-10844452D02*
X6474809Y-10853976D01*
X6427190Y-10853976D01*
X6408143Y-10844452D01*
X6398619Y-10825405D01*
X6398619Y-10806357D01*
X6408143Y-10787310D01*
X6427190Y-10777786D01*
X6474809Y-10777786D01*
X6493857Y-10768262D01*
X6589095Y-10720643D02*
X6589095Y-10920643D01*
X6589095Y-10730167D02*
X6608143Y-10720643D01*
X6646238Y-10720643D01*
X6665286Y-10730167D01*
X6674809Y-10739690D01*
X6684333Y-10758738D01*
X6684333Y-10815881D01*
X6674809Y-10834929D01*
X6665286Y-10844452D01*
X6646238Y-10853976D01*
X6608143Y-10853976D01*
X6589095Y-10844452D01*
X6770048Y-10834929D02*
X6779571Y-10844452D01*
X6770048Y-10853976D01*
X6760524Y-10844452D01*
X6770048Y-10834929D01*
X6770048Y-10853976D01*
X6770048Y-10730167D02*
X6779571Y-10739690D01*
X6770048Y-10749214D01*
X6760524Y-10739690D01*
X6770048Y-10730167D01*
X6770048Y-10749214D01*
X4941000Y-11083500D02*
X5141000Y-11283500D01*
X5141000Y-11083500D02*
X4941000Y-11283500D01*
X5389095Y-11093024D02*
X5398619Y-11083500D01*
X5417667Y-11073976D01*
X5465286Y-11073976D01*
X5484333Y-11083500D01*
X5493857Y-11093024D01*
X5503381Y-11112071D01*
X5503381Y-11131119D01*
X5493857Y-11159690D01*
X5379571Y-11273976D01*
X5503381Y-11273976D01*
X5589095Y-11254928D02*
X5598619Y-11264452D01*
X5589095Y-11273976D01*
X5579571Y-11264452D01*
X5589095Y-11254928D01*
X5589095Y-11273976D01*
X5779571Y-11073976D02*
X5684333Y-11073976D01*
X5674809Y-11169214D01*
X5684333Y-11159690D01*
X5703381Y-11150167D01*
X5751000Y-11150167D01*
X5770048Y-11159690D01*
X5779571Y-11169214D01*
X5789095Y-11188262D01*
X5789095Y-11235881D01*
X5779571Y-11254928D01*
X5770048Y-11264452D01*
X5751000Y-11273976D01*
X5703381Y-11273976D01*
X5684333Y-11264452D01*
X5674809Y-11254928D01*
X5912905Y-11073976D02*
X5931952Y-11073976D01*
X5951000Y-11083500D01*
X5960524Y-11093024D01*
X5970048Y-11112071D01*
X5979571Y-11150167D01*
X5979571Y-11197786D01*
X5970048Y-11235881D01*
X5960524Y-11254928D01*
X5951000Y-11264452D01*
X5931952Y-11273976D01*
X5912905Y-11273976D01*
X5893857Y-11264452D01*
X5884333Y-11254928D01*
X5874809Y-11235881D01*
X5865286Y-11197786D01*
X5865286Y-11150167D01*
X5874809Y-11112071D01*
X5884333Y-11093024D01*
X5893857Y-11083500D01*
X5912905Y-11073976D01*
X6103381Y-11073976D02*
X6122428Y-11073976D01*
X6141476Y-11083500D01*
X6151000Y-11093024D01*
X6160524Y-11112071D01*
X6170048Y-11150167D01*
X6170048Y-11197786D01*
X6160524Y-11235881D01*
X6151000Y-11254928D01*
X6141476Y-11264452D01*
X6122428Y-11273976D01*
X6103381Y-11273976D01*
X6084333Y-11264452D01*
X6074809Y-11254928D01*
X6065286Y-11235881D01*
X6055762Y-11197786D01*
X6055762Y-11150167D01*
X6065286Y-11112071D01*
X6074809Y-11093024D01*
X6084333Y-11083500D01*
X6103381Y-11073976D01*
X6255762Y-11273976D02*
X6255762Y-11140643D01*
X6255762Y-11159690D02*
X6265286Y-11150167D01*
X6284333Y-11140643D01*
X6312905Y-11140643D01*
X6331952Y-11150167D01*
X6341476Y-11169214D01*
X6341476Y-11273976D01*
X6341476Y-11169214D02*
X6351000Y-11150167D01*
X6370048Y-11140643D01*
X6398619Y-11140643D01*
X6417667Y-11150167D01*
X6427190Y-11169214D01*
X6427190Y-11273976D01*
X6522428Y-11273976D02*
X6522428Y-11140643D01*
X6522428Y-11159690D02*
X6531952Y-11150167D01*
X6551000Y-11140643D01*
X6579571Y-11140643D01*
X6598619Y-11150167D01*
X6608143Y-11169214D01*
X6608143Y-11273976D01*
X6608143Y-11169214D02*
X6617667Y-11150167D01*
X6636714Y-11140643D01*
X6665286Y-11140643D01*
X6684333Y-11150167D01*
X6693857Y-11169214D01*
X6693857Y-11273976D01*
X7084333Y-11064452D02*
X6912905Y-11321595D01*
X7341476Y-11073976D02*
X7360524Y-11073976D01*
X7379571Y-11083500D01*
X7389095Y-11093024D01*
X7398619Y-11112071D01*
X7408143Y-11150167D01*
X7408143Y-11197786D01*
X7398619Y-11235881D01*
X7389095Y-11254928D01*
X7379571Y-11264452D01*
X7360524Y-11273976D01*
X7341476Y-11273976D01*
X7322428Y-11264452D01*
X7312905Y-11254928D01*
X7303381Y-11235881D01*
X7293857Y-11197786D01*
X7293857Y-11150167D01*
X7303381Y-11112071D01*
X7312905Y-11093024D01*
X7322428Y-11083500D01*
X7341476Y-11073976D01*
X7493857Y-11254928D02*
X7503381Y-11264452D01*
X7493857Y-11273976D01*
X7484333Y-11264452D01*
X7493857Y-11254928D01*
X7493857Y-11273976D01*
X7627190Y-11073976D02*
X7646238Y-11073976D01*
X7665286Y-11083500D01*
X7674809Y-11093024D01*
X7684333Y-11112071D01*
X7693857Y-11150167D01*
X7693857Y-11197786D01*
X7684333Y-11235881D01*
X7674809Y-11254928D01*
X7665286Y-11264452D01*
X7646238Y-11273976D01*
X7627190Y-11273976D01*
X7608143Y-11264452D01*
X7598619Y-11254928D01*
X7589095Y-11235881D01*
X7579571Y-11197786D01*
X7579571Y-11150167D01*
X7589095Y-11112071D01*
X7598619Y-11093024D01*
X7608143Y-11083500D01*
X7627190Y-11073976D01*
X7789095Y-11273976D02*
X7827190Y-11273976D01*
X7846238Y-11264452D01*
X7855762Y-11254928D01*
X7874809Y-11226357D01*
X7884333Y-11188262D01*
X7884333Y-11112071D01*
X7874809Y-11093024D01*
X7865286Y-11083500D01*
X7846238Y-11073976D01*
X7808143Y-11073976D01*
X7789095Y-11083500D01*
X7779571Y-11093024D01*
X7770048Y-11112071D01*
X7770048Y-11159690D01*
X7779571Y-11178738D01*
X7789095Y-11188262D01*
X7808143Y-11197786D01*
X7846238Y-11197786D01*
X7865286Y-11188262D01*
X7874809Y-11178738D01*
X7884333Y-11159690D01*
X7998619Y-11159690D02*
X7979571Y-11150167D01*
X7970048Y-11140643D01*
X7960524Y-11121595D01*
X7960524Y-11112071D01*
X7970048Y-11093024D01*
X7979571Y-11083500D01*
X7998619Y-11073976D01*
X8036714Y-11073976D01*
X8055762Y-11083500D01*
X8065286Y-11093024D01*
X8074809Y-11112071D01*
X8074809Y-11121595D01*
X8065286Y-11140643D01*
X8055762Y-11150167D01*
X8036714Y-11159690D01*
X7998619Y-11159690D01*
X7979571Y-11169214D01*
X7970048Y-11178738D01*
X7960524Y-11197786D01*
X7960524Y-11235881D01*
X7970048Y-11254928D01*
X7979571Y-11264452D01*
X7998619Y-11273976D01*
X8036714Y-11273976D01*
X8055762Y-11264452D01*
X8065286Y-11254928D01*
X8074809Y-11235881D01*
X8074809Y-11197786D01*
X8065286Y-11178738D01*
X8055762Y-11169214D01*
X8036714Y-11159690D01*
X8246238Y-11140643D02*
X8246238Y-11273976D01*
X8198619Y-11064452D02*
X8151000Y-11207309D01*
X8274809Y-11207309D01*
X8341476Y-11073976D02*
X8341476Y-11112071D01*
X8417667Y-11073976D02*
X8417667Y-11112071D01*
X8712905Y-11350167D02*
X8703381Y-11340643D01*
X8684333Y-11312071D01*
X8674810Y-11293024D01*
X8665286Y-11264452D01*
X8655762Y-11216833D01*
X8655762Y-11178738D01*
X8665286Y-11131119D01*
X8674810Y-11102548D01*
X8684333Y-11083500D01*
X8703381Y-11054929D01*
X8712905Y-11045405D01*
X8874810Y-11073976D02*
X8836714Y-11073976D01*
X8817667Y-11083500D01*
X8808143Y-11093024D01*
X8789095Y-11121595D01*
X8779571Y-11159690D01*
X8779571Y-11235881D01*
X8789095Y-11254928D01*
X8798619Y-11264452D01*
X8817667Y-11273976D01*
X8855762Y-11273976D01*
X8874810Y-11264452D01*
X8884333Y-11254928D01*
X8893857Y-11235881D01*
X8893857Y-11188262D01*
X8884333Y-11169214D01*
X8874810Y-11159690D01*
X8855762Y-11150167D01*
X8817667Y-11150167D01*
X8798619Y-11159690D01*
X8789095Y-11169214D01*
X8779571Y-11188262D01*
X9131952Y-11273976D02*
X9131952Y-11073976D01*
X9217667Y-11273976D02*
X9217667Y-11169214D01*
X9208143Y-11150167D01*
X9189095Y-11140643D01*
X9160524Y-11140643D01*
X9141476Y-11150167D01*
X9131952Y-11159690D01*
X9341476Y-11273976D02*
X9322429Y-11264452D01*
X9312905Y-11254928D01*
X9303381Y-11235881D01*
X9303381Y-11178738D01*
X9312905Y-11159690D01*
X9322429Y-11150167D01*
X9341476Y-11140643D01*
X9370048Y-11140643D01*
X9389095Y-11150167D01*
X9398619Y-11159690D01*
X9408143Y-11178738D01*
X9408143Y-11235881D01*
X9398619Y-11254928D01*
X9389095Y-11264452D01*
X9370048Y-11273976D01*
X9341476Y-11273976D01*
X9522429Y-11273976D02*
X9503381Y-11264452D01*
X9493857Y-11245405D01*
X9493857Y-11073976D01*
X9674810Y-11264452D02*
X9655762Y-11273976D01*
X9617667Y-11273976D01*
X9598619Y-11264452D01*
X9589095Y-11245405D01*
X9589095Y-11169214D01*
X9598619Y-11150167D01*
X9617667Y-11140643D01*
X9655762Y-11140643D01*
X9674810Y-11150167D01*
X9684333Y-11169214D01*
X9684333Y-11188262D01*
X9589095Y-11207309D01*
X9760524Y-11264452D02*
X9779571Y-11273976D01*
X9817667Y-11273976D01*
X9836714Y-11264452D01*
X9846238Y-11245405D01*
X9846238Y-11235881D01*
X9836714Y-11216833D01*
X9817667Y-11207309D01*
X9789095Y-11207309D01*
X9770048Y-11197786D01*
X9760524Y-11178738D01*
X9760524Y-11169214D01*
X9770048Y-11150167D01*
X9789095Y-11140643D01*
X9817667Y-11140643D01*
X9836714Y-11150167D01*
X9912905Y-11350167D02*
X9922429Y-11340643D01*
X9941476Y-11312071D01*
X9951000Y-11293024D01*
X9960524Y-11264452D01*
X9970048Y-11216833D01*
X9970048Y-11178738D01*
X9960524Y-11131119D01*
X9951000Y-11102548D01*
X9941476Y-11083500D01*
X9922429Y-11054929D01*
X9912905Y-11045405D01*
X10274810Y-11350167D02*
X10265286Y-11340643D01*
X10246238Y-11312071D01*
X10236714Y-11293024D01*
X10227190Y-11264452D01*
X10217667Y-11216833D01*
X10217667Y-11178738D01*
X10227190Y-11131119D01*
X10236714Y-11102548D01*
X10246238Y-11083500D01*
X10265286Y-11054929D01*
X10274810Y-11045405D01*
X10351000Y-11140643D02*
X10351000Y-11273976D01*
X10351000Y-11159690D02*
X10360524Y-11150167D01*
X10379571Y-11140643D01*
X10408143Y-11140643D01*
X10427190Y-11150167D01*
X10436714Y-11169214D01*
X10436714Y-11273976D01*
X10560524Y-11273976D02*
X10541476Y-11264452D01*
X10531952Y-11254928D01*
X10522429Y-11235881D01*
X10522429Y-11178738D01*
X10531952Y-11159690D01*
X10541476Y-11150167D01*
X10560524Y-11140643D01*
X10589095Y-11140643D01*
X10608143Y-11150167D01*
X10617667Y-11159690D01*
X10627190Y-11178738D01*
X10627190Y-11235881D01*
X10617667Y-11254928D01*
X10608143Y-11264452D01*
X10589095Y-11273976D01*
X10560524Y-11273976D01*
X10684333Y-11140643D02*
X10760524Y-11140643D01*
X10712905Y-11073976D02*
X10712905Y-11245405D01*
X10722429Y-11264452D01*
X10741476Y-11273976D01*
X10760524Y-11273976D01*
X10979571Y-11140643D02*
X10979571Y-11340643D01*
X10979571Y-11150167D02*
X10998619Y-11140643D01*
X11036714Y-11140643D01*
X11055762Y-11150167D01*
X11065286Y-11159690D01*
X11074810Y-11178738D01*
X11074810Y-11235881D01*
X11065286Y-11254928D01*
X11055762Y-11264452D01*
X11036714Y-11273976D01*
X10998619Y-11273976D01*
X10979571Y-11264452D01*
X11189095Y-11273976D02*
X11170048Y-11264452D01*
X11160524Y-11245405D01*
X11160524Y-11073976D01*
X11351000Y-11273976D02*
X11351000Y-11169214D01*
X11341476Y-11150167D01*
X11322428Y-11140643D01*
X11284333Y-11140643D01*
X11265286Y-11150167D01*
X11351000Y-11264452D02*
X11331952Y-11273976D01*
X11284333Y-11273976D01*
X11265286Y-11264452D01*
X11255762Y-11245405D01*
X11255762Y-11226357D01*
X11265286Y-11207309D01*
X11284333Y-11197786D01*
X11331952Y-11197786D01*
X11351000Y-11188262D01*
X11417667Y-11140643D02*
X11493857Y-11140643D01*
X11446238Y-11073976D02*
X11446238Y-11245405D01*
X11455762Y-11264452D01*
X11474809Y-11273976D01*
X11493857Y-11273976D01*
X11636714Y-11264452D02*
X11617667Y-11273976D01*
X11579571Y-11273976D01*
X11560524Y-11264452D01*
X11551000Y-11245405D01*
X11551000Y-11169214D01*
X11560524Y-11150167D01*
X11579571Y-11140643D01*
X11617667Y-11140643D01*
X11636714Y-11150167D01*
X11646238Y-11169214D01*
X11646238Y-11188262D01*
X11551000Y-11207309D01*
X11817667Y-11273976D02*
X11817667Y-11073976D01*
X11817667Y-11264452D02*
X11798619Y-11273976D01*
X11760524Y-11273976D01*
X11741476Y-11264452D01*
X11731952Y-11254928D01*
X11722428Y-11235881D01*
X11722428Y-11178738D01*
X11731952Y-11159690D01*
X11741476Y-11150167D01*
X11760524Y-11140643D01*
X11798619Y-11140643D01*
X11817667Y-11150167D01*
X11893857Y-11350167D02*
X11903381Y-11340643D01*
X11922428Y-11312071D01*
X11931952Y-11293024D01*
X11941476Y-11264452D01*
X11951000Y-11216833D01*
X11951000Y-11178738D01*
X11941476Y-11131119D01*
X11931952Y-11102548D01*
X11922428Y-11083500D01*
X11903381Y-11054929D01*
X11893857Y-11045405D01*
M02*
